G04 #@! TF.GenerationSoftware,KiCad,Pcbnew,7.0.9*
G04 #@! TF.CreationDate,2023-12-29T14:02:29-03:00*
G04 #@! TF.ProjectId,module,6d6f6475-6c65-42e6-9b69-6361645f7063,v2.2*
G04 #@! TF.SameCoordinates,Original*
G04 #@! TF.FileFunction,Soldermask,Bot*
G04 #@! TF.FilePolarity,Negative*
%FSLAX46Y46*%
G04 Gerber Fmt 4.6, Leading zero omitted, Abs format (unit mm)*
G04 Created by KiCad (PCBNEW 7.0.9) date 2023-12-29 14:02:29*
%MOMM*%
%LPD*%
G01*
G04 APERTURE LIST*
G04 Aperture macros list*
%AMRoundRect*
0 Rectangle with rounded corners*
0 $1 Rounding radius*
0 $2 $3 $4 $5 $6 $7 $8 $9 X,Y pos of 4 corners*
0 Add a 4 corners polygon primitive as box body*
4,1,4,$2,$3,$4,$5,$6,$7,$8,$9,$2,$3,0*
0 Add four circle primitives for the rounded corners*
1,1,$1+$1,$2,$3*
1,1,$1+$1,$4,$5*
1,1,$1+$1,$6,$7*
1,1,$1+$1,$8,$9*
0 Add four rect primitives between the rounded corners*
20,1,$1+$1,$2,$3,$4,$5,0*
20,1,$1+$1,$4,$5,$6,$7,0*
20,1,$1+$1,$6,$7,$8,$9,0*
20,1,$1+$1,$8,$9,$2,$3,0*%
G04 Aperture macros list end*
%ADD10R,2.540000X2.540000*%
%ADD11C,2.540000*%
%ADD12R,1.800000X1.800000*%
%ADD13C,1.800000*%
%ADD14R,2.000000X1.200000*%
%ADD15O,2.000000X1.200000*%
%ADD16C,1.600000*%
%ADD17O,1.600000X1.600000*%
%ADD18R,1.600000X1.600000*%
%ADD19RoundRect,0.250000X0.600000X0.750000X-0.600000X0.750000X-0.600000X-0.750000X0.600000X-0.750000X0*%
%ADD20O,1.700000X2.000000*%
%ADD21RoundRect,0.250000X0.600000X0.725000X-0.600000X0.725000X-0.600000X-0.725000X0.600000X-0.725000X0*%
%ADD22O,1.700000X1.950000*%
%ADD23R,1.524000X1.524000*%
%ADD24C,2.500000*%
G04 APERTURE END LIST*
D10*
X138570000Y-49238000D03*
D11*
X120790000Y-49238000D03*
X120790000Y-89878000D03*
X138570000Y-89878000D03*
D12*
X148730000Y-62700000D03*
D13*
X151270000Y-62700000D03*
D14*
X154572000Y-53810000D03*
D15*
X154572000Y-56350000D03*
X154572000Y-58890000D03*
X154572000Y-61430000D03*
X154572000Y-63970000D03*
X154572000Y-66510000D03*
X154572000Y-69050000D03*
X154572000Y-71590000D03*
X154572000Y-74130000D03*
X154572000Y-76670000D03*
X154572000Y-79210000D03*
X154572000Y-81750000D03*
X154572000Y-84290000D03*
X154572000Y-86830000D03*
X154572000Y-89370000D03*
X154572000Y-91910000D03*
X154572000Y-94450000D03*
X154572000Y-96990000D03*
X154572000Y-99530000D03*
X179968320Y-99527280D03*
X179968320Y-96987280D03*
X179972000Y-94450000D03*
X179972000Y-91910000D03*
X179972000Y-89370000D03*
X179972000Y-86830000D03*
X179972000Y-84290000D03*
X179972000Y-81750000D03*
X179972000Y-79210000D03*
X179972000Y-76670000D03*
X179972000Y-74130000D03*
X179972000Y-71590000D03*
X179972000Y-69050000D03*
X179972000Y-66510000D03*
X179972000Y-63970000D03*
X179972000Y-61430000D03*
X179972000Y-58890000D03*
X179972000Y-56350000D03*
X179972000Y-53810000D03*
D16*
X152159000Y-78956000D03*
D17*
X141999000Y-78956000D03*
D16*
X145047000Y-76289000D03*
D17*
X145047000Y-66129000D03*
D18*
X149111000Y-89370000D03*
D16*
X149111000Y-86870000D03*
X141999000Y-82512000D03*
D17*
X152159000Y-82512000D03*
D19*
X149492000Y-97879000D03*
D20*
X146992000Y-97879000D03*
D21*
X178702000Y-111976000D03*
D22*
X176202000Y-111976000D03*
X173702000Y-111976000D03*
D16*
X143269000Y-90132000D03*
X143269000Y-85132000D03*
D23*
X142380000Y-96863000D03*
X142380000Y-99403000D03*
X142380000Y-109563000D03*
X142380000Y-112103000D03*
D24*
X150000000Y-50000000D03*
D16*
X171844000Y-102578000D03*
X176844000Y-102578000D03*
D24*
X150000000Y-111595000D03*
D16*
X151952000Y-58890000D03*
X146952000Y-58890000D03*
X150762000Y-76289000D03*
D17*
X150762000Y-66129000D03*
D19*
X149492000Y-104737000D03*
D20*
X146992000Y-104737000D03*
D16*
X171804000Y-106388000D03*
X176804000Y-106388000D03*
X180019000Y-106896000D03*
X180019000Y-101896000D03*
X151952000Y-55715000D03*
X146952000Y-55715000D03*
D12*
X142888000Y-62700000D03*
D13*
X145428000Y-62700000D03*
M02*
