M48
INCH,TZ
T1C0.0157
T2C0.0300
T3C0.0315
T4C0.0354
T5C0.0374
T6C0.0394
%
G90
G05
T1
X46355Y-19685
X46355Y-20685
X46355Y-21685
X46355Y-22685
X46355Y-23685
X46355Y-24685
X46355Y-25685
X46355Y-26685
X46355Y-27685
X46355Y-28685
X46355Y-29685
X46355Y-30685
X46355Y-31685
X46355Y-32685
X46355Y-33685
X46355Y-34685
X46355Y-35685
X46355Y-36685
X46355Y-37685
X46355Y-38685
X46355Y-39685
X46355Y-40685
X46355Y-41685
X46355Y-42685
X46355Y-43685
X46555Y-44685
X46855Y-18685
X47555Y-20185
X47555Y-22185
X47555Y-24185
X47555Y-26185
X47555Y-28185
X47555Y-30185
X47555Y-32185
X47555Y-34185
X47555Y-36185
X47555Y-38185
X47555Y-40185
X47555Y-42185
X47555Y-44185
X47555Y-45085
X48055Y-18485
X48555Y-19185
X48555Y-21185
X48555Y-23185
X48555Y-25185
X48555Y-27185
X48555Y-29185
X48555Y-31185
X48555Y-33185
X48555Y-35185
X48555Y-37185
X48555Y-39185
X48555Y-41185
X48555Y-43185
X48555Y-45085
X49055Y-18485
X49555Y-20185
X49555Y-22185
X49555Y-24185
X49555Y-26185
X49555Y-28185
X49555Y-30185
X49555Y-32185
X49555Y-34185
X49555Y-36185
X49555Y-38185
X49555Y-40185
X49555Y-42185
X49555Y-44185
X49555Y-45085
X50055Y-18485
X50555Y-19185
X50555Y-21185
X50555Y-23185
X50555Y-25185
X50555Y-27185
X50555Y-29185
X50555Y-31185
X50555Y-33185
X50555Y-35185
X50555Y-37185
X50555Y-39185
X50555Y-41185
X50555Y-43185
X50555Y-45085
X51055Y-18485
X51555Y-20185
X51555Y-22185
X51555Y-24185
X51555Y-36185
X51555Y-38185
X51555Y-40185
X51555Y-42185
X51555Y-44185
X51555Y-45085
X52055Y-18485
X52555Y-19185
X52555Y-21185
X52555Y-23185
X52555Y-25185
X52555Y-27185
X52555Y-29185
X52555Y-31185
X52555Y-33185
X52555Y-35185
X52555Y-37185
X52555Y-39185
X52555Y-41185
X52555Y-43185
X52555Y-45085
X53055Y-18485
X53555Y-20185
X53555Y-22185
X53555Y-26185
X53555Y-28185
X53555Y-30185
X53555Y-32185
X53555Y-34185
X53555Y-36185
X53555Y-38185
X53555Y-40185
X53555Y-42185
X53555Y-44185
X53555Y-45085
X53575Y-24185
X54055Y-18485
X54555Y-23185
X54555Y-25185
X54555Y-27185
X54555Y-29185
X54555Y-31185
X54555Y-33185
X54555Y-39185
X54555Y-41185
X54555Y-43185
X54555Y-45085
X55055Y-18485
X55505Y-44185
X55555Y-20185
X55555Y-22185
X55555Y-24185
X55555Y-26185
X55555Y-28185
X55555Y-30185
X55555Y-34185
X55555Y-36185
X55555Y-42185
X55555Y-45085
X56055Y-18285
X56555Y-19185
X56555Y-21185
X56555Y-23185
X56555Y-27185
X56555Y-29185
X56555Y-31185
X56555Y-45585
X57055Y-17985
X57055Y-40185
X57555Y-20185
X57555Y-28185
X57555Y-32185
X57555Y-36185
X57555Y-43185
X57555Y-44185
X57555Y-45585
X57675Y-30185
X58055Y-17985
X58055Y-39185
X58555Y-21185
X58555Y-23185
X58555Y-27185
X58555Y-29185
X58555Y-31185
X58555Y-33185
X58555Y-45585
X59055Y-17985
X59055Y-22185
X59055Y-40185
X59055Y-42185
X59415Y-32185
X59555Y-28185
X59555Y-45585
X60055Y-18185
X60055Y-41185
X60055Y-43185
X60195Y-33185
X60555Y-45585
X60655Y-18985
X60655Y-19885
X60955Y-20585
X61055Y-40185
X61055Y-42185
X61055Y-44185
X61555Y-21185
X61555Y-45585
X62055Y-21685
X62055Y-23185
X62055Y-25185
X62055Y-27185
X62055Y-29185
X62055Y-31185
X62055Y-33185
X62055Y-35185
X62055Y-37185
X62055Y-39185
X62055Y-41185
X62055Y-43185
X62555Y-22185
X62555Y-45085
X63055Y-24185
X63055Y-26185
X63055Y-28185
X63055Y-30185
X63055Y-32185
X63055Y-34185
X63055Y-36185
X63055Y-38185
X63055Y-40185
X63055Y-42185
X63055Y-44185
X63255Y-22485
X63555Y-45085
X64055Y-23185
X64055Y-25185
X64055Y-27185
X64055Y-29185
X64055Y-31185
X64055Y-33185
X64055Y-35185
X64055Y-37185
X64055Y-39185
X64055Y-41185
X64055Y-43185
X64255Y-22485
X64555Y-45085
X65055Y-24185
X65055Y-26185
X65055Y-28185
X65055Y-30185
X65055Y-32185
X65055Y-34185
X65055Y-36185
X65055Y-38185
X65055Y-40185
X65055Y-42185
X65055Y-44185
X65255Y-22485
X65555Y-45085
X66055Y-23185
X66055Y-25185
X66055Y-27185
X66055Y-29185
X66055Y-31185
X66055Y-33185
X66055Y-35185
X66055Y-37185
X66055Y-39185
X66055Y-41185
X66055Y-43185
X66255Y-22485
X66555Y-45085
X67055Y-24185
X67055Y-26185
X67055Y-28185
X67055Y-30185
X67055Y-32185
X67055Y-34185
X67055Y-36185
X67055Y-38185
X67055Y-40185
X67055Y-42185
X67055Y-44185
X67255Y-22485
X67555Y-45085
X68055Y-23185
X68055Y-25185
X68055Y-27185
X68055Y-29185
X68055Y-31185
X68055Y-33185
X68055Y-35185
X68055Y-37185
X68055Y-39185
X68255Y-22485
X68555Y-45085
X69055Y-24185
X69055Y-26185
X69055Y-28185
X69055Y-30185
X69055Y-32185
X69055Y-34185
X69055Y-36185
X69055Y-38185
X69255Y-22285
X69555Y-45085
X69955Y-21585
X70055Y-23185
X70055Y-25185
X70055Y-27185
X70055Y-29185
X70055Y-33185
X70055Y-35185
X70055Y-37185
X70055Y-39185
X70555Y-45085
X71455Y-20585
X71455Y-44785
X71655Y-21685
X71655Y-22685
X71655Y-23685
X71655Y-24685
X71655Y-25685
X71655Y-26685
X71655Y-27685
X71655Y-28685
X71655Y-29685
X71655Y-30685
X71655Y-31685
X71655Y-32685
X71655Y-33685
X71655Y-34685
X71655Y-35685
X71655Y-36685
X71655Y-37685
X71655Y-38685
X71655Y-39685
X71655Y-40685
X71655Y-41685
X71655Y-42685
X71655Y-43685
T2
X56055Y-38135
X56055Y-39135
X56055Y-43135
X56055Y-44135
T3
X55905Y-31085
X55905Y-32485
X56405Y-33517
X56405Y-35485
X57105Y-26035
X57105Y-30035
X57855Y-21935
X57855Y-23185
X58705Y-34201
X58705Y-35185
X59355Y-26035
X59355Y-30035
X59824Y-21935
X59824Y-23185
X59905Y-31085
X59905Y-32485
X60855Y-21185
X60855Y-22185
X60855Y-23185
X60855Y-24185
X60855Y-25185
X60855Y-26185
X60855Y-27185
X60855Y-28185
X60855Y-29185
X60855Y-30185
X60855Y-31185
X60855Y-32185
X60855Y-33185
X60855Y-34185
X60855Y-35185
X60855Y-36185
X60855Y-37185
X60855Y-38185
X60855Y-39185
X67639Y-41885
X67655Y-40385
X69608Y-41885
X69624Y-40385
X70854Y-38184
X70854Y-39184
X70855Y-21185
X70855Y-22185
X70855Y-23185
X70855Y-24185
X70855Y-25185
X70855Y-26185
X70855Y-27185
X70855Y-28185
X70855Y-29185
X70855Y-30185
X70855Y-31185
X70855Y-32185
X70855Y-33185
X70855Y-34185
X70855Y-35185
X70855Y-36185
X70855Y-37185
X70874Y-40117
X70874Y-42085
T4
X56255Y-24685
X57255Y-24685
X58555Y-24685
X59555Y-24685
T5
X68387Y-44085
X69371Y-44085
X70355Y-44085
T6
X47555Y-19385
X47555Y-35385
X54555Y-19385
X54555Y-35385
X57871Y-38535
X57871Y-41235
X58855Y-38535
X58855Y-41235
T0
M30
