G04 #@! TF.GenerationSoftware,KiCad,Pcbnew,7.0.9*
G04 #@! TF.CreationDate,2023-12-29T14:02:29-03:00*
G04 #@! TF.ProjectId,module,6d6f6475-6c65-42e6-9b69-6361645f7063,v2.2*
G04 #@! TF.SameCoordinates,Original*
G04 #@! TF.FileFunction,Copper,L1,Top*
G04 #@! TF.FilePolarity,Positive*
%FSLAX46Y46*%
G04 Gerber Fmt 4.6, Leading zero omitted, Abs format (unit mm)*
G04 Created by KiCad (PCBNEW 7.0.9) date 2023-12-29 14:02:29*
%MOMM*%
%LPD*%
G01*
G04 APERTURE LIST*
G04 Aperture macros list*
%AMRoundRect*
0 Rectangle with rounded corners*
0 $1 Rounding radius*
0 $2 $3 $4 $5 $6 $7 $8 $9 X,Y pos of 4 corners*
0 Add a 4 corners polygon primitive as box body*
4,1,4,$2,$3,$4,$5,$6,$7,$8,$9,$2,$3,0*
0 Add four circle primitives for the rounded corners*
1,1,$1+$1,$2,$3*
1,1,$1+$1,$4,$5*
1,1,$1+$1,$6,$7*
1,1,$1+$1,$8,$9*
0 Add four rect primitives between the rounded corners*
20,1,$1+$1,$2,$3,$4,$5,0*
20,1,$1+$1,$4,$5,$6,$7,0*
20,1,$1+$1,$6,$7,$8,$9,0*
20,1,$1+$1,$8,$9,$2,$3,0*%
G04 Aperture macros list end*
G04 #@! TA.AperFunction,ComponentPad*
%ADD10R,2.540000X2.540000*%
G04 #@! TD*
G04 #@! TA.AperFunction,ComponentPad*
%ADD11C,2.540000*%
G04 #@! TD*
G04 #@! TA.AperFunction,ComponentPad*
%ADD12R,1.800000X1.800000*%
G04 #@! TD*
G04 #@! TA.AperFunction,ComponentPad*
%ADD13C,1.800000*%
G04 #@! TD*
G04 #@! TA.AperFunction,ComponentPad*
%ADD14R,2.000000X1.200000*%
G04 #@! TD*
G04 #@! TA.AperFunction,ComponentPad*
%ADD15O,2.000000X1.200000*%
G04 #@! TD*
G04 #@! TA.AperFunction,ComponentPad*
%ADD16C,1.600000*%
G04 #@! TD*
G04 #@! TA.AperFunction,ComponentPad*
%ADD17O,1.600000X1.600000*%
G04 #@! TD*
G04 #@! TA.AperFunction,ComponentPad*
%ADD18R,1.600000X1.600000*%
G04 #@! TD*
G04 #@! TA.AperFunction,ComponentPad*
%ADD19RoundRect,0.250000X0.600000X0.750000X-0.600000X0.750000X-0.600000X-0.750000X0.600000X-0.750000X0*%
G04 #@! TD*
G04 #@! TA.AperFunction,ComponentPad*
%ADD20O,1.700000X2.000000*%
G04 #@! TD*
G04 #@! TA.AperFunction,ComponentPad*
%ADD21RoundRect,0.250000X0.600000X0.725000X-0.600000X0.725000X-0.600000X-0.725000X0.600000X-0.725000X0*%
G04 #@! TD*
G04 #@! TA.AperFunction,ComponentPad*
%ADD22O,1.700000X1.950000*%
G04 #@! TD*
G04 #@! TA.AperFunction,ComponentPad*
%ADD23R,1.524000X1.524000*%
G04 #@! TD*
G04 #@! TA.AperFunction,ViaPad*
%ADD24C,0.800000*%
G04 #@! TD*
G04 #@! TA.AperFunction,Conductor*
%ADD25C,0.750000*%
G04 #@! TD*
G04 #@! TA.AperFunction,Conductor*
%ADD26C,1.000000*%
G04 #@! TD*
G04 #@! TA.AperFunction,Conductor*
%ADD27C,1.500000*%
G04 #@! TD*
G04 #@! TA.AperFunction,Conductor*
%ADD28C,0.500000*%
G04 #@! TD*
G04 APERTURE END LIST*
D10*
X138570000Y-49238000D03*
D11*
X120790000Y-49238000D03*
X120790000Y-89878000D03*
X138570000Y-89878000D03*
D12*
X148730000Y-62700000D03*
D13*
X151270000Y-62700000D03*
D14*
X154572000Y-53810000D03*
D15*
X154572000Y-56350000D03*
X154572000Y-58890000D03*
X154572000Y-61430000D03*
X154572000Y-63970000D03*
X154572000Y-66510000D03*
X154572000Y-69050000D03*
X154572000Y-71590000D03*
X154572000Y-74130000D03*
X154572000Y-76670000D03*
X154572000Y-79210000D03*
X154572000Y-81750000D03*
X154572000Y-84290000D03*
X154572000Y-86830000D03*
X154572000Y-89370000D03*
X154572000Y-91910000D03*
X154572000Y-94450000D03*
X154572000Y-96990000D03*
X154572000Y-99530000D03*
X179968320Y-99527280D03*
X179968320Y-96987280D03*
X179972000Y-94450000D03*
X179972000Y-91910000D03*
X179972000Y-89370000D03*
X179972000Y-86830000D03*
X179972000Y-84290000D03*
X179972000Y-81750000D03*
X179972000Y-79210000D03*
X179972000Y-76670000D03*
X179972000Y-74130000D03*
X179972000Y-71590000D03*
X179972000Y-69050000D03*
X179972000Y-66510000D03*
X179972000Y-63970000D03*
X179972000Y-61430000D03*
X179972000Y-58890000D03*
X179972000Y-56350000D03*
X179972000Y-53810000D03*
D16*
X152159000Y-78956000D03*
D17*
X141999000Y-78956000D03*
D16*
X145047000Y-76289000D03*
D17*
X145047000Y-66129000D03*
D18*
X149111000Y-89370000D03*
D16*
X149111000Y-86870000D03*
X141999000Y-82512000D03*
D17*
X152159000Y-82512000D03*
D19*
X149492000Y-97879000D03*
D20*
X146992000Y-97879000D03*
D21*
X178702000Y-111976000D03*
D22*
X176202000Y-111976000D03*
X173702000Y-111976000D03*
D16*
X143269000Y-90132000D03*
X143269000Y-85132000D03*
D23*
X142380000Y-96863000D03*
X142380000Y-99403000D03*
X142380000Y-109563000D03*
X142380000Y-112103000D03*
D16*
X171844000Y-102578000D03*
X176844000Y-102578000D03*
X151952000Y-58890000D03*
X146952000Y-58890000D03*
X150762000Y-76289000D03*
D17*
X150762000Y-66129000D03*
D19*
X149492000Y-104737000D03*
D20*
X146992000Y-104737000D03*
D16*
X171804000Y-106388000D03*
X176804000Y-106388000D03*
X180019000Y-106896000D03*
X180019000Y-101896000D03*
X151952000Y-55715000D03*
X146952000Y-55715000D03*
D12*
X142888000Y-62700000D03*
D13*
X145428000Y-62700000D03*
D24*
X152540000Y-109690000D03*
X165240000Y-112230000D03*
X128410000Y-104610000D03*
X182004000Y-62700000D03*
X172860000Y-63970000D03*
X128410000Y-48730000D03*
X175908000Y-56604000D03*
X132220000Y-46952000D03*
X136030000Y-56350000D03*
X167780000Y-63970000D03*
X143650000Y-58890000D03*
X170320000Y-61430000D03*
X150000000Y-107150000D03*
X133490000Y-79210000D03*
X160160000Y-107150000D03*
X167780000Y-89370000D03*
X142380000Y-46444000D03*
X130950000Y-96990000D03*
X136030000Y-112230000D03*
X162700000Y-94450000D03*
X171590000Y-114516000D03*
X128410000Y-109690000D03*
X141110000Y-51270000D03*
X175400000Y-86830000D03*
X174130000Y-114516000D03*
X120790000Y-71590000D03*
X137300000Y-46952000D03*
X150000000Y-45682000D03*
X160160000Y-71590000D03*
X170320000Y-86830000D03*
X117742000Y-52540000D03*
X128410000Y-79210000D03*
X167780000Y-94450000D03*
X170320000Y-107150000D03*
X117742000Y-77940000D03*
X119012000Y-47460000D03*
X120790000Y-61430000D03*
X138570000Y-63970000D03*
X182004000Y-70320000D03*
X172860000Y-69050000D03*
X123330000Y-104610000D03*
X123330000Y-89370000D03*
X136030000Y-114516000D03*
X123330000Y-58890000D03*
X125870000Y-96990000D03*
X117742000Y-83020000D03*
X117742000Y-80480000D03*
X125870000Y-86830000D03*
X120790000Y-86830000D03*
X172860000Y-94450000D03*
X138570000Y-79210000D03*
X136030000Y-91910000D03*
X128410000Y-74130000D03*
X182004000Y-57620000D03*
X117742000Y-60160000D03*
X182004000Y-83020000D03*
X172860000Y-99530000D03*
X148730000Y-69050000D03*
X146494800Y-76670000D03*
X170320000Y-81750000D03*
X125870000Y-51270000D03*
X181496000Y-113754000D03*
X120790000Y-76670000D03*
X136030000Y-102070000D03*
X172860000Y-89370000D03*
X125870000Y-71590000D03*
X123330000Y-84290000D03*
X128410000Y-69050000D03*
X122060000Y-46952000D03*
X141110000Y-66510000D03*
X169050000Y-114516000D03*
X128410000Y-99530000D03*
X155080000Y-107150000D03*
X117742000Y-50000000D03*
X172860000Y-74130000D03*
X117742000Y-90640000D03*
X157620000Y-109690000D03*
X123330000Y-48730000D03*
X133490000Y-114516000D03*
X123330000Y-109690000D03*
X175400000Y-91910000D03*
X130950000Y-51270000D03*
X143650000Y-69050000D03*
X157620000Y-63970000D03*
X165240000Y-96990000D03*
X157620000Y-89370000D03*
X140983000Y-112230000D03*
X177940000Y-94450000D03*
X146190000Y-112230000D03*
X170828000Y-57112000D03*
X170320000Y-76670000D03*
X162700000Y-89370000D03*
X165240000Y-76670000D03*
X133490000Y-104610000D03*
X156350000Y-53810000D03*
X136030000Y-76670000D03*
X141110000Y-91910000D03*
X133490000Y-48730000D03*
X130950000Y-107150000D03*
X161430000Y-114516000D03*
X138570000Y-99530000D03*
X152540000Y-104610000D03*
X165240000Y-81750000D03*
X155080000Y-102070000D03*
X177940000Y-99530000D03*
X148730000Y-84290000D03*
X133490000Y-74130000D03*
X158890000Y-56350000D03*
X117742000Y-88100000D03*
X182004000Y-55080000D03*
X182004000Y-80480000D03*
X182004000Y-77940000D03*
X175400000Y-96990000D03*
X175400000Y-71590000D03*
X160160000Y-102070000D03*
X177686000Y-54826000D03*
X175400000Y-76670000D03*
X176670000Y-114516000D03*
X162700000Y-84290000D03*
X125870000Y-56350000D03*
X157620000Y-104610000D03*
X133490000Y-99530000D03*
X167780000Y-104610000D03*
X182004000Y-110960000D03*
X133490000Y-63970000D03*
X120790000Y-107150000D03*
X156350000Y-115786000D03*
X170320000Y-71590000D03*
X143650000Y-79210000D03*
X170320000Y-96990000D03*
X168288000Y-57112000D03*
X117742000Y-103340000D03*
X154064000Y-48222000D03*
X182004000Y-93180000D03*
X128410000Y-114516000D03*
X117742000Y-72860000D03*
X130950000Y-61430000D03*
X146190000Y-115786000D03*
X163208000Y-57112000D03*
X124600000Y-46952000D03*
X120790000Y-96990000D03*
X157620000Y-69050000D03*
X120790000Y-112230000D03*
X127140000Y-46952000D03*
X117742000Y-105880000D03*
X167780000Y-79210000D03*
X117742000Y-93180000D03*
X165748000Y-57112000D03*
X125870000Y-61430000D03*
X177940000Y-63970000D03*
X167780000Y-58890000D03*
X147460000Y-99530000D03*
X143650000Y-74130000D03*
X136030000Y-71590000D03*
X141110000Y-107150000D03*
X133490000Y-94450000D03*
X138570000Y-109690000D03*
X182004000Y-67780000D03*
X162700000Y-104610000D03*
X128410000Y-94450000D03*
X133490000Y-53810000D03*
X160160000Y-81750000D03*
X136030000Y-51270000D03*
X160160000Y-76670000D03*
X158890000Y-114516000D03*
X144920000Y-45682000D03*
X120790000Y-51270000D03*
X146190000Y-91910000D03*
X123330000Y-94450000D03*
X125870000Y-81750000D03*
X117742000Y-95720000D03*
X167780000Y-99530000D03*
X130950000Y-56350000D03*
X175400000Y-61430000D03*
X177940000Y-58890000D03*
X162700000Y-79210000D03*
X148730000Y-58890000D03*
X123330000Y-74130000D03*
X177940000Y-69050000D03*
X117742000Y-75400000D03*
X117742000Y-100800000D03*
X157620000Y-84290000D03*
X120790000Y-102070000D03*
X141110000Y-56350000D03*
X148730000Y-115786000D03*
X167780000Y-84290000D03*
X117742000Y-62700000D03*
X152895600Y-84290000D03*
X182004000Y-105880000D03*
X123330000Y-53810000D03*
X120790000Y-56350000D03*
X162700000Y-58890000D03*
X182004000Y-75400000D03*
X167780000Y-69050000D03*
X120790000Y-81750000D03*
X133490000Y-89370000D03*
X129680000Y-46952000D03*
X157620000Y-74130000D03*
X170320000Y-66510000D03*
X117742000Y-65240000D03*
X163970000Y-114516000D03*
X117742000Y-110960000D03*
X182004000Y-90640000D03*
X138570000Y-69050000D03*
X172860000Y-79210000D03*
X172860000Y-84290000D03*
X167780000Y-74130000D03*
X162700000Y-63970000D03*
X151270000Y-71590000D03*
X160160000Y-91910000D03*
X181496000Y-52286000D03*
X150914400Y-81750000D03*
X150000000Y-102070000D03*
X182004000Y-98260000D03*
X117742000Y-85560000D03*
X117742000Y-55080000D03*
X125870000Y-91910000D03*
X117742000Y-57620000D03*
X165240000Y-66510000D03*
X141110000Y-86830000D03*
X123330000Y-79210000D03*
X136080800Y-61430000D03*
X125870000Y-66510000D03*
X165240000Y-102070000D03*
X147460000Y-45682000D03*
X138570000Y-58890000D03*
X150000000Y-56350000D03*
X160668000Y-57112000D03*
X123330000Y-69050000D03*
X143650000Y-53810000D03*
X153810000Y-115786000D03*
X120790000Y-91910000D03*
X162700000Y-99530000D03*
X139840000Y-46952000D03*
X160160000Y-96990000D03*
X165240000Y-61430000D03*
X173368000Y-57112000D03*
X148730000Y-79210000D03*
X125870000Y-114516000D03*
X148730000Y-53810000D03*
X154064000Y-50508000D03*
X152540000Y-46190000D03*
X120790000Y-66510000D03*
X133490000Y-109690000D03*
X130950000Y-102070000D03*
X123330000Y-63970000D03*
X123330000Y-114516000D03*
X182004000Y-88100000D03*
X182004000Y-85560000D03*
X170320000Y-102070000D03*
X141110000Y-71590000D03*
X143650000Y-115786000D03*
X125870000Y-107150000D03*
X167780000Y-109690000D03*
X175400000Y-81750000D03*
X182004000Y-65240000D03*
X130950000Y-114516000D03*
X157620000Y-55080000D03*
X182004000Y-95720000D03*
X133490000Y-58890000D03*
X160160000Y-66510000D03*
X182004000Y-60160000D03*
X170320000Y-112230000D03*
X125870000Y-76670000D03*
X117742000Y-108420000D03*
X182004000Y-72860000D03*
X141110000Y-76670000D03*
X133490000Y-69050000D03*
X160160000Y-61430000D03*
X162700000Y-69050000D03*
X128410000Y-63970000D03*
X172860000Y-58890000D03*
X146190000Y-109690000D03*
X155080000Y-112230000D03*
X141110000Y-114516000D03*
X165240000Y-91910000D03*
X128410000Y-89370000D03*
X146190000Y-81750000D03*
X136030000Y-96990000D03*
X177940000Y-84290000D03*
X144920000Y-102070000D03*
X136030000Y-81750000D03*
X148730000Y-74130000D03*
X138570000Y-74130000D03*
X136030000Y-86830000D03*
X160160000Y-86830000D03*
X128410000Y-53810000D03*
X118250000Y-113500000D03*
X177940000Y-89370000D03*
X125870000Y-102070000D03*
X162700000Y-109690000D03*
X165240000Y-107150000D03*
X151270000Y-115786000D03*
X177940000Y-74130000D03*
X160160000Y-112230000D03*
X136030000Y-66510000D03*
X166510000Y-114516000D03*
X123330000Y-99530000D03*
X130950000Y-91910000D03*
X157620000Y-94450000D03*
X146190000Y-71590000D03*
X138570000Y-84290000D03*
X182004000Y-100800000D03*
X154826000Y-52286000D03*
X157620000Y-99530000D03*
X182004000Y-103340000D03*
X143650000Y-48730000D03*
X165240000Y-71590000D03*
X138570000Y-104610000D03*
X162700000Y-74130000D03*
X120790000Y-114516000D03*
X128410000Y-84290000D03*
X133490000Y-84290000D03*
X138570000Y-114516000D03*
X146190000Y-51270000D03*
X130950000Y-112230000D03*
X179210000Y-114516000D03*
X128410000Y-58890000D03*
X136030000Y-107150000D03*
X182004000Y-108420000D03*
X117742000Y-70320000D03*
X170320000Y-91910000D03*
X117742000Y-98260000D03*
X175400000Y-66510000D03*
X157620000Y-79210000D03*
X165240000Y-86830000D03*
X125870000Y-112230000D03*
X117742000Y-67780000D03*
X141110000Y-61430000D03*
X134760000Y-46952000D03*
X157620000Y-58890000D03*
D25*
X151952000Y-58890000D02*
X151952000Y-55715000D01*
X153175000Y-53810000D02*
X154572000Y-53810000D01*
X151952000Y-55715000D02*
X151952000Y-55033000D01*
X151952000Y-55033000D02*
X153175000Y-53810000D01*
D26*
X173702000Y-111976000D02*
X173702000Y-110659000D01*
D27*
X152159000Y-98387000D02*
X153302000Y-99530000D01*
D26*
X155842000Y-100800000D02*
X170701000Y-100800000D01*
D27*
X144920000Y-90132000D02*
X143269000Y-90132000D01*
X141364000Y-89878000D02*
X141618000Y-90132000D01*
X149111000Y-89370000D02*
X149111000Y-91783000D01*
D26*
X171844000Y-102578000D02*
X171844000Y-106348000D01*
D27*
X152159000Y-94831000D02*
X152159000Y-98387000D01*
D26*
X154572000Y-99530000D02*
X155842000Y-100800000D01*
D27*
X145682000Y-89370000D02*
X144920000Y-90132000D01*
X153302000Y-99530000D02*
X154572000Y-99530000D01*
X138570000Y-89878000D02*
X141364000Y-89878000D01*
X149111000Y-89370000D02*
X145682000Y-89370000D01*
D26*
X170701000Y-100800000D02*
X171844000Y-101943000D01*
D27*
X149111000Y-91783000D02*
X152159000Y-94831000D01*
X141618000Y-90132000D02*
X143269000Y-90132000D01*
D26*
X171844000Y-106348000D02*
X171804000Y-106388000D01*
X173702000Y-110659000D02*
X171804000Y-108761000D01*
X171844000Y-101943000D02*
X171844000Y-102578000D01*
X171804000Y-108761000D02*
X171804000Y-106388000D01*
D25*
X176249000Y-111535000D02*
X176249000Y-110412000D01*
X176249000Y-111535000D02*
X176249000Y-111929000D01*
X176249000Y-111929000D02*
X176202000Y-111976000D01*
X174130000Y-108293000D02*
X174130000Y-85560000D01*
X179718000Y-106896000D02*
X176249000Y-110365000D01*
X176249000Y-110412000D02*
X174130000Y-108293000D01*
X176249000Y-110365000D02*
X176249000Y-111535000D01*
X180019000Y-106896000D02*
X179718000Y-106896000D01*
X174130000Y-85560000D02*
X177940000Y-81750000D01*
X177940000Y-81750000D02*
X179972000Y-81750000D01*
D28*
X177813000Y-79210000D02*
X179972000Y-79210000D01*
X152159000Y-80480000D02*
X176543000Y-80480000D01*
X152159000Y-78956000D02*
X152159000Y-80480000D01*
X176543000Y-80480000D02*
X177813000Y-79210000D01*
X152159000Y-80480000D02*
X152159000Y-82512000D01*
D27*
X138570000Y-49238000D02*
X138570000Y-56400800D01*
X135953800Y-94043600D02*
X147053600Y-94043600D01*
X130950000Y-89039800D02*
X135953800Y-94043600D01*
D25*
X140500400Y-82512000D02*
X141999000Y-82512000D01*
X139941600Y-83070800D02*
X131000800Y-83070800D01*
D27*
X147053600Y-94043600D02*
X149492000Y-96482000D01*
X149492000Y-96482000D02*
X149492000Y-97879000D01*
D25*
X131000800Y-83070800D02*
X130950000Y-83020000D01*
X139941600Y-83070800D02*
X140500400Y-82512000D01*
D27*
X130950000Y-83020000D02*
X130950000Y-89039800D01*
X138570000Y-56400800D02*
X130950000Y-64020800D01*
X130950000Y-64020800D02*
X130950000Y-83020000D01*
D28*
X179972000Y-56350000D02*
X177559000Y-56350000D01*
X161049000Y-72860000D02*
X148476000Y-72860000D01*
X148476000Y-72860000D02*
X145047000Y-76289000D01*
X177559000Y-56350000D02*
X161049000Y-72860000D01*
X151651000Y-75400000D02*
X150762000Y-76289000D01*
X177813000Y-66510000D02*
X168923000Y-75400000D01*
X168923000Y-75400000D02*
X151651000Y-75400000D01*
X179972000Y-66510000D02*
X177813000Y-66510000D01*
D25*
X145428000Y-64351000D02*
X145428000Y-62700000D01*
X145047000Y-66129000D02*
X145047000Y-64732000D01*
X145047000Y-64732000D02*
X145428000Y-64351000D01*
X151270000Y-64351000D02*
X151270000Y-63716000D01*
X150762000Y-65748000D02*
X150762000Y-64859000D01*
X150762000Y-64859000D02*
X151270000Y-64351000D01*
D27*
X144285000Y-96863000D02*
X142380000Y-96863000D01*
X146992000Y-97879000D02*
X145301000Y-97879000D01*
X145301000Y-97879000D02*
X144285000Y-96863000D01*
X145047000Y-104737000D02*
X142380000Y-102070000D01*
X142380000Y-102070000D02*
X142380000Y-99403000D01*
X146992000Y-104737000D02*
X145047000Y-104737000D01*
G04 #@! TA.AperFunction,Conductor*
G36*
X152556177Y-44940185D02*
G01*
X152576819Y-44956819D01*
X155043681Y-47423681D01*
X155077166Y-47485004D01*
X155080000Y-47511362D01*
X155080000Y-51270000D01*
X160160000Y-56350000D01*
X175400000Y-56350000D01*
X177565000Y-54185000D01*
X178808743Y-54185000D01*
X178864315Y-54289820D01*
X178864314Y-54289820D01*
X178984008Y-54430734D01*
X179131195Y-54542622D01*
X179298992Y-54620254D01*
X179298996Y-54620256D01*
X179479556Y-54659999D01*
X179479560Y-54660000D01*
X179597000Y-54660000D01*
X179597000Y-54185000D01*
X178808743Y-54185000D01*
X177565000Y-54185000D01*
X177940000Y-53810000D01*
X179567014Y-53810000D01*
X179586835Y-53935148D01*
X179644359Y-54048045D01*
X179733955Y-54137641D01*
X179846852Y-54195165D01*
X179940519Y-54210000D01*
X180003481Y-54210000D01*
X180097148Y-54195165D01*
X180117098Y-54185000D01*
X180347000Y-54185000D01*
X180347000Y-54660000D01*
X180418079Y-54660000D01*
X180418085Y-54659999D01*
X180555800Y-54645022D01*
X180555804Y-54645021D01*
X180731011Y-54585986D01*
X180889430Y-54490669D01*
X181023659Y-54363521D01*
X181127413Y-54210493D01*
X181127415Y-54210490D01*
X181137571Y-54185000D01*
X180347000Y-54185000D01*
X180117098Y-54185000D01*
X180210045Y-54137641D01*
X180299641Y-54048045D01*
X180357165Y-53935148D01*
X180376986Y-53810000D01*
X180357165Y-53684852D01*
X180299641Y-53571955D01*
X180210045Y-53482359D01*
X180097148Y-53424835D01*
X180003481Y-53410000D01*
X179940519Y-53410000D01*
X179846852Y-53424835D01*
X179733955Y-53482359D01*
X179644359Y-53571955D01*
X179586835Y-53684852D01*
X179567014Y-53810000D01*
X177940000Y-53810000D01*
X178315001Y-53434999D01*
X178806428Y-53434999D01*
X178806429Y-53435000D01*
X179597000Y-53435000D01*
X179597000Y-52960000D01*
X180347000Y-52960000D01*
X180347000Y-53435000D01*
X181135257Y-53435000D01*
X181135257Y-53434999D01*
X181079684Y-53330179D01*
X181079685Y-53330179D01*
X180959991Y-53189265D01*
X180812804Y-53077377D01*
X180645007Y-52999745D01*
X180645003Y-52999743D01*
X180464443Y-52960000D01*
X180347000Y-52960000D01*
X179597000Y-52960000D01*
X179525914Y-52960000D01*
X179388199Y-52974977D01*
X179388195Y-52974978D01*
X179212988Y-53034013D01*
X179054569Y-53129330D01*
X178920340Y-53256478D01*
X178816586Y-53409506D01*
X178816584Y-53409509D01*
X178806428Y-53434999D01*
X178315001Y-53434999D01*
X180443681Y-51306319D01*
X180505004Y-51272834D01*
X180531362Y-51270000D01*
X182895500Y-51270000D01*
X182962539Y-51289685D01*
X183008294Y-51342489D01*
X183019500Y-51394000D01*
X183019500Y-112863258D01*
X183019402Y-112866736D01*
X183013012Y-112980524D01*
X183002599Y-113152668D01*
X183001835Y-113159315D01*
X182978722Y-113295343D01*
X182951440Y-113444217D01*
X182950032Y-113450208D01*
X182910625Y-113587001D01*
X182866744Y-113727815D01*
X182864831Y-113733099D01*
X182809609Y-113866418D01*
X182749668Y-113999600D01*
X182747394Y-114004147D01*
X182677043Y-114131439D01*
X182601781Y-114255936D01*
X182599287Y-114259739D01*
X182515571Y-114377726D01*
X182513811Y-114380086D01*
X182425088Y-114493332D01*
X182422512Y-114496409D01*
X182325980Y-114604430D01*
X182323590Y-114606957D01*
X182221957Y-114708590D01*
X182219430Y-114710980D01*
X182111409Y-114807512D01*
X182108332Y-114810088D01*
X181995086Y-114898811D01*
X181992726Y-114900571D01*
X181874739Y-114984287D01*
X181870936Y-114986781D01*
X181746439Y-115062043D01*
X181619147Y-115132394D01*
X181614600Y-115134668D01*
X181481418Y-115194609D01*
X181348099Y-115249831D01*
X181342815Y-115251744D01*
X181225231Y-115288385D01*
X181201990Y-115295627D01*
X181065208Y-115335032D01*
X181059217Y-115336440D01*
X180910343Y-115363722D01*
X180774315Y-115386835D01*
X180767668Y-115387599D01*
X180595524Y-115398012D01*
X180481736Y-115404402D01*
X180478258Y-115404500D01*
X158910341Y-115404500D01*
X158903892Y-115403453D01*
X158892312Y-115404325D01*
X158890188Y-115404404D01*
X158889822Y-115404458D01*
X158887945Y-115405309D01*
X158877478Y-115409646D01*
X158872439Y-115413221D01*
X157624252Y-116037315D01*
X156376063Y-116661409D01*
X156320610Y-116674500D01*
X143679390Y-116674500D01*
X143623936Y-116661409D01*
X141128708Y-115413795D01*
X141123504Y-115410024D01*
X141112283Y-115405400D01*
X141110126Y-115404418D01*
X141110112Y-115404416D01*
X141107688Y-115404325D01*
X141096107Y-115403453D01*
X141089659Y-115404500D01*
X119521742Y-115404500D01*
X119518265Y-115404402D01*
X119404475Y-115398012D01*
X119232330Y-115387599D01*
X119225683Y-115386835D01*
X119089656Y-115363722D01*
X118940781Y-115336440D01*
X118934790Y-115335032D01*
X118798021Y-115295631D01*
X118730634Y-115274633D01*
X118657183Y-115251744D01*
X118651899Y-115249831D01*
X118518581Y-115194609D01*
X118385398Y-115134668D01*
X118380851Y-115132393D01*
X118253560Y-115062043D01*
X118129063Y-114986781D01*
X118125259Y-114984287D01*
X118007272Y-114900571D01*
X118004912Y-114898811D01*
X117891666Y-114810088D01*
X117888589Y-114807512D01*
X117780568Y-114710980D01*
X117778041Y-114708590D01*
X117676408Y-114606957D01*
X117674018Y-114604430D01*
X117577486Y-114496409D01*
X117574910Y-114493332D01*
X117560874Y-114475416D01*
X117486176Y-114380072D01*
X117484427Y-114377726D01*
X117400711Y-114259739D01*
X117398217Y-114255935D01*
X117322956Y-114131439D01*
X117252605Y-114004147D01*
X117250330Y-113999600D01*
X117190390Y-113866418D01*
X117135167Y-113733099D01*
X117133265Y-113727850D01*
X117089375Y-113587001D01*
X117049963Y-113450198D01*
X117048560Y-113444227D01*
X117038340Y-113388462D01*
X117021277Y-113295343D01*
X117005246Y-113200999D01*
X116998160Y-113159297D01*
X116997401Y-113152691D01*
X116986992Y-112980603D01*
X116981883Y-112889626D01*
X116980598Y-112866736D01*
X116980500Y-112863259D01*
X116980500Y-112478000D01*
X141368000Y-112478000D01*
X141368000Y-112889628D01*
X141382503Y-112962540D01*
X141382505Y-112962544D01*
X141437760Y-113045239D01*
X141520455Y-113100494D01*
X141520459Y-113100496D01*
X141593371Y-113114999D01*
X141593374Y-113115000D01*
X142005000Y-113115000D01*
X142005000Y-112478000D01*
X141368000Y-112478000D01*
X116980500Y-112478000D01*
X116980500Y-112134898D01*
X141995051Y-112134898D01*
X142026266Y-112258162D01*
X142095813Y-112364612D01*
X142196157Y-112442713D01*
X142316422Y-112484000D01*
X142411569Y-112484000D01*
X142447525Y-112478000D01*
X142755000Y-112478000D01*
X142755000Y-113115000D01*
X143166626Y-113115000D01*
X143166628Y-113114999D01*
X143239540Y-113100496D01*
X143239544Y-113100494D01*
X143322239Y-113045239D01*
X143377494Y-112962544D01*
X143377496Y-112962540D01*
X143391999Y-112889628D01*
X143392000Y-112889626D01*
X143392000Y-112478000D01*
X142755000Y-112478000D01*
X142447525Y-112478000D01*
X142505421Y-112468339D01*
X142617251Y-112407820D01*
X142703371Y-112314269D01*
X142754448Y-112197823D01*
X142764949Y-112071102D01*
X142733734Y-111947838D01*
X142664187Y-111841388D01*
X142563843Y-111763287D01*
X142443578Y-111722000D01*
X142348431Y-111722000D01*
X142254579Y-111737661D01*
X142142749Y-111798180D01*
X142056629Y-111891731D01*
X142005552Y-112008177D01*
X141995051Y-112134898D01*
X116980500Y-112134898D01*
X116980500Y-111728000D01*
X141368000Y-111728000D01*
X142005000Y-111728000D01*
X142005000Y-111091000D01*
X142755000Y-111091000D01*
X142755000Y-111728000D01*
X143392000Y-111728000D01*
X143392000Y-111719334D01*
X148499500Y-111719334D01*
X148540429Y-111964616D01*
X148621169Y-112199802D01*
X148621172Y-112199811D01*
X148683114Y-112314269D01*
X148739526Y-112418509D01*
X148892262Y-112614744D01*
X149037915Y-112748827D01*
X149075217Y-112783166D01*
X149283393Y-112919173D01*
X149511118Y-113019063D01*
X149614485Y-113045239D01*
X149752179Y-113080108D01*
X149752181Y-113080108D01*
X149752186Y-113080109D01*
X149885376Y-113091145D01*
X149937933Y-113095500D01*
X149937935Y-113095500D01*
X150062065Y-113095500D01*
X150062067Y-113095500D01*
X150123284Y-113090427D01*
X150247813Y-113080109D01*
X150247816Y-113080108D01*
X150247821Y-113080108D01*
X150488881Y-113019063D01*
X150716607Y-112919173D01*
X150924785Y-112783164D01*
X151107738Y-112614744D01*
X151260474Y-112418509D01*
X151378828Y-112199810D01*
X151459571Y-111964614D01*
X151500500Y-111719335D01*
X151500500Y-111470665D01*
X151459571Y-111225386D01*
X151378828Y-110990190D01*
X151260474Y-110771491D01*
X151107738Y-110575256D01*
X150959991Y-110439245D01*
X150924782Y-110406833D01*
X150716606Y-110270826D01*
X150488881Y-110170936D01*
X150247824Y-110109892D01*
X150247813Y-110109890D01*
X150082548Y-110096197D01*
X150062067Y-110094500D01*
X149937933Y-110094500D01*
X149918521Y-110096108D01*
X149752186Y-110109890D01*
X149752175Y-110109892D01*
X149511118Y-110170936D01*
X149283393Y-110270826D01*
X149075217Y-110406833D01*
X148892261Y-110575257D01*
X148739524Y-110771493D01*
X148621172Y-110990188D01*
X148621169Y-110990197D01*
X148540429Y-111225383D01*
X148499500Y-111470665D01*
X148499500Y-111719334D01*
X143392000Y-111719334D01*
X143392000Y-111316373D01*
X143391999Y-111316371D01*
X143377496Y-111243459D01*
X143377494Y-111243455D01*
X143322239Y-111160760D01*
X143239544Y-111105505D01*
X143239540Y-111105503D01*
X143166627Y-111091000D01*
X142755000Y-111091000D01*
X142005000Y-111091000D01*
X141593373Y-111091000D01*
X141520459Y-111105503D01*
X141520455Y-111105505D01*
X141437760Y-111160760D01*
X141382505Y-111243455D01*
X141382503Y-111243459D01*
X141368000Y-111316371D01*
X141368000Y-111728000D01*
X116980500Y-111728000D01*
X116980500Y-109938000D01*
X141368000Y-109938000D01*
X141368000Y-110349628D01*
X141382503Y-110422540D01*
X141382505Y-110422544D01*
X141437760Y-110505239D01*
X141520455Y-110560494D01*
X141520459Y-110560496D01*
X141593371Y-110574999D01*
X141593374Y-110575000D01*
X142005000Y-110575000D01*
X142005000Y-109938000D01*
X141368000Y-109938000D01*
X116980500Y-109938000D01*
X116980500Y-109594898D01*
X141995051Y-109594898D01*
X142026266Y-109718162D01*
X142095813Y-109824612D01*
X142196157Y-109902713D01*
X142316422Y-109944000D01*
X142411569Y-109944000D01*
X142447525Y-109938000D01*
X142755000Y-109938000D01*
X142755000Y-110575000D01*
X143166626Y-110575000D01*
X143166628Y-110574999D01*
X143239540Y-110560496D01*
X143239544Y-110560494D01*
X143322239Y-110505239D01*
X143377494Y-110422544D01*
X143377496Y-110422540D01*
X143391999Y-110349628D01*
X143392000Y-110349626D01*
X143392000Y-109938000D01*
X142755000Y-109938000D01*
X142447525Y-109938000D01*
X142505421Y-109928339D01*
X142617251Y-109867820D01*
X142703371Y-109774269D01*
X142754448Y-109657823D01*
X142764949Y-109531102D01*
X142733734Y-109407838D01*
X142664187Y-109301388D01*
X142563843Y-109223287D01*
X142443578Y-109182000D01*
X142348431Y-109182000D01*
X142254579Y-109197661D01*
X142142749Y-109258180D01*
X142056629Y-109351731D01*
X142005552Y-109468177D01*
X141995051Y-109594898D01*
X116980500Y-109594898D01*
X116980500Y-109188000D01*
X141368000Y-109188000D01*
X142005000Y-109188000D01*
X142005000Y-108551000D01*
X142755000Y-108551000D01*
X142755000Y-109188000D01*
X143392000Y-109188000D01*
X143392000Y-108776373D01*
X143391999Y-108776371D01*
X143377496Y-108703459D01*
X143377494Y-108703455D01*
X143322239Y-108620760D01*
X143239544Y-108565505D01*
X143239540Y-108565503D01*
X143166627Y-108551000D01*
X142755000Y-108551000D01*
X142005000Y-108551000D01*
X141593373Y-108551000D01*
X141520459Y-108565503D01*
X141520455Y-108565505D01*
X141437760Y-108620760D01*
X141382505Y-108703455D01*
X141382503Y-108703459D01*
X141368000Y-108776371D01*
X141368000Y-109188000D01*
X116980500Y-109188000D01*
X116980500Y-100184749D01*
X141417500Y-100184749D01*
X141427117Y-100233094D01*
X141429500Y-100257287D01*
X141429500Y-102057937D01*
X141427355Y-102142545D01*
X141427355Y-102142546D01*
X141437615Y-102199787D01*
X141438269Y-102204452D01*
X141444154Y-102262318D01*
X141444156Y-102262326D01*
X141453865Y-102293269D01*
X141455737Y-102300898D01*
X141461460Y-102332828D01*
X141461461Y-102332830D01*
X141483032Y-102386833D01*
X141484613Y-102391272D01*
X141502025Y-102446768D01*
X141517765Y-102475125D01*
X141521135Y-102482221D01*
X141533168Y-102512343D01*
X141533170Y-102512348D01*
X141533172Y-102512351D01*
X141533173Y-102512353D01*
X141565174Y-102560908D01*
X141567605Y-102564920D01*
X141595841Y-102615791D01*
X141616972Y-102640406D01*
X141621703Y-102646680D01*
X141639547Y-102673757D01*
X141680667Y-102714877D01*
X141683870Y-102718333D01*
X141703814Y-102741564D01*
X141721760Y-102762468D01*
X141721764Y-102762471D01*
X141721765Y-102762472D01*
X141747407Y-102782320D01*
X141753303Y-102787513D01*
X144366372Y-105400582D01*
X144424674Y-105461917D01*
X144472414Y-105495145D01*
X144476161Y-105497970D01*
X144497531Y-105515395D01*
X144521244Y-105534731D01*
X144521247Y-105534733D01*
X144549995Y-105549749D01*
X144556716Y-105553821D01*
X144575046Y-105566578D01*
X144583342Y-105572353D01*
X144636800Y-105595293D01*
X144641047Y-105597311D01*
X144692594Y-105624237D01*
X144723781Y-105633160D01*
X144731169Y-105635790D01*
X144760988Y-105648587D01*
X144817970Y-105660296D01*
X144822516Y-105661411D01*
X144878449Y-105677417D01*
X144910803Y-105679879D01*
X144918562Y-105680968D01*
X144950344Y-105687500D01*
X145008504Y-105687500D01*
X145013210Y-105687678D01*
X145036623Y-105689461D01*
X145071201Y-105692095D01*
X145071201Y-105692094D01*
X145071203Y-105692095D01*
X145103385Y-105687996D01*
X145111215Y-105687500D01*
X146267131Y-105687500D01*
X146334170Y-105707185D01*
X146345795Y-105715646D01*
X146405550Y-105764685D01*
X146588046Y-105862232D01*
X146786066Y-105922300D01*
X146786065Y-105922300D01*
X146804529Y-105924118D01*
X146992000Y-105942583D01*
X147197934Y-105922300D01*
X147395954Y-105862232D01*
X147578450Y-105764685D01*
X147738410Y-105633410D01*
X147869685Y-105473450D01*
X147967232Y-105290954D01*
X148021516Y-105112000D01*
X148392000Y-105112000D01*
X148392000Y-105534844D01*
X148398401Y-105594372D01*
X148398403Y-105594379D01*
X148448645Y-105729086D01*
X148448649Y-105729093D01*
X148534809Y-105844187D01*
X148534812Y-105844190D01*
X148649906Y-105930350D01*
X148649913Y-105930354D01*
X148784620Y-105980596D01*
X148784627Y-105980598D01*
X148844155Y-105986999D01*
X148844172Y-105987000D01*
X149117000Y-105987000D01*
X149117000Y-105112000D01*
X148392000Y-105112000D01*
X148021516Y-105112000D01*
X148027300Y-105092934D01*
X148042500Y-104938608D01*
X148042500Y-104808889D01*
X148992000Y-104808889D01*
X149032507Y-104946844D01*
X149110239Y-105067798D01*
X149218900Y-105161952D01*
X149349685Y-105221680D01*
X149456237Y-105237000D01*
X149527763Y-105237000D01*
X149634315Y-105221680D01*
X149765100Y-105161952D01*
X149822748Y-105112000D01*
X149867000Y-105112000D01*
X149867000Y-105987000D01*
X150139828Y-105987000D01*
X150139844Y-105986999D01*
X150199372Y-105980598D01*
X150199379Y-105980596D01*
X150334086Y-105930354D01*
X150334093Y-105930350D01*
X150449187Y-105844190D01*
X150449190Y-105844187D01*
X150535350Y-105729093D01*
X150535354Y-105729086D01*
X150585596Y-105594379D01*
X150585598Y-105594372D01*
X150591999Y-105534844D01*
X150592000Y-105534827D01*
X150592000Y-105112000D01*
X149867000Y-105112000D01*
X149822748Y-105112000D01*
X149873761Y-105067798D01*
X149951493Y-104946844D01*
X149992000Y-104808889D01*
X149992000Y-104665111D01*
X149951493Y-104527156D01*
X149873761Y-104406202D01*
X149765100Y-104312048D01*
X149634315Y-104252320D01*
X149527763Y-104237000D01*
X149456237Y-104237000D01*
X149349685Y-104252320D01*
X149218900Y-104312048D01*
X149110239Y-104406202D01*
X149032507Y-104527156D01*
X148992000Y-104665111D01*
X148992000Y-104808889D01*
X148042500Y-104808889D01*
X148042500Y-104535392D01*
X148027300Y-104381066D01*
X148021516Y-104362000D01*
X148392000Y-104362000D01*
X149117000Y-104362000D01*
X149117000Y-103487000D01*
X149867000Y-103487000D01*
X149867000Y-104362000D01*
X150592000Y-104362000D01*
X150592000Y-103939172D01*
X150591999Y-103939155D01*
X150585598Y-103879627D01*
X150585596Y-103879620D01*
X150535354Y-103744913D01*
X150535350Y-103744906D01*
X150449190Y-103629812D01*
X150449187Y-103629809D01*
X150334093Y-103543649D01*
X150334086Y-103543645D01*
X150199379Y-103493403D01*
X150199372Y-103493401D01*
X150139844Y-103487000D01*
X149867000Y-103487000D01*
X149117000Y-103487000D01*
X148844155Y-103487000D01*
X148784627Y-103493401D01*
X148784620Y-103493403D01*
X148649913Y-103543645D01*
X148649906Y-103543649D01*
X148534812Y-103629809D01*
X148534809Y-103629812D01*
X148448649Y-103744906D01*
X148448645Y-103744913D01*
X148398403Y-103879620D01*
X148398401Y-103879627D01*
X148392000Y-103939155D01*
X148392000Y-104362000D01*
X148021516Y-104362000D01*
X147967232Y-104183046D01*
X147869685Y-104000550D01*
X147770441Y-103879620D01*
X147738410Y-103840589D01*
X147578452Y-103709317D01*
X147578453Y-103709317D01*
X147578450Y-103709315D01*
X147395954Y-103611768D01*
X147197934Y-103551700D01*
X147197932Y-103551699D01*
X147197934Y-103551699D01*
X146992000Y-103531417D01*
X146786067Y-103551699D01*
X146588043Y-103611769D01*
X146554288Y-103629812D01*
X146405550Y-103709315D01*
X146405548Y-103709316D01*
X146405547Y-103709317D01*
X146345795Y-103758354D01*
X146281485Y-103785666D01*
X146267131Y-103786500D01*
X145492072Y-103786500D01*
X145425033Y-103766815D01*
X145404391Y-103750181D01*
X143366819Y-101712609D01*
X143333334Y-101651286D01*
X143330500Y-101624928D01*
X143330500Y-100257287D01*
X143332883Y-100233094D01*
X143342500Y-100184749D01*
X143342500Y-98621249D01*
X143342499Y-98621247D01*
X143330868Y-98562770D01*
X143330867Y-98562769D01*
X143286552Y-98496447D01*
X143220230Y-98452132D01*
X143220229Y-98452131D01*
X143161752Y-98440500D01*
X143161748Y-98440500D01*
X141598252Y-98440500D01*
X141598247Y-98440500D01*
X141539770Y-98452131D01*
X141539769Y-98452132D01*
X141473447Y-98496447D01*
X141429132Y-98562769D01*
X141429131Y-98562770D01*
X141417500Y-98621247D01*
X141417500Y-100184749D01*
X116980500Y-100184749D01*
X116980500Y-97644752D01*
X141417500Y-97644752D01*
X141429131Y-97703229D01*
X141429132Y-97703230D01*
X141473447Y-97769552D01*
X141539769Y-97813867D01*
X141539770Y-97813868D01*
X141598247Y-97825499D01*
X141598250Y-97825500D01*
X141598252Y-97825500D01*
X143161749Y-97825500D01*
X143210096Y-97815883D01*
X143234288Y-97813500D01*
X143839928Y-97813500D01*
X143906967Y-97833185D01*
X143927609Y-97849819D01*
X144620372Y-98542582D01*
X144678674Y-98603917D01*
X144678677Y-98603919D01*
X144703575Y-98621249D01*
X144726414Y-98637145D01*
X144730161Y-98639970D01*
X144742254Y-98649830D01*
X144775244Y-98676731D01*
X144775247Y-98676733D01*
X144803995Y-98691749D01*
X144810716Y-98695821D01*
X144828605Y-98708272D01*
X144837342Y-98714353D01*
X144890800Y-98737293D01*
X144895047Y-98739311D01*
X144900693Y-98742260D01*
X144946594Y-98766237D01*
X144977781Y-98775160D01*
X144985169Y-98777790D01*
X145014988Y-98790587D01*
X145071986Y-98802299D01*
X145076526Y-98803415D01*
X145132448Y-98819417D01*
X145164805Y-98821880D01*
X145172559Y-98822967D01*
X145204344Y-98829500D01*
X145262503Y-98829500D01*
X145267209Y-98829678D01*
X145290216Y-98831430D01*
X145325201Y-98834095D01*
X145325201Y-98834094D01*
X145325203Y-98834095D01*
X145357385Y-98829996D01*
X145365215Y-98829500D01*
X146267131Y-98829500D01*
X146334170Y-98849185D01*
X146345795Y-98857646D01*
X146405550Y-98906685D01*
X146588046Y-99004232D01*
X146786066Y-99064300D01*
X146786065Y-99064300D01*
X146804529Y-99066118D01*
X146992000Y-99084583D01*
X147197934Y-99064300D01*
X147395954Y-99004232D01*
X147578450Y-98906685D01*
X147738410Y-98775410D01*
X147869685Y-98615450D01*
X147967232Y-98432954D01*
X148027300Y-98234934D01*
X148042500Y-98080608D01*
X148042500Y-97677392D01*
X148027300Y-97523066D01*
X147967232Y-97325046D01*
X147869685Y-97142550D01*
X147814027Y-97074730D01*
X147738410Y-96982589D01*
X147592421Y-96862781D01*
X147578450Y-96851315D01*
X147395954Y-96753768D01*
X147197934Y-96693700D01*
X147197932Y-96693699D01*
X147197934Y-96693699D01*
X146992000Y-96673417D01*
X146786067Y-96693699D01*
X146588043Y-96753769D01*
X146515861Y-96792352D01*
X146405550Y-96851315D01*
X146405548Y-96851316D01*
X146405547Y-96851317D01*
X146345795Y-96900354D01*
X146281485Y-96927666D01*
X146267131Y-96928500D01*
X145746072Y-96928500D01*
X145679033Y-96908815D01*
X145658391Y-96892181D01*
X144965627Y-96199417D01*
X144907324Y-96138082D01*
X144907320Y-96138079D01*
X144859567Y-96104841D01*
X144855833Y-96102025D01*
X144810751Y-96065266D01*
X144810747Y-96065264D01*
X144810746Y-96065263D01*
X144810745Y-96065262D01*
X144781997Y-96050246D01*
X144775277Y-96046174D01*
X144748659Y-96027647D01*
X144695209Y-96004710D01*
X144690952Y-96002688D01*
X144639409Y-95975764D01*
X144639407Y-95975763D01*
X144639406Y-95975763D01*
X144622689Y-95970979D01*
X144608221Y-95966839D01*
X144600822Y-95964205D01*
X144571011Y-95951412D01*
X144571012Y-95951412D01*
X144514038Y-95939703D01*
X144509463Y-95938580D01*
X144453556Y-95922583D01*
X144453545Y-95922582D01*
X144421208Y-95920120D01*
X144413428Y-95919029D01*
X144381657Y-95912500D01*
X144381656Y-95912500D01*
X144323497Y-95912500D01*
X144318790Y-95912321D01*
X144313850Y-95911944D01*
X144260798Y-95907904D01*
X144243429Y-95910117D01*
X144228614Y-95912003D01*
X144220785Y-95912500D01*
X143234288Y-95912500D01*
X143210096Y-95910117D01*
X143161750Y-95900500D01*
X143161748Y-95900500D01*
X141598252Y-95900500D01*
X141598247Y-95900500D01*
X141539770Y-95912131D01*
X141539769Y-95912132D01*
X141473447Y-95956447D01*
X141429132Y-96022769D01*
X141429131Y-96022770D01*
X141417500Y-96081247D01*
X141417500Y-97644752D01*
X116980500Y-97644752D01*
X116980500Y-91184847D01*
X120013481Y-91184847D01*
X120097800Y-91236518D01*
X120318839Y-91328075D01*
X120551480Y-91383927D01*
X120790000Y-91402699D01*
X121028519Y-91383927D01*
X121261160Y-91328075D01*
X121482195Y-91236519D01*
X121566516Y-91184846D01*
X120790000Y-90408330D01*
X120013481Y-91184846D01*
X120013481Y-91184847D01*
X116980500Y-91184847D01*
X116980500Y-89878000D01*
X119265300Y-89878000D01*
X119284072Y-90116519D01*
X119339924Y-90349160D01*
X119431481Y-90570199D01*
X119483152Y-90654517D01*
X120187781Y-89949889D01*
X120290000Y-89949889D01*
X120330507Y-90087844D01*
X120408239Y-90208798D01*
X120516900Y-90302952D01*
X120647685Y-90362680D01*
X120754237Y-90378000D01*
X120825763Y-90378000D01*
X120932315Y-90362680D01*
X121063100Y-90302952D01*
X121171761Y-90208798D01*
X121249493Y-90087844D01*
X121290000Y-89949889D01*
X121290000Y-89878000D01*
X121320330Y-89878000D01*
X122096846Y-90654516D01*
X122148519Y-90570195D01*
X122240075Y-90349160D01*
X122295927Y-90116519D01*
X122314699Y-89878000D01*
X122295927Y-89639480D01*
X122240075Y-89406839D01*
X122148518Y-89185800D01*
X122096846Y-89101481D01*
X121320330Y-89877999D01*
X121320330Y-89878000D01*
X121290000Y-89878000D01*
X121290000Y-89806111D01*
X121249493Y-89668156D01*
X121171761Y-89547202D01*
X121063100Y-89453048D01*
X120932315Y-89393320D01*
X120825763Y-89378000D01*
X120754237Y-89378000D01*
X120647685Y-89393320D01*
X120516900Y-89453048D01*
X120408239Y-89547202D01*
X120330507Y-89668156D01*
X120290000Y-89806111D01*
X120290000Y-89949889D01*
X120187781Y-89949889D01*
X120259670Y-89878000D01*
X120259670Y-89877999D01*
X119483152Y-89101481D01*
X119431481Y-89185802D01*
X119431478Y-89185808D01*
X119339924Y-89406839D01*
X119284072Y-89639480D01*
X119265300Y-89878000D01*
X116980500Y-89878000D01*
X116980500Y-88571152D01*
X120013481Y-88571152D01*
X120790000Y-89347670D01*
X120790001Y-89347670D01*
X121566517Y-88571152D01*
X121482199Y-88519481D01*
X121261160Y-88427924D01*
X121028519Y-88372072D01*
X120790000Y-88353300D01*
X120551480Y-88372072D01*
X120318839Y-88427924D01*
X120097808Y-88519478D01*
X120097802Y-88519481D01*
X120013481Y-88571152D01*
X116980500Y-88571152D01*
X116980500Y-64045001D01*
X129994904Y-64045001D01*
X129996804Y-64059920D01*
X129999003Y-64077185D01*
X129999500Y-64085014D01*
X129999500Y-89027737D01*
X129997355Y-89112345D01*
X129997355Y-89112346D01*
X130007615Y-89169587D01*
X130008269Y-89174252D01*
X130014154Y-89232118D01*
X130014156Y-89232126D01*
X130023865Y-89263069D01*
X130025737Y-89270698D01*
X130031460Y-89302628D01*
X130031461Y-89302630D01*
X130053032Y-89356633D01*
X130054613Y-89361072D01*
X130072025Y-89416568D01*
X130087765Y-89444925D01*
X130091135Y-89452021D01*
X130103168Y-89482143D01*
X130103170Y-89482148D01*
X130103172Y-89482151D01*
X130103173Y-89482153D01*
X130135174Y-89530708D01*
X130137605Y-89534720D01*
X130165841Y-89585591D01*
X130186972Y-89610206D01*
X130191703Y-89616480D01*
X130209547Y-89643557D01*
X130250667Y-89684677D01*
X130253870Y-89688133D01*
X130273814Y-89711364D01*
X130291760Y-89732268D01*
X130291764Y-89732271D01*
X130291765Y-89732272D01*
X130317407Y-89752120D01*
X130323303Y-89757313D01*
X135273172Y-94707182D01*
X135331474Y-94768517D01*
X135331477Y-94768519D01*
X135376021Y-94799523D01*
X135379214Y-94801745D01*
X135382961Y-94804570D01*
X135404331Y-94821995D01*
X135428044Y-94841331D01*
X135428047Y-94841333D01*
X135456795Y-94856349D01*
X135463516Y-94860421D01*
X135481846Y-94873178D01*
X135490142Y-94878953D01*
X135543600Y-94901893D01*
X135547847Y-94903911D01*
X135599394Y-94930837D01*
X135630581Y-94939760D01*
X135637969Y-94942390D01*
X135667788Y-94955187D01*
X135724786Y-94966899D01*
X135729326Y-94968015D01*
X135785248Y-94984017D01*
X135817605Y-94986480D01*
X135825359Y-94987567D01*
X135857144Y-94994100D01*
X135915303Y-94994100D01*
X135920009Y-94994278D01*
X135943016Y-94996030D01*
X135978001Y-94998695D01*
X135978001Y-94998694D01*
X135978003Y-94998695D01*
X136010185Y-94994596D01*
X136018015Y-94994100D01*
X146608528Y-94994100D01*
X146675567Y-95013785D01*
X146696209Y-95030419D01*
X148458142Y-96792352D01*
X148491627Y-96853675D01*
X148487503Y-96920987D01*
X148444353Y-97044302D01*
X148441500Y-97074730D01*
X148441500Y-98683269D01*
X148444353Y-98713699D01*
X148444353Y-98713701D01*
X148484874Y-98829500D01*
X148489207Y-98841882D01*
X148569850Y-98951150D01*
X148679118Y-99031793D01*
X148721845Y-99046744D01*
X148807299Y-99076646D01*
X148837730Y-99079500D01*
X148837734Y-99079500D01*
X150146270Y-99079500D01*
X150176699Y-99076646D01*
X150176701Y-99076646D01*
X150240790Y-99054219D01*
X150304882Y-99031793D01*
X150414150Y-98951150D01*
X150494793Y-98841882D01*
X150528823Y-98744630D01*
X150539646Y-98713701D01*
X150539646Y-98713699D01*
X150542500Y-98683269D01*
X150542500Y-97074730D01*
X150539646Y-97044300D01*
X150539646Y-97044298D01*
X150506006Y-96948163D01*
X150494793Y-96916118D01*
X150494791Y-96916115D01*
X150494790Y-96916113D01*
X150466730Y-96878093D01*
X150442759Y-96812464D01*
X150442500Y-96804460D01*
X150442500Y-96494044D01*
X150444644Y-96409457D01*
X150444643Y-96409456D01*
X150444644Y-96409453D01*
X150434382Y-96352204D01*
X150433729Y-96347537D01*
X150427845Y-96289680D01*
X150427844Y-96289674D01*
X150418132Y-96258723D01*
X150416262Y-96251105D01*
X150410539Y-96219172D01*
X150388963Y-96165157D01*
X150387382Y-96160716D01*
X150369975Y-96105234D01*
X150369974Y-96105233D01*
X150369974Y-96105232D01*
X150354233Y-96076873D01*
X150350863Y-96069775D01*
X150343062Y-96050246D01*
X150338830Y-96039651D01*
X150306822Y-95991085D01*
X150304382Y-95987056D01*
X150276159Y-95936209D01*
X150264461Y-95922583D01*
X150255028Y-95911594D01*
X150250304Y-95905330D01*
X150232451Y-95878241D01*
X150232450Y-95878239D01*
X150211891Y-95857681D01*
X150191319Y-95837109D01*
X150188128Y-95833666D01*
X150150240Y-95789532D01*
X150124590Y-95769677D01*
X150118696Y-95764486D01*
X147734227Y-93380017D01*
X147675924Y-93318682D01*
X147675920Y-93318679D01*
X147628167Y-93285441D01*
X147624433Y-93282625D01*
X147579351Y-93245866D01*
X147579347Y-93245864D01*
X147579346Y-93245863D01*
X147579345Y-93245862D01*
X147550597Y-93230846D01*
X147543877Y-93226774D01*
X147517259Y-93208247D01*
X147463809Y-93185310D01*
X147459552Y-93183288D01*
X147408009Y-93156364D01*
X147408007Y-93156363D01*
X147408006Y-93156363D01*
X147391289Y-93151579D01*
X147376821Y-93147439D01*
X147369422Y-93144805D01*
X147339611Y-93132012D01*
X147339612Y-93132012D01*
X147282638Y-93120303D01*
X147278063Y-93119180D01*
X147222156Y-93103183D01*
X147222145Y-93103182D01*
X147189808Y-93100720D01*
X147182028Y-93099629D01*
X147150257Y-93093100D01*
X147150256Y-93093100D01*
X147092097Y-93093100D01*
X147087390Y-93092921D01*
X147082450Y-93092544D01*
X147029398Y-93088504D01*
X147011776Y-93090749D01*
X146997214Y-93092603D01*
X146989385Y-93093100D01*
X136398872Y-93093100D01*
X136331833Y-93073415D01*
X136311191Y-93056781D01*
X133132416Y-89878006D01*
X137094460Y-89878006D01*
X137114582Y-90120858D01*
X137114584Y-90120866D01*
X137174408Y-90357106D01*
X137272301Y-90580280D01*
X137320803Y-90654517D01*
X137405592Y-90784295D01*
X137570644Y-90963590D01*
X137570647Y-90963592D01*
X137570650Y-90963595D01*
X137758108Y-91109500D01*
X137762956Y-91113273D01*
X137762958Y-91113274D01*
X137762961Y-91113276D01*
X137807428Y-91137340D01*
X137977282Y-91229260D01*
X138207776Y-91308389D01*
X138448151Y-91348500D01*
X138691849Y-91348500D01*
X138932224Y-91308389D01*
X139162718Y-91229260D01*
X139377044Y-91113273D01*
X139569356Y-90963590D01*
X139600875Y-90929350D01*
X139656878Y-90868517D01*
X139716765Y-90832526D01*
X139748107Y-90828500D01*
X140916648Y-90828500D01*
X140983687Y-90848185D01*
X140991636Y-90854106D01*
X141043413Y-90890145D01*
X141047161Y-90892970D01*
X141092249Y-90929734D01*
X141120299Y-90944386D01*
X141120998Y-90944751D01*
X141127718Y-90948822D01*
X141148935Y-90963590D01*
X141154342Y-90967353D01*
X141207808Y-90990296D01*
X141212049Y-90992310D01*
X141263594Y-91019236D01*
X141294788Y-91028161D01*
X141302157Y-91030785D01*
X141331988Y-91043587D01*
X141388980Y-91055298D01*
X141393543Y-91056419D01*
X141433474Y-91067845D01*
X141449448Y-91072416D01*
X141481791Y-91074878D01*
X141489567Y-91075969D01*
X141521344Y-91082500D01*
X141579506Y-91082500D01*
X141584213Y-91082678D01*
X141608789Y-91084550D01*
X141642201Y-91087095D01*
X141642201Y-91087094D01*
X141642203Y-91087095D01*
X141674385Y-91082996D01*
X141682215Y-91082500D01*
X142937366Y-91082500D01*
X142973361Y-91087839D01*
X143027305Y-91104202D01*
X143072868Y-91118024D01*
X143269000Y-91137341D01*
X143465132Y-91118024D01*
X143527636Y-91099063D01*
X143564639Y-91087839D01*
X143600634Y-91082500D01*
X144907937Y-91082500D01*
X144992539Y-91084644D01*
X144992539Y-91084643D01*
X144992546Y-91084644D01*
X145049818Y-91074378D01*
X145054432Y-91073731D01*
X145112321Y-91067845D01*
X145143286Y-91058128D01*
X145150886Y-91056263D01*
X145182828Y-91050539D01*
X145236830Y-91028967D01*
X145241267Y-91027387D01*
X145245957Y-91025915D01*
X145296768Y-91009974D01*
X145325134Y-90994228D01*
X145332214Y-90990866D01*
X145362348Y-90978830D01*
X145410917Y-90946818D01*
X145414926Y-90944389D01*
X145465791Y-90916159D01*
X145490408Y-90895023D01*
X145496672Y-90890301D01*
X145523759Y-90872451D01*
X145564906Y-90831302D01*
X145568325Y-90828134D01*
X145612468Y-90790240D01*
X145632328Y-90764581D01*
X145637499Y-90758709D01*
X146039391Y-90356819D01*
X146100714Y-90323334D01*
X146127072Y-90320500D01*
X148036500Y-90320500D01*
X148103539Y-90340185D01*
X148149294Y-90392989D01*
X148160500Y-90444500D01*
X148160500Y-91770937D01*
X148158355Y-91855545D01*
X148158355Y-91855546D01*
X148168615Y-91912787D01*
X148169269Y-91917452D01*
X148175154Y-91975318D01*
X148175156Y-91975326D01*
X148184865Y-92006269D01*
X148186737Y-92013898D01*
X148192460Y-92045828D01*
X148192461Y-92045830D01*
X148214032Y-92099833D01*
X148215613Y-92104272D01*
X148233025Y-92159768D01*
X148248765Y-92188125D01*
X148252135Y-92195221D01*
X148264168Y-92225343D01*
X148264170Y-92225348D01*
X148264172Y-92225351D01*
X148264173Y-92225353D01*
X148296174Y-92273908D01*
X148298605Y-92277920D01*
X148326841Y-92328791D01*
X148347972Y-92353406D01*
X148352703Y-92359680D01*
X148370547Y-92386757D01*
X148411667Y-92427877D01*
X148414870Y-92431333D01*
X148434814Y-92454564D01*
X148452760Y-92475468D01*
X148452764Y-92475471D01*
X148452765Y-92475472D01*
X148478407Y-92495320D01*
X148484303Y-92500513D01*
X151172181Y-95188391D01*
X151205666Y-95249714D01*
X151208500Y-95276072D01*
X151208500Y-98374937D01*
X151206355Y-98459545D01*
X151206355Y-98459546D01*
X151216615Y-98516787D01*
X151217269Y-98521452D01*
X151223154Y-98579318D01*
X151223156Y-98579326D01*
X151232865Y-98610269D01*
X151234737Y-98617898D01*
X151240460Y-98649828D01*
X151240461Y-98649830D01*
X151262032Y-98703833D01*
X151263613Y-98708272D01*
X151281025Y-98763768D01*
X151296765Y-98792125D01*
X151300135Y-98799221D01*
X151308203Y-98819417D01*
X151312170Y-98829348D01*
X151312172Y-98829351D01*
X151312173Y-98829353D01*
X151344174Y-98877908D01*
X151346605Y-98881920D01*
X151374841Y-98932791D01*
X151395972Y-98957406D01*
X151400703Y-98963680D01*
X151418547Y-98990757D01*
X151459667Y-99031877D01*
X151462870Y-99035333D01*
X151482814Y-99058564D01*
X151500760Y-99079468D01*
X151500764Y-99079471D01*
X151500765Y-99079472D01*
X151526407Y-99099320D01*
X151532303Y-99104513D01*
X152621372Y-100193582D01*
X152679674Y-100254917D01*
X152727414Y-100288145D01*
X152731161Y-100290970D01*
X152752531Y-100308395D01*
X152776244Y-100327731D01*
X152776247Y-100327733D01*
X152804995Y-100342749D01*
X152811716Y-100346821D01*
X152830046Y-100359578D01*
X152838342Y-100365353D01*
X152891800Y-100388293D01*
X152896047Y-100390311D01*
X152947594Y-100417237D01*
X152978781Y-100426160D01*
X152986169Y-100428790D01*
X153015988Y-100441587D01*
X153072986Y-100453299D01*
X153077526Y-100454415D01*
X153133448Y-100470417D01*
X153165805Y-100472880D01*
X153173559Y-100473967D01*
X153205344Y-100480500D01*
X153263503Y-100480500D01*
X153268209Y-100480678D01*
X153291216Y-100482430D01*
X153326201Y-100485095D01*
X153326201Y-100485094D01*
X153326203Y-100485095D01*
X153358385Y-100480996D01*
X153366215Y-100480500D01*
X154480481Y-100480500D01*
X154547520Y-100500185D01*
X154568162Y-100516819D01*
X155330399Y-101279056D01*
X155332935Y-101281750D01*
X155374071Y-101328183D01*
X155374073Y-101328185D01*
X155401021Y-101346786D01*
X155425117Y-101363417D01*
X155428107Y-101365617D01*
X155476943Y-101403878D01*
X155486180Y-101408035D01*
X155505726Y-101419058D01*
X155514070Y-101424818D01*
X155572052Y-101446807D01*
X155575514Y-101448241D01*
X155632068Y-101473694D01*
X155642030Y-101475519D01*
X155663651Y-101481546D01*
X155673125Y-101485139D01*
X155673128Y-101485140D01*
X155689871Y-101487173D01*
X155734689Y-101492615D01*
X155738386Y-101493177D01*
X155799394Y-101504357D01*
X155799395Y-101504356D01*
X155799396Y-101504357D01*
X155861293Y-101500613D01*
X155865037Y-101500500D01*
X170359481Y-101500500D01*
X170426520Y-101520185D01*
X170447162Y-101536819D01*
X170915792Y-102005449D01*
X170949277Y-102066772D01*
X170944293Y-102136464D01*
X170937469Y-102151583D01*
X170915188Y-102193266D01*
X170857975Y-102381870D01*
X170838659Y-102578000D01*
X170857975Y-102774129D01*
X170857976Y-102774132D01*
X170905503Y-102930808D01*
X170915188Y-102962733D01*
X171008086Y-103136532D01*
X171008090Y-103136539D01*
X171074189Y-103217079D01*
X171115353Y-103267238D01*
X171142666Y-103331546D01*
X171143500Y-103345902D01*
X171143500Y-105577121D01*
X171123815Y-105644160D01*
X171098169Y-105672971D01*
X171093114Y-105677119D01*
X170968090Y-105829460D01*
X170968086Y-105829467D01*
X170875188Y-106003266D01*
X170817975Y-106191870D01*
X170798659Y-106388000D01*
X170817975Y-106584129D01*
X170875188Y-106772733D01*
X170968086Y-106946532D01*
X170968090Y-106946539D01*
X171034189Y-107027079D01*
X171075353Y-107077238D01*
X171102666Y-107141546D01*
X171103500Y-107155902D01*
X171103500Y-108737951D01*
X171103387Y-108741696D01*
X171099642Y-108803603D01*
X171099642Y-108803605D01*
X171110821Y-108864612D01*
X171111384Y-108868313D01*
X171118859Y-108929870D01*
X171118860Y-108929874D01*
X171122451Y-108939343D01*
X171128474Y-108960946D01*
X171130304Y-108970930D01*
X171155759Y-109027490D01*
X171157189Y-109030941D01*
X171179182Y-109088930D01*
X171179183Y-109088931D01*
X171184936Y-109097266D01*
X171195961Y-109116813D01*
X171200120Y-109126055D01*
X171200124Y-109126060D01*
X171238371Y-109174878D01*
X171240591Y-109177896D01*
X171275812Y-109228924D01*
X171275816Y-109228928D01*
X171275817Y-109228929D01*
X171322250Y-109270064D01*
X171324941Y-109272598D01*
X172146843Y-110094500D01*
X172965181Y-110912838D01*
X172998666Y-110974161D01*
X173001500Y-111000519D01*
X173001500Y-111008265D01*
X172981815Y-111075304D01*
X172959729Y-111100115D01*
X172959897Y-111100283D01*
X172957021Y-111103158D01*
X172956173Y-111104110D01*
X172955590Y-111104590D01*
X172955588Y-111104592D01*
X172824317Y-111264546D01*
X172726769Y-111447043D01*
X172666699Y-111645067D01*
X172657580Y-111737661D01*
X172651620Y-111798180D01*
X172651500Y-111799395D01*
X172651500Y-112152604D01*
X172666699Y-112306932D01*
X172696734Y-112405944D01*
X172726768Y-112504954D01*
X172824315Y-112687450D01*
X172824317Y-112687452D01*
X172955589Y-112847410D01*
X173007033Y-112889628D01*
X173115550Y-112978685D01*
X173298046Y-113076232D01*
X173496066Y-113136300D01*
X173496065Y-113136300D01*
X173514529Y-113138118D01*
X173702000Y-113156583D01*
X173907934Y-113136300D01*
X174105954Y-113076232D01*
X174288450Y-112978685D01*
X174448410Y-112847410D01*
X174579685Y-112687450D01*
X174677232Y-112504954D01*
X174737300Y-112306934D01*
X174752500Y-112152608D01*
X174752500Y-111799392D01*
X174737300Y-111645066D01*
X174677232Y-111447046D01*
X174579685Y-111264550D01*
X174448410Y-111104590D01*
X174447827Y-111104112D01*
X174447604Y-111103784D01*
X174444103Y-111100283D01*
X174444767Y-111099618D01*
X174408498Y-111046365D01*
X174402500Y-111008265D01*
X174402500Y-110682035D01*
X174402613Y-110678290D01*
X174406357Y-110616394D01*
X174395177Y-110555386D01*
X174394615Y-110551689D01*
X174387140Y-110490129D01*
X174387139Y-110490125D01*
X174383546Y-110480651D01*
X174377519Y-110459029D01*
X174375694Y-110449070D01*
X174375694Y-110449068D01*
X174350239Y-110392512D01*
X174348809Y-110389057D01*
X174326818Y-110331070D01*
X174321059Y-110322727D01*
X174310030Y-110303172D01*
X174305877Y-110293943D01*
X174305874Y-110293938D01*
X174267633Y-110245127D01*
X174265413Y-110242110D01*
X174251829Y-110222431D01*
X174230183Y-110191071D01*
X174183750Y-110149935D01*
X174181056Y-110147399D01*
X172540819Y-108507162D01*
X172507334Y-108445839D01*
X172504500Y-108419481D01*
X172504500Y-108292998D01*
X173549535Y-108292998D01*
X173554021Y-108327083D01*
X173554023Y-108327098D01*
X173569313Y-108443235D01*
X173569313Y-108443236D01*
X173627301Y-108583232D01*
X173697680Y-108674952D01*
X173697689Y-108674963D01*
X173719546Y-108703448D01*
X173719547Y-108703449D01*
X173719549Y-108703451D01*
X173743053Y-108721486D01*
X173746506Y-108724136D01*
X173752609Y-108729489D01*
X175637181Y-110614061D01*
X175670666Y-110675384D01*
X175673500Y-110701742D01*
X175673500Y-110868314D01*
X175653815Y-110935353D01*
X175618394Y-110971414D01*
X175615551Y-110973313D01*
X175455589Y-111104589D01*
X175324317Y-111264547D01*
X175226769Y-111447043D01*
X175166699Y-111645067D01*
X175157580Y-111737661D01*
X175151620Y-111798180D01*
X175151500Y-111799395D01*
X175151500Y-112152604D01*
X175166699Y-112306932D01*
X175196734Y-112405944D01*
X175226768Y-112504954D01*
X175324315Y-112687450D01*
X175324317Y-112687452D01*
X175455589Y-112847410D01*
X175507033Y-112889628D01*
X175615550Y-112978685D01*
X175798046Y-113076232D01*
X175996066Y-113136300D01*
X175996065Y-113136300D01*
X176014529Y-113138118D01*
X176202000Y-113156583D01*
X176407934Y-113136300D01*
X176605954Y-113076232D01*
X176788450Y-112978685D01*
X176948410Y-112847410D01*
X177079685Y-112687450D01*
X177177232Y-112504954D01*
X177223933Y-112351000D01*
X177602000Y-112351000D01*
X177602000Y-112748844D01*
X177608401Y-112808372D01*
X177608403Y-112808379D01*
X177658645Y-112943086D01*
X177658649Y-112943093D01*
X177744809Y-113058187D01*
X177744812Y-113058190D01*
X177859906Y-113144350D01*
X177859913Y-113144354D01*
X177994620Y-113194596D01*
X177994627Y-113194598D01*
X178054155Y-113200999D01*
X178054172Y-113201000D01*
X178327000Y-113201000D01*
X178327000Y-112351000D01*
X177602000Y-112351000D01*
X177223933Y-112351000D01*
X177237300Y-112306934D01*
X177252500Y-112152608D01*
X177252500Y-112044295D01*
X178227000Y-112044295D01*
X178265481Y-112175351D01*
X178339327Y-112290258D01*
X178442555Y-112379705D01*
X178566801Y-112436446D01*
X178668025Y-112451000D01*
X178735975Y-112451000D01*
X178837199Y-112436446D01*
X178961445Y-112379705D01*
X178994573Y-112351000D01*
X179077000Y-112351000D01*
X179077000Y-113201000D01*
X179349828Y-113201000D01*
X179349844Y-113200999D01*
X179409372Y-113194598D01*
X179409379Y-113194596D01*
X179544086Y-113144354D01*
X179544093Y-113144350D01*
X179659187Y-113058190D01*
X179659190Y-113058187D01*
X179745350Y-112943093D01*
X179745354Y-112943086D01*
X179795596Y-112808379D01*
X179795598Y-112808372D01*
X179801999Y-112748844D01*
X179802000Y-112748827D01*
X179802000Y-112351000D01*
X179077000Y-112351000D01*
X178994573Y-112351000D01*
X179064673Y-112290258D01*
X179138519Y-112175351D01*
X179177000Y-112044295D01*
X179177000Y-111907705D01*
X179138519Y-111776649D01*
X179064673Y-111661742D01*
X178961445Y-111572295D01*
X178837199Y-111515554D01*
X178735975Y-111501000D01*
X178668025Y-111501000D01*
X178566801Y-111515554D01*
X178442555Y-111572295D01*
X178339327Y-111661742D01*
X178265481Y-111776649D01*
X178227000Y-111907705D01*
X178227000Y-112044295D01*
X177252500Y-112044295D01*
X177252500Y-111799392D01*
X177237300Y-111645066D01*
X177223933Y-111601000D01*
X177602000Y-111601000D01*
X178327000Y-111601000D01*
X178327000Y-110751000D01*
X179077000Y-110751000D01*
X179077000Y-111601000D01*
X179802000Y-111601000D01*
X179802000Y-111203172D01*
X179801999Y-111203155D01*
X179795598Y-111143627D01*
X179795596Y-111143620D01*
X179745354Y-111008913D01*
X179745350Y-111008906D01*
X179659190Y-110893812D01*
X179659187Y-110893809D01*
X179544093Y-110807649D01*
X179544086Y-110807645D01*
X179409379Y-110757403D01*
X179409372Y-110757401D01*
X179349844Y-110751000D01*
X179077000Y-110751000D01*
X178327000Y-110751000D01*
X178054155Y-110751000D01*
X177994627Y-110757401D01*
X177994620Y-110757403D01*
X177859913Y-110807645D01*
X177859906Y-110807649D01*
X177744812Y-110893809D01*
X177744809Y-110893812D01*
X177658649Y-111008906D01*
X177658645Y-111008913D01*
X177608403Y-111143620D01*
X177608401Y-111143627D01*
X177602000Y-111203155D01*
X177602000Y-111601000D01*
X177223933Y-111601000D01*
X177177232Y-111447046D01*
X177079685Y-111264550D01*
X177027702Y-111201209D01*
X176948410Y-111104589D01*
X176869836Y-111040106D01*
X176830501Y-110982360D01*
X176824500Y-110944252D01*
X176824500Y-110654741D01*
X176844185Y-110587702D01*
X176860814Y-110567065D01*
X179557776Y-107870102D01*
X179619097Y-107836619D01*
X179681449Y-107839124D01*
X179822868Y-107882024D01*
X180019000Y-107901341D01*
X180215132Y-107882024D01*
X180403727Y-107824814D01*
X180577538Y-107731910D01*
X180729883Y-107606883D01*
X180854910Y-107454538D01*
X180947814Y-107280727D01*
X181005024Y-107092132D01*
X181024341Y-106896000D01*
X181005024Y-106699868D01*
X180947814Y-106511273D01*
X180947811Y-106511269D01*
X180947811Y-106511266D01*
X180854913Y-106337467D01*
X180854909Y-106337460D01*
X180729883Y-106185116D01*
X180577539Y-106060090D01*
X180577532Y-106060086D01*
X180403733Y-105967188D01*
X180403727Y-105967186D01*
X180215132Y-105909976D01*
X180215129Y-105909975D01*
X180019000Y-105890659D01*
X179822870Y-105909975D01*
X179634266Y-105967188D01*
X179460467Y-106060086D01*
X179460460Y-106060090D01*
X179308116Y-106185116D01*
X179183090Y-106337460D01*
X179183086Y-106337467D01*
X179090188Y-106511266D01*
X179032975Y-106699870D01*
X179029974Y-106730342D01*
X179003812Y-106795128D01*
X178994252Y-106805866D01*
X176313180Y-109486938D01*
X176251857Y-109520423D01*
X176182165Y-109515439D01*
X176137818Y-109486938D01*
X174741819Y-108090939D01*
X174708334Y-108029616D01*
X174705500Y-108003258D01*
X174705500Y-107348599D01*
X176373729Y-107348599D01*
X176400235Y-107362766D01*
X176598165Y-107422808D01*
X176804000Y-107443080D01*
X177009834Y-107422808D01*
X177207763Y-107362767D01*
X177234268Y-107348598D01*
X177234269Y-107348598D01*
X176804001Y-106918330D01*
X176804000Y-106918330D01*
X176373729Y-107348599D01*
X174705500Y-107348599D01*
X174705500Y-106388000D01*
X175748919Y-106388000D01*
X175769191Y-106593833D01*
X175829234Y-106791765D01*
X175843400Y-106818268D01*
X175843401Y-106818269D01*
X176273670Y-106388000D01*
X176399014Y-106388000D01*
X176418835Y-106513148D01*
X176476359Y-106626045D01*
X176565955Y-106715641D01*
X176678852Y-106773165D01*
X176772519Y-106788000D01*
X176835481Y-106788000D01*
X176929148Y-106773165D01*
X177042045Y-106715641D01*
X177131641Y-106626045D01*
X177189165Y-106513148D01*
X177208986Y-106388001D01*
X177334330Y-106388001D01*
X177764598Y-106818269D01*
X177764598Y-106818268D01*
X177778767Y-106791763D01*
X177838808Y-106593834D01*
X177859080Y-106388000D01*
X177838808Y-106182165D01*
X177778766Y-105984235D01*
X177764599Y-105957730D01*
X177334330Y-106387999D01*
X177334330Y-106388001D01*
X177208986Y-106388001D01*
X177208986Y-106388000D01*
X177189165Y-106262852D01*
X177131641Y-106149955D01*
X177042045Y-106060359D01*
X176929148Y-106002835D01*
X176835481Y-105988000D01*
X176772519Y-105988000D01*
X176678852Y-106002835D01*
X176565955Y-106060359D01*
X176476359Y-106149955D01*
X176418835Y-106262852D01*
X176399014Y-106388000D01*
X176273670Y-106388000D01*
X176273670Y-106387999D01*
X175843401Y-105957730D01*
X175843400Y-105957730D01*
X175829231Y-105984239D01*
X175769191Y-106182165D01*
X175748919Y-106388000D01*
X174705500Y-106388000D01*
X174705500Y-105427401D01*
X176373730Y-105427401D01*
X176804000Y-105857670D01*
X176804001Y-105857670D01*
X177234269Y-105427401D01*
X177234268Y-105427400D01*
X177207765Y-105413234D01*
X177009833Y-105353191D01*
X176804000Y-105332919D01*
X176598165Y-105353191D01*
X176400239Y-105413231D01*
X176373730Y-105427400D01*
X176373730Y-105427401D01*
X174705500Y-105427401D01*
X174705500Y-103538599D01*
X176413729Y-103538599D01*
X176440235Y-103552766D01*
X176638165Y-103612808D01*
X176844000Y-103633080D01*
X177049834Y-103612808D01*
X177247763Y-103552767D01*
X177274268Y-103538598D01*
X177274269Y-103538598D01*
X176844001Y-103108330D01*
X176844000Y-103108330D01*
X176413729Y-103538599D01*
X174705500Y-103538599D01*
X174705500Y-102578000D01*
X175788919Y-102578000D01*
X175809191Y-102783833D01*
X175869234Y-102981765D01*
X175883400Y-103008268D01*
X175883401Y-103008269D01*
X176313670Y-102578000D01*
X176439014Y-102578000D01*
X176458835Y-102703148D01*
X176516359Y-102816045D01*
X176605955Y-102905641D01*
X176718852Y-102963165D01*
X176812519Y-102978000D01*
X176875481Y-102978000D01*
X176969148Y-102963165D01*
X177082045Y-102905641D01*
X177171641Y-102816045D01*
X177229165Y-102703148D01*
X177248986Y-102578001D01*
X177374330Y-102578001D01*
X177804598Y-103008269D01*
X177804598Y-103008268D01*
X177818767Y-102981763D01*
X177856735Y-102856599D01*
X179588729Y-102856599D01*
X179615235Y-102870766D01*
X179813165Y-102930808D01*
X180019000Y-102951080D01*
X180224834Y-102930808D01*
X180422763Y-102870767D01*
X180449268Y-102856598D01*
X180449269Y-102856598D01*
X180019001Y-102426330D01*
X180019000Y-102426330D01*
X179588729Y-102856599D01*
X177856735Y-102856599D01*
X177878808Y-102783834D01*
X177899080Y-102578000D01*
X177878808Y-102372165D01*
X177818766Y-102174235D01*
X177804599Y-102147730D01*
X177374330Y-102577999D01*
X177374330Y-102578001D01*
X177248986Y-102578001D01*
X177248986Y-102578000D01*
X177229165Y-102452852D01*
X177171641Y-102339955D01*
X177082045Y-102250359D01*
X176969148Y-102192835D01*
X176875481Y-102178000D01*
X176812519Y-102178000D01*
X176718852Y-102192835D01*
X176605955Y-102250359D01*
X176516359Y-102339955D01*
X176458835Y-102452852D01*
X176439014Y-102578000D01*
X176313670Y-102578000D01*
X176313670Y-102577999D01*
X175883401Y-102147730D01*
X175883400Y-102147730D01*
X175869231Y-102174239D01*
X175809191Y-102372165D01*
X175788919Y-102578000D01*
X174705500Y-102578000D01*
X174705500Y-101617401D01*
X176413730Y-101617401D01*
X176844000Y-102047670D01*
X176844001Y-102047670D01*
X176995671Y-101896000D01*
X178963919Y-101896000D01*
X178984191Y-102101833D01*
X179044234Y-102299765D01*
X179058400Y-102326268D01*
X179058401Y-102326269D01*
X179488670Y-101896000D01*
X179614014Y-101896000D01*
X179633835Y-102021148D01*
X179691359Y-102134045D01*
X179780955Y-102223641D01*
X179893852Y-102281165D01*
X179987519Y-102296000D01*
X180050481Y-102296000D01*
X180144148Y-102281165D01*
X180257045Y-102223641D01*
X180346641Y-102134045D01*
X180404165Y-102021148D01*
X180423986Y-101896001D01*
X180549330Y-101896001D01*
X180979598Y-102326269D01*
X180979598Y-102326268D01*
X180993767Y-102299763D01*
X181053808Y-102101834D01*
X181074080Y-101896000D01*
X181053808Y-101690165D01*
X180993766Y-101492235D01*
X180979599Y-101465730D01*
X180549330Y-101895999D01*
X180549330Y-101896001D01*
X180423986Y-101896001D01*
X180423986Y-101896000D01*
X180404165Y-101770852D01*
X180346641Y-101657955D01*
X180257045Y-101568359D01*
X180144148Y-101510835D01*
X180050481Y-101496000D01*
X179987519Y-101496000D01*
X179893852Y-101510835D01*
X179780955Y-101568359D01*
X179691359Y-101657955D01*
X179633835Y-101770852D01*
X179614014Y-101896000D01*
X179488670Y-101896000D01*
X179488670Y-101895999D01*
X179058401Y-101465730D01*
X179058400Y-101465730D01*
X179044231Y-101492239D01*
X178984191Y-101690165D01*
X178963919Y-101896000D01*
X176995671Y-101896000D01*
X177274269Y-101617401D01*
X177274268Y-101617400D01*
X177247765Y-101603234D01*
X177049833Y-101543191D01*
X176844000Y-101522919D01*
X176638165Y-101543191D01*
X176440239Y-101603231D01*
X176413730Y-101617400D01*
X176413730Y-101617401D01*
X174705500Y-101617401D01*
X174705500Y-100935401D01*
X179588730Y-100935401D01*
X180019000Y-101365670D01*
X180019001Y-101365670D01*
X180449269Y-100935401D01*
X180449268Y-100935400D01*
X180422765Y-100921234D01*
X180224833Y-100861191D01*
X180019000Y-100840919D01*
X179813165Y-100861191D01*
X179615239Y-100921231D01*
X179588730Y-100935400D01*
X179588730Y-100935401D01*
X174705500Y-100935401D01*
X174705500Y-99527283D01*
X178762755Y-99527283D01*
X178782950Y-99706529D01*
X178782951Y-99706534D01*
X178842531Y-99876803D01*
X178938504Y-100029542D01*
X179066058Y-100157096D01*
X179128171Y-100196124D01*
X179204014Y-100243780D01*
X179218798Y-100253069D01*
X179327147Y-100290982D01*
X179389065Y-100312648D01*
X179389070Y-100312649D01*
X179479566Y-100322845D01*
X179523360Y-100327779D01*
X179523363Y-100327780D01*
X179523366Y-100327780D01*
X180413277Y-100327780D01*
X180413278Y-100327779D01*
X180485572Y-100319634D01*
X180547569Y-100312649D01*
X180547572Y-100312648D01*
X180547575Y-100312648D01*
X180717842Y-100253069D01*
X180870582Y-100157096D01*
X180998136Y-100029542D01*
X181094109Y-99876802D01*
X181153688Y-99706535D01*
X181153689Y-99706529D01*
X181173885Y-99527283D01*
X181173885Y-99527276D01*
X181153689Y-99348030D01*
X181153688Y-99348025D01*
X181094109Y-99177758D01*
X180998136Y-99025018D01*
X180870582Y-98897464D01*
X180807212Y-98857646D01*
X180717843Y-98801491D01*
X180547574Y-98741911D01*
X180547569Y-98741910D01*
X180413280Y-98726780D01*
X180413274Y-98726780D01*
X179523366Y-98726780D01*
X179523359Y-98726780D01*
X179389070Y-98741910D01*
X179389065Y-98741911D01*
X179218796Y-98801491D01*
X179066057Y-98897464D01*
X178938504Y-99025017D01*
X178842531Y-99177756D01*
X178782951Y-99348025D01*
X178782950Y-99348030D01*
X178762755Y-99527276D01*
X178762755Y-99527283D01*
X174705500Y-99527283D01*
X174705500Y-96987283D01*
X178762755Y-96987283D01*
X178782950Y-97166529D01*
X178782951Y-97166534D01*
X178842531Y-97336803D01*
X178938504Y-97489542D01*
X179066058Y-97617096D01*
X179156400Y-97673862D01*
X179203137Y-97703229D01*
X179218798Y-97713069D01*
X179380217Y-97769552D01*
X179389065Y-97772648D01*
X179389070Y-97772649D01*
X179479566Y-97782845D01*
X179523360Y-97787779D01*
X179523363Y-97787780D01*
X179523366Y-97787780D01*
X180413277Y-97787780D01*
X180413278Y-97787779D01*
X180480424Y-97780214D01*
X180547569Y-97772649D01*
X180547572Y-97772648D01*
X180547575Y-97772648D01*
X180717842Y-97713069D01*
X180870582Y-97617096D01*
X180998136Y-97489542D01*
X181094109Y-97336802D01*
X181153688Y-97166535D01*
X181153689Y-97166529D01*
X181173885Y-96987283D01*
X181173885Y-96987276D01*
X181153689Y-96808030D01*
X181153688Y-96808025D01*
X181113684Y-96693700D01*
X181094109Y-96637758D01*
X180998136Y-96485018D01*
X180870582Y-96357464D01*
X180854783Y-96347537D01*
X180717843Y-96261491D01*
X180547574Y-96201911D01*
X180547569Y-96201910D01*
X180413280Y-96186780D01*
X180413274Y-96186780D01*
X179523366Y-96186780D01*
X179523359Y-96186780D01*
X179389070Y-96201910D01*
X179389065Y-96201911D01*
X179218796Y-96261491D01*
X179066057Y-96357464D01*
X178938504Y-96485017D01*
X178842531Y-96637756D01*
X178782951Y-96808025D01*
X178782950Y-96808030D01*
X178762755Y-96987276D01*
X178762755Y-96987283D01*
X174705500Y-96987283D01*
X174705500Y-94450003D01*
X178766435Y-94450003D01*
X178786630Y-94629249D01*
X178786631Y-94629254D01*
X178846211Y-94799523D01*
X178884476Y-94860421D01*
X178942184Y-94952262D01*
X179069738Y-95079816D01*
X179222478Y-95175789D01*
X179362286Y-95224710D01*
X179392745Y-95235368D01*
X179392750Y-95235369D01*
X179483246Y-95245565D01*
X179527040Y-95250499D01*
X179527043Y-95250500D01*
X179527046Y-95250500D01*
X180416957Y-95250500D01*
X180416958Y-95250499D01*
X180484104Y-95242934D01*
X180551249Y-95235369D01*
X180551252Y-95235368D01*
X180551255Y-95235368D01*
X180721522Y-95175789D01*
X180874262Y-95079816D01*
X181001816Y-94952262D01*
X181097789Y-94799522D01*
X181157368Y-94629255D01*
X181157369Y-94629249D01*
X181177565Y-94450003D01*
X181177565Y-94449996D01*
X181157369Y-94270750D01*
X181157368Y-94270745D01*
X181111105Y-94138533D01*
X181097789Y-94100478D01*
X181001816Y-93947738D01*
X180874262Y-93820184D01*
X180721523Y-93724211D01*
X180551254Y-93664631D01*
X180551249Y-93664630D01*
X180416960Y-93649500D01*
X180416954Y-93649500D01*
X179527046Y-93649500D01*
X179527039Y-93649500D01*
X179392750Y-93664630D01*
X179392745Y-93664631D01*
X179222476Y-93724211D01*
X179069737Y-93820184D01*
X178942184Y-93947737D01*
X178846211Y-94100476D01*
X178786631Y-94270745D01*
X178786630Y-94270750D01*
X178766435Y-94449996D01*
X178766435Y-94450003D01*
X174705500Y-94450003D01*
X174705500Y-91910003D01*
X178766435Y-91910003D01*
X178786630Y-92089249D01*
X178786631Y-92089254D01*
X178846211Y-92259523D01*
X178926158Y-92386757D01*
X178942184Y-92412262D01*
X179069738Y-92539816D01*
X179222478Y-92635789D01*
X179392745Y-92695368D01*
X179392750Y-92695369D01*
X179483246Y-92705565D01*
X179527040Y-92710499D01*
X179527043Y-92710500D01*
X179527046Y-92710500D01*
X180416957Y-92710500D01*
X180416958Y-92710499D01*
X180484104Y-92702934D01*
X180551249Y-92695369D01*
X180551252Y-92695368D01*
X180551255Y-92695368D01*
X180721522Y-92635789D01*
X180874262Y-92539816D01*
X181001816Y-92412262D01*
X181097789Y-92259522D01*
X181157368Y-92089255D01*
X181166295Y-92010027D01*
X181177565Y-91910003D01*
X181177565Y-91909996D01*
X181157369Y-91730750D01*
X181157368Y-91730745D01*
X181097788Y-91560476D01*
X181001815Y-91407737D01*
X180874262Y-91280184D01*
X180721523Y-91184211D01*
X180551254Y-91124631D01*
X180551249Y-91124630D01*
X180416960Y-91109500D01*
X180416954Y-91109500D01*
X179527046Y-91109500D01*
X179527039Y-91109500D01*
X179392750Y-91124630D01*
X179392745Y-91124631D01*
X179222476Y-91184211D01*
X179069737Y-91280184D01*
X178942184Y-91407737D01*
X178846211Y-91560476D01*
X178786631Y-91730745D01*
X178786630Y-91730750D01*
X178766435Y-91909996D01*
X178766435Y-91910003D01*
X174705500Y-91910003D01*
X174705500Y-89370003D01*
X178766435Y-89370003D01*
X178786630Y-89549249D01*
X178786631Y-89549254D01*
X178846211Y-89719523D01*
X178942184Y-89872262D01*
X179069738Y-89999816D01*
X179160080Y-90056582D01*
X179209833Y-90087844D01*
X179222478Y-90095789D01*
X179294144Y-90120866D01*
X179392745Y-90155368D01*
X179392750Y-90155369D01*
X179483246Y-90165565D01*
X179527040Y-90170499D01*
X179527043Y-90170500D01*
X179527046Y-90170500D01*
X180416957Y-90170500D01*
X180416958Y-90170499D01*
X180484104Y-90162934D01*
X180551249Y-90155369D01*
X180551252Y-90155368D01*
X180551255Y-90155368D01*
X180721522Y-90095789D01*
X180874262Y-89999816D01*
X181001816Y-89872262D01*
X181097789Y-89719522D01*
X181157368Y-89549255D01*
X181157369Y-89549249D01*
X181177565Y-89370003D01*
X181177565Y-89369996D01*
X181157369Y-89190750D01*
X181157368Y-89190745D01*
X181132562Y-89119854D01*
X181097789Y-89020478D01*
X181097306Y-89019710D01*
X181055754Y-88953580D01*
X181001816Y-88867738D01*
X180874262Y-88740184D01*
X180782314Y-88682409D01*
X180721523Y-88644211D01*
X180551254Y-88584631D01*
X180551249Y-88584630D01*
X180416960Y-88569500D01*
X180416954Y-88569500D01*
X179527046Y-88569500D01*
X179527039Y-88569500D01*
X179392750Y-88584630D01*
X179392745Y-88584631D01*
X179222476Y-88644211D01*
X179069737Y-88740184D01*
X178942184Y-88867737D01*
X178846211Y-89020476D01*
X178786631Y-89190745D01*
X178786630Y-89190750D01*
X178766435Y-89369996D01*
X178766435Y-89370003D01*
X174705500Y-89370003D01*
X174705500Y-86830003D01*
X178766435Y-86830003D01*
X178786630Y-87009249D01*
X178786631Y-87009254D01*
X178846211Y-87179523D01*
X178905428Y-87273765D01*
X178942184Y-87332262D01*
X179069738Y-87459816D01*
X179222478Y-87555789D01*
X179242006Y-87562622D01*
X179392745Y-87615368D01*
X179392750Y-87615369D01*
X179483246Y-87625565D01*
X179527040Y-87630499D01*
X179527043Y-87630500D01*
X179527046Y-87630500D01*
X180416957Y-87630500D01*
X180416958Y-87630499D01*
X180484104Y-87622934D01*
X180551249Y-87615369D01*
X180551252Y-87615368D01*
X180551255Y-87615368D01*
X180721522Y-87555789D01*
X180874262Y-87459816D01*
X181001816Y-87332262D01*
X181097789Y-87179522D01*
X181157368Y-87009255D01*
X181157369Y-87009249D01*
X181177565Y-86830003D01*
X181177565Y-86829996D01*
X181157369Y-86650750D01*
X181157368Y-86650745D01*
X181105445Y-86502359D01*
X181097789Y-86480478D01*
X181081779Y-86454999D01*
X181058582Y-86418080D01*
X181001816Y-86327738D01*
X180874262Y-86200184D01*
X180853407Y-86187080D01*
X180721523Y-86104211D01*
X180551254Y-86044631D01*
X180551249Y-86044630D01*
X180416960Y-86029500D01*
X180416954Y-86029500D01*
X179527046Y-86029500D01*
X179527039Y-86029500D01*
X179392750Y-86044630D01*
X179392745Y-86044631D01*
X179222476Y-86104211D01*
X179069737Y-86200184D01*
X178942184Y-86327737D01*
X178846211Y-86480476D01*
X178786631Y-86650745D01*
X178786630Y-86650750D01*
X178766435Y-86829996D01*
X178766435Y-86830003D01*
X174705500Y-86830003D01*
X174705500Y-85849742D01*
X174725185Y-85782703D01*
X174741819Y-85762061D01*
X176213877Y-84290003D01*
X178766435Y-84290003D01*
X178786630Y-84469249D01*
X178786631Y-84469254D01*
X178846211Y-84639523D01*
X178904319Y-84732000D01*
X178942184Y-84792262D01*
X179069738Y-84919816D01*
X179222478Y-85015789D01*
X179392745Y-85075368D01*
X179392750Y-85075369D01*
X179483246Y-85085565D01*
X179527040Y-85090499D01*
X179527043Y-85090500D01*
X179527046Y-85090500D01*
X180416957Y-85090500D01*
X180416958Y-85090499D01*
X180484104Y-85082934D01*
X180551249Y-85075369D01*
X180551252Y-85075368D01*
X180551255Y-85075368D01*
X180721522Y-85015789D01*
X180874262Y-84919816D01*
X181001816Y-84792262D01*
X181097789Y-84639522D01*
X181157368Y-84469255D01*
X181177565Y-84290000D01*
X181164202Y-84171401D01*
X181157369Y-84110750D01*
X181157368Y-84110745D01*
X181097788Y-83940476D01*
X181001815Y-83787737D01*
X180874262Y-83660184D01*
X180721523Y-83564211D01*
X180551254Y-83504631D01*
X180551249Y-83504630D01*
X180416960Y-83489500D01*
X180416954Y-83489500D01*
X179527046Y-83489500D01*
X179527039Y-83489500D01*
X179392750Y-83504630D01*
X179392745Y-83504631D01*
X179222476Y-83564211D01*
X179069737Y-83660184D01*
X178942184Y-83787737D01*
X178846211Y-83940476D01*
X178786631Y-84110745D01*
X178786630Y-84110750D01*
X178766435Y-84289996D01*
X178766435Y-84290003D01*
X176213877Y-84290003D01*
X178142061Y-82361819D01*
X178203384Y-82328334D01*
X178229742Y-82325500D01*
X178964060Y-82325500D01*
X179031099Y-82345185D01*
X179051741Y-82361819D01*
X179069738Y-82379816D01*
X179222478Y-82475789D01*
X179325963Y-82512000D01*
X179392745Y-82535368D01*
X179392750Y-82535369D01*
X179483246Y-82545565D01*
X179527040Y-82550499D01*
X179527043Y-82550500D01*
X179527046Y-82550500D01*
X180416957Y-82550500D01*
X180416958Y-82550499D01*
X180484104Y-82542934D01*
X180551249Y-82535369D01*
X180551252Y-82535368D01*
X180551255Y-82535368D01*
X180721522Y-82475789D01*
X180874262Y-82379816D01*
X181001816Y-82252262D01*
X181097789Y-82099522D01*
X181157368Y-81929255D01*
X181177565Y-81750000D01*
X181169237Y-81676090D01*
X181157369Y-81570750D01*
X181157368Y-81570745D01*
X181097788Y-81400476D01*
X181044952Y-81316388D01*
X181001816Y-81247738D01*
X180874262Y-81120184D01*
X180721523Y-81024211D01*
X180551254Y-80964631D01*
X180551249Y-80964630D01*
X180416960Y-80949500D01*
X180416954Y-80949500D01*
X179527046Y-80949500D01*
X179527039Y-80949500D01*
X179392750Y-80964630D01*
X179392745Y-80964631D01*
X179222476Y-81024211D01*
X179069737Y-81120184D01*
X179051741Y-81138181D01*
X178990418Y-81171666D01*
X178964060Y-81174500D01*
X177981786Y-81174500D01*
X177973688Y-81173969D01*
X177940000Y-81169534D01*
X177902280Y-81174500D01*
X177882173Y-81177147D01*
X177789767Y-81189312D01*
X177789764Y-81189312D01*
X177789764Y-81189313D01*
X177731776Y-81213332D01*
X177649772Y-81247298D01*
X177649767Y-81247301D01*
X177560845Y-81315533D01*
X177560824Y-81315549D01*
X177529548Y-81339550D01*
X177508861Y-81366507D01*
X177503510Y-81372608D01*
X173752608Y-85123510D01*
X173746507Y-85128861D01*
X173719550Y-85149548D01*
X173695549Y-85180824D01*
X173695533Y-85180845D01*
X173627301Y-85269766D01*
X173585765Y-85370045D01*
X173569313Y-85409764D01*
X173555174Y-85517165D01*
X173553957Y-85526406D01*
X173553955Y-85526419D01*
X173549535Y-85560000D01*
X173553969Y-85593678D01*
X173554500Y-85601780D01*
X173554500Y-108251219D01*
X173553969Y-108259321D01*
X173549535Y-108292998D01*
X172504500Y-108292998D01*
X172504500Y-107155902D01*
X172524185Y-107088863D01*
X172532642Y-107077242D01*
X172639910Y-106946538D01*
X172715101Y-106805866D01*
X172732811Y-106772733D01*
X172732811Y-106772732D01*
X172732814Y-106772727D01*
X172790024Y-106584132D01*
X172809341Y-106388000D01*
X172790024Y-106191868D01*
X172732814Y-106003273D01*
X172732811Y-106003269D01*
X172732811Y-106003266D01*
X172639913Y-105829467D01*
X172639911Y-105829465D01*
X172639910Y-105829462D01*
X172586749Y-105764685D01*
X172572647Y-105747501D01*
X172545334Y-105683191D01*
X172544500Y-105668836D01*
X172544500Y-103345902D01*
X172564185Y-103278863D01*
X172572642Y-103267242D01*
X172679910Y-103136538D01*
X172762639Y-102981763D01*
X172772811Y-102962733D01*
X172772811Y-102962732D01*
X172772814Y-102962727D01*
X172830024Y-102774132D01*
X172849341Y-102578000D01*
X172830024Y-102381868D01*
X172772814Y-102193273D01*
X172772811Y-102193269D01*
X172772811Y-102193266D01*
X172679913Y-102019467D01*
X172679909Y-102019460D01*
X172560814Y-101874344D01*
X172533571Y-101810624D01*
X172529140Y-101774130D01*
X172529139Y-101774125D01*
X172525546Y-101764651D01*
X172519519Y-101743029D01*
X172517694Y-101733070D01*
X172517694Y-101733068D01*
X172492241Y-101676514D01*
X172490807Y-101673052D01*
X172485082Y-101657955D01*
X172468818Y-101615070D01*
X172463058Y-101606726D01*
X172452035Y-101587180D01*
X172447878Y-101577943D01*
X172409617Y-101529107D01*
X172407417Y-101526117D01*
X172389736Y-101500500D01*
X172372185Y-101475073D01*
X172372183Y-101475071D01*
X172325750Y-101433935D01*
X172323056Y-101431399D01*
X171212598Y-100320941D01*
X171210064Y-100318250D01*
X171168929Y-100271817D01*
X171168928Y-100271816D01*
X171168924Y-100271812D01*
X171117896Y-100236591D01*
X171114887Y-100234377D01*
X171066060Y-100196124D01*
X171066055Y-100196120D01*
X171056813Y-100191961D01*
X171037266Y-100180936D01*
X171028931Y-100175183D01*
X171028932Y-100175183D01*
X171028930Y-100175182D01*
X170970941Y-100153189D01*
X170967490Y-100151759D01*
X170910930Y-100126304D01*
X170900946Y-100124474D01*
X170879343Y-100118451D01*
X170869874Y-100114860D01*
X170869870Y-100114859D01*
X170808313Y-100107384D01*
X170804612Y-100106821D01*
X170743608Y-100095642D01*
X170743603Y-100095642D01*
X170681697Y-100099387D01*
X170677952Y-100099500D01*
X156183519Y-100099500D01*
X156116480Y-100079815D01*
X156095838Y-100063181D01*
X155798027Y-99765370D01*
X155764542Y-99704047D01*
X155762488Y-99663810D01*
X155777565Y-99530000D01*
X155777258Y-99527276D01*
X155757369Y-99350750D01*
X155757368Y-99350745D01*
X155697788Y-99180476D01*
X155634320Y-99079468D01*
X155601816Y-99027738D01*
X155474262Y-98900184D01*
X155369082Y-98834095D01*
X155321521Y-98804210D01*
X155151249Y-98744630D01*
X155130208Y-98742260D01*
X155073253Y-98720814D01*
X155055233Y-98708272D01*
X155035658Y-98694647D01*
X154858012Y-98618413D01*
X154668656Y-98579500D01*
X153747072Y-98579500D01*
X153680033Y-98559815D01*
X153659391Y-98543181D01*
X153145819Y-98029609D01*
X153112334Y-97968286D01*
X153109500Y-97941928D01*
X153109500Y-96990003D01*
X153366435Y-96990003D01*
X153386630Y-97169249D01*
X153386631Y-97169254D01*
X153446211Y-97339523D01*
X153540475Y-97489542D01*
X153542184Y-97492262D01*
X153669738Y-97619816D01*
X153760080Y-97676582D01*
X153818147Y-97713068D01*
X153822478Y-97715789D01*
X153976124Y-97769552D01*
X153992745Y-97775368D01*
X153992750Y-97775369D01*
X154083246Y-97785565D01*
X154127040Y-97790499D01*
X154127043Y-97790500D01*
X154127046Y-97790500D01*
X155016957Y-97790500D01*
X155016958Y-97790499D01*
X155084104Y-97782934D01*
X155151249Y-97775369D01*
X155151252Y-97775368D01*
X155151255Y-97775368D01*
X155321522Y-97715789D01*
X155474262Y-97619816D01*
X155601816Y-97492262D01*
X155697789Y-97339522D01*
X155757368Y-97169255D01*
X155757369Y-97169249D01*
X155777565Y-96990003D01*
X155777565Y-96989996D01*
X155757369Y-96810750D01*
X155757368Y-96810745D01*
X155697788Y-96640476D01*
X155601815Y-96487737D01*
X155474262Y-96360184D01*
X155321523Y-96264211D01*
X155151254Y-96204631D01*
X155151249Y-96204630D01*
X155016960Y-96189500D01*
X155016954Y-96189500D01*
X154127046Y-96189500D01*
X154127039Y-96189500D01*
X153992750Y-96204630D01*
X153992745Y-96204631D01*
X153822476Y-96264211D01*
X153669737Y-96360184D01*
X153542184Y-96487737D01*
X153446211Y-96640476D01*
X153386631Y-96810745D01*
X153386630Y-96810750D01*
X153366435Y-96989996D01*
X153366435Y-96990003D01*
X153109500Y-96990003D01*
X153109500Y-94843062D01*
X153111644Y-94758456D01*
X153111644Y-94758454D01*
X153101380Y-94701188D01*
X153100729Y-94696539D01*
X153094845Y-94638678D01*
X153085134Y-94607729D01*
X153083264Y-94600111D01*
X153077540Y-94568172D01*
X153055961Y-94514150D01*
X153054380Y-94509709D01*
X153036976Y-94454239D01*
X153036974Y-94454232D01*
X153034627Y-94450003D01*
X153366435Y-94450003D01*
X153386630Y-94629249D01*
X153386631Y-94629254D01*
X153446211Y-94799523D01*
X153484476Y-94860421D01*
X153542184Y-94952262D01*
X153669738Y-95079816D01*
X153822478Y-95175789D01*
X153962286Y-95224710D01*
X153992745Y-95235368D01*
X153992750Y-95235369D01*
X154083246Y-95245565D01*
X154127040Y-95250499D01*
X154127043Y-95250500D01*
X154127046Y-95250500D01*
X155016957Y-95250500D01*
X155016958Y-95250499D01*
X155084104Y-95242934D01*
X155151249Y-95235369D01*
X155151252Y-95235368D01*
X155151255Y-95235368D01*
X155321522Y-95175789D01*
X155474262Y-95079816D01*
X155601816Y-94952262D01*
X155697789Y-94799522D01*
X155757368Y-94629255D01*
X155757369Y-94629249D01*
X155777565Y-94450003D01*
X155777565Y-94449996D01*
X155757369Y-94270750D01*
X155757368Y-94270745D01*
X155711105Y-94138533D01*
X155697789Y-94100478D01*
X155601816Y-93947738D01*
X155474262Y-93820184D01*
X155321523Y-93724211D01*
X155151254Y-93664631D01*
X155151249Y-93664630D01*
X155016960Y-93649500D01*
X155016954Y-93649500D01*
X154127046Y-93649500D01*
X154127039Y-93649500D01*
X153992750Y-93664630D01*
X153992745Y-93664631D01*
X153822476Y-93724211D01*
X153669737Y-93820184D01*
X153542184Y-93947737D01*
X153446211Y-94100476D01*
X153386631Y-94270745D01*
X153386630Y-94270750D01*
X153366435Y-94449996D01*
X153366435Y-94450003D01*
X153034627Y-94450003D01*
X153021230Y-94425867D01*
X153017863Y-94418777D01*
X153005830Y-94388653D01*
X153005829Y-94388651D01*
X152973827Y-94340094D01*
X152971391Y-94336075D01*
X152943159Y-94285209D01*
X152922024Y-94260590D01*
X152917299Y-94254324D01*
X152899453Y-94227243D01*
X152858332Y-94186122D01*
X152855128Y-94182666D01*
X152817240Y-94138532D01*
X152791590Y-94118677D01*
X152785696Y-94113486D01*
X150582213Y-91910003D01*
X153366435Y-91910003D01*
X153386630Y-92089249D01*
X153386631Y-92089254D01*
X153446211Y-92259523D01*
X153526158Y-92386757D01*
X153542184Y-92412262D01*
X153669738Y-92539816D01*
X153822478Y-92635789D01*
X153992745Y-92695368D01*
X153992750Y-92695369D01*
X154083246Y-92705565D01*
X154127040Y-92710499D01*
X154127043Y-92710500D01*
X154127046Y-92710500D01*
X155016957Y-92710500D01*
X155016958Y-92710499D01*
X155084104Y-92702934D01*
X155151249Y-92695369D01*
X155151252Y-92695368D01*
X155151255Y-92695368D01*
X155321522Y-92635789D01*
X155474262Y-92539816D01*
X155601816Y-92412262D01*
X155697789Y-92259522D01*
X155757368Y-92089255D01*
X155766295Y-92010027D01*
X155777565Y-91910003D01*
X155777565Y-91909996D01*
X155757369Y-91730750D01*
X155757368Y-91730745D01*
X155697788Y-91560476D01*
X155601815Y-91407737D01*
X155474262Y-91280184D01*
X155321523Y-91184211D01*
X155151254Y-91124631D01*
X155151249Y-91124630D01*
X155016960Y-91109500D01*
X155016954Y-91109500D01*
X154127046Y-91109500D01*
X154127039Y-91109500D01*
X153992750Y-91124630D01*
X153992745Y-91124631D01*
X153822476Y-91184211D01*
X153669737Y-91280184D01*
X153542184Y-91407737D01*
X153446211Y-91560476D01*
X153386631Y-91730745D01*
X153386630Y-91730750D01*
X153366435Y-91909996D01*
X153366435Y-91910003D01*
X150582213Y-91910003D01*
X150097819Y-91425609D01*
X150064334Y-91364286D01*
X150061500Y-91337928D01*
X150061500Y-90343266D01*
X150081185Y-90276227D01*
X150082398Y-90274374D01*
X150099867Y-90248231D01*
X150111500Y-90189748D01*
X150111500Y-89370003D01*
X153366435Y-89370003D01*
X153386630Y-89549249D01*
X153386631Y-89549254D01*
X153446211Y-89719523D01*
X153542184Y-89872262D01*
X153669738Y-89999816D01*
X153760080Y-90056582D01*
X153809833Y-90087844D01*
X153822478Y-90095789D01*
X153894144Y-90120866D01*
X153992745Y-90155368D01*
X153992750Y-90155369D01*
X154083246Y-90165565D01*
X154127040Y-90170499D01*
X154127043Y-90170500D01*
X154127046Y-90170500D01*
X155016957Y-90170500D01*
X155016958Y-90170499D01*
X155084104Y-90162934D01*
X155151249Y-90155369D01*
X155151252Y-90155368D01*
X155151255Y-90155368D01*
X155321522Y-90095789D01*
X155474262Y-89999816D01*
X155601816Y-89872262D01*
X155697789Y-89719522D01*
X155757368Y-89549255D01*
X155757369Y-89549249D01*
X155777565Y-89370003D01*
X155777565Y-89369996D01*
X155757369Y-89190750D01*
X155757368Y-89190745D01*
X155732562Y-89119854D01*
X155697789Y-89020478D01*
X155697306Y-89019710D01*
X155655754Y-88953580D01*
X155601816Y-88867738D01*
X155474262Y-88740184D01*
X155382314Y-88682409D01*
X155321523Y-88644211D01*
X155151254Y-88584631D01*
X155151249Y-88584630D01*
X155016960Y-88569500D01*
X155016954Y-88569500D01*
X154127046Y-88569500D01*
X154127039Y-88569500D01*
X153992750Y-88584630D01*
X153992745Y-88584631D01*
X153822476Y-88644211D01*
X153669737Y-88740184D01*
X153542184Y-88867737D01*
X153446211Y-89020476D01*
X153386631Y-89190745D01*
X153386630Y-89190750D01*
X153366435Y-89369996D01*
X153366435Y-89370003D01*
X150111500Y-89370003D01*
X150111500Y-88550252D01*
X150111500Y-88550249D01*
X150111499Y-88550247D01*
X150099868Y-88491770D01*
X150099867Y-88491769D01*
X150055552Y-88425447D01*
X149989230Y-88381132D01*
X149989229Y-88381131D01*
X149930752Y-88369500D01*
X149930748Y-88369500D01*
X148291252Y-88369500D01*
X148291247Y-88369500D01*
X148232771Y-88381131D01*
X148216737Y-88391845D01*
X148206624Y-88398602D01*
X148139948Y-88419480D01*
X148137734Y-88419500D01*
X145694064Y-88419500D01*
X145609455Y-88417356D01*
X145609450Y-88417356D01*
X145552212Y-88427614D01*
X145547548Y-88428268D01*
X145489685Y-88434154D01*
X145489681Y-88434154D01*
X145489679Y-88434155D01*
X145489676Y-88434155D01*
X145489671Y-88434157D01*
X145458733Y-88443864D01*
X145451106Y-88445735D01*
X145419176Y-88451458D01*
X145419171Y-88451460D01*
X145365149Y-88473037D01*
X145360714Y-88474616D01*
X145305229Y-88492027D01*
X145276874Y-88507763D01*
X145269785Y-88511130D01*
X145239648Y-88523170D01*
X145191084Y-88555177D01*
X145187055Y-88557618D01*
X145136207Y-88585841D01*
X145136202Y-88585845D01*
X145111596Y-88606969D01*
X145105326Y-88611697D01*
X145078242Y-88629547D01*
X145078241Y-88629548D01*
X145037120Y-88670668D01*
X145033666Y-88673869D01*
X144989531Y-88711760D01*
X144969674Y-88737412D01*
X144964483Y-88743305D01*
X144562609Y-89145181D01*
X144501286Y-89178666D01*
X144474928Y-89181500D01*
X143600634Y-89181500D01*
X143564639Y-89176161D01*
X143465130Y-89145975D01*
X143269000Y-89126659D01*
X143072869Y-89145975D01*
X142973361Y-89176161D01*
X142937366Y-89181500D01*
X142065352Y-89181500D01*
X141998313Y-89161815D01*
X141990363Y-89155893D01*
X141976115Y-89145976D01*
X141938567Y-89119841D01*
X141934833Y-89117025D01*
X141889751Y-89080266D01*
X141889747Y-89080264D01*
X141889746Y-89080263D01*
X141889745Y-89080262D01*
X141860997Y-89065246D01*
X141854277Y-89061174D01*
X141827659Y-89042647D01*
X141774209Y-89019710D01*
X141769952Y-89017688D01*
X141718409Y-88990764D01*
X141718407Y-88990763D01*
X141718406Y-88990763D01*
X141701689Y-88985979D01*
X141687221Y-88981839D01*
X141679822Y-88979205D01*
X141650011Y-88966412D01*
X141650012Y-88966412D01*
X141593038Y-88954703D01*
X141588463Y-88953580D01*
X141532556Y-88937583D01*
X141532545Y-88937582D01*
X141500208Y-88935120D01*
X141492428Y-88934029D01*
X141460657Y-88927500D01*
X141460656Y-88927500D01*
X141402497Y-88927500D01*
X141397790Y-88927321D01*
X141392850Y-88926944D01*
X141339798Y-88922904D01*
X141322176Y-88925149D01*
X141307614Y-88927003D01*
X141299785Y-88927500D01*
X139748107Y-88927500D01*
X139681068Y-88907815D01*
X139656878Y-88887483D01*
X139569359Y-88792413D01*
X139569349Y-88792404D01*
X139377047Y-88642729D01*
X139377038Y-88642723D01*
X139162724Y-88526743D01*
X139162721Y-88526742D01*
X139162718Y-88526740D01*
X139162712Y-88526738D01*
X139162710Y-88526737D01*
X138932226Y-88447611D01*
X138691849Y-88407500D01*
X138448151Y-88407500D01*
X138207773Y-88447611D01*
X137977289Y-88526737D01*
X137977275Y-88526743D01*
X137762961Y-88642723D01*
X137762952Y-88642729D01*
X137570650Y-88792404D01*
X137570647Y-88792407D01*
X137405593Y-88971703D01*
X137405590Y-88971707D01*
X137272301Y-89175719D01*
X137174408Y-89398893D01*
X137114584Y-89635133D01*
X137114582Y-89635141D01*
X137094460Y-89877993D01*
X137094460Y-89878006D01*
X133132416Y-89878006D01*
X131936819Y-88682409D01*
X131903334Y-88621086D01*
X131900500Y-88594728D01*
X131900500Y-87830599D01*
X148680729Y-87830599D01*
X148707235Y-87844766D01*
X148905165Y-87904808D01*
X149111000Y-87925080D01*
X149316834Y-87904808D01*
X149514763Y-87844767D01*
X149541268Y-87830598D01*
X149541269Y-87830598D01*
X149111001Y-87400330D01*
X149111000Y-87400330D01*
X148680729Y-87830599D01*
X131900500Y-87830599D01*
X131900500Y-86870000D01*
X148055919Y-86870000D01*
X148076191Y-87075833D01*
X148136234Y-87273765D01*
X148150400Y-87300268D01*
X148150401Y-87300269D01*
X148580670Y-86870000D01*
X148706014Y-86870000D01*
X148725835Y-86995148D01*
X148783359Y-87108045D01*
X148872955Y-87197641D01*
X148985852Y-87255165D01*
X149079519Y-87270000D01*
X149142481Y-87270000D01*
X149236148Y-87255165D01*
X149349045Y-87197641D01*
X149438641Y-87108045D01*
X149496165Y-86995148D01*
X149515986Y-86870001D01*
X149641330Y-86870001D01*
X150071598Y-87300269D01*
X150071598Y-87300268D01*
X150085767Y-87273763D01*
X150106626Y-87205000D01*
X153408743Y-87205000D01*
X153464315Y-87309820D01*
X153464314Y-87309820D01*
X153584008Y-87450734D01*
X153731195Y-87562622D01*
X153898992Y-87640254D01*
X153898996Y-87640256D01*
X154079556Y-87679999D01*
X154079560Y-87680000D01*
X154197000Y-87680000D01*
X154197000Y-87205000D01*
X153408743Y-87205000D01*
X150106626Y-87205000D01*
X150145808Y-87075834D01*
X150166080Y-86870000D01*
X150162141Y-86830000D01*
X154167014Y-86830000D01*
X154186835Y-86955148D01*
X154244359Y-87068045D01*
X154333955Y-87157641D01*
X154446852Y-87215165D01*
X154540519Y-87230000D01*
X154603481Y-87230000D01*
X154697148Y-87215165D01*
X154717098Y-87205000D01*
X154947000Y-87205000D01*
X154947000Y-87680000D01*
X155018079Y-87680000D01*
X155018085Y-87679999D01*
X155155800Y-87665022D01*
X155155804Y-87665021D01*
X155331011Y-87605986D01*
X155489430Y-87510669D01*
X155623659Y-87383521D01*
X155727413Y-87230493D01*
X155727415Y-87230490D01*
X155737571Y-87205000D01*
X154947000Y-87205000D01*
X154717098Y-87205000D01*
X154810045Y-87157641D01*
X154899641Y-87068045D01*
X154957165Y-86955148D01*
X154976986Y-86830000D01*
X154957165Y-86704852D01*
X154899641Y-86591955D01*
X154810045Y-86502359D01*
X154697148Y-86444835D01*
X154603481Y-86430000D01*
X154540519Y-86430000D01*
X154446852Y-86444835D01*
X154333955Y-86502359D01*
X154244359Y-86591955D01*
X154186835Y-86704852D01*
X154167014Y-86830000D01*
X150162141Y-86830000D01*
X150145808Y-86664165D01*
X150085766Y-86466235D01*
X150079760Y-86454999D01*
X153406428Y-86454999D01*
X153406429Y-86455000D01*
X154197000Y-86455000D01*
X154197000Y-85980000D01*
X154947000Y-85980000D01*
X154947000Y-86455000D01*
X155735257Y-86455000D01*
X155735257Y-86454999D01*
X155679684Y-86350179D01*
X155679685Y-86350179D01*
X155559991Y-86209265D01*
X155412804Y-86097377D01*
X155245007Y-86019745D01*
X155245003Y-86019743D01*
X155064443Y-85980000D01*
X154947000Y-85980000D01*
X154197000Y-85980000D01*
X154125914Y-85980000D01*
X153988199Y-85994977D01*
X153988195Y-85994978D01*
X153812988Y-86054013D01*
X153654569Y-86149330D01*
X153520340Y-86276478D01*
X153416586Y-86429506D01*
X153416584Y-86429509D01*
X153406428Y-86454999D01*
X150079760Y-86454999D01*
X150071599Y-86439730D01*
X149641330Y-86869999D01*
X149641330Y-86870001D01*
X149515986Y-86870001D01*
X149515986Y-86870000D01*
X149496165Y-86744852D01*
X149438641Y-86631955D01*
X149349045Y-86542359D01*
X149236148Y-86484835D01*
X149142481Y-86470000D01*
X149079519Y-86470000D01*
X148985852Y-86484835D01*
X148872955Y-86542359D01*
X148783359Y-86631955D01*
X148725835Y-86744852D01*
X148706014Y-86870000D01*
X148580670Y-86870000D01*
X148580670Y-86869999D01*
X148150401Y-86439730D01*
X148150400Y-86439730D01*
X148136231Y-86466239D01*
X148076191Y-86664165D01*
X148055919Y-86870000D01*
X131900500Y-86870000D01*
X131900500Y-86092599D01*
X142838729Y-86092599D01*
X142865235Y-86106766D01*
X143063165Y-86166808D01*
X143269000Y-86187080D01*
X143474834Y-86166808D01*
X143672763Y-86106767D01*
X143699268Y-86092598D01*
X143699269Y-86092598D01*
X143516072Y-85909401D01*
X148680730Y-85909401D01*
X149111000Y-86339670D01*
X149111001Y-86339670D01*
X149541269Y-85909401D01*
X149541268Y-85909400D01*
X149514765Y-85895234D01*
X149316833Y-85835191D01*
X149111000Y-85814919D01*
X148905165Y-85835191D01*
X148707239Y-85895231D01*
X148680730Y-85909400D01*
X148680730Y-85909401D01*
X143516072Y-85909401D01*
X143269001Y-85662330D01*
X143269000Y-85662330D01*
X142838729Y-86092599D01*
X131900500Y-86092599D01*
X131900500Y-85132000D01*
X142213919Y-85132000D01*
X142234191Y-85337833D01*
X142294234Y-85535765D01*
X142308400Y-85562268D01*
X142308401Y-85562269D01*
X142738670Y-85132000D01*
X142864014Y-85132000D01*
X142883835Y-85257148D01*
X142941359Y-85370045D01*
X143030955Y-85459641D01*
X143143852Y-85517165D01*
X143237519Y-85532000D01*
X143300481Y-85532000D01*
X143394148Y-85517165D01*
X143507045Y-85459641D01*
X143596641Y-85370045D01*
X143654165Y-85257148D01*
X143673986Y-85132000D01*
X143799330Y-85132000D01*
X144229598Y-85562268D01*
X144243767Y-85535763D01*
X144303808Y-85337834D01*
X144324080Y-85132000D01*
X144303808Y-84926165D01*
X144243766Y-84728235D01*
X144229599Y-84701730D01*
X143799330Y-85131999D01*
X143799330Y-85132000D01*
X143673986Y-85132000D01*
X143654165Y-85006852D01*
X143596641Y-84893955D01*
X143507045Y-84804359D01*
X143394148Y-84746835D01*
X143300481Y-84732000D01*
X143237519Y-84732000D01*
X143143852Y-84746835D01*
X143030955Y-84804359D01*
X142941359Y-84893955D01*
X142883835Y-85006852D01*
X142864014Y-85132000D01*
X142738670Y-85132000D01*
X142738670Y-85131999D01*
X142308401Y-84701730D01*
X142308400Y-84701730D01*
X142294231Y-84728239D01*
X142234191Y-84926165D01*
X142213919Y-85132000D01*
X131900500Y-85132000D01*
X131900500Y-84171401D01*
X142838730Y-84171401D01*
X143269000Y-84601670D01*
X143269001Y-84601670D01*
X143580667Y-84290003D01*
X153366435Y-84290003D01*
X153386630Y-84469249D01*
X153386631Y-84469254D01*
X153446211Y-84639523D01*
X153504319Y-84732000D01*
X153542184Y-84792262D01*
X153669738Y-84919816D01*
X153822478Y-85015789D01*
X153992745Y-85075368D01*
X153992750Y-85075369D01*
X154083246Y-85085565D01*
X154127040Y-85090499D01*
X154127043Y-85090500D01*
X154127046Y-85090500D01*
X155016957Y-85090500D01*
X155016958Y-85090499D01*
X155084104Y-85082934D01*
X155151249Y-85075369D01*
X155151252Y-85075368D01*
X155151255Y-85075368D01*
X155321522Y-85015789D01*
X155474262Y-84919816D01*
X155601816Y-84792262D01*
X155697789Y-84639522D01*
X155757368Y-84469255D01*
X155777565Y-84290000D01*
X155764202Y-84171401D01*
X155757369Y-84110750D01*
X155757368Y-84110745D01*
X155697788Y-83940476D01*
X155601815Y-83787737D01*
X155474262Y-83660184D01*
X155321523Y-83564211D01*
X155151254Y-83504631D01*
X155151249Y-83504630D01*
X155016960Y-83489500D01*
X155016954Y-83489500D01*
X154127046Y-83489500D01*
X154127039Y-83489500D01*
X153992750Y-83504630D01*
X153992745Y-83504631D01*
X153822476Y-83564211D01*
X153669737Y-83660184D01*
X153542184Y-83787737D01*
X153446211Y-83940476D01*
X153386631Y-84110745D01*
X153386630Y-84110750D01*
X153366435Y-84289996D01*
X153366435Y-84290003D01*
X143580667Y-84290003D01*
X143699269Y-84171401D01*
X143699268Y-84171400D01*
X143672765Y-84157234D01*
X143474833Y-84097191D01*
X143269000Y-84076919D01*
X143063165Y-84097191D01*
X142865239Y-84157231D01*
X142838730Y-84171400D01*
X142838730Y-84171401D01*
X131900500Y-84171401D01*
X131900500Y-83770300D01*
X131920185Y-83703261D01*
X131972989Y-83657506D01*
X132024500Y-83646300D01*
X139899819Y-83646300D01*
X139907917Y-83646830D01*
X139928334Y-83649518D01*
X139941599Y-83651265D01*
X139941600Y-83651265D01*
X139977385Y-83646554D01*
X139977409Y-83646551D01*
X139979315Y-83646300D01*
X139979320Y-83646300D01*
X140091836Y-83631487D01*
X140231833Y-83573498D01*
X140243936Y-83564211D01*
X140321868Y-83504412D01*
X140321867Y-83504412D01*
X140329960Y-83498203D01*
X140329964Y-83498198D01*
X140352051Y-83481251D01*
X140372738Y-83454289D01*
X140378080Y-83448198D01*
X140702462Y-83123816D01*
X140763784Y-83090334D01*
X140790142Y-83087500D01*
X141118363Y-83087500D01*
X141185402Y-83107185D01*
X141214216Y-83132835D01*
X141288116Y-83222883D01*
X141440460Y-83347909D01*
X141440467Y-83347913D01*
X141614266Y-83440811D01*
X141614269Y-83440811D01*
X141614273Y-83440814D01*
X141802868Y-83498024D01*
X141999000Y-83517341D01*
X142195132Y-83498024D01*
X142383727Y-83440814D01*
X142557538Y-83347910D01*
X142709883Y-83222883D01*
X142834910Y-83070538D01*
X142927814Y-82896727D01*
X142985024Y-82708132D01*
X143004341Y-82512000D01*
X151153659Y-82512000D01*
X151172975Y-82708129D01*
X151230188Y-82896733D01*
X151323086Y-83070532D01*
X151323090Y-83070539D01*
X151448116Y-83222883D01*
X151600460Y-83347909D01*
X151600467Y-83347913D01*
X151774266Y-83440811D01*
X151774269Y-83440811D01*
X151774273Y-83440814D01*
X151962868Y-83498024D01*
X152159000Y-83517341D01*
X152355132Y-83498024D01*
X152543727Y-83440814D01*
X152717538Y-83347910D01*
X152869883Y-83222883D01*
X152994910Y-83070538D01*
X153087814Y-82896727D01*
X153145024Y-82708132D01*
X153164341Y-82512000D01*
X153145024Y-82315868D01*
X153087814Y-82127273D01*
X153087811Y-82127269D01*
X153087811Y-82127266D01*
X152994913Y-81953467D01*
X152994909Y-81953460D01*
X152869883Y-81801116D01*
X152717539Y-81676090D01*
X152675045Y-81653376D01*
X152625201Y-81604413D01*
X152609500Y-81544019D01*
X152609500Y-81054500D01*
X152629185Y-80987461D01*
X152681989Y-80941706D01*
X152733500Y-80930500D01*
X153560060Y-80930500D01*
X153627099Y-80950185D01*
X153672854Y-81002989D01*
X153682798Y-81072147D01*
X153653773Y-81135703D01*
X153647741Y-81142181D01*
X153542184Y-81247737D01*
X153446211Y-81400476D01*
X153386631Y-81570745D01*
X153386630Y-81570750D01*
X153366435Y-81749996D01*
X153366435Y-81750003D01*
X153386630Y-81929249D01*
X153386631Y-81929254D01*
X153446211Y-82099523D01*
X153466448Y-82131729D01*
X153542184Y-82252262D01*
X153669738Y-82379816D01*
X153822478Y-82475789D01*
X153925963Y-82512000D01*
X153992745Y-82535368D01*
X153992750Y-82535369D01*
X154083246Y-82545565D01*
X154127040Y-82550499D01*
X154127043Y-82550500D01*
X154127046Y-82550500D01*
X155016957Y-82550500D01*
X155016958Y-82550499D01*
X155084104Y-82542934D01*
X155151249Y-82535369D01*
X155151252Y-82535368D01*
X155151255Y-82535368D01*
X155321522Y-82475789D01*
X155474262Y-82379816D01*
X155601816Y-82252262D01*
X155697789Y-82099522D01*
X155757368Y-81929255D01*
X155777565Y-81750000D01*
X155769237Y-81676090D01*
X155757369Y-81570750D01*
X155757368Y-81570745D01*
X155697788Y-81400476D01*
X155644952Y-81316388D01*
X155601816Y-81247738D01*
X155496259Y-81142181D01*
X155462774Y-81080858D01*
X155467758Y-81011166D01*
X155509630Y-80955233D01*
X155575094Y-80930816D01*
X155583940Y-80930500D01*
X176514217Y-80930500D01*
X176521155Y-80930889D01*
X176553050Y-80934483D01*
X176560034Y-80935270D01*
X176560034Y-80935269D01*
X176560035Y-80935270D01*
X176618479Y-80924211D01*
X176677287Y-80915348D01*
X176677290Y-80915346D01*
X176685447Y-80912830D01*
X176693469Y-80910023D01*
X176693472Y-80910023D01*
X176746072Y-80882222D01*
X176799642Y-80856425D01*
X176799642Y-80856424D01*
X176799644Y-80856424D01*
X176806695Y-80851616D01*
X176813538Y-80846566D01*
X176855599Y-80804504D01*
X176899194Y-80764055D01*
X176899196Y-80764050D01*
X176904987Y-80756790D01*
X176905643Y-80757313D01*
X176915032Y-80745070D01*
X177963284Y-79696819D01*
X178024607Y-79663334D01*
X178050965Y-79660500D01*
X178841190Y-79660500D01*
X178908229Y-79680185D01*
X178938135Y-79707185D01*
X178942183Y-79712261D01*
X178942184Y-79712262D01*
X179069738Y-79839816D01*
X179085400Y-79849657D01*
X179203682Y-79923979D01*
X179222478Y-79935789D01*
X179386495Y-79993181D01*
X179392745Y-79995368D01*
X179392750Y-79995369D01*
X179476164Y-80004767D01*
X179527040Y-80010499D01*
X179527043Y-80010500D01*
X179527046Y-80010500D01*
X180416957Y-80010500D01*
X180416958Y-80010499D01*
X180484104Y-80002934D01*
X180551249Y-79995369D01*
X180551252Y-79995368D01*
X180551255Y-79995368D01*
X180721522Y-79935789D01*
X180874262Y-79839816D01*
X181001816Y-79712262D01*
X181097789Y-79559522D01*
X181157368Y-79389255D01*
X181161115Y-79356000D01*
X181177565Y-79210003D01*
X181177565Y-79209996D01*
X181157369Y-79030750D01*
X181157368Y-79030745D01*
X181139670Y-78980167D01*
X181097789Y-78860478D01*
X181084557Y-78839420D01*
X181030227Y-78752954D01*
X181001816Y-78707738D01*
X180874262Y-78580184D01*
X180859383Y-78570835D01*
X180721523Y-78484211D01*
X180551254Y-78424631D01*
X180551249Y-78424630D01*
X180416960Y-78409500D01*
X180416954Y-78409500D01*
X179527046Y-78409500D01*
X179527039Y-78409500D01*
X179392750Y-78424630D01*
X179392745Y-78424631D01*
X179222476Y-78484211D01*
X179069737Y-78580184D01*
X178942183Y-78707738D01*
X178938135Y-78712815D01*
X178880946Y-78752954D01*
X178841190Y-78759500D01*
X177841783Y-78759500D01*
X177834844Y-78759110D01*
X177820569Y-78757502D01*
X177795964Y-78754729D01*
X177745543Y-78764270D01*
X177737520Y-78765788D01*
X177724832Y-78767700D01*
X177678716Y-78774651D01*
X177670532Y-78777175D01*
X177662528Y-78779976D01*
X177609936Y-78807773D01*
X177556357Y-78833574D01*
X177549338Y-78838359D01*
X177542461Y-78843435D01*
X177500413Y-78885483D01*
X177456803Y-78925947D01*
X177451013Y-78933208D01*
X177450362Y-78932688D01*
X177440967Y-78944928D01*
X176392716Y-79993181D01*
X176331393Y-80026666D01*
X176305035Y-80029500D01*
X155583940Y-80029500D01*
X155516901Y-80009815D01*
X155471146Y-79957011D01*
X155461202Y-79887853D01*
X155490227Y-79824297D01*
X155496259Y-79817819D01*
X155522170Y-79791908D01*
X155601816Y-79712262D01*
X155697789Y-79559522D01*
X155757368Y-79389255D01*
X155761115Y-79356000D01*
X155777565Y-79210003D01*
X155777565Y-79209996D01*
X155757369Y-79030750D01*
X155757368Y-79030745D01*
X155739670Y-78980167D01*
X155697789Y-78860478D01*
X155684557Y-78839420D01*
X155630227Y-78752954D01*
X155601816Y-78707738D01*
X155474262Y-78580184D01*
X155459383Y-78570835D01*
X155321523Y-78484211D01*
X155151254Y-78424631D01*
X155151249Y-78424630D01*
X155016960Y-78409500D01*
X155016954Y-78409500D01*
X154127046Y-78409500D01*
X154127039Y-78409500D01*
X153992750Y-78424630D01*
X153992745Y-78424631D01*
X153822476Y-78484211D01*
X153669737Y-78580184D01*
X153542184Y-78707737D01*
X153446208Y-78860480D01*
X153404328Y-78980167D01*
X153363606Y-79036943D01*
X153298653Y-79062690D01*
X153230092Y-79049233D01*
X153179689Y-79000846D01*
X153163884Y-78951368D01*
X153145024Y-78759868D01*
X153087814Y-78571273D01*
X153087811Y-78571269D01*
X153087811Y-78571266D01*
X152994913Y-78397467D01*
X152994909Y-78397460D01*
X152869883Y-78245116D01*
X152717539Y-78120090D01*
X152717532Y-78120086D01*
X152543733Y-78027188D01*
X152543727Y-78027186D01*
X152392238Y-77981232D01*
X152355129Y-77969975D01*
X152159000Y-77950659D01*
X151962870Y-77969975D01*
X151774266Y-78027188D01*
X151600467Y-78120086D01*
X151600460Y-78120090D01*
X151448116Y-78245116D01*
X151323090Y-78397460D01*
X151323086Y-78397467D01*
X151230188Y-78571266D01*
X151172975Y-78759870D01*
X151153659Y-78956000D01*
X151172975Y-79152129D01*
X151230188Y-79340733D01*
X151323086Y-79514532D01*
X151323090Y-79514539D01*
X151448116Y-79666883D01*
X151600460Y-79791909D01*
X151600461Y-79791909D01*
X151600462Y-79791910D01*
X151642952Y-79814621D01*
X151692796Y-79863581D01*
X151708500Y-79923979D01*
X151708500Y-80415268D01*
X151705391Y-80442860D01*
X151704684Y-80445954D01*
X151706803Y-80474217D01*
X151708327Y-80494560D01*
X151708500Y-80499177D01*
X151708500Y-81544019D01*
X151688815Y-81611058D01*
X151642955Y-81653376D01*
X151600460Y-81676090D01*
X151448116Y-81801116D01*
X151323090Y-81953460D01*
X151323086Y-81953467D01*
X151230188Y-82127266D01*
X151172975Y-82315870D01*
X151153659Y-82512000D01*
X143004341Y-82512000D01*
X142985024Y-82315868D01*
X142927814Y-82127273D01*
X142927811Y-82127269D01*
X142927811Y-82127266D01*
X142834913Y-81953467D01*
X142834909Y-81953460D01*
X142709883Y-81801116D01*
X142557539Y-81676090D01*
X142557532Y-81676086D01*
X142383733Y-81583188D01*
X142383727Y-81583186D01*
X142195132Y-81525976D01*
X142195129Y-81525975D01*
X141999000Y-81506659D01*
X141802870Y-81525975D01*
X141614266Y-81583188D01*
X141440467Y-81676086D01*
X141440460Y-81676090D01*
X141288116Y-81801116D01*
X141214216Y-81891165D01*
X141156471Y-81930499D01*
X141118363Y-81936500D01*
X140542186Y-81936500D01*
X140534088Y-81935969D01*
X140500400Y-81931534D01*
X140462680Y-81936500D01*
X140442573Y-81939147D01*
X140350167Y-81951312D01*
X140350164Y-81951312D01*
X140350164Y-81951313D01*
X140344981Y-81953460D01*
X140292176Y-81975332D01*
X140210172Y-82009298D01*
X140210167Y-82009301D01*
X140121245Y-82077533D01*
X140121224Y-82077549D01*
X140089949Y-82101549D01*
X140069262Y-82128507D01*
X140063910Y-82134608D01*
X139739537Y-82458982D01*
X139678216Y-82492466D01*
X139651858Y-82495300D01*
X132024500Y-82495300D01*
X131957461Y-82475615D01*
X131911706Y-82422811D01*
X131900500Y-82371300D01*
X131900500Y-79331000D01*
X141015507Y-79331000D01*
X141024232Y-79359763D01*
X141121728Y-79542166D01*
X141121732Y-79542173D01*
X141252944Y-79702055D01*
X141412826Y-79833267D01*
X141412833Y-79833271D01*
X141595233Y-79930765D01*
X141595236Y-79930766D01*
X141624000Y-79939491D01*
X141624000Y-79331000D01*
X141015507Y-79331000D01*
X131900500Y-79331000D01*
X131900500Y-78956000D01*
X141594014Y-78956000D01*
X141613835Y-79081148D01*
X141671359Y-79194045D01*
X141760955Y-79283641D01*
X141873852Y-79341165D01*
X141967519Y-79356000D01*
X142030481Y-79356000D01*
X142124148Y-79341165D01*
X142144098Y-79331000D01*
X142374000Y-79331000D01*
X142374000Y-79939490D01*
X142402763Y-79930766D01*
X142402766Y-79930765D01*
X142585166Y-79833271D01*
X142585173Y-79833267D01*
X142745055Y-79702055D01*
X142876267Y-79542173D01*
X142876271Y-79542166D01*
X142973767Y-79359763D01*
X142982493Y-79331000D01*
X142374000Y-79331000D01*
X142144098Y-79331000D01*
X142237045Y-79283641D01*
X142326641Y-79194045D01*
X142384165Y-79081148D01*
X142403986Y-78956000D01*
X142384165Y-78830852D01*
X142326641Y-78717955D01*
X142237045Y-78628359D01*
X142124148Y-78570835D01*
X142030481Y-78556000D01*
X141967519Y-78556000D01*
X141873852Y-78570835D01*
X141760955Y-78628359D01*
X141671359Y-78717955D01*
X141613835Y-78830852D01*
X141594014Y-78956000D01*
X131900500Y-78956000D01*
X131900500Y-78581000D01*
X141015506Y-78581000D01*
X141624000Y-78581000D01*
X141624000Y-77972506D01*
X142374000Y-77972506D01*
X142374000Y-78581000D01*
X142982493Y-78581000D01*
X142973767Y-78552236D01*
X142876271Y-78369833D01*
X142876267Y-78369826D01*
X142745055Y-78209944D01*
X142585173Y-78078732D01*
X142585166Y-78078728D01*
X142402763Y-77981232D01*
X142374000Y-77972506D01*
X141624000Y-77972506D01*
X141595236Y-77981232D01*
X141412833Y-78078728D01*
X141412826Y-78078732D01*
X141252944Y-78209944D01*
X141121732Y-78369826D01*
X141121728Y-78369833D01*
X141024232Y-78552236D01*
X141015506Y-78581000D01*
X131900500Y-78581000D01*
X131900500Y-76289000D01*
X144041659Y-76289000D01*
X144060975Y-76485129D01*
X144060976Y-76485132D01*
X144117056Y-76670003D01*
X144118188Y-76673733D01*
X144211086Y-76847532D01*
X144211090Y-76847539D01*
X144336116Y-76999883D01*
X144488460Y-77124909D01*
X144488467Y-77124913D01*
X144662266Y-77217811D01*
X144662269Y-77217811D01*
X144662273Y-77217814D01*
X144850868Y-77275024D01*
X145047000Y-77294341D01*
X145243132Y-77275024D01*
X145431727Y-77217814D01*
X145605538Y-77124910D01*
X145757883Y-76999883D01*
X145882910Y-76847538D01*
X145975814Y-76673727D01*
X146033024Y-76485132D01*
X146052341Y-76289000D01*
X146033024Y-76092868D01*
X146019038Y-76046762D01*
X146018414Y-75976895D01*
X146050015Y-75923087D01*
X148626284Y-73346819D01*
X148687607Y-73313334D01*
X148713965Y-73310500D01*
X153560060Y-73310500D01*
X153627099Y-73330185D01*
X153672854Y-73382989D01*
X153682798Y-73452147D01*
X153653773Y-73515703D01*
X153647741Y-73522181D01*
X153542184Y-73627737D01*
X153446211Y-73780476D01*
X153386631Y-73950745D01*
X153386630Y-73950750D01*
X153366435Y-74129996D01*
X153366435Y-74130003D01*
X153386630Y-74309249D01*
X153386631Y-74309254D01*
X153446211Y-74479523D01*
X153542184Y-74632262D01*
X153647741Y-74737819D01*
X153681226Y-74799142D01*
X153676242Y-74868834D01*
X153634370Y-74924767D01*
X153568906Y-74949184D01*
X153560060Y-74949500D01*
X151679783Y-74949500D01*
X151672844Y-74949110D01*
X151660545Y-74947724D01*
X151633966Y-74944729D01*
X151575508Y-74955789D01*
X151516708Y-74964652D01*
X151508550Y-74967168D01*
X151500529Y-74969975D01*
X151500528Y-74969976D01*
X151500526Y-74969976D01*
X151500523Y-74969978D01*
X151447915Y-74997783D01*
X151394358Y-75023575D01*
X151387310Y-75028379D01*
X151380459Y-75033435D01*
X151352420Y-75061474D01*
X151338400Y-75075495D01*
X151318176Y-75094260D01*
X151294807Y-75115943D01*
X151289015Y-75123207D01*
X151288363Y-75122687D01*
X151278969Y-75134925D01*
X151127913Y-75285981D01*
X151066590Y-75319466D01*
X151004239Y-75316961D01*
X150958134Y-75302976D01*
X150762000Y-75283659D01*
X150565870Y-75302975D01*
X150377266Y-75360188D01*
X150203467Y-75453086D01*
X150203460Y-75453090D01*
X150051116Y-75578116D01*
X149926090Y-75730460D01*
X149926086Y-75730467D01*
X149833188Y-75904266D01*
X149775975Y-76092870D01*
X149756659Y-76289000D01*
X149775975Y-76485129D01*
X149775976Y-76485132D01*
X149832056Y-76670003D01*
X149833188Y-76673733D01*
X149926086Y-76847532D01*
X149926090Y-76847539D01*
X150051116Y-76999883D01*
X150203460Y-77124909D01*
X150203467Y-77124913D01*
X150377266Y-77217811D01*
X150377269Y-77217811D01*
X150377273Y-77217814D01*
X150565868Y-77275024D01*
X150762000Y-77294341D01*
X150958132Y-77275024D01*
X151146727Y-77217814D01*
X151320538Y-77124910D01*
X151472883Y-76999883D01*
X151597910Y-76847538D01*
X151690814Y-76673727D01*
X151748024Y-76485132D01*
X151767341Y-76289000D01*
X151748024Y-76092868D01*
X151734038Y-76046762D01*
X151733414Y-75976895D01*
X151765016Y-75923086D01*
X151801285Y-75886818D01*
X151862609Y-75853333D01*
X151888965Y-75850500D01*
X153560060Y-75850500D01*
X153627099Y-75870185D01*
X153672854Y-75922989D01*
X153682798Y-75992147D01*
X153653773Y-76055703D01*
X153647741Y-76062181D01*
X153542184Y-76167737D01*
X153446211Y-76320476D01*
X153386631Y-76490745D01*
X153386630Y-76490750D01*
X153366435Y-76669996D01*
X153366435Y-76670003D01*
X153386630Y-76849249D01*
X153386631Y-76849254D01*
X153446211Y-77019523D01*
X153542184Y-77172262D01*
X153669738Y-77299816D01*
X153822478Y-77395789D01*
X153992745Y-77455368D01*
X153992750Y-77455369D01*
X154083246Y-77465565D01*
X154127040Y-77470499D01*
X154127043Y-77470500D01*
X154127046Y-77470500D01*
X155016957Y-77470500D01*
X155016958Y-77470499D01*
X155084104Y-77462934D01*
X155151249Y-77455369D01*
X155151252Y-77455368D01*
X155151255Y-77455368D01*
X155321522Y-77395789D01*
X155474262Y-77299816D01*
X155601816Y-77172262D01*
X155697789Y-77019522D01*
X155757368Y-76849255D01*
X155757369Y-76849249D01*
X155777565Y-76670003D01*
X178766435Y-76670003D01*
X178786630Y-76849249D01*
X178786631Y-76849254D01*
X178846211Y-77019523D01*
X178942184Y-77172262D01*
X179069738Y-77299816D01*
X179222478Y-77395789D01*
X179392745Y-77455368D01*
X179392750Y-77455369D01*
X179483246Y-77465565D01*
X179527040Y-77470499D01*
X179527043Y-77470500D01*
X179527046Y-77470500D01*
X180416957Y-77470500D01*
X180416958Y-77470499D01*
X180484104Y-77462934D01*
X180551249Y-77455369D01*
X180551252Y-77455368D01*
X180551255Y-77455368D01*
X180721522Y-77395789D01*
X180874262Y-77299816D01*
X181001816Y-77172262D01*
X181097789Y-77019522D01*
X181157368Y-76849255D01*
X181157369Y-76849249D01*
X181177565Y-76670003D01*
X181177565Y-76669996D01*
X181157369Y-76490750D01*
X181157368Y-76490745D01*
X181097788Y-76320476D01*
X181001815Y-76167737D01*
X180874262Y-76040184D01*
X180721523Y-75944211D01*
X180551254Y-75884631D01*
X180551249Y-75884630D01*
X180416960Y-75869500D01*
X180416954Y-75869500D01*
X179527046Y-75869500D01*
X179527039Y-75869500D01*
X179392750Y-75884630D01*
X179392745Y-75884631D01*
X179222476Y-75944211D01*
X179069737Y-76040184D01*
X178942184Y-76167737D01*
X178846211Y-76320476D01*
X178786631Y-76490745D01*
X178786630Y-76490750D01*
X178766435Y-76669996D01*
X178766435Y-76670003D01*
X155777565Y-76670003D01*
X155777565Y-76669996D01*
X155757369Y-76490750D01*
X155757368Y-76490745D01*
X155697788Y-76320476D01*
X155601815Y-76167737D01*
X155496259Y-76062181D01*
X155462774Y-76000858D01*
X155467758Y-75931166D01*
X155509630Y-75875233D01*
X155575094Y-75850816D01*
X155583940Y-75850500D01*
X168894217Y-75850500D01*
X168901155Y-75850889D01*
X168933050Y-75854483D01*
X168940034Y-75855270D01*
X168940034Y-75855269D01*
X168940035Y-75855270D01*
X168998479Y-75844211D01*
X169057287Y-75835348D01*
X169057290Y-75835346D01*
X169065447Y-75832830D01*
X169073469Y-75830023D01*
X169073472Y-75830023D01*
X169126072Y-75802222D01*
X169179642Y-75776425D01*
X169179642Y-75776424D01*
X169179644Y-75776424D01*
X169186695Y-75771616D01*
X169193538Y-75766566D01*
X169235600Y-75724503D01*
X169279194Y-75684055D01*
X169279196Y-75684050D01*
X169284987Y-75676790D01*
X169285643Y-75677313D01*
X169295032Y-75665070D01*
X170830099Y-74130003D01*
X178766435Y-74130003D01*
X178786630Y-74309249D01*
X178786631Y-74309254D01*
X178846211Y-74479523D01*
X178942184Y-74632262D01*
X179069738Y-74759816D01*
X179222478Y-74855789D01*
X179386495Y-74913181D01*
X179392745Y-74915368D01*
X179392750Y-74915369D01*
X179476164Y-74924767D01*
X179527040Y-74930499D01*
X179527043Y-74930500D01*
X179527046Y-74930500D01*
X180416957Y-74930500D01*
X180416958Y-74930499D01*
X180484104Y-74922934D01*
X180551249Y-74915369D01*
X180551252Y-74915368D01*
X180551255Y-74915368D01*
X180721522Y-74855789D01*
X180874262Y-74759816D01*
X181001816Y-74632262D01*
X181097789Y-74479522D01*
X181157368Y-74309255D01*
X181177565Y-74130000D01*
X181157368Y-73950745D01*
X181097789Y-73780478D01*
X181001816Y-73627738D01*
X180874262Y-73500184D01*
X180721523Y-73404211D01*
X180551254Y-73344631D01*
X180551249Y-73344630D01*
X180416960Y-73329500D01*
X180416954Y-73329500D01*
X179527046Y-73329500D01*
X179527039Y-73329500D01*
X179392750Y-73344630D01*
X179392745Y-73344631D01*
X179222476Y-73404211D01*
X179069737Y-73500184D01*
X178942184Y-73627737D01*
X178846211Y-73780476D01*
X178786631Y-73950745D01*
X178786630Y-73950750D01*
X178766435Y-74129996D01*
X178766435Y-74130003D01*
X170830099Y-74130003D01*
X173370099Y-71590003D01*
X178766435Y-71590003D01*
X178786630Y-71769249D01*
X178786631Y-71769254D01*
X178846211Y-71939523D01*
X178942184Y-72092262D01*
X179069738Y-72219816D01*
X179222478Y-72315789D01*
X179386495Y-72373181D01*
X179392745Y-72375368D01*
X179392750Y-72375369D01*
X179476164Y-72384767D01*
X179527040Y-72390499D01*
X179527043Y-72390500D01*
X179527046Y-72390500D01*
X180416957Y-72390500D01*
X180416958Y-72390499D01*
X180484104Y-72382934D01*
X180551249Y-72375369D01*
X180551252Y-72375368D01*
X180551255Y-72375368D01*
X180721522Y-72315789D01*
X180874262Y-72219816D01*
X181001816Y-72092262D01*
X181097789Y-71939522D01*
X181157368Y-71769255D01*
X181177565Y-71590000D01*
X181157368Y-71410745D01*
X181097789Y-71240478D01*
X181001816Y-71087738D01*
X180874262Y-70960184D01*
X180721523Y-70864211D01*
X180551254Y-70804631D01*
X180551249Y-70804630D01*
X180416960Y-70789500D01*
X180416954Y-70789500D01*
X179527046Y-70789500D01*
X179527039Y-70789500D01*
X179392750Y-70804630D01*
X179392745Y-70804631D01*
X179222476Y-70864211D01*
X179069737Y-70960184D01*
X178942184Y-71087737D01*
X178846211Y-71240476D01*
X178786631Y-71410745D01*
X178786630Y-71410750D01*
X178766435Y-71589996D01*
X178766435Y-71590003D01*
X173370099Y-71590003D01*
X175535103Y-69425000D01*
X178808743Y-69425000D01*
X178864315Y-69529820D01*
X178864314Y-69529820D01*
X178984008Y-69670734D01*
X179131195Y-69782622D01*
X179298992Y-69860254D01*
X179298996Y-69860256D01*
X179479556Y-69899999D01*
X179479560Y-69900000D01*
X179597000Y-69900000D01*
X179597000Y-69425000D01*
X178808743Y-69425000D01*
X175535103Y-69425000D01*
X175910103Y-69050000D01*
X179567014Y-69050000D01*
X179586835Y-69175148D01*
X179644359Y-69288045D01*
X179733955Y-69377641D01*
X179846852Y-69435165D01*
X179940519Y-69450000D01*
X180003481Y-69450000D01*
X180097148Y-69435165D01*
X180117098Y-69425000D01*
X180347000Y-69425000D01*
X180347000Y-69900000D01*
X180418079Y-69900000D01*
X180418085Y-69899999D01*
X180555800Y-69885022D01*
X180555804Y-69885021D01*
X180731011Y-69825986D01*
X180889430Y-69730669D01*
X181023659Y-69603521D01*
X181127413Y-69450493D01*
X181127415Y-69450490D01*
X181137571Y-69425000D01*
X180347000Y-69425000D01*
X180117098Y-69425000D01*
X180210045Y-69377641D01*
X180299641Y-69288045D01*
X180357165Y-69175148D01*
X180376986Y-69050000D01*
X180357165Y-68924852D01*
X180299641Y-68811955D01*
X180210045Y-68722359D01*
X180097148Y-68664835D01*
X180003481Y-68650000D01*
X179940519Y-68650000D01*
X179846852Y-68664835D01*
X179733955Y-68722359D01*
X179644359Y-68811955D01*
X179586835Y-68924852D01*
X179567014Y-69050000D01*
X175910103Y-69050000D01*
X176285104Y-68674999D01*
X178806428Y-68674999D01*
X178806429Y-68675000D01*
X179597000Y-68675000D01*
X179597000Y-68200000D01*
X180347000Y-68200000D01*
X180347000Y-68675000D01*
X181135257Y-68675000D01*
X181135257Y-68674999D01*
X181079684Y-68570179D01*
X181079685Y-68570179D01*
X180959991Y-68429265D01*
X180812804Y-68317377D01*
X180645007Y-68239745D01*
X180645003Y-68239743D01*
X180464443Y-68200000D01*
X180347000Y-68200000D01*
X179597000Y-68200000D01*
X179525914Y-68200000D01*
X179388199Y-68214977D01*
X179388195Y-68214978D01*
X179212988Y-68274013D01*
X179054569Y-68369330D01*
X178920340Y-68496478D01*
X178816586Y-68649506D01*
X178816584Y-68649509D01*
X178806428Y-68674999D01*
X176285104Y-68674999D01*
X177963284Y-66996819D01*
X178024607Y-66963334D01*
X178050965Y-66960500D01*
X178841190Y-66960500D01*
X178908229Y-66980185D01*
X178938135Y-67007185D01*
X178942183Y-67012261D01*
X178942184Y-67012262D01*
X179069738Y-67139816D01*
X179222478Y-67235789D01*
X179392745Y-67295368D01*
X179392750Y-67295369D01*
X179483246Y-67305565D01*
X179527040Y-67310499D01*
X179527043Y-67310500D01*
X179527046Y-67310500D01*
X180416957Y-67310500D01*
X180416958Y-67310499D01*
X180484104Y-67302934D01*
X180551249Y-67295369D01*
X180551252Y-67295368D01*
X180551255Y-67295368D01*
X180721522Y-67235789D01*
X180874262Y-67139816D01*
X181001816Y-67012262D01*
X181097789Y-66859522D01*
X181157368Y-66689255D01*
X181157369Y-66689249D01*
X181177565Y-66510003D01*
X181177565Y-66509996D01*
X181157369Y-66330750D01*
X181157368Y-66330745D01*
X181123056Y-66232688D01*
X181097789Y-66160478D01*
X181001816Y-66007738D01*
X180874262Y-65880184D01*
X180721523Y-65784211D01*
X180551254Y-65724631D01*
X180551249Y-65724630D01*
X180416960Y-65709500D01*
X180416954Y-65709500D01*
X179527046Y-65709500D01*
X179527039Y-65709500D01*
X179392750Y-65724630D01*
X179392745Y-65724631D01*
X179222476Y-65784211D01*
X179069737Y-65880184D01*
X178942183Y-66007738D01*
X178938135Y-66012815D01*
X178880946Y-66052954D01*
X178841190Y-66059500D01*
X177841783Y-66059500D01*
X177834844Y-66059110D01*
X177820569Y-66057502D01*
X177795964Y-66054729D01*
X177737511Y-66065789D01*
X177678711Y-66074652D01*
X177670556Y-66077167D01*
X177662530Y-66079975D01*
X177662529Y-66079976D01*
X177662527Y-66079976D01*
X177662524Y-66079978D01*
X177609926Y-66107777D01*
X177556358Y-66133575D01*
X177549308Y-66138380D01*
X177542461Y-66143435D01*
X177521437Y-66164458D01*
X177500413Y-66185483D01*
X177476770Y-66207420D01*
X177456803Y-66225947D01*
X177451013Y-66233208D01*
X177450362Y-66232688D01*
X177440967Y-66244928D01*
X168772716Y-74913181D01*
X168711393Y-74946666D01*
X168685035Y-74949500D01*
X155583940Y-74949500D01*
X155516901Y-74929815D01*
X155471146Y-74877011D01*
X155461202Y-74807853D01*
X155490227Y-74744297D01*
X155496259Y-74737819D01*
X155601816Y-74632262D01*
X155697789Y-74479522D01*
X155757368Y-74309255D01*
X155777565Y-74130000D01*
X155757368Y-73950745D01*
X155697789Y-73780478D01*
X155601816Y-73627738D01*
X155496259Y-73522181D01*
X155462774Y-73460858D01*
X155467758Y-73391166D01*
X155509630Y-73335233D01*
X155575094Y-73310816D01*
X155583940Y-73310500D01*
X161020217Y-73310500D01*
X161027155Y-73310889D01*
X161059050Y-73314483D01*
X161066034Y-73315270D01*
X161066034Y-73315269D01*
X161066035Y-73315270D01*
X161124479Y-73304211D01*
X161183287Y-73295348D01*
X161183290Y-73295346D01*
X161191447Y-73292830D01*
X161199469Y-73290023D01*
X161199472Y-73290023D01*
X161252072Y-73262222D01*
X161305642Y-73236425D01*
X161305642Y-73236424D01*
X161305644Y-73236424D01*
X161312695Y-73231616D01*
X161319538Y-73226566D01*
X161361600Y-73184503D01*
X161405194Y-73144055D01*
X161405196Y-73144050D01*
X161410987Y-73136790D01*
X161411643Y-73137313D01*
X161421032Y-73125070D01*
X170576100Y-63970003D01*
X178766435Y-63970003D01*
X178786630Y-64149249D01*
X178786631Y-64149254D01*
X178846211Y-64319523D01*
X178927283Y-64448548D01*
X178942184Y-64472262D01*
X179069738Y-64599816D01*
X179222478Y-64695789D01*
X179392745Y-64755368D01*
X179392750Y-64755369D01*
X179483246Y-64765565D01*
X179527040Y-64770499D01*
X179527043Y-64770500D01*
X179527046Y-64770500D01*
X180416957Y-64770500D01*
X180416958Y-64770499D01*
X180497267Y-64761451D01*
X180551249Y-64755369D01*
X180551252Y-64755368D01*
X180551255Y-64755368D01*
X180721522Y-64695789D01*
X180874262Y-64599816D01*
X181001816Y-64472262D01*
X181097789Y-64319522D01*
X181157368Y-64149255D01*
X181157404Y-64148938D01*
X181177565Y-63970003D01*
X181177565Y-63969996D01*
X181157369Y-63790750D01*
X181157368Y-63790745D01*
X181124767Y-63697576D01*
X181097789Y-63620478D01*
X181092936Y-63612755D01*
X181018977Y-63495050D01*
X181001816Y-63467738D01*
X180874262Y-63340184D01*
X180874243Y-63340172D01*
X180721523Y-63244211D01*
X180551254Y-63184631D01*
X180551249Y-63184630D01*
X180416960Y-63169500D01*
X180416954Y-63169500D01*
X179527046Y-63169500D01*
X179527039Y-63169500D01*
X179392750Y-63184630D01*
X179392745Y-63184631D01*
X179222476Y-63244211D01*
X179069737Y-63340184D01*
X178942184Y-63467737D01*
X178846211Y-63620476D01*
X178786631Y-63790745D01*
X178786630Y-63790750D01*
X178766435Y-63969996D01*
X178766435Y-63970003D01*
X170576100Y-63970003D01*
X173116100Y-61430003D01*
X178766435Y-61430003D01*
X178786630Y-61609249D01*
X178786631Y-61609254D01*
X178846211Y-61779523D01*
X178870399Y-61818017D01*
X178942184Y-61932262D01*
X179069738Y-62059816D01*
X179222478Y-62155789D01*
X179392745Y-62215368D01*
X179392750Y-62215369D01*
X179483246Y-62225565D01*
X179527040Y-62230499D01*
X179527043Y-62230500D01*
X179527046Y-62230500D01*
X180416957Y-62230500D01*
X180416958Y-62230499D01*
X180484104Y-62222934D01*
X180551249Y-62215369D01*
X180551252Y-62215368D01*
X180551255Y-62215368D01*
X180721522Y-62155789D01*
X180874262Y-62059816D01*
X181001816Y-61932262D01*
X181097789Y-61779522D01*
X181157368Y-61609255D01*
X181162410Y-61564505D01*
X181177565Y-61430003D01*
X181177565Y-61429996D01*
X181157369Y-61250750D01*
X181157368Y-61250745D01*
X181097788Y-61080476D01*
X181001815Y-60927737D01*
X180874262Y-60800184D01*
X180721523Y-60704211D01*
X180551254Y-60644631D01*
X180551249Y-60644630D01*
X180416960Y-60629500D01*
X180416954Y-60629500D01*
X179527046Y-60629500D01*
X179527039Y-60629500D01*
X179392750Y-60644630D01*
X179392745Y-60644631D01*
X179222476Y-60704211D01*
X179069737Y-60800184D01*
X178942184Y-60927737D01*
X178846211Y-61080476D01*
X178786631Y-61250745D01*
X178786630Y-61250750D01*
X178766435Y-61429996D01*
X178766435Y-61430003D01*
X173116100Y-61430003D01*
X175656100Y-58890003D01*
X178766435Y-58890003D01*
X178786630Y-59069249D01*
X178786631Y-59069254D01*
X178846211Y-59239523D01*
X178942184Y-59392262D01*
X179069738Y-59519816D01*
X179222478Y-59615789D01*
X179392745Y-59675368D01*
X179392750Y-59675369D01*
X179483246Y-59685565D01*
X179527040Y-59690499D01*
X179527043Y-59690500D01*
X179527046Y-59690500D01*
X180416957Y-59690500D01*
X180416958Y-59690499D01*
X180484104Y-59682934D01*
X180551249Y-59675369D01*
X180551252Y-59675368D01*
X180551255Y-59675368D01*
X180721522Y-59615789D01*
X180874262Y-59519816D01*
X181001816Y-59392262D01*
X181097789Y-59239522D01*
X181157368Y-59069255D01*
X181157369Y-59069249D01*
X181177565Y-58890003D01*
X181177565Y-58889996D01*
X181157369Y-58710750D01*
X181157368Y-58710745D01*
X181097788Y-58540476D01*
X181001815Y-58387737D01*
X180874262Y-58260184D01*
X180721523Y-58164211D01*
X180551254Y-58104631D01*
X180551249Y-58104630D01*
X180416960Y-58089500D01*
X180416954Y-58089500D01*
X179527046Y-58089500D01*
X179527039Y-58089500D01*
X179392750Y-58104630D01*
X179392745Y-58104631D01*
X179222476Y-58164211D01*
X179069737Y-58260184D01*
X178942184Y-58387737D01*
X178846211Y-58540476D01*
X178786631Y-58710745D01*
X178786630Y-58710750D01*
X178766435Y-58889996D01*
X178766435Y-58890003D01*
X175656100Y-58890003D01*
X177709284Y-56836819D01*
X177770607Y-56803334D01*
X177796965Y-56800500D01*
X178841190Y-56800500D01*
X178908229Y-56820185D01*
X178938135Y-56847185D01*
X178942183Y-56852261D01*
X178942184Y-56852262D01*
X179069738Y-56979816D01*
X179222478Y-57075789D01*
X179392745Y-57135368D01*
X179392750Y-57135369D01*
X179483246Y-57145565D01*
X179527040Y-57150499D01*
X179527043Y-57150500D01*
X179527046Y-57150500D01*
X180416957Y-57150500D01*
X180416958Y-57150499D01*
X180484104Y-57142934D01*
X180551249Y-57135369D01*
X180551252Y-57135368D01*
X180551255Y-57135368D01*
X180721522Y-57075789D01*
X180874262Y-56979816D01*
X181001816Y-56852262D01*
X181097789Y-56699522D01*
X181157368Y-56529255D01*
X181157372Y-56529226D01*
X181177565Y-56350000D01*
X181177565Y-56349996D01*
X181157369Y-56170750D01*
X181157368Y-56170745D01*
X181132518Y-56099727D01*
X181097789Y-56000478D01*
X181084555Y-55979417D01*
X181001815Y-55847737D01*
X180874262Y-55720184D01*
X180721523Y-55624211D01*
X180551254Y-55564631D01*
X180551249Y-55564630D01*
X180416960Y-55549500D01*
X180416954Y-55549500D01*
X179527046Y-55549500D01*
X179527039Y-55549500D01*
X179392750Y-55564630D01*
X179392745Y-55564631D01*
X179222476Y-55624211D01*
X179069737Y-55720184D01*
X178942183Y-55847738D01*
X178938135Y-55852815D01*
X178880946Y-55892954D01*
X178841190Y-55899500D01*
X177587783Y-55899500D01*
X177580844Y-55899110D01*
X177568545Y-55897724D01*
X177541966Y-55894729D01*
X177483508Y-55905789D01*
X177424708Y-55914652D01*
X177416550Y-55917168D01*
X177408529Y-55919975D01*
X177408528Y-55919976D01*
X177408526Y-55919976D01*
X177408523Y-55919978D01*
X177355915Y-55947783D01*
X177302358Y-55973575D01*
X177295310Y-55978379D01*
X177288459Y-55983435D01*
X177264805Y-56007090D01*
X177246399Y-56025496D01*
X177227095Y-56043408D01*
X177202803Y-56065947D01*
X177197012Y-56073209D01*
X177196360Y-56072689D01*
X177186968Y-56084926D01*
X160898716Y-72373181D01*
X160837393Y-72406666D01*
X160811035Y-72409500D01*
X155583940Y-72409500D01*
X155516901Y-72389815D01*
X155471146Y-72337011D01*
X155461202Y-72267853D01*
X155490227Y-72204297D01*
X155496259Y-72197819D01*
X155601816Y-72092262D01*
X155697789Y-71939522D01*
X155757368Y-71769255D01*
X155777565Y-71590000D01*
X155757368Y-71410745D01*
X155697789Y-71240478D01*
X155601816Y-71087738D01*
X155474262Y-70960184D01*
X155321523Y-70864211D01*
X155151254Y-70804631D01*
X155151249Y-70804630D01*
X155016960Y-70789500D01*
X155016954Y-70789500D01*
X154127046Y-70789500D01*
X154127039Y-70789500D01*
X153992750Y-70804630D01*
X153992745Y-70804631D01*
X153822476Y-70864211D01*
X153669737Y-70960184D01*
X153542184Y-71087737D01*
X153446211Y-71240476D01*
X153386631Y-71410745D01*
X153386630Y-71410750D01*
X153366435Y-71589996D01*
X153366435Y-71590003D01*
X153386630Y-71769249D01*
X153386631Y-71769254D01*
X153446211Y-71939523D01*
X153542184Y-72092262D01*
X153647741Y-72197819D01*
X153681226Y-72259142D01*
X153676242Y-72328834D01*
X153634370Y-72384767D01*
X153568906Y-72409184D01*
X153560060Y-72409500D01*
X148504783Y-72409500D01*
X148497844Y-72409110D01*
X148483569Y-72407502D01*
X148458964Y-72404729D01*
X148408543Y-72414270D01*
X148400520Y-72415788D01*
X148387832Y-72417700D01*
X148341716Y-72424651D01*
X148333532Y-72427175D01*
X148325528Y-72429976D01*
X148272936Y-72457773D01*
X148219357Y-72483574D01*
X148212338Y-72488359D01*
X148205461Y-72493435D01*
X148163413Y-72535483D01*
X148119803Y-72575947D01*
X148114013Y-72583208D01*
X148113362Y-72582688D01*
X148103967Y-72594928D01*
X145412913Y-75285982D01*
X145351590Y-75319467D01*
X145289238Y-75316962D01*
X145243132Y-75302976D01*
X145243129Y-75302975D01*
X145243131Y-75302975D01*
X145047000Y-75283659D01*
X144850870Y-75302975D01*
X144662266Y-75360188D01*
X144488467Y-75453086D01*
X144488460Y-75453090D01*
X144336116Y-75578116D01*
X144211090Y-75730460D01*
X144211086Y-75730467D01*
X144118188Y-75904266D01*
X144060975Y-76092870D01*
X144041659Y-76289000D01*
X131900500Y-76289000D01*
X131900500Y-69050003D01*
X153366435Y-69050003D01*
X153386630Y-69229249D01*
X153386631Y-69229254D01*
X153446211Y-69399523D01*
X153468607Y-69435165D01*
X153542184Y-69552262D01*
X153669738Y-69679816D01*
X153822478Y-69775789D01*
X153842006Y-69782622D01*
X153992745Y-69835368D01*
X153992750Y-69835369D01*
X154083246Y-69845565D01*
X154127040Y-69850499D01*
X154127043Y-69850500D01*
X154127046Y-69850500D01*
X155016957Y-69850500D01*
X155016958Y-69850499D01*
X155084104Y-69842934D01*
X155151249Y-69835369D01*
X155151252Y-69835368D01*
X155151255Y-69835368D01*
X155321522Y-69775789D01*
X155474262Y-69679816D01*
X155601816Y-69552262D01*
X155697789Y-69399522D01*
X155757368Y-69229255D01*
X155757369Y-69229249D01*
X155777565Y-69050003D01*
X155777565Y-69049996D01*
X155757369Y-68870750D01*
X155757368Y-68870745D01*
X155697788Y-68700476D01*
X155658582Y-68638080D01*
X155601816Y-68547738D01*
X155474262Y-68420184D01*
X155321523Y-68324211D01*
X155151254Y-68264631D01*
X155151249Y-68264630D01*
X155016960Y-68249500D01*
X155016954Y-68249500D01*
X154127046Y-68249500D01*
X154127039Y-68249500D01*
X153992750Y-68264630D01*
X153992745Y-68264631D01*
X153822476Y-68324211D01*
X153669737Y-68420184D01*
X153542184Y-68547737D01*
X153446211Y-68700476D01*
X153386631Y-68870745D01*
X153386630Y-68870750D01*
X153366435Y-69049996D01*
X153366435Y-69050003D01*
X131900500Y-69050003D01*
X131900500Y-66129000D01*
X144041659Y-66129000D01*
X144060975Y-66325129D01*
X144060976Y-66325132D01*
X144117056Y-66510003D01*
X144118188Y-66513733D01*
X144211086Y-66687532D01*
X144211090Y-66687539D01*
X144336116Y-66839883D01*
X144488460Y-66964909D01*
X144488467Y-66964913D01*
X144662266Y-67057811D01*
X144662269Y-67057811D01*
X144662273Y-67057814D01*
X144850868Y-67115024D01*
X145047000Y-67134341D01*
X145243132Y-67115024D01*
X145431727Y-67057814D01*
X145605538Y-66964910D01*
X145757883Y-66839883D01*
X145882910Y-66687538D01*
X145975814Y-66513727D01*
X146033024Y-66325132D01*
X146052341Y-66129000D01*
X149756659Y-66129000D01*
X149775975Y-66325129D01*
X149775976Y-66325132D01*
X149832056Y-66510003D01*
X149833188Y-66513733D01*
X149926086Y-66687532D01*
X149926090Y-66687539D01*
X150051116Y-66839883D01*
X150203460Y-66964909D01*
X150203467Y-66964913D01*
X150377266Y-67057811D01*
X150377269Y-67057811D01*
X150377273Y-67057814D01*
X150565868Y-67115024D01*
X150762000Y-67134341D01*
X150958132Y-67115024D01*
X151146727Y-67057814D01*
X151320538Y-66964910D01*
X151472883Y-66839883D01*
X151597910Y-66687538D01*
X151690814Y-66513727D01*
X151691944Y-66510003D01*
X153366435Y-66510003D01*
X153386630Y-66689249D01*
X153386631Y-66689254D01*
X153446211Y-66859523D01*
X153538994Y-67007185D01*
X153542184Y-67012262D01*
X153669738Y-67139816D01*
X153822478Y-67235789D01*
X153992745Y-67295368D01*
X153992750Y-67295369D01*
X154083246Y-67305565D01*
X154127040Y-67310499D01*
X154127043Y-67310500D01*
X154127046Y-67310500D01*
X155016957Y-67310500D01*
X155016958Y-67310499D01*
X155084104Y-67302934D01*
X155151249Y-67295369D01*
X155151252Y-67295368D01*
X155151255Y-67295368D01*
X155321522Y-67235789D01*
X155474262Y-67139816D01*
X155601816Y-67012262D01*
X155697789Y-66859522D01*
X155757368Y-66689255D01*
X155757369Y-66689249D01*
X155777565Y-66510003D01*
X155777565Y-66509996D01*
X155757369Y-66330750D01*
X155757368Y-66330745D01*
X155723056Y-66232688D01*
X155697789Y-66160478D01*
X155601816Y-66007738D01*
X155474262Y-65880184D01*
X155321523Y-65784211D01*
X155151254Y-65724631D01*
X155151249Y-65724630D01*
X155016960Y-65709500D01*
X155016954Y-65709500D01*
X154127046Y-65709500D01*
X154127039Y-65709500D01*
X153992750Y-65724630D01*
X153992745Y-65724631D01*
X153822476Y-65784211D01*
X153669737Y-65880184D01*
X153542184Y-66007737D01*
X153446211Y-66160476D01*
X153386631Y-66330745D01*
X153386630Y-66330750D01*
X153366435Y-66509996D01*
X153366435Y-66510003D01*
X151691944Y-66510003D01*
X151748024Y-66325132D01*
X151767341Y-66129000D01*
X151748024Y-65932868D01*
X151690814Y-65744273D01*
X151690811Y-65744269D01*
X151690811Y-65744266D01*
X151597913Y-65570467D01*
X151597909Y-65570460D01*
X151472883Y-65418116D01*
X151382835Y-65344215D01*
X151343501Y-65286469D01*
X151337500Y-65248362D01*
X151337500Y-65148741D01*
X151357185Y-65081702D01*
X151373815Y-65061064D01*
X151647398Y-64787480D01*
X151653489Y-64782138D01*
X151680451Y-64761451D01*
X151697394Y-64739370D01*
X151697405Y-64739358D01*
X151772698Y-64641233D01*
X151830687Y-64501236D01*
X151837623Y-64448549D01*
X151845500Y-64388720D01*
X151845500Y-64388719D01*
X151845752Y-64386805D01*
X151845754Y-64386785D01*
X151850465Y-64351000D01*
X151850465Y-64350999D01*
X151846031Y-64317321D01*
X151845500Y-64309219D01*
X151845500Y-63970003D01*
X153366435Y-63970003D01*
X153386630Y-64149249D01*
X153386631Y-64149254D01*
X153446211Y-64319523D01*
X153527283Y-64448548D01*
X153542184Y-64472262D01*
X153669738Y-64599816D01*
X153822478Y-64695789D01*
X153992745Y-64755368D01*
X153992750Y-64755369D01*
X154083246Y-64765565D01*
X154127040Y-64770499D01*
X154127043Y-64770500D01*
X154127046Y-64770500D01*
X155016957Y-64770500D01*
X155016958Y-64770499D01*
X155097267Y-64761451D01*
X155151249Y-64755369D01*
X155151252Y-64755368D01*
X155151255Y-64755368D01*
X155321522Y-64695789D01*
X155474262Y-64599816D01*
X155601816Y-64472262D01*
X155697789Y-64319522D01*
X155757368Y-64149255D01*
X155757404Y-64148938D01*
X155777565Y-63970003D01*
X155777565Y-63969996D01*
X155757369Y-63790750D01*
X155757368Y-63790745D01*
X155724767Y-63697576D01*
X155697789Y-63620478D01*
X155692936Y-63612755D01*
X155618977Y-63495050D01*
X155601816Y-63467738D01*
X155474262Y-63340184D01*
X155474243Y-63340172D01*
X155321523Y-63244211D01*
X155151254Y-63184631D01*
X155151249Y-63184630D01*
X155016960Y-63169500D01*
X155016954Y-63169500D01*
X154127046Y-63169500D01*
X154127039Y-63169500D01*
X153992750Y-63184630D01*
X153992745Y-63184631D01*
X153822476Y-63244211D01*
X153669737Y-63340184D01*
X153542184Y-63467737D01*
X153446211Y-63620476D01*
X153386631Y-63790745D01*
X153386630Y-63790750D01*
X153366435Y-63969996D01*
X153366435Y-63970003D01*
X151845500Y-63970003D01*
X151845500Y-63707108D01*
X151865185Y-63640069D01*
X151904221Y-63601682D01*
X151936041Y-63581981D01*
X152086764Y-63444579D01*
X152209673Y-63281821D01*
X152300582Y-63099250D01*
X152356397Y-62903083D01*
X152375215Y-62700000D01*
X152356397Y-62496917D01*
X152300582Y-62300750D01*
X152295221Y-62289984D01*
X152228400Y-62155788D01*
X152209673Y-62118179D01*
X152086764Y-61955421D01*
X152086762Y-61955418D01*
X151936041Y-61818019D01*
X151936039Y-61818017D01*
X151762642Y-61710655D01*
X151762635Y-61710651D01*
X151667546Y-61673814D01*
X151572456Y-61636976D01*
X151371976Y-61599500D01*
X151168024Y-61599500D01*
X150967544Y-61636976D01*
X150967541Y-61636976D01*
X150967541Y-61636977D01*
X150777364Y-61710651D01*
X150777357Y-61710655D01*
X150603960Y-61818017D01*
X150603958Y-61818019D01*
X150453237Y-61955418D01*
X150330327Y-62118178D01*
X150239422Y-62300739D01*
X150239417Y-62300752D01*
X150183602Y-62496917D01*
X150164785Y-62699999D01*
X150164785Y-62700000D01*
X150183602Y-62903082D01*
X150239417Y-63099247D01*
X150239422Y-63099260D01*
X150330327Y-63281821D01*
X150453237Y-63444581D01*
X150603958Y-63581980D01*
X150603960Y-63581982D01*
X150635777Y-63601682D01*
X150682413Y-63653709D01*
X150694500Y-63707109D01*
X150694500Y-64061257D01*
X150674815Y-64128296D01*
X150658181Y-64148938D01*
X150384608Y-64422511D01*
X150378507Y-64427862D01*
X150351550Y-64448548D01*
X150328017Y-64479214D01*
X150328001Y-64479237D01*
X150259300Y-64568769D01*
X150206687Y-64695789D01*
X150201313Y-64708764D01*
X150192754Y-64773780D01*
X150185957Y-64825406D01*
X150185955Y-64825419D01*
X150181535Y-64859000D01*
X150185969Y-64892678D01*
X150186500Y-64900780D01*
X150186500Y-65248362D01*
X150166815Y-65315401D01*
X150141165Y-65344215D01*
X150051116Y-65418116D01*
X149926090Y-65570460D01*
X149926086Y-65570467D01*
X149833188Y-65744266D01*
X149775975Y-65932870D01*
X149756659Y-66129000D01*
X146052341Y-66129000D01*
X146033024Y-65932868D01*
X145975814Y-65744273D01*
X145975811Y-65744269D01*
X145975811Y-65744266D01*
X145882913Y-65570467D01*
X145882909Y-65570460D01*
X145757883Y-65418116D01*
X145667835Y-65344215D01*
X145628501Y-65286469D01*
X145622500Y-65248362D01*
X145622500Y-65021741D01*
X145642185Y-64954702D01*
X145658810Y-64934069D01*
X145805399Y-64787479D01*
X145811488Y-64782139D01*
X145838451Y-64761451D01*
X145855394Y-64739370D01*
X145855405Y-64739358D01*
X145930698Y-64641233D01*
X145988687Y-64501236D01*
X145995623Y-64448549D01*
X146003500Y-64388720D01*
X146003500Y-64388719D01*
X146003752Y-64386805D01*
X146003754Y-64386785D01*
X146008465Y-64351000D01*
X146008465Y-64350999D01*
X146004031Y-64317321D01*
X146003500Y-64309219D01*
X146003500Y-63707108D01*
X146023185Y-63640069D01*
X146062221Y-63601682D01*
X146094041Y-63581981D01*
X146244764Y-63444579D01*
X146367673Y-63281821D01*
X146458582Y-63099250D01*
X146465482Y-63075000D01*
X147580000Y-63075000D01*
X147580000Y-63624628D01*
X147594503Y-63697540D01*
X147594505Y-63697544D01*
X147649760Y-63780239D01*
X147732455Y-63835494D01*
X147732459Y-63835496D01*
X147805371Y-63849999D01*
X147805374Y-63850000D01*
X148355000Y-63850000D01*
X148355000Y-63075000D01*
X147580000Y-63075000D01*
X146465482Y-63075000D01*
X146514397Y-62903083D01*
X146533215Y-62700000D01*
X146530064Y-62665992D01*
X148276190Y-62665992D01*
X148286327Y-62801265D01*
X148335887Y-62927541D01*
X148420465Y-63033599D01*
X148532547Y-63110016D01*
X148662173Y-63150000D01*
X148763724Y-63150000D01*
X148864138Y-63134865D01*
X148986357Y-63076007D01*
X148987442Y-63075000D01*
X149105000Y-63075000D01*
X149105000Y-63850000D01*
X149654626Y-63850000D01*
X149654628Y-63849999D01*
X149727540Y-63835496D01*
X149727544Y-63835494D01*
X149810239Y-63780239D01*
X149865494Y-63697544D01*
X149865496Y-63697540D01*
X149879999Y-63624628D01*
X149880000Y-63624626D01*
X149880000Y-63075000D01*
X149105000Y-63075000D01*
X148987442Y-63075000D01*
X149085798Y-62983740D01*
X149153625Y-62866260D01*
X149183810Y-62734008D01*
X149173673Y-62598735D01*
X149124113Y-62472459D01*
X149039535Y-62366401D01*
X148927453Y-62289984D01*
X148797827Y-62250000D01*
X148696276Y-62250000D01*
X148595862Y-62265135D01*
X148473643Y-62323993D01*
X148374202Y-62416260D01*
X148306375Y-62533740D01*
X148276190Y-62665992D01*
X146530064Y-62665992D01*
X146514397Y-62496917D01*
X146465482Y-62325000D01*
X147580000Y-62325000D01*
X148355000Y-62325000D01*
X148355000Y-61550000D01*
X149105000Y-61550000D01*
X149105000Y-62325000D01*
X149880000Y-62325000D01*
X149880000Y-61775373D01*
X149879999Y-61775371D01*
X149865496Y-61702459D01*
X149865494Y-61702455D01*
X149810239Y-61619760D01*
X149727544Y-61564505D01*
X149727540Y-61564503D01*
X149654627Y-61550000D01*
X149105000Y-61550000D01*
X148355000Y-61550000D01*
X147805373Y-61550000D01*
X147732459Y-61564503D01*
X147732455Y-61564505D01*
X147649760Y-61619760D01*
X147594505Y-61702455D01*
X147594503Y-61702459D01*
X147580000Y-61775371D01*
X147580000Y-62325000D01*
X146465482Y-62325000D01*
X146458582Y-62300750D01*
X146453221Y-62289984D01*
X146386400Y-62155788D01*
X146367673Y-62118179D01*
X146244764Y-61955421D01*
X146244762Y-61955418D01*
X146094041Y-61818019D01*
X146094039Y-61818017D01*
X145920642Y-61710655D01*
X145920635Y-61710651D01*
X145825546Y-61673814D01*
X145730456Y-61636976D01*
X145529976Y-61599500D01*
X145326024Y-61599500D01*
X145125544Y-61636976D01*
X145125541Y-61636976D01*
X145125541Y-61636977D01*
X144935364Y-61710651D01*
X144935357Y-61710655D01*
X144761960Y-61818017D01*
X144761958Y-61818019D01*
X144611237Y-61955418D01*
X144488327Y-62118178D01*
X144397422Y-62300739D01*
X144397417Y-62300752D01*
X144341602Y-62496917D01*
X144322785Y-62699999D01*
X144322785Y-62700000D01*
X144341602Y-62903082D01*
X144397417Y-63099247D01*
X144397422Y-63099260D01*
X144488327Y-63281821D01*
X144611236Y-63444579D01*
X144761959Y-63581981D01*
X144793778Y-63601682D01*
X144840412Y-63653707D01*
X144852500Y-63707108D01*
X144852500Y-64061257D01*
X144832815Y-64128296D01*
X144816181Y-64148939D01*
X144669608Y-64295511D01*
X144663507Y-64300862D01*
X144636549Y-64321549D01*
X144612549Y-64352824D01*
X144612533Y-64352845D01*
X144585011Y-64388714D01*
X144561243Y-64419689D01*
X144556869Y-64425390D01*
X144544300Y-64441770D01*
X144486313Y-64581763D01*
X144486313Y-64581764D01*
X144470957Y-64698406D01*
X144470955Y-64698419D01*
X144466631Y-64731268D01*
X144466535Y-64732000D01*
X144469611Y-64755369D01*
X144470969Y-64765678D01*
X144471500Y-64773780D01*
X144471500Y-65248362D01*
X144451815Y-65315401D01*
X144426165Y-65344215D01*
X144336116Y-65418116D01*
X144211090Y-65570460D01*
X144211086Y-65570467D01*
X144118188Y-65744266D01*
X144060975Y-65932870D01*
X144041659Y-66129000D01*
X131900500Y-66129000D01*
X131900500Y-64465871D01*
X131920185Y-64398832D01*
X131936814Y-64378195D01*
X133240009Y-63075000D01*
X141738000Y-63075000D01*
X141738000Y-63624628D01*
X141752503Y-63697540D01*
X141752505Y-63697544D01*
X141807760Y-63780239D01*
X141890455Y-63835494D01*
X141890459Y-63835496D01*
X141963371Y-63849999D01*
X141963374Y-63850000D01*
X142513000Y-63850000D01*
X142513000Y-63075000D01*
X141738000Y-63075000D01*
X133240009Y-63075000D01*
X133649017Y-62665992D01*
X142434190Y-62665992D01*
X142444327Y-62801265D01*
X142493887Y-62927541D01*
X142578465Y-63033599D01*
X142690547Y-63110016D01*
X142820173Y-63150000D01*
X142921724Y-63150000D01*
X143022138Y-63134865D01*
X143144357Y-63076007D01*
X143145442Y-63075000D01*
X143263000Y-63075000D01*
X143263000Y-63850000D01*
X143812626Y-63850000D01*
X143812628Y-63849999D01*
X143885540Y-63835496D01*
X143885544Y-63835494D01*
X143968239Y-63780239D01*
X144023494Y-63697544D01*
X144023496Y-63697540D01*
X144037999Y-63624628D01*
X144038000Y-63624626D01*
X144038000Y-63075000D01*
X143263000Y-63075000D01*
X143145442Y-63075000D01*
X143243798Y-62983740D01*
X143311625Y-62866260D01*
X143341810Y-62734008D01*
X143331673Y-62598735D01*
X143282113Y-62472459D01*
X143197535Y-62366401D01*
X143085453Y-62289984D01*
X142955827Y-62250000D01*
X142854276Y-62250000D01*
X142753862Y-62265135D01*
X142631643Y-62323993D01*
X142532202Y-62416260D01*
X142464375Y-62533740D01*
X142434190Y-62665992D01*
X133649017Y-62665992D01*
X133990009Y-62325000D01*
X141738000Y-62325000D01*
X142513000Y-62325000D01*
X142513000Y-61550000D01*
X143263000Y-61550000D01*
X143263000Y-62325000D01*
X144038000Y-62325000D01*
X144038000Y-61775373D01*
X144037999Y-61775371D01*
X144023496Y-61702459D01*
X144023494Y-61702455D01*
X143968239Y-61619760D01*
X143885544Y-61564505D01*
X143885540Y-61564503D01*
X143812627Y-61550000D01*
X143263000Y-61550000D01*
X142513000Y-61550000D01*
X141963373Y-61550000D01*
X141890459Y-61564503D01*
X141890455Y-61564505D01*
X141807760Y-61619760D01*
X141752505Y-61702455D01*
X141752503Y-61702459D01*
X141738000Y-61775371D01*
X141738000Y-62325000D01*
X133990009Y-62325000D01*
X134885006Y-61430003D01*
X153366435Y-61430003D01*
X153386630Y-61609249D01*
X153386631Y-61609254D01*
X153446211Y-61779523D01*
X153470399Y-61818017D01*
X153542184Y-61932262D01*
X153669738Y-62059816D01*
X153822478Y-62155789D01*
X153992745Y-62215368D01*
X153992750Y-62215369D01*
X154083246Y-62225565D01*
X154127040Y-62230499D01*
X154127043Y-62230500D01*
X154127046Y-62230500D01*
X155016957Y-62230500D01*
X155016958Y-62230499D01*
X155084104Y-62222934D01*
X155151249Y-62215369D01*
X155151252Y-62215368D01*
X155151255Y-62215368D01*
X155321522Y-62155789D01*
X155474262Y-62059816D01*
X155601816Y-61932262D01*
X155697789Y-61779522D01*
X155757368Y-61609255D01*
X155762410Y-61564505D01*
X155777565Y-61430003D01*
X155777565Y-61429996D01*
X155757369Y-61250750D01*
X155757368Y-61250745D01*
X155697788Y-61080476D01*
X155601815Y-60927737D01*
X155474262Y-60800184D01*
X155321523Y-60704211D01*
X155151254Y-60644631D01*
X155151249Y-60644630D01*
X155016960Y-60629500D01*
X155016954Y-60629500D01*
X154127046Y-60629500D01*
X154127039Y-60629500D01*
X153992750Y-60644630D01*
X153992745Y-60644631D01*
X153822476Y-60704211D01*
X153669737Y-60800184D01*
X153542184Y-60927737D01*
X153446211Y-61080476D01*
X153386631Y-61250745D01*
X153386630Y-61250750D01*
X153366435Y-61429996D01*
X153366435Y-61430003D01*
X134885006Y-61430003D01*
X136464410Y-59850599D01*
X146521729Y-59850599D01*
X146548235Y-59864766D01*
X146746165Y-59924808D01*
X146952000Y-59945080D01*
X147157834Y-59924808D01*
X147355763Y-59864767D01*
X147382268Y-59850598D01*
X147382269Y-59850598D01*
X146952001Y-59420330D01*
X146952000Y-59420330D01*
X146521729Y-59850599D01*
X136464410Y-59850599D01*
X137425009Y-58890000D01*
X145896919Y-58890000D01*
X145917191Y-59095833D01*
X145977234Y-59293765D01*
X145991400Y-59320268D01*
X145991401Y-59320269D01*
X146421670Y-58890000D01*
X146547014Y-58890000D01*
X146566835Y-59015148D01*
X146624359Y-59128045D01*
X146713955Y-59217641D01*
X146826852Y-59275165D01*
X146920519Y-59290000D01*
X146983481Y-59290000D01*
X147077148Y-59275165D01*
X147190045Y-59217641D01*
X147279641Y-59128045D01*
X147337165Y-59015148D01*
X147356986Y-58890000D01*
X147482330Y-58890000D01*
X147912598Y-59320268D01*
X147926767Y-59293763D01*
X147986808Y-59095834D01*
X148007080Y-58890000D01*
X150946659Y-58890000D01*
X150965975Y-59086129D01*
X151023188Y-59274733D01*
X151116086Y-59448532D01*
X151116090Y-59448539D01*
X151241116Y-59600883D01*
X151393460Y-59725909D01*
X151393467Y-59725913D01*
X151567266Y-59818811D01*
X151567269Y-59818811D01*
X151567273Y-59818814D01*
X151755868Y-59876024D01*
X151952000Y-59895341D01*
X152148132Y-59876024D01*
X152336727Y-59818814D01*
X152510538Y-59725910D01*
X152662883Y-59600883D01*
X152787910Y-59448538D01*
X152870639Y-59293763D01*
X152880811Y-59274733D01*
X152880811Y-59274732D01*
X152880814Y-59274727D01*
X152938024Y-59086132D01*
X152957341Y-58890003D01*
X153366435Y-58890003D01*
X153386630Y-59069249D01*
X153386631Y-59069254D01*
X153446211Y-59239523D01*
X153542184Y-59392262D01*
X153669738Y-59519816D01*
X153822478Y-59615789D01*
X153992745Y-59675368D01*
X153992750Y-59675369D01*
X154083246Y-59685565D01*
X154127040Y-59690499D01*
X154127043Y-59690500D01*
X154127046Y-59690500D01*
X155016957Y-59690500D01*
X155016958Y-59690499D01*
X155084104Y-59682934D01*
X155151249Y-59675369D01*
X155151252Y-59675368D01*
X155151255Y-59675368D01*
X155321522Y-59615789D01*
X155474262Y-59519816D01*
X155601816Y-59392262D01*
X155697789Y-59239522D01*
X155757368Y-59069255D01*
X155757369Y-59069249D01*
X155777565Y-58890003D01*
X155777565Y-58889996D01*
X155757369Y-58710750D01*
X155757368Y-58710745D01*
X155697788Y-58540476D01*
X155601815Y-58387737D01*
X155474262Y-58260184D01*
X155321523Y-58164211D01*
X155151254Y-58104631D01*
X155151249Y-58104630D01*
X155016960Y-58089500D01*
X155016954Y-58089500D01*
X154127046Y-58089500D01*
X154127039Y-58089500D01*
X153992750Y-58104630D01*
X153992745Y-58104631D01*
X153822476Y-58164211D01*
X153669737Y-58260184D01*
X153542184Y-58387737D01*
X153446211Y-58540476D01*
X153386631Y-58710745D01*
X153386630Y-58710750D01*
X153366435Y-58889996D01*
X153366435Y-58890003D01*
X152957341Y-58890003D01*
X152957341Y-58890000D01*
X152938024Y-58693868D01*
X152880814Y-58505273D01*
X152880811Y-58505269D01*
X152880811Y-58505266D01*
X152787913Y-58331467D01*
X152787909Y-58331460D01*
X152662883Y-58179116D01*
X152572835Y-58105215D01*
X152533501Y-58047469D01*
X152527500Y-58009362D01*
X152527500Y-56595636D01*
X152547185Y-56528597D01*
X152572833Y-56499784D01*
X152662883Y-56425883D01*
X152725159Y-56350000D01*
X153366435Y-56350000D01*
X153386630Y-56529249D01*
X153386631Y-56529254D01*
X153446211Y-56699523D01*
X153538994Y-56847185D01*
X153542184Y-56852262D01*
X153669738Y-56979816D01*
X153822478Y-57075789D01*
X153992745Y-57135368D01*
X153992750Y-57135369D01*
X154083246Y-57145565D01*
X154127040Y-57150499D01*
X154127043Y-57150500D01*
X154127046Y-57150500D01*
X155016957Y-57150500D01*
X155016958Y-57150499D01*
X155084104Y-57142934D01*
X155151249Y-57135369D01*
X155151252Y-57135368D01*
X155151255Y-57135368D01*
X155321522Y-57075789D01*
X155474262Y-56979816D01*
X155601816Y-56852262D01*
X155697789Y-56699522D01*
X155757368Y-56529255D01*
X155757372Y-56529226D01*
X155777565Y-56350000D01*
X155777565Y-56349996D01*
X155757369Y-56170750D01*
X155757368Y-56170745D01*
X155732518Y-56099727D01*
X155697789Y-56000478D01*
X155684555Y-55979417D01*
X155601815Y-55847737D01*
X155474262Y-55720184D01*
X155321523Y-55624211D01*
X155151254Y-55564631D01*
X155151249Y-55564630D01*
X155016960Y-55549500D01*
X155016954Y-55549500D01*
X154127046Y-55549500D01*
X154127039Y-55549500D01*
X153992750Y-55564630D01*
X153992745Y-55564631D01*
X153822476Y-55624211D01*
X153669737Y-55720184D01*
X153542184Y-55847737D01*
X153446211Y-56000476D01*
X153386631Y-56170745D01*
X153386630Y-56170750D01*
X153366435Y-56349996D01*
X153366435Y-56350000D01*
X152725159Y-56350000D01*
X152787910Y-56273538D01*
X152870639Y-56118763D01*
X152880811Y-56099733D01*
X152880811Y-56099732D01*
X152880814Y-56099727D01*
X152938024Y-55911132D01*
X152957341Y-55715000D01*
X152938024Y-55518868D01*
X152880814Y-55330273D01*
X152880811Y-55330269D01*
X152880811Y-55330266D01*
X152787911Y-55156462D01*
X152786169Y-55153855D01*
X152785676Y-55152281D01*
X152785039Y-55151089D01*
X152785265Y-55150968D01*
X152765293Y-55087177D01*
X152783779Y-55019798D01*
X152801587Y-54997291D01*
X153248207Y-54550672D01*
X153309529Y-54517188D01*
X153379221Y-54522172D01*
X153423568Y-54550673D01*
X153427446Y-54554551D01*
X153493769Y-54598867D01*
X153493770Y-54598868D01*
X153552247Y-54610499D01*
X153552250Y-54610500D01*
X153552252Y-54610500D01*
X155591750Y-54610500D01*
X155591751Y-54610499D01*
X155606568Y-54607552D01*
X155650229Y-54598868D01*
X155650229Y-54598867D01*
X155650231Y-54598867D01*
X155716552Y-54554552D01*
X155760867Y-54488231D01*
X155760867Y-54488229D01*
X155760868Y-54488229D01*
X155772499Y-54429752D01*
X155772500Y-54429750D01*
X155772500Y-53190249D01*
X155772499Y-53190247D01*
X155760868Y-53131770D01*
X155760867Y-53131769D01*
X155716552Y-53065447D01*
X155650230Y-53021132D01*
X155650229Y-53021131D01*
X155591752Y-53009500D01*
X155591748Y-53009500D01*
X153552252Y-53009500D01*
X153552247Y-53009500D01*
X153493770Y-53021131D01*
X153493769Y-53021132D01*
X153427447Y-53065447D01*
X153383132Y-53131769D01*
X153383131Y-53131770D01*
X153382551Y-53134691D01*
X153379529Y-53140467D01*
X153378458Y-53143054D01*
X153378226Y-53142958D01*
X153350166Y-53196602D01*
X153289451Y-53231176D01*
X153260934Y-53234500D01*
X153216781Y-53234500D01*
X153208682Y-53233969D01*
X153187465Y-53231176D01*
X153175001Y-53229535D01*
X153175000Y-53229535D01*
X153170144Y-53230174D01*
X153141419Y-53233955D01*
X153141406Y-53233957D01*
X153137281Y-53234500D01*
X153137280Y-53234500D01*
X153024764Y-53249313D01*
X153024763Y-53249313D01*
X152884766Y-53307301D01*
X152795845Y-53375533D01*
X152795824Y-53375549D01*
X152764548Y-53399550D01*
X152743861Y-53426507D01*
X152738510Y-53432608D01*
X151574608Y-54596510D01*
X151568507Y-54601861D01*
X151541550Y-54622548D01*
X151517549Y-54653824D01*
X151517534Y-54653845D01*
X151474707Y-54709659D01*
X151449302Y-54742765D01*
X151404396Y-54851174D01*
X151368503Y-54899571D01*
X151241112Y-55004121D01*
X151116090Y-55156460D01*
X151116086Y-55156467D01*
X151023188Y-55330266D01*
X150965975Y-55518870D01*
X150946659Y-55715000D01*
X150965975Y-55911129D01*
X150965976Y-55911132D01*
X151015195Y-56073386D01*
X151023188Y-56099733D01*
X151116086Y-56273532D01*
X151116090Y-56273539D01*
X151241116Y-56425882D01*
X151241117Y-56425883D01*
X151331165Y-56499783D01*
X151370499Y-56557528D01*
X151376500Y-56595636D01*
X151376500Y-58009362D01*
X151356815Y-58076401D01*
X151331165Y-58105215D01*
X151241116Y-58179116D01*
X151116090Y-58331460D01*
X151116086Y-58331467D01*
X151023188Y-58505266D01*
X150965975Y-58693870D01*
X150946659Y-58890000D01*
X148007080Y-58890000D01*
X147986808Y-58684165D01*
X147926766Y-58486235D01*
X147912599Y-58459730D01*
X147482330Y-58889999D01*
X147482330Y-58890000D01*
X147356986Y-58890000D01*
X147337165Y-58764852D01*
X147279641Y-58651955D01*
X147190045Y-58562359D01*
X147077148Y-58504835D01*
X146983481Y-58490000D01*
X146920519Y-58490000D01*
X146826852Y-58504835D01*
X146713955Y-58562359D01*
X146624359Y-58651955D01*
X146566835Y-58764852D01*
X146547014Y-58890000D01*
X146421670Y-58890000D01*
X146421670Y-58889999D01*
X145991401Y-58459730D01*
X145991400Y-58459730D01*
X145977231Y-58486239D01*
X145917191Y-58684165D01*
X145896919Y-58890000D01*
X137425009Y-58890000D01*
X138385608Y-57929401D01*
X146521730Y-57929401D01*
X146952000Y-58359670D01*
X146952001Y-58359670D01*
X147382269Y-57929401D01*
X147382268Y-57929400D01*
X147355765Y-57915234D01*
X147157833Y-57855191D01*
X146952000Y-57834919D01*
X146746165Y-57855191D01*
X146548239Y-57915231D01*
X146521730Y-57929400D01*
X146521730Y-57929401D01*
X138385608Y-57929401D01*
X139233582Y-57081427D01*
X139294919Y-57023123D01*
X139328161Y-56975362D01*
X139330962Y-56971646D01*
X139367734Y-56926551D01*
X139382752Y-56897798D01*
X139386822Y-56891082D01*
X139394940Y-56879417D01*
X139405353Y-56864458D01*
X139428296Y-56810990D01*
X139430305Y-56806759D01*
X139457236Y-56755206D01*
X139466160Y-56724016D01*
X139468787Y-56716636D01*
X139481587Y-56686812D01*
X139483891Y-56675599D01*
X146521729Y-56675599D01*
X146548235Y-56689766D01*
X146746165Y-56749808D01*
X146952000Y-56770080D01*
X147157834Y-56749808D01*
X147355763Y-56689767D01*
X147382268Y-56675598D01*
X147382269Y-56675598D01*
X146952001Y-56245330D01*
X146952000Y-56245330D01*
X146521729Y-56675599D01*
X139483891Y-56675599D01*
X139493299Y-56629811D01*
X139494410Y-56625285D01*
X139510416Y-56569352D01*
X139512880Y-56536989D01*
X139513965Y-56529249D01*
X139520500Y-56497456D01*
X139520500Y-56439293D01*
X139520679Y-56434583D01*
X139525095Y-56376597D01*
X139520996Y-56344415D01*
X139520500Y-56336584D01*
X139520500Y-55715000D01*
X145896919Y-55715000D01*
X145917191Y-55920833D01*
X145977234Y-56118765D01*
X145991400Y-56145268D01*
X145991401Y-56145269D01*
X146421670Y-55715000D01*
X146547014Y-55715000D01*
X146566835Y-55840148D01*
X146624359Y-55953045D01*
X146713955Y-56042641D01*
X146826852Y-56100165D01*
X146920519Y-56115000D01*
X146983481Y-56115000D01*
X147077148Y-56100165D01*
X147190045Y-56042641D01*
X147279641Y-55953045D01*
X147337165Y-55840148D01*
X147356986Y-55715000D01*
X147482330Y-55715000D01*
X147912598Y-56145268D01*
X147926767Y-56118763D01*
X147986808Y-55920834D01*
X148007080Y-55715000D01*
X147986808Y-55509165D01*
X147926766Y-55311235D01*
X147912599Y-55284730D01*
X147482330Y-55714999D01*
X147482330Y-55715000D01*
X147356986Y-55715000D01*
X147337165Y-55589852D01*
X147279641Y-55476955D01*
X147190045Y-55387359D01*
X147077148Y-55329835D01*
X146983481Y-55315000D01*
X146920519Y-55315000D01*
X146826852Y-55329835D01*
X146713955Y-55387359D01*
X146624359Y-55476955D01*
X146566835Y-55589852D01*
X146547014Y-55715000D01*
X146421670Y-55715000D01*
X146421670Y-55714999D01*
X145991401Y-55284730D01*
X145991400Y-55284730D01*
X145977231Y-55311239D01*
X145917191Y-55509165D01*
X145896919Y-55715000D01*
X139520500Y-55715000D01*
X139520500Y-54754401D01*
X146521730Y-54754401D01*
X146952000Y-55184670D01*
X146952001Y-55184670D01*
X147382269Y-54754401D01*
X147382268Y-54754400D01*
X147355765Y-54740234D01*
X147157833Y-54680191D01*
X146952000Y-54659919D01*
X146746165Y-54680191D01*
X146548239Y-54740231D01*
X146521730Y-54754400D01*
X146521730Y-54754401D01*
X139520500Y-54754401D01*
X139520500Y-50832500D01*
X139540185Y-50765461D01*
X139592989Y-50719706D01*
X139644500Y-50708500D01*
X139859750Y-50708500D01*
X139859751Y-50708499D01*
X139874568Y-50705552D01*
X139918229Y-50696868D01*
X139918229Y-50696867D01*
X139918231Y-50696867D01*
X139984552Y-50652552D01*
X140028867Y-50586231D01*
X140028867Y-50586229D01*
X140028868Y-50586229D01*
X140040499Y-50527752D01*
X140040500Y-50527750D01*
X140040500Y-50124334D01*
X148499500Y-50124334D01*
X148540429Y-50369616D01*
X148621169Y-50604802D01*
X148621172Y-50604811D01*
X148687939Y-50728185D01*
X148739526Y-50823509D01*
X148892262Y-51019744D01*
X149051744Y-51166557D01*
X149075217Y-51188166D01*
X149283393Y-51324173D01*
X149511118Y-51424063D01*
X149752175Y-51485107D01*
X149752179Y-51485108D01*
X149752181Y-51485108D01*
X149752186Y-51485109D01*
X149885376Y-51496145D01*
X149937933Y-51500500D01*
X149937935Y-51500500D01*
X150062065Y-51500500D01*
X150062067Y-51500500D01*
X150123284Y-51495427D01*
X150247813Y-51485109D01*
X150247816Y-51485108D01*
X150247821Y-51485108D01*
X150488881Y-51424063D01*
X150716607Y-51324173D01*
X150924785Y-51188164D01*
X151107738Y-51019744D01*
X151260474Y-50823509D01*
X151378828Y-50604810D01*
X151459571Y-50369614D01*
X151500500Y-50124335D01*
X151500500Y-49875665D01*
X151459571Y-49630386D01*
X151378828Y-49395190D01*
X151260474Y-49176491D01*
X151107738Y-48980256D01*
X150924785Y-48811836D01*
X150924782Y-48811833D01*
X150716606Y-48675826D01*
X150488881Y-48575936D01*
X150247824Y-48514892D01*
X150247813Y-48514890D01*
X150082548Y-48501197D01*
X150062067Y-48499500D01*
X149937933Y-48499500D01*
X149918521Y-48501108D01*
X149752186Y-48514890D01*
X149752175Y-48514892D01*
X149511118Y-48575936D01*
X149283393Y-48675826D01*
X149075217Y-48811833D01*
X148892261Y-48980257D01*
X148739524Y-49176493D01*
X148621172Y-49395188D01*
X148621169Y-49395197D01*
X148540429Y-49630383D01*
X148499500Y-49875665D01*
X148499500Y-50124334D01*
X140040500Y-50124334D01*
X140040500Y-47948249D01*
X140040499Y-47948247D01*
X140028868Y-47889770D01*
X140028867Y-47889769D01*
X139984552Y-47823447D01*
X139918230Y-47779132D01*
X139918229Y-47779131D01*
X139859752Y-47767500D01*
X139859748Y-47767500D01*
X137280252Y-47767500D01*
X137280247Y-47767500D01*
X137221770Y-47779131D01*
X137221769Y-47779132D01*
X137155447Y-47823447D01*
X137111132Y-47889769D01*
X137111131Y-47889770D01*
X137099500Y-47948247D01*
X137099500Y-50527752D01*
X137111131Y-50586229D01*
X137111132Y-50586230D01*
X137155447Y-50652552D01*
X137221769Y-50696867D01*
X137221770Y-50696868D01*
X137280247Y-50708499D01*
X137280250Y-50708500D01*
X137280252Y-50708500D01*
X137495500Y-50708500D01*
X137562539Y-50728185D01*
X137608294Y-50780989D01*
X137619500Y-50832500D01*
X137619500Y-55955727D01*
X137599815Y-56022766D01*
X137583181Y-56043408D01*
X130286417Y-63340172D01*
X130225084Y-63398472D01*
X130225082Y-63398475D01*
X130191855Y-63446211D01*
X130189020Y-63449972D01*
X130152265Y-63495050D01*
X130137248Y-63523798D01*
X130133179Y-63530514D01*
X130114646Y-63557142D01*
X130114646Y-63557143D01*
X130091711Y-63610589D01*
X130089689Y-63614846D01*
X130062764Y-63666391D01*
X130062762Y-63666395D01*
X130053839Y-63697576D01*
X130051206Y-63704972D01*
X130038412Y-63734787D01*
X130038412Y-63734788D01*
X130026703Y-63791760D01*
X130025580Y-63796334D01*
X130009583Y-63852248D01*
X130009581Y-63852254D01*
X130007120Y-63884591D01*
X130006029Y-63892372D01*
X129999500Y-63924143D01*
X129999500Y-63982302D01*
X129999321Y-63987011D01*
X129994904Y-64045001D01*
X116980500Y-64045001D01*
X116980500Y-50544847D01*
X120013481Y-50544847D01*
X120097800Y-50596518D01*
X120318839Y-50688075D01*
X120551480Y-50743927D01*
X120790000Y-50762699D01*
X121028519Y-50743927D01*
X121261160Y-50688075D01*
X121482195Y-50596519D01*
X121566516Y-50544846D01*
X120790000Y-49768330D01*
X120013481Y-50544846D01*
X120013481Y-50544847D01*
X116980500Y-50544847D01*
X116980500Y-49238000D01*
X119265300Y-49238000D01*
X119284072Y-49476519D01*
X119339924Y-49709160D01*
X119431481Y-49930199D01*
X119483152Y-50014517D01*
X120187781Y-49309889D01*
X120290000Y-49309889D01*
X120330507Y-49447844D01*
X120408239Y-49568798D01*
X120516900Y-49662952D01*
X120647685Y-49722680D01*
X120754237Y-49738000D01*
X120825763Y-49738000D01*
X120932315Y-49722680D01*
X121063100Y-49662952D01*
X121171761Y-49568798D01*
X121249493Y-49447844D01*
X121290000Y-49309889D01*
X121290000Y-49238000D01*
X121320330Y-49238000D01*
X122096846Y-50014516D01*
X122148519Y-49930195D01*
X122240075Y-49709160D01*
X122295927Y-49476519D01*
X122314699Y-49238000D01*
X122295927Y-48999480D01*
X122240075Y-48766839D01*
X122148518Y-48545800D01*
X122096846Y-48461481D01*
X121320330Y-49237999D01*
X121320330Y-49238000D01*
X121290000Y-49238000D01*
X121290000Y-49166111D01*
X121249493Y-49028156D01*
X121171761Y-48907202D01*
X121063100Y-48813048D01*
X120932315Y-48753320D01*
X120825763Y-48738000D01*
X120754237Y-48738000D01*
X120647685Y-48753320D01*
X120516900Y-48813048D01*
X120408239Y-48907202D01*
X120330507Y-49028156D01*
X120290000Y-49166111D01*
X120290000Y-49309889D01*
X120187781Y-49309889D01*
X120259670Y-49238000D01*
X120259670Y-49237999D01*
X119483152Y-48461481D01*
X119431481Y-48545802D01*
X119431478Y-48545808D01*
X119339924Y-48766839D01*
X119284072Y-48999480D01*
X119265300Y-49238000D01*
X116980500Y-49238000D01*
X116980500Y-48731740D01*
X116980598Y-48728263D01*
X116983542Y-48675826D01*
X116986995Y-48614333D01*
X116997401Y-48442304D01*
X116998160Y-48435706D01*
X117020576Y-48303780D01*
X117021277Y-48299656D01*
X117033432Y-48233324D01*
X117048562Y-48150763D01*
X117049961Y-48144810D01*
X117089387Y-48007956D01*
X117113321Y-47931152D01*
X120013481Y-47931152D01*
X120790000Y-48707670D01*
X120790001Y-48707670D01*
X121566517Y-47931152D01*
X121482199Y-47879481D01*
X121261160Y-47787924D01*
X121028519Y-47732072D01*
X120790000Y-47713300D01*
X120551480Y-47732072D01*
X120318839Y-47787924D01*
X120097808Y-47879478D01*
X120097802Y-47879481D01*
X120013481Y-47931152D01*
X117113321Y-47931152D01*
X117133270Y-47867135D01*
X117135158Y-47861921D01*
X117190397Y-47728565D01*
X117250343Y-47595370D01*
X117252599Y-47590861D01*
X117322958Y-47463557D01*
X117398228Y-47339044D01*
X117400693Y-47335286D01*
X117484461Y-47217226D01*
X117486145Y-47214967D01*
X117574932Y-47101638D01*
X117577472Y-47098605D01*
X117674052Y-46990531D01*
X117676373Y-46988077D01*
X117778077Y-46886373D01*
X117780531Y-46884052D01*
X117888605Y-46787472D01*
X117891638Y-46784932D01*
X118004967Y-46696145D01*
X118007226Y-46694461D01*
X118125286Y-46610693D01*
X118129044Y-46608228D01*
X118253557Y-46532958D01*
X118380861Y-46462599D01*
X118385370Y-46460343D01*
X118518565Y-46400397D01*
X118651921Y-46345158D01*
X118657135Y-46343270D01*
X118797956Y-46299387D01*
X118934810Y-46259961D01*
X118940763Y-46258562D01*
X119023324Y-46243432D01*
X119089656Y-46231277D01*
X119137941Y-46223072D01*
X119225706Y-46208160D01*
X119232304Y-46207401D01*
X119404333Y-46196995D01*
X119490782Y-46192140D01*
X119518263Y-46190598D01*
X119521740Y-46190500D01*
X141089659Y-46190500D01*
X141096107Y-46191546D01*
X141107688Y-46190675D01*
X141109934Y-46190590D01*
X141110505Y-46190452D01*
X141112775Y-46189409D01*
X141123591Y-46185011D01*
X141129040Y-46181037D01*
X143623936Y-44933591D01*
X143679390Y-44920500D01*
X152489138Y-44920500D01*
X152556177Y-44940185D01*
G37*
G04 #@! TD.AperFunction*
M02*
