G04 #@! TF.GenerationSoftware,KiCad,Pcbnew,7.0.9*
G04 #@! TF.CreationDate,2023-12-29T14:02:29-03:00*
G04 #@! TF.ProjectId,module,6d6f6475-6c65-42e6-9b69-6361645f7063,v2.2*
G04 #@! TF.SameCoordinates,Original*
G04 #@! TF.FileFunction,Copper,L2,Bot*
G04 #@! TF.FilePolarity,Positive*
%FSLAX46Y46*%
G04 Gerber Fmt 4.6, Leading zero omitted, Abs format (unit mm)*
G04 Created by KiCad (PCBNEW 7.0.9) date 2023-12-29 14:02:29*
%MOMM*%
%LPD*%
G01*
G04 APERTURE LIST*
G04 Aperture macros list*
%AMRoundRect*
0 Rectangle with rounded corners*
0 $1 Rounding radius*
0 $2 $3 $4 $5 $6 $7 $8 $9 X,Y pos of 4 corners*
0 Add a 4 corners polygon primitive as box body*
4,1,4,$2,$3,$4,$5,$6,$7,$8,$9,$2,$3,0*
0 Add four circle primitives for the rounded corners*
1,1,$1+$1,$2,$3*
1,1,$1+$1,$4,$5*
1,1,$1+$1,$6,$7*
1,1,$1+$1,$8,$9*
0 Add four rect primitives between the rounded corners*
20,1,$1+$1,$2,$3,$4,$5,0*
20,1,$1+$1,$4,$5,$6,$7,0*
20,1,$1+$1,$6,$7,$8,$9,0*
20,1,$1+$1,$8,$9,$2,$3,0*%
G04 Aperture macros list end*
G04 #@! TA.AperFunction,ComponentPad*
%ADD10R,2.540000X2.540000*%
G04 #@! TD*
G04 #@! TA.AperFunction,ComponentPad*
%ADD11C,2.540000*%
G04 #@! TD*
G04 #@! TA.AperFunction,ComponentPad*
%ADD12R,1.800000X1.800000*%
G04 #@! TD*
G04 #@! TA.AperFunction,ComponentPad*
%ADD13C,1.800000*%
G04 #@! TD*
G04 #@! TA.AperFunction,ComponentPad*
%ADD14R,2.000000X1.200000*%
G04 #@! TD*
G04 #@! TA.AperFunction,ComponentPad*
%ADD15O,2.000000X1.200000*%
G04 #@! TD*
G04 #@! TA.AperFunction,ComponentPad*
%ADD16C,1.600000*%
G04 #@! TD*
G04 #@! TA.AperFunction,ComponentPad*
%ADD17O,1.600000X1.600000*%
G04 #@! TD*
G04 #@! TA.AperFunction,ComponentPad*
%ADD18R,1.600000X1.600000*%
G04 #@! TD*
G04 #@! TA.AperFunction,ComponentPad*
%ADD19RoundRect,0.250000X0.600000X0.750000X-0.600000X0.750000X-0.600000X-0.750000X0.600000X-0.750000X0*%
G04 #@! TD*
G04 #@! TA.AperFunction,ComponentPad*
%ADD20O,1.700000X2.000000*%
G04 #@! TD*
G04 #@! TA.AperFunction,ComponentPad*
%ADD21RoundRect,0.250000X0.600000X0.725000X-0.600000X0.725000X-0.600000X-0.725000X0.600000X-0.725000X0*%
G04 #@! TD*
G04 #@! TA.AperFunction,ComponentPad*
%ADD22O,1.700000X1.950000*%
G04 #@! TD*
G04 #@! TA.AperFunction,ComponentPad*
%ADD23R,1.524000X1.524000*%
G04 #@! TD*
G04 #@! TA.AperFunction,ViaPad*
%ADD24C,0.800000*%
G04 #@! TD*
G04 APERTURE END LIST*
D10*
X138570000Y-49238000D03*
D11*
X120790000Y-49238000D03*
X120790000Y-89878000D03*
X138570000Y-89878000D03*
D12*
X148730000Y-62700000D03*
D13*
X151270000Y-62700000D03*
D14*
X154572000Y-53810000D03*
D15*
X154572000Y-56350000D03*
X154572000Y-58890000D03*
X154572000Y-61430000D03*
X154572000Y-63970000D03*
X154572000Y-66510000D03*
X154572000Y-69050000D03*
X154572000Y-71590000D03*
X154572000Y-74130000D03*
X154572000Y-76670000D03*
X154572000Y-79210000D03*
X154572000Y-81750000D03*
X154572000Y-84290000D03*
X154572000Y-86830000D03*
X154572000Y-89370000D03*
X154572000Y-91910000D03*
X154572000Y-94450000D03*
X154572000Y-96990000D03*
X154572000Y-99530000D03*
X179968320Y-99527280D03*
X179968320Y-96987280D03*
X179972000Y-94450000D03*
X179972000Y-91910000D03*
X179972000Y-89370000D03*
X179972000Y-86830000D03*
X179972000Y-84290000D03*
X179972000Y-81750000D03*
X179972000Y-79210000D03*
X179972000Y-76670000D03*
X179972000Y-74130000D03*
X179972000Y-71590000D03*
X179972000Y-69050000D03*
X179972000Y-66510000D03*
X179972000Y-63970000D03*
X179972000Y-61430000D03*
X179972000Y-58890000D03*
X179972000Y-56350000D03*
X179972000Y-53810000D03*
D16*
X152159000Y-78956000D03*
D17*
X141999000Y-78956000D03*
D16*
X145047000Y-76289000D03*
D17*
X145047000Y-66129000D03*
D18*
X149111000Y-89370000D03*
D16*
X149111000Y-86870000D03*
X141999000Y-82512000D03*
D17*
X152159000Y-82512000D03*
D19*
X149492000Y-97879000D03*
D20*
X146992000Y-97879000D03*
D21*
X178702000Y-111976000D03*
D22*
X176202000Y-111976000D03*
X173702000Y-111976000D03*
D16*
X143269000Y-90132000D03*
X143269000Y-85132000D03*
D23*
X142380000Y-96863000D03*
X142380000Y-99403000D03*
X142380000Y-109563000D03*
X142380000Y-112103000D03*
D16*
X171844000Y-102578000D03*
X176844000Y-102578000D03*
X151952000Y-58890000D03*
X146952000Y-58890000D03*
X150762000Y-76289000D03*
D17*
X150762000Y-66129000D03*
D19*
X149492000Y-104737000D03*
D20*
X146992000Y-104737000D03*
D16*
X171804000Y-106388000D03*
X176804000Y-106388000D03*
X180019000Y-106896000D03*
X180019000Y-101896000D03*
X151952000Y-55715000D03*
X146952000Y-55715000D03*
D12*
X142888000Y-62700000D03*
D13*
X145428000Y-62700000D03*
D24*
X152540000Y-109690000D03*
X165240000Y-112230000D03*
X128410000Y-104610000D03*
X182004000Y-62700000D03*
X172860000Y-63970000D03*
X128410000Y-48730000D03*
X175908000Y-56604000D03*
X132220000Y-46952000D03*
X136030000Y-56350000D03*
X167780000Y-63970000D03*
X143650000Y-58890000D03*
X170320000Y-61430000D03*
X150000000Y-107150000D03*
X133490000Y-79210000D03*
X160160000Y-107150000D03*
X167780000Y-89370000D03*
X142380000Y-46444000D03*
X130950000Y-96990000D03*
X136030000Y-112230000D03*
X162700000Y-94450000D03*
X171590000Y-114516000D03*
X128410000Y-109690000D03*
X141110000Y-51270000D03*
X175400000Y-86830000D03*
X174130000Y-114516000D03*
X120790000Y-71590000D03*
X137300000Y-46952000D03*
X150000000Y-45682000D03*
X160160000Y-71590000D03*
X170320000Y-86830000D03*
X117742000Y-52540000D03*
X128410000Y-79210000D03*
X167780000Y-94450000D03*
X170320000Y-107150000D03*
X117742000Y-77940000D03*
X119012000Y-47460000D03*
X120790000Y-61430000D03*
X138570000Y-63970000D03*
X182004000Y-70320000D03*
X172860000Y-69050000D03*
X123330000Y-104610000D03*
X123330000Y-89370000D03*
X136030000Y-114516000D03*
X123330000Y-58890000D03*
X125870000Y-96990000D03*
X117742000Y-83020000D03*
X117742000Y-80480000D03*
X125870000Y-86830000D03*
X120790000Y-86830000D03*
X172860000Y-94450000D03*
X138570000Y-79210000D03*
X136030000Y-91910000D03*
X128410000Y-74130000D03*
X182004000Y-57620000D03*
X117742000Y-60160000D03*
X182004000Y-83020000D03*
X172860000Y-99530000D03*
X148730000Y-69050000D03*
X146494800Y-76670000D03*
X170320000Y-81750000D03*
X125870000Y-51270000D03*
X181496000Y-113754000D03*
X120790000Y-76670000D03*
X136030000Y-102070000D03*
X172860000Y-89370000D03*
X125870000Y-71590000D03*
X123330000Y-84290000D03*
X128410000Y-69050000D03*
X122060000Y-46952000D03*
X141110000Y-66510000D03*
X169050000Y-114516000D03*
X128410000Y-99530000D03*
X155080000Y-107150000D03*
X117742000Y-50000000D03*
X172860000Y-74130000D03*
X117742000Y-90640000D03*
X157620000Y-109690000D03*
X123330000Y-48730000D03*
X133490000Y-114516000D03*
X123330000Y-109690000D03*
X175400000Y-91910000D03*
X130950000Y-51270000D03*
X143650000Y-69050000D03*
X157620000Y-63970000D03*
X165240000Y-96990000D03*
X157620000Y-89370000D03*
X140983000Y-112230000D03*
X177940000Y-94450000D03*
X146190000Y-112230000D03*
X170828000Y-57112000D03*
X170320000Y-76670000D03*
X162700000Y-89370000D03*
X165240000Y-76670000D03*
X133490000Y-104610000D03*
X156350000Y-53810000D03*
X136030000Y-76670000D03*
X141110000Y-91910000D03*
X133490000Y-48730000D03*
X130950000Y-107150000D03*
X161430000Y-114516000D03*
X138570000Y-99530000D03*
X152540000Y-104610000D03*
X165240000Y-81750000D03*
X155080000Y-102070000D03*
X177940000Y-99530000D03*
X148730000Y-84290000D03*
X133490000Y-74130000D03*
X158890000Y-56350000D03*
X117742000Y-88100000D03*
X182004000Y-55080000D03*
X182004000Y-80480000D03*
X182004000Y-77940000D03*
X175400000Y-96990000D03*
X175400000Y-71590000D03*
X160160000Y-102070000D03*
X177686000Y-54826000D03*
X175400000Y-76670000D03*
X176670000Y-114516000D03*
X162700000Y-84290000D03*
X125870000Y-56350000D03*
X157620000Y-104610000D03*
X133490000Y-99530000D03*
X167780000Y-104610000D03*
X182004000Y-110960000D03*
X133490000Y-63970000D03*
X120790000Y-107150000D03*
X156350000Y-115786000D03*
X170320000Y-71590000D03*
X143650000Y-79210000D03*
X170320000Y-96990000D03*
X168288000Y-57112000D03*
X117742000Y-103340000D03*
X154064000Y-48222000D03*
X182004000Y-93180000D03*
X128410000Y-114516000D03*
X117742000Y-72860000D03*
X130950000Y-61430000D03*
X146190000Y-115786000D03*
X163208000Y-57112000D03*
X124600000Y-46952000D03*
X120790000Y-96990000D03*
X157620000Y-69050000D03*
X120790000Y-112230000D03*
X127140000Y-46952000D03*
X117742000Y-105880000D03*
X167780000Y-79210000D03*
X117742000Y-93180000D03*
X165748000Y-57112000D03*
X125870000Y-61430000D03*
X177940000Y-63970000D03*
X167780000Y-58890000D03*
X147460000Y-99530000D03*
X143650000Y-74130000D03*
X136030000Y-71590000D03*
X141110000Y-107150000D03*
X133490000Y-94450000D03*
X138570000Y-109690000D03*
X182004000Y-67780000D03*
X162700000Y-104610000D03*
X128410000Y-94450000D03*
X133490000Y-53810000D03*
X160160000Y-81750000D03*
X136030000Y-51270000D03*
X160160000Y-76670000D03*
X158890000Y-114516000D03*
X144920000Y-45682000D03*
X120790000Y-51270000D03*
X146190000Y-91910000D03*
X123330000Y-94450000D03*
X125870000Y-81750000D03*
X117742000Y-95720000D03*
X167780000Y-99530000D03*
X130950000Y-56350000D03*
X175400000Y-61430000D03*
X177940000Y-58890000D03*
X162700000Y-79210000D03*
X148730000Y-58890000D03*
X123330000Y-74130000D03*
X177940000Y-69050000D03*
X117742000Y-75400000D03*
X117742000Y-100800000D03*
X157620000Y-84290000D03*
X120790000Y-102070000D03*
X141110000Y-56350000D03*
X148730000Y-115786000D03*
X167780000Y-84290000D03*
X117742000Y-62700000D03*
X152895600Y-84290000D03*
X182004000Y-105880000D03*
X123330000Y-53810000D03*
X120790000Y-56350000D03*
X162700000Y-58890000D03*
X182004000Y-75400000D03*
X167780000Y-69050000D03*
X120790000Y-81750000D03*
X133490000Y-89370000D03*
X129680000Y-46952000D03*
X157620000Y-74130000D03*
X170320000Y-66510000D03*
X117742000Y-65240000D03*
X163970000Y-114516000D03*
X117742000Y-110960000D03*
X182004000Y-90640000D03*
X138570000Y-69050000D03*
X172860000Y-79210000D03*
X172860000Y-84290000D03*
X167780000Y-74130000D03*
X162700000Y-63970000D03*
X151270000Y-71590000D03*
X160160000Y-91910000D03*
X181496000Y-52286000D03*
X150914400Y-81750000D03*
X150000000Y-102070000D03*
X182004000Y-98260000D03*
X117742000Y-85560000D03*
X117742000Y-55080000D03*
X125870000Y-91910000D03*
X117742000Y-57620000D03*
X165240000Y-66510000D03*
X141110000Y-86830000D03*
X123330000Y-79210000D03*
X136080800Y-61430000D03*
X125870000Y-66510000D03*
X165240000Y-102070000D03*
X147460000Y-45682000D03*
X138570000Y-58890000D03*
X150000000Y-56350000D03*
X160668000Y-57112000D03*
X123330000Y-69050000D03*
X143650000Y-53810000D03*
X153810000Y-115786000D03*
X120790000Y-91910000D03*
X162700000Y-99530000D03*
X139840000Y-46952000D03*
X160160000Y-96990000D03*
X165240000Y-61430000D03*
X173368000Y-57112000D03*
X148730000Y-79210000D03*
X125870000Y-114516000D03*
X148730000Y-53810000D03*
X154064000Y-50508000D03*
X152540000Y-46190000D03*
X120790000Y-66510000D03*
X133490000Y-109690000D03*
X130950000Y-102070000D03*
X123330000Y-63970000D03*
X123330000Y-114516000D03*
X182004000Y-88100000D03*
X182004000Y-85560000D03*
X170320000Y-102070000D03*
X141110000Y-71590000D03*
X143650000Y-115786000D03*
X125870000Y-107150000D03*
X167780000Y-109690000D03*
X175400000Y-81750000D03*
X182004000Y-65240000D03*
X130950000Y-114516000D03*
X157620000Y-55080000D03*
X182004000Y-95720000D03*
X133490000Y-58890000D03*
X160160000Y-66510000D03*
X182004000Y-60160000D03*
X170320000Y-112230000D03*
X125870000Y-76670000D03*
X117742000Y-108420000D03*
X182004000Y-72860000D03*
X141110000Y-76670000D03*
X133490000Y-69050000D03*
X160160000Y-61430000D03*
X162700000Y-69050000D03*
X128410000Y-63970000D03*
X172860000Y-58890000D03*
X146190000Y-109690000D03*
X155080000Y-112230000D03*
X141110000Y-114516000D03*
X165240000Y-91910000D03*
X128410000Y-89370000D03*
X146190000Y-81750000D03*
X136030000Y-96990000D03*
X177940000Y-84290000D03*
X144920000Y-102070000D03*
X136030000Y-81750000D03*
X148730000Y-74130000D03*
X138570000Y-74130000D03*
X136030000Y-86830000D03*
X160160000Y-86830000D03*
X128410000Y-53810000D03*
X118250000Y-113500000D03*
X177940000Y-89370000D03*
X125870000Y-102070000D03*
X162700000Y-109690000D03*
X165240000Y-107150000D03*
X151270000Y-115786000D03*
X177940000Y-74130000D03*
X160160000Y-112230000D03*
X136030000Y-66510000D03*
X166510000Y-114516000D03*
X123330000Y-99530000D03*
X130950000Y-91910000D03*
X157620000Y-94450000D03*
X146190000Y-71590000D03*
X138570000Y-84290000D03*
X182004000Y-100800000D03*
X154826000Y-52286000D03*
X157620000Y-99530000D03*
X182004000Y-103340000D03*
X143650000Y-48730000D03*
X165240000Y-71590000D03*
X138570000Y-104610000D03*
X162700000Y-74130000D03*
X120790000Y-114516000D03*
X128410000Y-84290000D03*
X133490000Y-84290000D03*
X138570000Y-114516000D03*
X146190000Y-51270000D03*
X130950000Y-112230000D03*
X179210000Y-114516000D03*
X128410000Y-58890000D03*
X136030000Y-107150000D03*
X182004000Y-108420000D03*
X117742000Y-70320000D03*
X170320000Y-91910000D03*
X117742000Y-98260000D03*
X175400000Y-66510000D03*
X157620000Y-79210000D03*
X165240000Y-86830000D03*
X125870000Y-112230000D03*
X117742000Y-67780000D03*
X141110000Y-61430000D03*
X134760000Y-46952000D03*
X157620000Y-58890000D03*
G04 #@! TA.AperFunction,Conductor*
G36*
X152556177Y-44940185D02*
G01*
X152576819Y-44956819D01*
X155043681Y-47423681D01*
X155077166Y-47485004D01*
X155080000Y-47511362D01*
X155080000Y-51270000D01*
X160160000Y-56350000D01*
X175400000Y-56350000D01*
X178766435Y-56350000D01*
X178786630Y-56529249D01*
X178786631Y-56529254D01*
X178846211Y-56699523D01*
X178942184Y-56852262D01*
X179069738Y-56979816D01*
X179222478Y-57075789D01*
X179392745Y-57135368D01*
X179392750Y-57135369D01*
X179483246Y-57145565D01*
X179527040Y-57150499D01*
X179527043Y-57150500D01*
X179527046Y-57150500D01*
X180416957Y-57150500D01*
X180416958Y-57150499D01*
X180484104Y-57142934D01*
X180551249Y-57135369D01*
X180551252Y-57135368D01*
X180551255Y-57135368D01*
X180721522Y-57075789D01*
X180874262Y-56979816D01*
X181001816Y-56852262D01*
X181097789Y-56699522D01*
X181157368Y-56529255D01*
X181177565Y-56350000D01*
X181168949Y-56273532D01*
X181157369Y-56170750D01*
X181157368Y-56170745D01*
X181097788Y-56000476D01*
X181001815Y-55847737D01*
X180874262Y-55720184D01*
X180721523Y-55624211D01*
X180551254Y-55564631D01*
X180551249Y-55564630D01*
X180416960Y-55549500D01*
X180416954Y-55549500D01*
X179527046Y-55549500D01*
X179527039Y-55549500D01*
X179392750Y-55564630D01*
X179392745Y-55564631D01*
X179222476Y-55624211D01*
X179069737Y-55720184D01*
X178942184Y-55847737D01*
X178846211Y-56000476D01*
X178786631Y-56170745D01*
X178786630Y-56170750D01*
X178766435Y-56349996D01*
X178766435Y-56350000D01*
X175400000Y-56350000D01*
X177565000Y-54185000D01*
X178808743Y-54185000D01*
X178864315Y-54289820D01*
X178864314Y-54289820D01*
X178984008Y-54430734D01*
X179131195Y-54542622D01*
X179298992Y-54620254D01*
X179298996Y-54620256D01*
X179479556Y-54659999D01*
X179479560Y-54660000D01*
X179597000Y-54660000D01*
X179597000Y-54185000D01*
X178808743Y-54185000D01*
X177565000Y-54185000D01*
X177940000Y-53810000D01*
X179567014Y-53810000D01*
X179586835Y-53935148D01*
X179644359Y-54048045D01*
X179733955Y-54137641D01*
X179846852Y-54195165D01*
X179940519Y-54210000D01*
X180003481Y-54210000D01*
X180097148Y-54195165D01*
X180117098Y-54185000D01*
X180347000Y-54185000D01*
X180347000Y-54660000D01*
X180418079Y-54660000D01*
X180418085Y-54659999D01*
X180555800Y-54645022D01*
X180555804Y-54645021D01*
X180731011Y-54585986D01*
X180889430Y-54490669D01*
X181023659Y-54363521D01*
X181127413Y-54210493D01*
X181127415Y-54210490D01*
X181137571Y-54185000D01*
X180347000Y-54185000D01*
X180117098Y-54185000D01*
X180210045Y-54137641D01*
X180299641Y-54048045D01*
X180357165Y-53935148D01*
X180376986Y-53810000D01*
X180357165Y-53684852D01*
X180299641Y-53571955D01*
X180210045Y-53482359D01*
X180097148Y-53424835D01*
X180003481Y-53410000D01*
X179940519Y-53410000D01*
X179846852Y-53424835D01*
X179733955Y-53482359D01*
X179644359Y-53571955D01*
X179586835Y-53684852D01*
X179567014Y-53810000D01*
X177940000Y-53810000D01*
X178315001Y-53434999D01*
X178806428Y-53434999D01*
X178806429Y-53435000D01*
X179597000Y-53435000D01*
X179597000Y-52960000D01*
X180347000Y-52960000D01*
X180347000Y-53435000D01*
X181135257Y-53435000D01*
X181135257Y-53434999D01*
X181079684Y-53330179D01*
X181079685Y-53330179D01*
X180959991Y-53189265D01*
X180812804Y-53077377D01*
X180645007Y-52999745D01*
X180645003Y-52999743D01*
X180464443Y-52960000D01*
X180347000Y-52960000D01*
X179597000Y-52960000D01*
X179525914Y-52960000D01*
X179388199Y-52974977D01*
X179388195Y-52974978D01*
X179212988Y-53034013D01*
X179054569Y-53129330D01*
X178920340Y-53256478D01*
X178816586Y-53409506D01*
X178816584Y-53409509D01*
X178806428Y-53434999D01*
X178315001Y-53434999D01*
X180443681Y-51306319D01*
X180505004Y-51272834D01*
X180531362Y-51270000D01*
X182895500Y-51270000D01*
X182962539Y-51289685D01*
X183008294Y-51342489D01*
X183019500Y-51394000D01*
X183019500Y-112863258D01*
X183019402Y-112866736D01*
X183013012Y-112980524D01*
X183002599Y-113152668D01*
X183001835Y-113159315D01*
X182978722Y-113295343D01*
X182951440Y-113444217D01*
X182950032Y-113450208D01*
X182910625Y-113587001D01*
X182866744Y-113727815D01*
X182864831Y-113733099D01*
X182809609Y-113866418D01*
X182749668Y-113999600D01*
X182747394Y-114004147D01*
X182677043Y-114131439D01*
X182601781Y-114255936D01*
X182599287Y-114259739D01*
X182515571Y-114377726D01*
X182513811Y-114380086D01*
X182425088Y-114493332D01*
X182422512Y-114496409D01*
X182325980Y-114604430D01*
X182323590Y-114606957D01*
X182221957Y-114708590D01*
X182219430Y-114710980D01*
X182111409Y-114807512D01*
X182108332Y-114810088D01*
X181995086Y-114898811D01*
X181992726Y-114900571D01*
X181874739Y-114984287D01*
X181870936Y-114986781D01*
X181746439Y-115062043D01*
X181619147Y-115132394D01*
X181614600Y-115134668D01*
X181481418Y-115194609D01*
X181348099Y-115249831D01*
X181342815Y-115251744D01*
X181225231Y-115288385D01*
X181201990Y-115295627D01*
X181065208Y-115335032D01*
X181059217Y-115336440D01*
X180910343Y-115363722D01*
X180774315Y-115386835D01*
X180767668Y-115387599D01*
X180595524Y-115398012D01*
X180481736Y-115404402D01*
X180478258Y-115404500D01*
X158910341Y-115404500D01*
X158903892Y-115403453D01*
X158892312Y-115404325D01*
X158890188Y-115404404D01*
X158889822Y-115404458D01*
X158887945Y-115405309D01*
X158877478Y-115409646D01*
X158872439Y-115413221D01*
X157624252Y-116037315D01*
X156376063Y-116661409D01*
X156320610Y-116674500D01*
X143679390Y-116674500D01*
X143623936Y-116661409D01*
X141128708Y-115413795D01*
X141123504Y-115410024D01*
X141112283Y-115405400D01*
X141110126Y-115404418D01*
X141110112Y-115404416D01*
X141107688Y-115404325D01*
X141096107Y-115403453D01*
X141089659Y-115404500D01*
X119521742Y-115404500D01*
X119518265Y-115404402D01*
X119404475Y-115398012D01*
X119232330Y-115387599D01*
X119225683Y-115386835D01*
X119089656Y-115363722D01*
X118940781Y-115336440D01*
X118934790Y-115335032D01*
X118798021Y-115295631D01*
X118730634Y-115274633D01*
X118657183Y-115251744D01*
X118651899Y-115249831D01*
X118518581Y-115194609D01*
X118385398Y-115134668D01*
X118380851Y-115132393D01*
X118253560Y-115062043D01*
X118129063Y-114986781D01*
X118125259Y-114984287D01*
X118007272Y-114900571D01*
X118004912Y-114898811D01*
X117891666Y-114810088D01*
X117888589Y-114807512D01*
X117780568Y-114710980D01*
X117778041Y-114708590D01*
X117676408Y-114606957D01*
X117674018Y-114604430D01*
X117577486Y-114496409D01*
X117574910Y-114493332D01*
X117560874Y-114475416D01*
X117486176Y-114380072D01*
X117484427Y-114377726D01*
X117400711Y-114259739D01*
X117398217Y-114255935D01*
X117322956Y-114131439D01*
X117252605Y-114004147D01*
X117250330Y-113999600D01*
X117190390Y-113866418D01*
X117135167Y-113733099D01*
X117133265Y-113727850D01*
X117089375Y-113587001D01*
X117049963Y-113450198D01*
X117048560Y-113444227D01*
X117038340Y-113388462D01*
X117021277Y-113295343D01*
X117005246Y-113200999D01*
X116998160Y-113159297D01*
X116997401Y-113152691D01*
X116986992Y-112980603D01*
X116981883Y-112889626D01*
X116980598Y-112866736D01*
X116980500Y-112863259D01*
X116980500Y-112478000D01*
X141368000Y-112478000D01*
X141368000Y-112889628D01*
X141382503Y-112962540D01*
X141382505Y-112962544D01*
X141437760Y-113045239D01*
X141520455Y-113100494D01*
X141520459Y-113100496D01*
X141593371Y-113114999D01*
X141593374Y-113115000D01*
X142005000Y-113115000D01*
X142005000Y-112478000D01*
X141368000Y-112478000D01*
X116980500Y-112478000D01*
X116980500Y-112134898D01*
X141995051Y-112134898D01*
X142026266Y-112258162D01*
X142095813Y-112364612D01*
X142196157Y-112442713D01*
X142316422Y-112484000D01*
X142411569Y-112484000D01*
X142447525Y-112478000D01*
X142755000Y-112478000D01*
X142755000Y-113115000D01*
X143166626Y-113115000D01*
X143166628Y-113114999D01*
X143239540Y-113100496D01*
X143239544Y-113100494D01*
X143322239Y-113045239D01*
X143377494Y-112962544D01*
X143377496Y-112962540D01*
X143391999Y-112889628D01*
X143392000Y-112889626D01*
X143392000Y-112478000D01*
X142755000Y-112478000D01*
X142447525Y-112478000D01*
X142505421Y-112468339D01*
X142617251Y-112407820D01*
X142703371Y-112314269D01*
X142754448Y-112197823D01*
X142764949Y-112071102D01*
X142733734Y-111947838D01*
X142664187Y-111841388D01*
X142563843Y-111763287D01*
X142443578Y-111722000D01*
X142348431Y-111722000D01*
X142254579Y-111737661D01*
X142142749Y-111798180D01*
X142056629Y-111891731D01*
X142005552Y-112008177D01*
X141995051Y-112134898D01*
X116980500Y-112134898D01*
X116980500Y-111728000D01*
X141368000Y-111728000D01*
X142005000Y-111728000D01*
X142005000Y-111091000D01*
X142755000Y-111091000D01*
X142755000Y-111728000D01*
X143392000Y-111728000D01*
X143392000Y-111719334D01*
X148499500Y-111719334D01*
X148540429Y-111964616D01*
X148621169Y-112199802D01*
X148621172Y-112199811D01*
X148683114Y-112314269D01*
X148739526Y-112418509D01*
X148892262Y-112614744D01*
X149037915Y-112748827D01*
X149075217Y-112783166D01*
X149283393Y-112919173D01*
X149511118Y-113019063D01*
X149614485Y-113045239D01*
X149752179Y-113080108D01*
X149752181Y-113080108D01*
X149752186Y-113080109D01*
X149885376Y-113091145D01*
X149937933Y-113095500D01*
X149937935Y-113095500D01*
X150062065Y-113095500D01*
X150062067Y-113095500D01*
X150123284Y-113090427D01*
X150247813Y-113080109D01*
X150247816Y-113080108D01*
X150247821Y-113080108D01*
X150488881Y-113019063D01*
X150716607Y-112919173D01*
X150924785Y-112783164D01*
X151107738Y-112614744D01*
X151260474Y-112418509D01*
X151378828Y-112199810D01*
X151395034Y-112152604D01*
X172651500Y-112152604D01*
X172666699Y-112306932D01*
X172696734Y-112405944D01*
X172726768Y-112504954D01*
X172824315Y-112687450D01*
X172824317Y-112687452D01*
X172955589Y-112847410D01*
X173007033Y-112889628D01*
X173115550Y-112978685D01*
X173298046Y-113076232D01*
X173496066Y-113136300D01*
X173496065Y-113136300D01*
X173514529Y-113138118D01*
X173702000Y-113156583D01*
X173907934Y-113136300D01*
X174105954Y-113076232D01*
X174288450Y-112978685D01*
X174448410Y-112847410D01*
X174579685Y-112687450D01*
X174677232Y-112504954D01*
X174737300Y-112306934D01*
X174752500Y-112152608D01*
X174752500Y-112152604D01*
X175151500Y-112152604D01*
X175166699Y-112306932D01*
X175196734Y-112405944D01*
X175226768Y-112504954D01*
X175324315Y-112687450D01*
X175324317Y-112687452D01*
X175455589Y-112847410D01*
X175507033Y-112889628D01*
X175615550Y-112978685D01*
X175798046Y-113076232D01*
X175996066Y-113136300D01*
X175996065Y-113136300D01*
X176014529Y-113138118D01*
X176202000Y-113156583D01*
X176407934Y-113136300D01*
X176605954Y-113076232D01*
X176788450Y-112978685D01*
X176948410Y-112847410D01*
X177079685Y-112687450D01*
X177177232Y-112504954D01*
X177223933Y-112351000D01*
X177602000Y-112351000D01*
X177602000Y-112748844D01*
X177608401Y-112808372D01*
X177608403Y-112808379D01*
X177658645Y-112943086D01*
X177658649Y-112943093D01*
X177744809Y-113058187D01*
X177744812Y-113058190D01*
X177859906Y-113144350D01*
X177859913Y-113144354D01*
X177994620Y-113194596D01*
X177994627Y-113194598D01*
X178054155Y-113200999D01*
X178054172Y-113201000D01*
X178327000Y-113201000D01*
X178327000Y-112351000D01*
X177602000Y-112351000D01*
X177223933Y-112351000D01*
X177237300Y-112306934D01*
X177252500Y-112152608D01*
X177252500Y-112044295D01*
X178227000Y-112044295D01*
X178265481Y-112175351D01*
X178339327Y-112290258D01*
X178442555Y-112379705D01*
X178566801Y-112436446D01*
X178668025Y-112451000D01*
X178735975Y-112451000D01*
X178837199Y-112436446D01*
X178961445Y-112379705D01*
X178994573Y-112351000D01*
X179077000Y-112351000D01*
X179077000Y-113201000D01*
X179349828Y-113201000D01*
X179349844Y-113200999D01*
X179409372Y-113194598D01*
X179409379Y-113194596D01*
X179544086Y-113144354D01*
X179544093Y-113144350D01*
X179659187Y-113058190D01*
X179659190Y-113058187D01*
X179745350Y-112943093D01*
X179745354Y-112943086D01*
X179795596Y-112808379D01*
X179795598Y-112808372D01*
X179801999Y-112748844D01*
X179802000Y-112748827D01*
X179802000Y-112351000D01*
X179077000Y-112351000D01*
X178994573Y-112351000D01*
X179064673Y-112290258D01*
X179138519Y-112175351D01*
X179177000Y-112044295D01*
X179177000Y-111907705D01*
X179138519Y-111776649D01*
X179064673Y-111661742D01*
X178961445Y-111572295D01*
X178837199Y-111515554D01*
X178735975Y-111501000D01*
X178668025Y-111501000D01*
X178566801Y-111515554D01*
X178442555Y-111572295D01*
X178339327Y-111661742D01*
X178265481Y-111776649D01*
X178227000Y-111907705D01*
X178227000Y-112044295D01*
X177252500Y-112044295D01*
X177252500Y-111799392D01*
X177237300Y-111645066D01*
X177223933Y-111601000D01*
X177602000Y-111601000D01*
X178327000Y-111601000D01*
X178327000Y-110751000D01*
X179077000Y-110751000D01*
X179077000Y-111601000D01*
X179802000Y-111601000D01*
X179802000Y-111203172D01*
X179801999Y-111203155D01*
X179795598Y-111143627D01*
X179795596Y-111143620D01*
X179745354Y-111008913D01*
X179745350Y-111008906D01*
X179659190Y-110893812D01*
X179659187Y-110893809D01*
X179544093Y-110807649D01*
X179544086Y-110807645D01*
X179409379Y-110757403D01*
X179409372Y-110757401D01*
X179349844Y-110751000D01*
X179077000Y-110751000D01*
X178327000Y-110751000D01*
X178054155Y-110751000D01*
X177994627Y-110757401D01*
X177994620Y-110757403D01*
X177859913Y-110807645D01*
X177859906Y-110807649D01*
X177744812Y-110893809D01*
X177744809Y-110893812D01*
X177658649Y-111008906D01*
X177658645Y-111008913D01*
X177608403Y-111143620D01*
X177608401Y-111143627D01*
X177602000Y-111203155D01*
X177602000Y-111601000D01*
X177223933Y-111601000D01*
X177177232Y-111447046D01*
X177079685Y-111264550D01*
X177027702Y-111201209D01*
X176948410Y-111104589D01*
X176788452Y-110973317D01*
X176788453Y-110973317D01*
X176788450Y-110973315D01*
X176605954Y-110875768D01*
X176407934Y-110815700D01*
X176407932Y-110815699D01*
X176407934Y-110815699D01*
X176202000Y-110795417D01*
X175996067Y-110815699D01*
X175798043Y-110875769D01*
X175764288Y-110893812D01*
X175615550Y-110973315D01*
X175615548Y-110973316D01*
X175615547Y-110973317D01*
X175455589Y-111104589D01*
X175324317Y-111264547D01*
X175226769Y-111447043D01*
X175166699Y-111645067D01*
X175157580Y-111737661D01*
X175151620Y-111798180D01*
X175151500Y-111799395D01*
X175151500Y-112152604D01*
X174752500Y-112152604D01*
X174752500Y-111799392D01*
X174737300Y-111645066D01*
X174677232Y-111447046D01*
X174579685Y-111264550D01*
X174527702Y-111201209D01*
X174448410Y-111104589D01*
X174288452Y-110973317D01*
X174288453Y-110973317D01*
X174288450Y-110973315D01*
X174105954Y-110875768D01*
X173907934Y-110815700D01*
X173907932Y-110815699D01*
X173907934Y-110815699D01*
X173702000Y-110795417D01*
X173496067Y-110815699D01*
X173298043Y-110875769D01*
X173264288Y-110893812D01*
X173115550Y-110973315D01*
X173115548Y-110973316D01*
X173115547Y-110973317D01*
X172955589Y-111104589D01*
X172824317Y-111264547D01*
X172726769Y-111447043D01*
X172666699Y-111645067D01*
X172657580Y-111737661D01*
X172651620Y-111798180D01*
X172651500Y-111799395D01*
X172651500Y-112152604D01*
X151395034Y-112152604D01*
X151459571Y-111964614D01*
X151500500Y-111719335D01*
X151500500Y-111470665D01*
X151459571Y-111225386D01*
X151378828Y-110990190D01*
X151260474Y-110771491D01*
X151107738Y-110575256D01*
X150959991Y-110439245D01*
X150924782Y-110406833D01*
X150716606Y-110270826D01*
X150488881Y-110170936D01*
X150247824Y-110109892D01*
X150247813Y-110109890D01*
X150082548Y-110096197D01*
X150062067Y-110094500D01*
X149937933Y-110094500D01*
X149918521Y-110096108D01*
X149752186Y-110109890D01*
X149752175Y-110109892D01*
X149511118Y-110170936D01*
X149283393Y-110270826D01*
X149075217Y-110406833D01*
X148892261Y-110575257D01*
X148739524Y-110771493D01*
X148621172Y-110990188D01*
X148621169Y-110990197D01*
X148540429Y-111225383D01*
X148499500Y-111470665D01*
X148499500Y-111719334D01*
X143392000Y-111719334D01*
X143392000Y-111316373D01*
X143391999Y-111316371D01*
X143377496Y-111243459D01*
X143377494Y-111243455D01*
X143322239Y-111160760D01*
X143239544Y-111105505D01*
X143239540Y-111105503D01*
X143166627Y-111091000D01*
X142755000Y-111091000D01*
X142005000Y-111091000D01*
X141593373Y-111091000D01*
X141520459Y-111105503D01*
X141520455Y-111105505D01*
X141437760Y-111160760D01*
X141382505Y-111243455D01*
X141382503Y-111243459D01*
X141368000Y-111316371D01*
X141368000Y-111728000D01*
X116980500Y-111728000D01*
X116980500Y-109938000D01*
X141368000Y-109938000D01*
X141368000Y-110349628D01*
X141382503Y-110422540D01*
X141382505Y-110422544D01*
X141437760Y-110505239D01*
X141520455Y-110560494D01*
X141520459Y-110560496D01*
X141593371Y-110574999D01*
X141593374Y-110575000D01*
X142005000Y-110575000D01*
X142005000Y-109938000D01*
X141368000Y-109938000D01*
X116980500Y-109938000D01*
X116980500Y-109594898D01*
X141995051Y-109594898D01*
X142026266Y-109718162D01*
X142095813Y-109824612D01*
X142196157Y-109902713D01*
X142316422Y-109944000D01*
X142411569Y-109944000D01*
X142447525Y-109938000D01*
X142755000Y-109938000D01*
X142755000Y-110575000D01*
X143166626Y-110575000D01*
X143166628Y-110574999D01*
X143239540Y-110560496D01*
X143239544Y-110560494D01*
X143322239Y-110505239D01*
X143377494Y-110422544D01*
X143377496Y-110422540D01*
X143391999Y-110349628D01*
X143392000Y-110349626D01*
X143392000Y-109938000D01*
X142755000Y-109938000D01*
X142447525Y-109938000D01*
X142505421Y-109928339D01*
X142617251Y-109867820D01*
X142703371Y-109774269D01*
X142754448Y-109657823D01*
X142764949Y-109531102D01*
X142733734Y-109407838D01*
X142664187Y-109301388D01*
X142563843Y-109223287D01*
X142443578Y-109182000D01*
X142348431Y-109182000D01*
X142254579Y-109197661D01*
X142142749Y-109258180D01*
X142056629Y-109351731D01*
X142005552Y-109468177D01*
X141995051Y-109594898D01*
X116980500Y-109594898D01*
X116980500Y-109188000D01*
X141368000Y-109188000D01*
X142005000Y-109188000D01*
X142005000Y-108551000D01*
X142755000Y-108551000D01*
X142755000Y-109188000D01*
X143392000Y-109188000D01*
X143392000Y-108776373D01*
X143391999Y-108776371D01*
X143377496Y-108703459D01*
X143377494Y-108703455D01*
X143322239Y-108620760D01*
X143239544Y-108565505D01*
X143239540Y-108565503D01*
X143166627Y-108551000D01*
X142755000Y-108551000D01*
X142005000Y-108551000D01*
X141593373Y-108551000D01*
X141520459Y-108565503D01*
X141520455Y-108565505D01*
X141437760Y-108620760D01*
X141382505Y-108703455D01*
X141382503Y-108703459D01*
X141368000Y-108776371D01*
X141368000Y-109188000D01*
X116980500Y-109188000D01*
X116980500Y-106388000D01*
X170798659Y-106388000D01*
X170817975Y-106584129D01*
X170875188Y-106772733D01*
X170968086Y-106946532D01*
X170968090Y-106946539D01*
X171093116Y-107098883D01*
X171245460Y-107223909D01*
X171245467Y-107223913D01*
X171419266Y-107316811D01*
X171419269Y-107316811D01*
X171419273Y-107316814D01*
X171607868Y-107374024D01*
X171804000Y-107393341D01*
X172000132Y-107374024D01*
X172083947Y-107348599D01*
X176373729Y-107348599D01*
X176400235Y-107362766D01*
X176598165Y-107422808D01*
X176804000Y-107443080D01*
X177009834Y-107422808D01*
X177207763Y-107362767D01*
X177234268Y-107348598D01*
X177234269Y-107348598D01*
X176804001Y-106918330D01*
X176804000Y-106918330D01*
X176373729Y-107348599D01*
X172083947Y-107348599D01*
X172188727Y-107316814D01*
X172362538Y-107223910D01*
X172514883Y-107098883D01*
X172639910Y-106946538D01*
X172666923Y-106896000D01*
X179013659Y-106896000D01*
X179032975Y-107092129D01*
X179090188Y-107280733D01*
X179183086Y-107454532D01*
X179183090Y-107454539D01*
X179308116Y-107606883D01*
X179460460Y-107731909D01*
X179460467Y-107731913D01*
X179634266Y-107824811D01*
X179634269Y-107824811D01*
X179634273Y-107824814D01*
X179822868Y-107882024D01*
X180019000Y-107901341D01*
X180215132Y-107882024D01*
X180403727Y-107824814D01*
X180577538Y-107731910D01*
X180729883Y-107606883D01*
X180854910Y-107454538D01*
X180947814Y-107280727D01*
X181005024Y-107092132D01*
X181024341Y-106896000D01*
X181005024Y-106699868D01*
X180947814Y-106511273D01*
X180947811Y-106511269D01*
X180947811Y-106511266D01*
X180854913Y-106337467D01*
X180854909Y-106337460D01*
X180729883Y-106185116D01*
X180577539Y-106060090D01*
X180577532Y-106060086D01*
X180403733Y-105967188D01*
X180403727Y-105967186D01*
X180215132Y-105909976D01*
X180215129Y-105909975D01*
X180019000Y-105890659D01*
X179822870Y-105909975D01*
X179634266Y-105967188D01*
X179460467Y-106060086D01*
X179460460Y-106060090D01*
X179308116Y-106185116D01*
X179183090Y-106337460D01*
X179183086Y-106337467D01*
X179090188Y-106511266D01*
X179032975Y-106699870D01*
X179013659Y-106896000D01*
X172666923Y-106896000D01*
X172722639Y-106791763D01*
X172732811Y-106772733D01*
X172732811Y-106772732D01*
X172732814Y-106772727D01*
X172790024Y-106584132D01*
X172809341Y-106388000D01*
X175748919Y-106388000D01*
X175769191Y-106593833D01*
X175829234Y-106791765D01*
X175843400Y-106818268D01*
X175843401Y-106818269D01*
X176273670Y-106388000D01*
X176399014Y-106388000D01*
X176418835Y-106513148D01*
X176476359Y-106626045D01*
X176565955Y-106715641D01*
X176678852Y-106773165D01*
X176772519Y-106788000D01*
X176835481Y-106788000D01*
X176929148Y-106773165D01*
X177042045Y-106715641D01*
X177131641Y-106626045D01*
X177189165Y-106513148D01*
X177208986Y-106388001D01*
X177334330Y-106388001D01*
X177764598Y-106818269D01*
X177764598Y-106818268D01*
X177778767Y-106791763D01*
X177838808Y-106593834D01*
X177859080Y-106388000D01*
X177838808Y-106182165D01*
X177778766Y-105984235D01*
X177764599Y-105957730D01*
X177334330Y-106387999D01*
X177334330Y-106388001D01*
X177208986Y-106388001D01*
X177208986Y-106388000D01*
X177189165Y-106262852D01*
X177131641Y-106149955D01*
X177042045Y-106060359D01*
X176929148Y-106002835D01*
X176835481Y-105988000D01*
X176772519Y-105988000D01*
X176678852Y-106002835D01*
X176565955Y-106060359D01*
X176476359Y-106149955D01*
X176418835Y-106262852D01*
X176399014Y-106388000D01*
X176273670Y-106388000D01*
X176273670Y-106387999D01*
X175843401Y-105957730D01*
X175843400Y-105957730D01*
X175829231Y-105984239D01*
X175769191Y-106182165D01*
X175748919Y-106388000D01*
X172809341Y-106388000D01*
X172790024Y-106191868D01*
X172732814Y-106003273D01*
X172732811Y-106003269D01*
X172732811Y-106003266D01*
X172639913Y-105829467D01*
X172639909Y-105829460D01*
X172514883Y-105677116D01*
X172362539Y-105552090D01*
X172362532Y-105552086D01*
X172188733Y-105459188D01*
X172188727Y-105459186D01*
X172083947Y-105427401D01*
X176373730Y-105427401D01*
X176804000Y-105857670D01*
X176804001Y-105857670D01*
X177234269Y-105427401D01*
X177234268Y-105427400D01*
X177207765Y-105413234D01*
X177009833Y-105353191D01*
X176804000Y-105332919D01*
X176598165Y-105353191D01*
X176400239Y-105413231D01*
X176373730Y-105427400D01*
X176373730Y-105427401D01*
X172083947Y-105427401D01*
X172062997Y-105421046D01*
X172000129Y-105401975D01*
X171804000Y-105382659D01*
X171607870Y-105401975D01*
X171419266Y-105459188D01*
X171245467Y-105552086D01*
X171245460Y-105552090D01*
X171093116Y-105677116D01*
X170968090Y-105829460D01*
X170968086Y-105829467D01*
X170875188Y-106003266D01*
X170817975Y-106191870D01*
X170798659Y-106388000D01*
X116980500Y-106388000D01*
X116980500Y-104938608D01*
X145941500Y-104938608D01*
X145946502Y-104989398D01*
X145956699Y-105092932D01*
X145977636Y-105161952D01*
X146016768Y-105290954D01*
X146114315Y-105473450D01*
X146114317Y-105473452D01*
X146245589Y-105633410D01*
X146298846Y-105677116D01*
X146405550Y-105764685D01*
X146588046Y-105862232D01*
X146786066Y-105922300D01*
X146786065Y-105922300D01*
X146804529Y-105924118D01*
X146992000Y-105942583D01*
X147197934Y-105922300D01*
X147395954Y-105862232D01*
X147578450Y-105764685D01*
X147738410Y-105633410D01*
X147869685Y-105473450D01*
X147967232Y-105290954D01*
X148021516Y-105112000D01*
X148392000Y-105112000D01*
X148392000Y-105534844D01*
X148398401Y-105594372D01*
X148398403Y-105594379D01*
X148448645Y-105729086D01*
X148448649Y-105729093D01*
X148534809Y-105844187D01*
X148534812Y-105844190D01*
X148649906Y-105930350D01*
X148649913Y-105930354D01*
X148784620Y-105980596D01*
X148784627Y-105980598D01*
X148844155Y-105986999D01*
X148844172Y-105987000D01*
X149117000Y-105987000D01*
X149117000Y-105112000D01*
X148392000Y-105112000D01*
X148021516Y-105112000D01*
X148027300Y-105092934D01*
X148042500Y-104938608D01*
X148042500Y-104808889D01*
X148992000Y-104808889D01*
X149032507Y-104946844D01*
X149110239Y-105067798D01*
X149218900Y-105161952D01*
X149349685Y-105221680D01*
X149456237Y-105237000D01*
X149527763Y-105237000D01*
X149634315Y-105221680D01*
X149765100Y-105161952D01*
X149822748Y-105112000D01*
X149867000Y-105112000D01*
X149867000Y-105987000D01*
X150139828Y-105987000D01*
X150139844Y-105986999D01*
X150199372Y-105980598D01*
X150199379Y-105980596D01*
X150334086Y-105930354D01*
X150334093Y-105930350D01*
X150449187Y-105844190D01*
X150449190Y-105844187D01*
X150535350Y-105729093D01*
X150535354Y-105729086D01*
X150585596Y-105594379D01*
X150585598Y-105594372D01*
X150591999Y-105534844D01*
X150592000Y-105534827D01*
X150592000Y-105112000D01*
X149867000Y-105112000D01*
X149822748Y-105112000D01*
X149873761Y-105067798D01*
X149951493Y-104946844D01*
X149992000Y-104808889D01*
X149992000Y-104665111D01*
X149951493Y-104527156D01*
X149873761Y-104406202D01*
X149765100Y-104312048D01*
X149634315Y-104252320D01*
X149527763Y-104237000D01*
X149456237Y-104237000D01*
X149349685Y-104252320D01*
X149218900Y-104312048D01*
X149110239Y-104406202D01*
X149032507Y-104527156D01*
X148992000Y-104665111D01*
X148992000Y-104808889D01*
X148042500Y-104808889D01*
X148042500Y-104535392D01*
X148027300Y-104381066D01*
X148021516Y-104362000D01*
X148392000Y-104362000D01*
X149117000Y-104362000D01*
X149117000Y-103487000D01*
X149867000Y-103487000D01*
X149867000Y-104362000D01*
X150592000Y-104362000D01*
X150592000Y-103939172D01*
X150591999Y-103939155D01*
X150585598Y-103879627D01*
X150585596Y-103879620D01*
X150535354Y-103744913D01*
X150535350Y-103744906D01*
X150449190Y-103629812D01*
X150449187Y-103629809D01*
X150334093Y-103543649D01*
X150334086Y-103543645D01*
X150199379Y-103493403D01*
X150199372Y-103493401D01*
X150139844Y-103487000D01*
X149867000Y-103487000D01*
X149117000Y-103487000D01*
X148844155Y-103487000D01*
X148784627Y-103493401D01*
X148784620Y-103493403D01*
X148649913Y-103543645D01*
X148649906Y-103543649D01*
X148534812Y-103629809D01*
X148534809Y-103629812D01*
X148448649Y-103744906D01*
X148448645Y-103744913D01*
X148398403Y-103879620D01*
X148398401Y-103879627D01*
X148392000Y-103939155D01*
X148392000Y-104362000D01*
X148021516Y-104362000D01*
X147967232Y-104183046D01*
X147869685Y-104000550D01*
X147770441Y-103879620D01*
X147738410Y-103840589D01*
X147578452Y-103709317D01*
X147578453Y-103709317D01*
X147578450Y-103709315D01*
X147395954Y-103611768D01*
X147197934Y-103551700D01*
X147197932Y-103551699D01*
X147197934Y-103551699D01*
X146992000Y-103531417D01*
X146786067Y-103551699D01*
X146588043Y-103611769D01*
X146554288Y-103629812D01*
X146405550Y-103709315D01*
X146405548Y-103709316D01*
X146405547Y-103709317D01*
X146245589Y-103840589D01*
X146114317Y-104000547D01*
X146016769Y-104183043D01*
X145956699Y-104381067D01*
X145954224Y-104406202D01*
X145941500Y-104535392D01*
X145941500Y-104938608D01*
X116980500Y-104938608D01*
X116980500Y-102578000D01*
X170838659Y-102578000D01*
X170857975Y-102774129D01*
X170857976Y-102774132D01*
X170905503Y-102930808D01*
X170915188Y-102962733D01*
X171008086Y-103136532D01*
X171008090Y-103136539D01*
X171133116Y-103288883D01*
X171285460Y-103413909D01*
X171285467Y-103413913D01*
X171459266Y-103506811D01*
X171459269Y-103506811D01*
X171459273Y-103506814D01*
X171647868Y-103564024D01*
X171844000Y-103583341D01*
X172040132Y-103564024D01*
X172123947Y-103538599D01*
X176413729Y-103538599D01*
X176440235Y-103552766D01*
X176638165Y-103612808D01*
X176844000Y-103633080D01*
X177049834Y-103612808D01*
X177247763Y-103552767D01*
X177274268Y-103538598D01*
X177274269Y-103538598D01*
X176844001Y-103108330D01*
X176844000Y-103108330D01*
X176413729Y-103538599D01*
X172123947Y-103538599D01*
X172228727Y-103506814D01*
X172265797Y-103487000D01*
X172402532Y-103413913D01*
X172402538Y-103413910D01*
X172554883Y-103288883D01*
X172679910Y-103136538D01*
X172762639Y-102981763D01*
X172772811Y-102962733D01*
X172772811Y-102962732D01*
X172772814Y-102962727D01*
X172830024Y-102774132D01*
X172849341Y-102578000D01*
X175788919Y-102578000D01*
X175809191Y-102783833D01*
X175869234Y-102981765D01*
X175883400Y-103008268D01*
X175883401Y-103008269D01*
X176313670Y-102578000D01*
X176439014Y-102578000D01*
X176458835Y-102703148D01*
X176516359Y-102816045D01*
X176605955Y-102905641D01*
X176718852Y-102963165D01*
X176812519Y-102978000D01*
X176875481Y-102978000D01*
X176969148Y-102963165D01*
X177082045Y-102905641D01*
X177171641Y-102816045D01*
X177229165Y-102703148D01*
X177248986Y-102578001D01*
X177374330Y-102578001D01*
X177804598Y-103008269D01*
X177804598Y-103008268D01*
X177818767Y-102981763D01*
X177856735Y-102856599D01*
X179588729Y-102856599D01*
X179615235Y-102870766D01*
X179813165Y-102930808D01*
X180019000Y-102951080D01*
X180224834Y-102930808D01*
X180422763Y-102870767D01*
X180449268Y-102856598D01*
X180449269Y-102856598D01*
X180019001Y-102426330D01*
X180019000Y-102426330D01*
X179588729Y-102856599D01*
X177856735Y-102856599D01*
X177878808Y-102783834D01*
X177899080Y-102578000D01*
X177878808Y-102372165D01*
X177818766Y-102174235D01*
X177804599Y-102147730D01*
X177374330Y-102577999D01*
X177374330Y-102578001D01*
X177248986Y-102578001D01*
X177248986Y-102578000D01*
X177229165Y-102452852D01*
X177171641Y-102339955D01*
X177082045Y-102250359D01*
X176969148Y-102192835D01*
X176875481Y-102178000D01*
X176812519Y-102178000D01*
X176718852Y-102192835D01*
X176605955Y-102250359D01*
X176516359Y-102339955D01*
X176458835Y-102452852D01*
X176439014Y-102578000D01*
X176313670Y-102578000D01*
X176313670Y-102577999D01*
X175883401Y-102147730D01*
X175883400Y-102147730D01*
X175869231Y-102174239D01*
X175809191Y-102372165D01*
X175788919Y-102578000D01*
X172849341Y-102578000D01*
X172830024Y-102381868D01*
X172772814Y-102193273D01*
X172772811Y-102193269D01*
X172772811Y-102193266D01*
X172679913Y-102019467D01*
X172679909Y-102019460D01*
X172554883Y-101867116D01*
X172402539Y-101742090D01*
X172402532Y-101742086D01*
X172228733Y-101649188D01*
X172228727Y-101649186D01*
X172123947Y-101617401D01*
X176413730Y-101617401D01*
X176844000Y-102047670D01*
X176844001Y-102047670D01*
X176995671Y-101896000D01*
X178963919Y-101896000D01*
X178984191Y-102101833D01*
X179044234Y-102299765D01*
X179058400Y-102326268D01*
X179058401Y-102326269D01*
X179488670Y-101896000D01*
X179614014Y-101896000D01*
X179633835Y-102021148D01*
X179691359Y-102134045D01*
X179780955Y-102223641D01*
X179893852Y-102281165D01*
X179987519Y-102296000D01*
X180050481Y-102296000D01*
X180144148Y-102281165D01*
X180257045Y-102223641D01*
X180346641Y-102134045D01*
X180404165Y-102021148D01*
X180423986Y-101896001D01*
X180549330Y-101896001D01*
X180979598Y-102326269D01*
X180979598Y-102326268D01*
X180993767Y-102299763D01*
X181053808Y-102101834D01*
X181074080Y-101896000D01*
X181053808Y-101690165D01*
X180993766Y-101492235D01*
X180979599Y-101465730D01*
X180549330Y-101895999D01*
X180549330Y-101896001D01*
X180423986Y-101896001D01*
X180423986Y-101896000D01*
X180404165Y-101770852D01*
X180346641Y-101657955D01*
X180257045Y-101568359D01*
X180144148Y-101510835D01*
X180050481Y-101496000D01*
X179987519Y-101496000D01*
X179893852Y-101510835D01*
X179780955Y-101568359D01*
X179691359Y-101657955D01*
X179633835Y-101770852D01*
X179614014Y-101896000D01*
X179488670Y-101896000D01*
X179488670Y-101895999D01*
X179058401Y-101465730D01*
X179058400Y-101465730D01*
X179044231Y-101492239D01*
X178984191Y-101690165D01*
X178963919Y-101896000D01*
X176995671Y-101896000D01*
X177274269Y-101617401D01*
X177274268Y-101617400D01*
X177247765Y-101603234D01*
X177049833Y-101543191D01*
X176844000Y-101522919D01*
X176638165Y-101543191D01*
X176440239Y-101603231D01*
X176413730Y-101617400D01*
X176413730Y-101617401D01*
X172123947Y-101617401D01*
X172102997Y-101611046D01*
X172040129Y-101591975D01*
X171844000Y-101572659D01*
X171647870Y-101591975D01*
X171459266Y-101649188D01*
X171285467Y-101742086D01*
X171285460Y-101742090D01*
X171133116Y-101867116D01*
X171008090Y-102019460D01*
X171008086Y-102019467D01*
X170915188Y-102193266D01*
X170857975Y-102381870D01*
X170838659Y-102578000D01*
X116980500Y-102578000D01*
X116980500Y-100935401D01*
X179588730Y-100935401D01*
X180019000Y-101365670D01*
X180019001Y-101365670D01*
X180449269Y-100935401D01*
X180449268Y-100935400D01*
X180422765Y-100921234D01*
X180224833Y-100861191D01*
X180019000Y-100840919D01*
X179813165Y-100861191D01*
X179615239Y-100921231D01*
X179588730Y-100935400D01*
X179588730Y-100935401D01*
X116980500Y-100935401D01*
X116980500Y-100184752D01*
X141417500Y-100184752D01*
X141429131Y-100243229D01*
X141429132Y-100243230D01*
X141473447Y-100309552D01*
X141539769Y-100353867D01*
X141539770Y-100353868D01*
X141598247Y-100365499D01*
X141598250Y-100365500D01*
X141598252Y-100365500D01*
X143161750Y-100365500D01*
X143161751Y-100365499D01*
X143176568Y-100362552D01*
X143220229Y-100353868D01*
X143220229Y-100353867D01*
X143220231Y-100353867D01*
X143286552Y-100309552D01*
X143330867Y-100243231D01*
X143330867Y-100243229D01*
X143330868Y-100243229D01*
X143342499Y-100184752D01*
X143342500Y-100184750D01*
X143342500Y-99530003D01*
X153366435Y-99530003D01*
X153386630Y-99709249D01*
X153386631Y-99709254D01*
X153446211Y-99879523D01*
X153540475Y-100029542D01*
X153542184Y-100032262D01*
X153669738Y-100159816D01*
X153760080Y-100216582D01*
X153818147Y-100253068D01*
X153822478Y-100255789D01*
X153976124Y-100309552D01*
X153992745Y-100315368D01*
X153992750Y-100315369D01*
X154083246Y-100325565D01*
X154127040Y-100330499D01*
X154127043Y-100330500D01*
X154127046Y-100330500D01*
X155016957Y-100330500D01*
X155016958Y-100330499D01*
X155084104Y-100322934D01*
X155151249Y-100315369D01*
X155151252Y-100315368D01*
X155151255Y-100315368D01*
X155321522Y-100255789D01*
X155474262Y-100159816D01*
X155601816Y-100032262D01*
X155697789Y-99879522D01*
X155757368Y-99709255D01*
X155757369Y-99709249D01*
X155777565Y-99530003D01*
X155777565Y-99529996D01*
X155777259Y-99527283D01*
X178762755Y-99527283D01*
X178782950Y-99706529D01*
X178782951Y-99706534D01*
X178842531Y-99876803D01*
X178938504Y-100029542D01*
X179066058Y-100157096D01*
X179156400Y-100213862D01*
X179203137Y-100243229D01*
X179218798Y-100253069D01*
X179380217Y-100309552D01*
X179389065Y-100312648D01*
X179389070Y-100312649D01*
X179479566Y-100322845D01*
X179523360Y-100327779D01*
X179523363Y-100327780D01*
X179523366Y-100327780D01*
X180413277Y-100327780D01*
X180413278Y-100327779D01*
X180480424Y-100320214D01*
X180547569Y-100312649D01*
X180547572Y-100312648D01*
X180547575Y-100312648D01*
X180717842Y-100253069D01*
X180870582Y-100157096D01*
X180998136Y-100029542D01*
X181094109Y-99876802D01*
X181153688Y-99706535D01*
X181153689Y-99706529D01*
X181173885Y-99527283D01*
X181173885Y-99527276D01*
X181153689Y-99348030D01*
X181153688Y-99348025D01*
X181094109Y-99177758D01*
X180998136Y-99025018D01*
X180870582Y-98897464D01*
X180782121Y-98841880D01*
X180717843Y-98801491D01*
X180547574Y-98741911D01*
X180547569Y-98741910D01*
X180413280Y-98726780D01*
X180413274Y-98726780D01*
X179523366Y-98726780D01*
X179523359Y-98726780D01*
X179389070Y-98741910D01*
X179389065Y-98741911D01*
X179218796Y-98801491D01*
X179066057Y-98897464D01*
X178938504Y-99025017D01*
X178842531Y-99177756D01*
X178782951Y-99348025D01*
X178782950Y-99348030D01*
X178762755Y-99527276D01*
X178762755Y-99527283D01*
X155777259Y-99527283D01*
X155757369Y-99350750D01*
X155757368Y-99350745D01*
X155697788Y-99180476D01*
X155601815Y-99027737D01*
X155474262Y-98900184D01*
X155321523Y-98804211D01*
X155151254Y-98744631D01*
X155151249Y-98744630D01*
X155016960Y-98729500D01*
X155016954Y-98729500D01*
X154127046Y-98729500D01*
X154127039Y-98729500D01*
X153992750Y-98744630D01*
X153992745Y-98744631D01*
X153822476Y-98804211D01*
X153669737Y-98900184D01*
X153542184Y-99027737D01*
X153446211Y-99180476D01*
X153386631Y-99350745D01*
X153386630Y-99350750D01*
X153366435Y-99529996D01*
X153366435Y-99530003D01*
X143342500Y-99530003D01*
X143342500Y-98621249D01*
X143342499Y-98621247D01*
X143330868Y-98562770D01*
X143330867Y-98562769D01*
X143286552Y-98496447D01*
X143220230Y-98452132D01*
X143220229Y-98452131D01*
X143161752Y-98440500D01*
X143161748Y-98440500D01*
X141598252Y-98440500D01*
X141598247Y-98440500D01*
X141539770Y-98452131D01*
X141539769Y-98452132D01*
X141473447Y-98496447D01*
X141429132Y-98562769D01*
X141429131Y-98562770D01*
X141417500Y-98621247D01*
X141417500Y-100184752D01*
X116980500Y-100184752D01*
X116980500Y-98080604D01*
X145941500Y-98080604D01*
X145956699Y-98234932D01*
X145956700Y-98234934D01*
X146016768Y-98432954D01*
X146114315Y-98615450D01*
X146119074Y-98621249D01*
X146245589Y-98775410D01*
X146280684Y-98804211D01*
X146405550Y-98906685D01*
X146588046Y-99004232D01*
X146786066Y-99064300D01*
X146786065Y-99064300D01*
X146804529Y-99066118D01*
X146992000Y-99084583D01*
X147197934Y-99064300D01*
X147395954Y-99004232D01*
X147578450Y-98906685D01*
X147738410Y-98775410D01*
X147814028Y-98683269D01*
X148441500Y-98683269D01*
X148444353Y-98713699D01*
X148444353Y-98713701D01*
X148476025Y-98804211D01*
X148489207Y-98841882D01*
X148569850Y-98951150D01*
X148679118Y-99031793D01*
X148721845Y-99046744D01*
X148807299Y-99076646D01*
X148837730Y-99079500D01*
X148837734Y-99079500D01*
X150146270Y-99079500D01*
X150176699Y-99076646D01*
X150176701Y-99076646D01*
X150240790Y-99054219D01*
X150304882Y-99031793D01*
X150414150Y-98951150D01*
X150494793Y-98841882D01*
X150528822Y-98744632D01*
X150539646Y-98713701D01*
X150539646Y-98713699D01*
X150542500Y-98683269D01*
X150542500Y-97074730D01*
X150539646Y-97044300D01*
X150539646Y-97044298D01*
X150520647Y-96990003D01*
X153366435Y-96990003D01*
X153386630Y-97169249D01*
X153386631Y-97169254D01*
X153446211Y-97339523D01*
X153540475Y-97489542D01*
X153542184Y-97492262D01*
X153669738Y-97619816D01*
X153760080Y-97676582D01*
X153818147Y-97713068D01*
X153822478Y-97715789D01*
X153976124Y-97769552D01*
X153992745Y-97775368D01*
X153992750Y-97775369D01*
X154083246Y-97785565D01*
X154127040Y-97790499D01*
X154127043Y-97790500D01*
X154127046Y-97790500D01*
X155016957Y-97790500D01*
X155016958Y-97790499D01*
X155084104Y-97782934D01*
X155151249Y-97775369D01*
X155151252Y-97775368D01*
X155151255Y-97775368D01*
X155321522Y-97715789D01*
X155474262Y-97619816D01*
X155601816Y-97492262D01*
X155697789Y-97339522D01*
X155757368Y-97169255D01*
X155757369Y-97169249D01*
X155777565Y-96990003D01*
X155777565Y-96989996D01*
X155777259Y-96987283D01*
X178762755Y-96987283D01*
X178782950Y-97166529D01*
X178782951Y-97166534D01*
X178842531Y-97336803D01*
X178938504Y-97489542D01*
X179066058Y-97617096D01*
X179156400Y-97673862D01*
X179203137Y-97703229D01*
X179218798Y-97713069D01*
X179380217Y-97769552D01*
X179389065Y-97772648D01*
X179389070Y-97772649D01*
X179479566Y-97782845D01*
X179523360Y-97787779D01*
X179523363Y-97787780D01*
X179523366Y-97787780D01*
X180413277Y-97787780D01*
X180413278Y-97787779D01*
X180480424Y-97780214D01*
X180547569Y-97772649D01*
X180547572Y-97772648D01*
X180547575Y-97772648D01*
X180717842Y-97713069D01*
X180870582Y-97617096D01*
X180998136Y-97489542D01*
X181094109Y-97336802D01*
X181153688Y-97166535D01*
X181153689Y-97166529D01*
X181173885Y-96987283D01*
X181173885Y-96987276D01*
X181153689Y-96808030D01*
X181153688Y-96808025D01*
X181134703Y-96753768D01*
X181094109Y-96637758D01*
X180998136Y-96485018D01*
X180870582Y-96357464D01*
X180717843Y-96261491D01*
X180547574Y-96201911D01*
X180547569Y-96201910D01*
X180413280Y-96186780D01*
X180413274Y-96186780D01*
X179523366Y-96186780D01*
X179523359Y-96186780D01*
X179389070Y-96201910D01*
X179389065Y-96201911D01*
X179218796Y-96261491D01*
X179066057Y-96357464D01*
X178938504Y-96485017D01*
X178842531Y-96637756D01*
X178782951Y-96808025D01*
X178782950Y-96808030D01*
X178762755Y-96987276D01*
X178762755Y-96987283D01*
X155777259Y-96987283D01*
X155757369Y-96810750D01*
X155757368Y-96810745D01*
X155727787Y-96726207D01*
X155697789Y-96640478D01*
X155601816Y-96487738D01*
X155474262Y-96360184D01*
X155469933Y-96357464D01*
X155321523Y-96264211D01*
X155151254Y-96204631D01*
X155151249Y-96204630D01*
X155016960Y-96189500D01*
X155016954Y-96189500D01*
X154127046Y-96189500D01*
X154127039Y-96189500D01*
X153992750Y-96204630D01*
X153992745Y-96204631D01*
X153822476Y-96264211D01*
X153669737Y-96360184D01*
X153542184Y-96487737D01*
X153446211Y-96640476D01*
X153386631Y-96810745D01*
X153386630Y-96810750D01*
X153366435Y-96989996D01*
X153366435Y-96990003D01*
X150520647Y-96990003D01*
X150494793Y-96916119D01*
X150494792Y-96916117D01*
X150414150Y-96806850D01*
X150304882Y-96726207D01*
X150304880Y-96726206D01*
X150176700Y-96681353D01*
X150146270Y-96678500D01*
X150146266Y-96678500D01*
X148837734Y-96678500D01*
X148837730Y-96678500D01*
X148807300Y-96681353D01*
X148807298Y-96681353D01*
X148679119Y-96726206D01*
X148679117Y-96726207D01*
X148569850Y-96806850D01*
X148489207Y-96916117D01*
X148489206Y-96916119D01*
X148444353Y-97044298D01*
X148444353Y-97044300D01*
X148441500Y-97074730D01*
X148441500Y-98683269D01*
X147814028Y-98683269D01*
X147869685Y-98615450D01*
X147967232Y-98432954D01*
X148027300Y-98234934D01*
X148042500Y-98080608D01*
X148042500Y-97677392D01*
X148027300Y-97523066D01*
X147967232Y-97325046D01*
X147869685Y-97142550D01*
X147744494Y-96990003D01*
X147738410Y-96982589D01*
X147578452Y-96851317D01*
X147578453Y-96851317D01*
X147578450Y-96851315D01*
X147395954Y-96753768D01*
X147197934Y-96693700D01*
X147197932Y-96693699D01*
X147197934Y-96693699D01*
X146992000Y-96673417D01*
X146786067Y-96693699D01*
X146588043Y-96753769D01*
X146488737Y-96806850D01*
X146405550Y-96851315D01*
X146405548Y-96851316D01*
X146405547Y-96851317D01*
X146245589Y-96982589D01*
X146114317Y-97142547D01*
X146114315Y-97142550D01*
X146100041Y-97169255D01*
X146016769Y-97325043D01*
X145956699Y-97523067D01*
X145941500Y-97677395D01*
X145941500Y-98080604D01*
X116980500Y-98080604D01*
X116980500Y-97644752D01*
X141417500Y-97644752D01*
X141429131Y-97703229D01*
X141429132Y-97703230D01*
X141473447Y-97769552D01*
X141539769Y-97813867D01*
X141539770Y-97813868D01*
X141598247Y-97825499D01*
X141598250Y-97825500D01*
X141598252Y-97825500D01*
X143161750Y-97825500D01*
X143161751Y-97825499D01*
X143176568Y-97822552D01*
X143220229Y-97813868D01*
X143220229Y-97813867D01*
X143220231Y-97813867D01*
X143286552Y-97769552D01*
X143330867Y-97703231D01*
X143330867Y-97703229D01*
X143330868Y-97703229D01*
X143342499Y-97644752D01*
X143342500Y-97644750D01*
X143342500Y-96081249D01*
X143342499Y-96081247D01*
X143330868Y-96022770D01*
X143330867Y-96022769D01*
X143286552Y-95956447D01*
X143220230Y-95912132D01*
X143220229Y-95912131D01*
X143161752Y-95900500D01*
X143161748Y-95900500D01*
X141598252Y-95900500D01*
X141598247Y-95900500D01*
X141539770Y-95912131D01*
X141539769Y-95912132D01*
X141473447Y-95956447D01*
X141429132Y-96022769D01*
X141429131Y-96022770D01*
X141417500Y-96081247D01*
X141417500Y-97644752D01*
X116980500Y-97644752D01*
X116980500Y-94450003D01*
X153366435Y-94450003D01*
X153386630Y-94629249D01*
X153386631Y-94629254D01*
X153446211Y-94799523D01*
X153542184Y-94952262D01*
X153669738Y-95079816D01*
X153822478Y-95175789D01*
X153992745Y-95235368D01*
X153992750Y-95235369D01*
X154083246Y-95245565D01*
X154127040Y-95250499D01*
X154127043Y-95250500D01*
X154127046Y-95250500D01*
X155016957Y-95250500D01*
X155016958Y-95250499D01*
X155084104Y-95242934D01*
X155151249Y-95235369D01*
X155151252Y-95235368D01*
X155151255Y-95235368D01*
X155321522Y-95175789D01*
X155474262Y-95079816D01*
X155601816Y-94952262D01*
X155697789Y-94799522D01*
X155757368Y-94629255D01*
X155777565Y-94450003D01*
X178766435Y-94450003D01*
X178786630Y-94629249D01*
X178786631Y-94629254D01*
X178846211Y-94799523D01*
X178942184Y-94952262D01*
X179069738Y-95079816D01*
X179222478Y-95175789D01*
X179392745Y-95235368D01*
X179392750Y-95235369D01*
X179483246Y-95245565D01*
X179527040Y-95250499D01*
X179527043Y-95250500D01*
X179527046Y-95250500D01*
X180416957Y-95250500D01*
X180416958Y-95250499D01*
X180484104Y-95242934D01*
X180551249Y-95235369D01*
X180551252Y-95235368D01*
X180551255Y-95235368D01*
X180721522Y-95175789D01*
X180874262Y-95079816D01*
X181001816Y-94952262D01*
X181097789Y-94799522D01*
X181157368Y-94629255D01*
X181177565Y-94450000D01*
X181157368Y-94270745D01*
X181097789Y-94100478D01*
X181001816Y-93947738D01*
X180874262Y-93820184D01*
X180721523Y-93724211D01*
X180551254Y-93664631D01*
X180551249Y-93664630D01*
X180416960Y-93649500D01*
X180416954Y-93649500D01*
X179527046Y-93649500D01*
X179527039Y-93649500D01*
X179392750Y-93664630D01*
X179392745Y-93664631D01*
X179222476Y-93724211D01*
X179069737Y-93820184D01*
X178942184Y-93947737D01*
X178846211Y-94100476D01*
X178786631Y-94270745D01*
X178786630Y-94270750D01*
X178766435Y-94449996D01*
X178766435Y-94450003D01*
X155777565Y-94450003D01*
X155777565Y-94450000D01*
X155757368Y-94270745D01*
X155697789Y-94100478D01*
X155601816Y-93947738D01*
X155474262Y-93820184D01*
X155321523Y-93724211D01*
X155151254Y-93664631D01*
X155151249Y-93664630D01*
X155016960Y-93649500D01*
X155016954Y-93649500D01*
X154127046Y-93649500D01*
X154127039Y-93649500D01*
X153992750Y-93664630D01*
X153992745Y-93664631D01*
X153822476Y-93724211D01*
X153669737Y-93820184D01*
X153542184Y-93947737D01*
X153446211Y-94100476D01*
X153386631Y-94270745D01*
X153386630Y-94270750D01*
X153366435Y-94449996D01*
X153366435Y-94450003D01*
X116980500Y-94450003D01*
X116980500Y-91910003D01*
X153366435Y-91910003D01*
X153386630Y-92089249D01*
X153386631Y-92089254D01*
X153446211Y-92259523D01*
X153542184Y-92412262D01*
X153669738Y-92539816D01*
X153822478Y-92635789D01*
X153992745Y-92695368D01*
X153992750Y-92695369D01*
X154083246Y-92705565D01*
X154127040Y-92710499D01*
X154127043Y-92710500D01*
X154127046Y-92710500D01*
X155016957Y-92710500D01*
X155016958Y-92710499D01*
X155084104Y-92702934D01*
X155151249Y-92695369D01*
X155151252Y-92695368D01*
X155151255Y-92695368D01*
X155321522Y-92635789D01*
X155474262Y-92539816D01*
X155601816Y-92412262D01*
X155697789Y-92259522D01*
X155757368Y-92089255D01*
X155777565Y-91910003D01*
X178766435Y-91910003D01*
X178786630Y-92089249D01*
X178786631Y-92089254D01*
X178846211Y-92259523D01*
X178942184Y-92412262D01*
X179069738Y-92539816D01*
X179222478Y-92635789D01*
X179392745Y-92695368D01*
X179392750Y-92695369D01*
X179483246Y-92705565D01*
X179527040Y-92710499D01*
X179527043Y-92710500D01*
X179527046Y-92710500D01*
X180416957Y-92710500D01*
X180416958Y-92710499D01*
X180484104Y-92702934D01*
X180551249Y-92695369D01*
X180551252Y-92695368D01*
X180551255Y-92695368D01*
X180721522Y-92635789D01*
X180874262Y-92539816D01*
X181001816Y-92412262D01*
X181097789Y-92259522D01*
X181157368Y-92089255D01*
X181177565Y-91910000D01*
X181157368Y-91730745D01*
X181097789Y-91560478D01*
X181001816Y-91407738D01*
X180874262Y-91280184D01*
X180804768Y-91236518D01*
X180721523Y-91184211D01*
X180551254Y-91124631D01*
X180551249Y-91124630D01*
X180416960Y-91109500D01*
X180416954Y-91109500D01*
X179527046Y-91109500D01*
X179527039Y-91109500D01*
X179392750Y-91124630D01*
X179392745Y-91124631D01*
X179222476Y-91184211D01*
X179069737Y-91280184D01*
X178942184Y-91407737D01*
X178846211Y-91560476D01*
X178786631Y-91730745D01*
X178786630Y-91730750D01*
X178766435Y-91909996D01*
X178766435Y-91910003D01*
X155777565Y-91910003D01*
X155777565Y-91910000D01*
X155757368Y-91730745D01*
X155697789Y-91560478D01*
X155601816Y-91407738D01*
X155474262Y-91280184D01*
X155404768Y-91236518D01*
X155321523Y-91184211D01*
X155151254Y-91124631D01*
X155151249Y-91124630D01*
X155016960Y-91109500D01*
X155016954Y-91109500D01*
X154127046Y-91109500D01*
X154127039Y-91109500D01*
X153992750Y-91124630D01*
X153992745Y-91124631D01*
X153822476Y-91184211D01*
X153669737Y-91280184D01*
X153542184Y-91407737D01*
X153446211Y-91560476D01*
X153386631Y-91730745D01*
X153386630Y-91730750D01*
X153366435Y-91909996D01*
X153366435Y-91910003D01*
X116980500Y-91910003D01*
X116980500Y-91184847D01*
X120013481Y-91184847D01*
X120097800Y-91236518D01*
X120318839Y-91328075D01*
X120551480Y-91383927D01*
X120790000Y-91402699D01*
X121028519Y-91383927D01*
X121261160Y-91328075D01*
X121482195Y-91236519D01*
X121566516Y-91184846D01*
X120790000Y-90408330D01*
X120013481Y-91184846D01*
X120013481Y-91184847D01*
X116980500Y-91184847D01*
X116980500Y-89878000D01*
X119265300Y-89878000D01*
X119284072Y-90116519D01*
X119339924Y-90349160D01*
X119431481Y-90570199D01*
X119483152Y-90654517D01*
X120187781Y-89949889D01*
X120290000Y-89949889D01*
X120330507Y-90087844D01*
X120408239Y-90208798D01*
X120516900Y-90302952D01*
X120647685Y-90362680D01*
X120754237Y-90378000D01*
X120825763Y-90378000D01*
X120932315Y-90362680D01*
X121063100Y-90302952D01*
X121171761Y-90208798D01*
X121249493Y-90087844D01*
X121290000Y-89949889D01*
X121290000Y-89878000D01*
X121320330Y-89878000D01*
X122096846Y-90654516D01*
X122148519Y-90570195D01*
X122240075Y-90349160D01*
X122295927Y-90116519D01*
X122314699Y-89878006D01*
X137094460Y-89878006D01*
X137114582Y-90120858D01*
X137114584Y-90120866D01*
X137174408Y-90357106D01*
X137272301Y-90580280D01*
X137320803Y-90654517D01*
X137405592Y-90784295D01*
X137570644Y-90963590D01*
X137762956Y-91113273D01*
X137762958Y-91113274D01*
X137762961Y-91113276D01*
X137807428Y-91137340D01*
X137977282Y-91229260D01*
X138207776Y-91308389D01*
X138448151Y-91348500D01*
X138691849Y-91348500D01*
X138932224Y-91308389D01*
X139162718Y-91229260D01*
X139377044Y-91113273D01*
X139569356Y-90963590D01*
X139734408Y-90784295D01*
X139867699Y-90580279D01*
X139965591Y-90357107D01*
X140022596Y-90132000D01*
X142263659Y-90132000D01*
X142282975Y-90328129D01*
X142340188Y-90516733D01*
X142433086Y-90690532D01*
X142433090Y-90690539D01*
X142558116Y-90842883D01*
X142710460Y-90967909D01*
X142710467Y-90967913D01*
X142884266Y-91060811D01*
X142884269Y-91060811D01*
X142884273Y-91060814D01*
X143072868Y-91118024D01*
X143269000Y-91137341D01*
X143465132Y-91118024D01*
X143653727Y-91060814D01*
X143827538Y-90967910D01*
X143979883Y-90842883D01*
X144104910Y-90690538D01*
X144197814Y-90516727D01*
X144255024Y-90328132D01*
X144268653Y-90189752D01*
X148110500Y-90189752D01*
X148122131Y-90248229D01*
X148122132Y-90248230D01*
X148166447Y-90314552D01*
X148232769Y-90358867D01*
X148232770Y-90358868D01*
X148291247Y-90370499D01*
X148291250Y-90370500D01*
X148291252Y-90370500D01*
X149930750Y-90370500D01*
X149930751Y-90370499D01*
X149945568Y-90367552D01*
X149989229Y-90358868D01*
X149989229Y-90358867D01*
X149989231Y-90358867D01*
X150055552Y-90314552D01*
X150099867Y-90248231D01*
X150099867Y-90248229D01*
X150099868Y-90248229D01*
X150111499Y-90189752D01*
X150111500Y-90189750D01*
X150111500Y-89370003D01*
X153366435Y-89370003D01*
X153386630Y-89549249D01*
X153386631Y-89549254D01*
X153446211Y-89719523D01*
X153542184Y-89872262D01*
X153669738Y-89999816D01*
X153760080Y-90056582D01*
X153809833Y-90087844D01*
X153822478Y-90095789D01*
X153894144Y-90120866D01*
X153992745Y-90155368D01*
X153992750Y-90155369D01*
X154083246Y-90165565D01*
X154127040Y-90170499D01*
X154127043Y-90170500D01*
X154127046Y-90170500D01*
X155016957Y-90170500D01*
X155016958Y-90170499D01*
X155084104Y-90162934D01*
X155151249Y-90155369D01*
X155151252Y-90155368D01*
X155151255Y-90155368D01*
X155321522Y-90095789D01*
X155474262Y-89999816D01*
X155601816Y-89872262D01*
X155697789Y-89719522D01*
X155757368Y-89549255D01*
X155757369Y-89549249D01*
X155777565Y-89370003D01*
X178766435Y-89370003D01*
X178786630Y-89549249D01*
X178786631Y-89549254D01*
X178846211Y-89719523D01*
X178942184Y-89872262D01*
X179069738Y-89999816D01*
X179160080Y-90056582D01*
X179209833Y-90087844D01*
X179222478Y-90095789D01*
X179294144Y-90120866D01*
X179392745Y-90155368D01*
X179392750Y-90155369D01*
X179483246Y-90165565D01*
X179527040Y-90170499D01*
X179527043Y-90170500D01*
X179527046Y-90170500D01*
X180416957Y-90170500D01*
X180416958Y-90170499D01*
X180484104Y-90162934D01*
X180551249Y-90155369D01*
X180551252Y-90155368D01*
X180551255Y-90155368D01*
X180721522Y-90095789D01*
X180874262Y-89999816D01*
X181001816Y-89872262D01*
X181097789Y-89719522D01*
X181157368Y-89549255D01*
X181157369Y-89549249D01*
X181177565Y-89370003D01*
X181177565Y-89369996D01*
X181157369Y-89190750D01*
X181157368Y-89190745D01*
X181097788Y-89020476D01*
X181001815Y-88867737D01*
X180874262Y-88740184D01*
X180721523Y-88644211D01*
X180551254Y-88584631D01*
X180551249Y-88584630D01*
X180416960Y-88569500D01*
X180416954Y-88569500D01*
X179527046Y-88569500D01*
X179527039Y-88569500D01*
X179392750Y-88584630D01*
X179392745Y-88584631D01*
X179222476Y-88644211D01*
X179069737Y-88740184D01*
X178942184Y-88867737D01*
X178846211Y-89020476D01*
X178786631Y-89190745D01*
X178786630Y-89190750D01*
X178766435Y-89369996D01*
X178766435Y-89370003D01*
X155777565Y-89370003D01*
X155777565Y-89369996D01*
X155757369Y-89190750D01*
X155757368Y-89190745D01*
X155697788Y-89020476D01*
X155601815Y-88867737D01*
X155474262Y-88740184D01*
X155321523Y-88644211D01*
X155151254Y-88584631D01*
X155151249Y-88584630D01*
X155016960Y-88569500D01*
X155016954Y-88569500D01*
X154127046Y-88569500D01*
X154127039Y-88569500D01*
X153992750Y-88584630D01*
X153992745Y-88584631D01*
X153822476Y-88644211D01*
X153669737Y-88740184D01*
X153542184Y-88867737D01*
X153446211Y-89020476D01*
X153386631Y-89190745D01*
X153386630Y-89190750D01*
X153366435Y-89369996D01*
X153366435Y-89370003D01*
X150111500Y-89370003D01*
X150111500Y-88550249D01*
X150111499Y-88550247D01*
X150099868Y-88491770D01*
X150099867Y-88491769D01*
X150055552Y-88425447D01*
X149989230Y-88381132D01*
X149989229Y-88381131D01*
X149930752Y-88369500D01*
X149930748Y-88369500D01*
X148291252Y-88369500D01*
X148291247Y-88369500D01*
X148232770Y-88381131D01*
X148232769Y-88381132D01*
X148166447Y-88425447D01*
X148122132Y-88491769D01*
X148122131Y-88491770D01*
X148110500Y-88550247D01*
X148110500Y-90189752D01*
X144268653Y-90189752D01*
X144274341Y-90132000D01*
X144255024Y-89935868D01*
X144197814Y-89747273D01*
X144197811Y-89747269D01*
X144197811Y-89747266D01*
X144104913Y-89573467D01*
X144104909Y-89573460D01*
X143979883Y-89421116D01*
X143827539Y-89296090D01*
X143827532Y-89296086D01*
X143653733Y-89203188D01*
X143653727Y-89203186D01*
X143465132Y-89145976D01*
X143465129Y-89145975D01*
X143269000Y-89126659D01*
X143072870Y-89145975D01*
X142884266Y-89203188D01*
X142710467Y-89296086D01*
X142710460Y-89296090D01*
X142558116Y-89421116D01*
X142433090Y-89573460D01*
X142433086Y-89573467D01*
X142340188Y-89747266D01*
X142282975Y-89935870D01*
X142263659Y-90132000D01*
X140022596Y-90132000D01*
X140025416Y-90120866D01*
X140025417Y-90120858D01*
X140045540Y-89878006D01*
X140045540Y-89877993D01*
X140025417Y-89635141D01*
X140025416Y-89635138D01*
X140025416Y-89635134D01*
X139965591Y-89398893D01*
X139867699Y-89175721D01*
X139734408Y-88971705D01*
X139569356Y-88792410D01*
X139569351Y-88792406D01*
X139569349Y-88792404D01*
X139377047Y-88642729D01*
X139377038Y-88642723D01*
X139162724Y-88526743D01*
X139162721Y-88526742D01*
X139162718Y-88526740D01*
X139162712Y-88526738D01*
X139162710Y-88526737D01*
X138932226Y-88447611D01*
X138691849Y-88407500D01*
X138448151Y-88407500D01*
X138207773Y-88447611D01*
X137977289Y-88526737D01*
X137977275Y-88526743D01*
X137762961Y-88642723D01*
X137762952Y-88642729D01*
X137570650Y-88792404D01*
X137570647Y-88792407D01*
X137405593Y-88971703D01*
X137405590Y-88971707D01*
X137272301Y-89175719D01*
X137174408Y-89398893D01*
X137114584Y-89635133D01*
X137114582Y-89635141D01*
X137094460Y-89877993D01*
X137094460Y-89878006D01*
X122314699Y-89878006D01*
X122314699Y-89878000D01*
X122295927Y-89639480D01*
X122240075Y-89406839D01*
X122148518Y-89185800D01*
X122096846Y-89101481D01*
X121320330Y-89877999D01*
X121320330Y-89878000D01*
X121290000Y-89878000D01*
X121290000Y-89806111D01*
X121249493Y-89668156D01*
X121171761Y-89547202D01*
X121063100Y-89453048D01*
X120932315Y-89393320D01*
X120825763Y-89378000D01*
X120754237Y-89378000D01*
X120647685Y-89393320D01*
X120516900Y-89453048D01*
X120408239Y-89547202D01*
X120330507Y-89668156D01*
X120290000Y-89806111D01*
X120290000Y-89949889D01*
X120187781Y-89949889D01*
X120259670Y-89878000D01*
X120259670Y-89877999D01*
X119483152Y-89101481D01*
X119431481Y-89185802D01*
X119431478Y-89185808D01*
X119339924Y-89406839D01*
X119284072Y-89639480D01*
X119265300Y-89878000D01*
X116980500Y-89878000D01*
X116980500Y-88571152D01*
X120013481Y-88571152D01*
X120790000Y-89347670D01*
X120790001Y-89347670D01*
X121566517Y-88571152D01*
X121482199Y-88519481D01*
X121261160Y-88427924D01*
X121028519Y-88372072D01*
X120790000Y-88353300D01*
X120551480Y-88372072D01*
X120318839Y-88427924D01*
X120097808Y-88519478D01*
X120097802Y-88519481D01*
X120013481Y-88571152D01*
X116980500Y-88571152D01*
X116980500Y-87830599D01*
X148680729Y-87830599D01*
X148707235Y-87844766D01*
X148905165Y-87904808D01*
X149111000Y-87925080D01*
X149316834Y-87904808D01*
X149514763Y-87844767D01*
X149541268Y-87830598D01*
X149541269Y-87830598D01*
X149111001Y-87400330D01*
X149111000Y-87400330D01*
X148680729Y-87830599D01*
X116980500Y-87830599D01*
X116980500Y-86870000D01*
X148055919Y-86870000D01*
X148076191Y-87075833D01*
X148136234Y-87273765D01*
X148150400Y-87300268D01*
X148150401Y-87300269D01*
X148580670Y-86870000D01*
X148706014Y-86870000D01*
X148725835Y-86995148D01*
X148783359Y-87108045D01*
X148872955Y-87197641D01*
X148985852Y-87255165D01*
X149079519Y-87270000D01*
X149142481Y-87270000D01*
X149236148Y-87255165D01*
X149349045Y-87197641D01*
X149438641Y-87108045D01*
X149496165Y-86995148D01*
X149515986Y-86870001D01*
X149641330Y-86870001D01*
X150071598Y-87300269D01*
X150071598Y-87300268D01*
X150085767Y-87273763D01*
X150106626Y-87205000D01*
X153408743Y-87205000D01*
X153464315Y-87309820D01*
X153464314Y-87309820D01*
X153584008Y-87450734D01*
X153731195Y-87562622D01*
X153898992Y-87640254D01*
X153898996Y-87640256D01*
X154079556Y-87679999D01*
X154079560Y-87680000D01*
X154197000Y-87680000D01*
X154197000Y-87205000D01*
X153408743Y-87205000D01*
X150106626Y-87205000D01*
X150145808Y-87075834D01*
X150166080Y-86870000D01*
X150162141Y-86830000D01*
X154167014Y-86830000D01*
X154186835Y-86955148D01*
X154244359Y-87068045D01*
X154333955Y-87157641D01*
X154446852Y-87215165D01*
X154540519Y-87230000D01*
X154603481Y-87230000D01*
X154697148Y-87215165D01*
X154717098Y-87205000D01*
X154947000Y-87205000D01*
X154947000Y-87680000D01*
X155018079Y-87680000D01*
X155018085Y-87679999D01*
X155155800Y-87665022D01*
X155155804Y-87665021D01*
X155331011Y-87605986D01*
X155489430Y-87510669D01*
X155623659Y-87383521D01*
X155727413Y-87230493D01*
X155727415Y-87230490D01*
X155737571Y-87205000D01*
X154947000Y-87205000D01*
X154717098Y-87205000D01*
X154810045Y-87157641D01*
X154899641Y-87068045D01*
X154957165Y-86955148D01*
X154976986Y-86830003D01*
X178766435Y-86830003D01*
X178786630Y-87009249D01*
X178786631Y-87009254D01*
X178846211Y-87179523D01*
X178905428Y-87273765D01*
X178942184Y-87332262D01*
X179069738Y-87459816D01*
X179222478Y-87555789D01*
X179242006Y-87562622D01*
X179392745Y-87615368D01*
X179392750Y-87615369D01*
X179483246Y-87625565D01*
X179527040Y-87630499D01*
X179527043Y-87630500D01*
X179527046Y-87630500D01*
X180416957Y-87630500D01*
X180416958Y-87630499D01*
X180484104Y-87622934D01*
X180551249Y-87615369D01*
X180551252Y-87615368D01*
X180551255Y-87615368D01*
X180721522Y-87555789D01*
X180874262Y-87459816D01*
X181001816Y-87332262D01*
X181097789Y-87179522D01*
X181157368Y-87009255D01*
X181157369Y-87009249D01*
X181177565Y-86830003D01*
X181177565Y-86829996D01*
X181157369Y-86650750D01*
X181157368Y-86650745D01*
X181105445Y-86502359D01*
X181097789Y-86480478D01*
X181081779Y-86454999D01*
X181058582Y-86418080D01*
X181001816Y-86327738D01*
X180874262Y-86200184D01*
X180853407Y-86187080D01*
X180721523Y-86104211D01*
X180551254Y-86044631D01*
X180551249Y-86044630D01*
X180416960Y-86029500D01*
X180416954Y-86029500D01*
X179527046Y-86029500D01*
X179527039Y-86029500D01*
X179392750Y-86044630D01*
X179392745Y-86044631D01*
X179222476Y-86104211D01*
X179069737Y-86200184D01*
X178942184Y-86327737D01*
X178846211Y-86480476D01*
X178786631Y-86650745D01*
X178786630Y-86650750D01*
X178766435Y-86829996D01*
X178766435Y-86830003D01*
X154976986Y-86830003D01*
X154976986Y-86830000D01*
X154957165Y-86704852D01*
X154899641Y-86591955D01*
X154810045Y-86502359D01*
X154697148Y-86444835D01*
X154603481Y-86430000D01*
X154540519Y-86430000D01*
X154446852Y-86444835D01*
X154333955Y-86502359D01*
X154244359Y-86591955D01*
X154186835Y-86704852D01*
X154167014Y-86830000D01*
X150162141Y-86830000D01*
X150145808Y-86664165D01*
X150085766Y-86466235D01*
X150079760Y-86454999D01*
X153406428Y-86454999D01*
X153406429Y-86455000D01*
X154197000Y-86455000D01*
X154197000Y-85980000D01*
X154947000Y-85980000D01*
X154947000Y-86455000D01*
X155735257Y-86455000D01*
X155735257Y-86454999D01*
X155679684Y-86350179D01*
X155679685Y-86350179D01*
X155559991Y-86209265D01*
X155412804Y-86097377D01*
X155245007Y-86019745D01*
X155245003Y-86019743D01*
X155064443Y-85980000D01*
X154947000Y-85980000D01*
X154197000Y-85980000D01*
X154125914Y-85980000D01*
X153988199Y-85994977D01*
X153988195Y-85994978D01*
X153812988Y-86054013D01*
X153654569Y-86149330D01*
X153520340Y-86276478D01*
X153416586Y-86429506D01*
X153416584Y-86429509D01*
X153406428Y-86454999D01*
X150079760Y-86454999D01*
X150071599Y-86439730D01*
X149641330Y-86869999D01*
X149641330Y-86870001D01*
X149515986Y-86870001D01*
X149515986Y-86870000D01*
X149496165Y-86744852D01*
X149438641Y-86631955D01*
X149349045Y-86542359D01*
X149236148Y-86484835D01*
X149142481Y-86470000D01*
X149079519Y-86470000D01*
X148985852Y-86484835D01*
X148872955Y-86542359D01*
X148783359Y-86631955D01*
X148725835Y-86744852D01*
X148706014Y-86870000D01*
X148580670Y-86870000D01*
X148580670Y-86869999D01*
X148150401Y-86439730D01*
X148150400Y-86439730D01*
X148136231Y-86466239D01*
X148076191Y-86664165D01*
X148055919Y-86870000D01*
X116980500Y-86870000D01*
X116980500Y-86092599D01*
X142838729Y-86092599D01*
X142865235Y-86106766D01*
X143063165Y-86166808D01*
X143269000Y-86187080D01*
X143474834Y-86166808D01*
X143672763Y-86106767D01*
X143699268Y-86092598D01*
X143699269Y-86092598D01*
X143516072Y-85909401D01*
X148680730Y-85909401D01*
X149111000Y-86339670D01*
X149111001Y-86339670D01*
X149541269Y-85909401D01*
X149541268Y-85909400D01*
X149514765Y-85895234D01*
X149316833Y-85835191D01*
X149111000Y-85814919D01*
X148905165Y-85835191D01*
X148707239Y-85895231D01*
X148680730Y-85909400D01*
X148680730Y-85909401D01*
X143516072Y-85909401D01*
X143269001Y-85662330D01*
X143269000Y-85662330D01*
X142838729Y-86092599D01*
X116980500Y-86092599D01*
X116980500Y-85132000D01*
X142213919Y-85132000D01*
X142234191Y-85337833D01*
X142294234Y-85535765D01*
X142308400Y-85562268D01*
X142308401Y-85562269D01*
X142738670Y-85132000D01*
X142864014Y-85132000D01*
X142883835Y-85257148D01*
X142941359Y-85370045D01*
X143030955Y-85459641D01*
X143143852Y-85517165D01*
X143237519Y-85532000D01*
X143300481Y-85532000D01*
X143394148Y-85517165D01*
X143507045Y-85459641D01*
X143596641Y-85370045D01*
X143654165Y-85257148D01*
X143673986Y-85132000D01*
X143799330Y-85132000D01*
X144229598Y-85562268D01*
X144243767Y-85535763D01*
X144303808Y-85337834D01*
X144324080Y-85132000D01*
X144303808Y-84926165D01*
X144243766Y-84728235D01*
X144229599Y-84701730D01*
X143799330Y-85131999D01*
X143799330Y-85132000D01*
X143673986Y-85132000D01*
X143654165Y-85006852D01*
X143596641Y-84893955D01*
X143507045Y-84804359D01*
X143394148Y-84746835D01*
X143300481Y-84732000D01*
X143237519Y-84732000D01*
X143143852Y-84746835D01*
X143030955Y-84804359D01*
X142941359Y-84893955D01*
X142883835Y-85006852D01*
X142864014Y-85132000D01*
X142738670Y-85132000D01*
X142738670Y-85131999D01*
X142308401Y-84701730D01*
X142308400Y-84701730D01*
X142294231Y-84728239D01*
X142234191Y-84926165D01*
X142213919Y-85132000D01*
X116980500Y-85132000D01*
X116980500Y-84171401D01*
X142838730Y-84171401D01*
X143269000Y-84601670D01*
X143269001Y-84601670D01*
X143580667Y-84290003D01*
X153366435Y-84290003D01*
X153386630Y-84469249D01*
X153386631Y-84469254D01*
X153446211Y-84639523D01*
X153504319Y-84732000D01*
X153542184Y-84792262D01*
X153669738Y-84919816D01*
X153822478Y-85015789D01*
X153992745Y-85075368D01*
X153992750Y-85075369D01*
X154083246Y-85085565D01*
X154127040Y-85090499D01*
X154127043Y-85090500D01*
X154127046Y-85090500D01*
X155016957Y-85090500D01*
X155016958Y-85090499D01*
X155084104Y-85082934D01*
X155151249Y-85075369D01*
X155151252Y-85075368D01*
X155151255Y-85075368D01*
X155321522Y-85015789D01*
X155474262Y-84919816D01*
X155601816Y-84792262D01*
X155697789Y-84639522D01*
X155757368Y-84469255D01*
X155777565Y-84290003D01*
X178766435Y-84290003D01*
X178786630Y-84469249D01*
X178786631Y-84469254D01*
X178846211Y-84639523D01*
X178904319Y-84732000D01*
X178942184Y-84792262D01*
X179069738Y-84919816D01*
X179222478Y-85015789D01*
X179392745Y-85075368D01*
X179392750Y-85075369D01*
X179483246Y-85085565D01*
X179527040Y-85090499D01*
X179527043Y-85090500D01*
X179527046Y-85090500D01*
X180416957Y-85090500D01*
X180416958Y-85090499D01*
X180484104Y-85082934D01*
X180551249Y-85075369D01*
X180551252Y-85075368D01*
X180551255Y-85075368D01*
X180721522Y-85015789D01*
X180874262Y-84919816D01*
X181001816Y-84792262D01*
X181097789Y-84639522D01*
X181157368Y-84469255D01*
X181177565Y-84290000D01*
X181164202Y-84171401D01*
X181157369Y-84110750D01*
X181157368Y-84110745D01*
X181097788Y-83940476D01*
X181001815Y-83787737D01*
X180874262Y-83660184D01*
X180721523Y-83564211D01*
X180551254Y-83504631D01*
X180551249Y-83504630D01*
X180416960Y-83489500D01*
X180416954Y-83489500D01*
X179527046Y-83489500D01*
X179527039Y-83489500D01*
X179392750Y-83504630D01*
X179392745Y-83504631D01*
X179222476Y-83564211D01*
X179069737Y-83660184D01*
X178942184Y-83787737D01*
X178846211Y-83940476D01*
X178786631Y-84110745D01*
X178786630Y-84110750D01*
X178766435Y-84289996D01*
X178766435Y-84290003D01*
X155777565Y-84290003D01*
X155777565Y-84290000D01*
X155764202Y-84171401D01*
X155757369Y-84110750D01*
X155757368Y-84110745D01*
X155697788Y-83940476D01*
X155601815Y-83787737D01*
X155474262Y-83660184D01*
X155321523Y-83564211D01*
X155151254Y-83504631D01*
X155151249Y-83504630D01*
X155016960Y-83489500D01*
X155016954Y-83489500D01*
X154127046Y-83489500D01*
X154127039Y-83489500D01*
X153992750Y-83504630D01*
X153992745Y-83504631D01*
X153822476Y-83564211D01*
X153669737Y-83660184D01*
X153542184Y-83787737D01*
X153446211Y-83940476D01*
X153386631Y-84110745D01*
X153386630Y-84110750D01*
X153366435Y-84289996D01*
X153366435Y-84290003D01*
X143580667Y-84290003D01*
X143699269Y-84171401D01*
X143699268Y-84171400D01*
X143672765Y-84157234D01*
X143474833Y-84097191D01*
X143269000Y-84076919D01*
X143063165Y-84097191D01*
X142865239Y-84157231D01*
X142838730Y-84171400D01*
X142838730Y-84171401D01*
X116980500Y-84171401D01*
X116980500Y-82512000D01*
X140993659Y-82512000D01*
X141012975Y-82708129D01*
X141070188Y-82896733D01*
X141163086Y-83070532D01*
X141163090Y-83070539D01*
X141288116Y-83222883D01*
X141440460Y-83347909D01*
X141440467Y-83347913D01*
X141614266Y-83440811D01*
X141614269Y-83440811D01*
X141614273Y-83440814D01*
X141802868Y-83498024D01*
X141999000Y-83517341D01*
X142195132Y-83498024D01*
X142383727Y-83440814D01*
X142557538Y-83347910D01*
X142709883Y-83222883D01*
X142834910Y-83070538D01*
X142927814Y-82896727D01*
X142985024Y-82708132D01*
X143004341Y-82512000D01*
X151153659Y-82512000D01*
X151172975Y-82708129D01*
X151230188Y-82896733D01*
X151323086Y-83070532D01*
X151323090Y-83070539D01*
X151448116Y-83222883D01*
X151600460Y-83347909D01*
X151600467Y-83347913D01*
X151774266Y-83440811D01*
X151774269Y-83440811D01*
X151774273Y-83440814D01*
X151962868Y-83498024D01*
X152159000Y-83517341D01*
X152355132Y-83498024D01*
X152543727Y-83440814D01*
X152717538Y-83347910D01*
X152869883Y-83222883D01*
X152994910Y-83070538D01*
X153087814Y-82896727D01*
X153145024Y-82708132D01*
X153164341Y-82512000D01*
X153145024Y-82315868D01*
X153087814Y-82127273D01*
X153087811Y-82127269D01*
X153087811Y-82127266D01*
X152994913Y-81953467D01*
X152994909Y-81953460D01*
X152869883Y-81801116D01*
X152807602Y-81750003D01*
X153366435Y-81750003D01*
X153386630Y-81929249D01*
X153386631Y-81929254D01*
X153446211Y-82099523D01*
X153463648Y-82127273D01*
X153542184Y-82252262D01*
X153669738Y-82379816D01*
X153822478Y-82475789D01*
X153925963Y-82512000D01*
X153992745Y-82535368D01*
X153992750Y-82535369D01*
X154083246Y-82545565D01*
X154127040Y-82550499D01*
X154127043Y-82550500D01*
X154127046Y-82550500D01*
X155016957Y-82550500D01*
X155016958Y-82550499D01*
X155084104Y-82542934D01*
X155151249Y-82535369D01*
X155151252Y-82535368D01*
X155151255Y-82535368D01*
X155321522Y-82475789D01*
X155474262Y-82379816D01*
X155601816Y-82252262D01*
X155697789Y-82099522D01*
X155757368Y-81929255D01*
X155777565Y-81750003D01*
X178766435Y-81750003D01*
X178786630Y-81929249D01*
X178786631Y-81929254D01*
X178846211Y-82099523D01*
X178863648Y-82127273D01*
X178942184Y-82252262D01*
X179069738Y-82379816D01*
X179222478Y-82475789D01*
X179325963Y-82512000D01*
X179392745Y-82535368D01*
X179392750Y-82535369D01*
X179483246Y-82545565D01*
X179527040Y-82550499D01*
X179527043Y-82550500D01*
X179527046Y-82550500D01*
X180416957Y-82550500D01*
X180416958Y-82550499D01*
X180484104Y-82542934D01*
X180551249Y-82535369D01*
X180551252Y-82535368D01*
X180551255Y-82535368D01*
X180721522Y-82475789D01*
X180874262Y-82379816D01*
X181001816Y-82252262D01*
X181097789Y-82099522D01*
X181157368Y-81929255D01*
X181177565Y-81750000D01*
X181169237Y-81676090D01*
X181157369Y-81570750D01*
X181157368Y-81570745D01*
X181097788Y-81400476D01*
X181001815Y-81247737D01*
X180874262Y-81120184D01*
X180721523Y-81024211D01*
X180551254Y-80964631D01*
X180551249Y-80964630D01*
X180416960Y-80949500D01*
X180416954Y-80949500D01*
X179527046Y-80949500D01*
X179527039Y-80949500D01*
X179392750Y-80964630D01*
X179392745Y-80964631D01*
X179222476Y-81024211D01*
X179069737Y-81120184D01*
X178942184Y-81247737D01*
X178846211Y-81400476D01*
X178786631Y-81570745D01*
X178786630Y-81570750D01*
X178766435Y-81749996D01*
X178766435Y-81750003D01*
X155777565Y-81750003D01*
X155777565Y-81750000D01*
X155769237Y-81676090D01*
X155757369Y-81570750D01*
X155757368Y-81570745D01*
X155697788Y-81400476D01*
X155601815Y-81247737D01*
X155474262Y-81120184D01*
X155321523Y-81024211D01*
X155151254Y-80964631D01*
X155151249Y-80964630D01*
X155016960Y-80949500D01*
X155016954Y-80949500D01*
X154127046Y-80949500D01*
X154127039Y-80949500D01*
X153992750Y-80964630D01*
X153992745Y-80964631D01*
X153822476Y-81024211D01*
X153669737Y-81120184D01*
X153542184Y-81247737D01*
X153446211Y-81400476D01*
X153386631Y-81570745D01*
X153386630Y-81570750D01*
X153366435Y-81749996D01*
X153366435Y-81750003D01*
X152807602Y-81750003D01*
X152717539Y-81676090D01*
X152717532Y-81676086D01*
X152543733Y-81583188D01*
X152543727Y-81583186D01*
X152355132Y-81525976D01*
X152355129Y-81525975D01*
X152159000Y-81506659D01*
X151962870Y-81525975D01*
X151774266Y-81583188D01*
X151600467Y-81676086D01*
X151600460Y-81676090D01*
X151448116Y-81801116D01*
X151323090Y-81953460D01*
X151323086Y-81953467D01*
X151230188Y-82127266D01*
X151172975Y-82315870D01*
X151153659Y-82512000D01*
X143004341Y-82512000D01*
X142985024Y-82315868D01*
X142927814Y-82127273D01*
X142927811Y-82127269D01*
X142927811Y-82127266D01*
X142834913Y-81953467D01*
X142834909Y-81953460D01*
X142709883Y-81801116D01*
X142557539Y-81676090D01*
X142557532Y-81676086D01*
X142383733Y-81583188D01*
X142383727Y-81583186D01*
X142195132Y-81525976D01*
X142195129Y-81525975D01*
X141999000Y-81506659D01*
X141802870Y-81525975D01*
X141614266Y-81583188D01*
X141440467Y-81676086D01*
X141440460Y-81676090D01*
X141288116Y-81801116D01*
X141163090Y-81953460D01*
X141163086Y-81953467D01*
X141070188Y-82127266D01*
X141012975Y-82315870D01*
X140993659Y-82512000D01*
X116980500Y-82512000D01*
X116980500Y-79331000D01*
X141015507Y-79331000D01*
X141024232Y-79359763D01*
X141121728Y-79542166D01*
X141121732Y-79542173D01*
X141252944Y-79702055D01*
X141412826Y-79833267D01*
X141412833Y-79833271D01*
X141595233Y-79930765D01*
X141595236Y-79930766D01*
X141624000Y-79939491D01*
X141624000Y-79331000D01*
X141015507Y-79331000D01*
X116980500Y-79331000D01*
X116980500Y-78956000D01*
X141594014Y-78956000D01*
X141613835Y-79081148D01*
X141671359Y-79194045D01*
X141760955Y-79283641D01*
X141873852Y-79341165D01*
X141967519Y-79356000D01*
X142030481Y-79356000D01*
X142124148Y-79341165D01*
X142144098Y-79331000D01*
X142374000Y-79331000D01*
X142374000Y-79939490D01*
X142402763Y-79930766D01*
X142402766Y-79930765D01*
X142585166Y-79833271D01*
X142585173Y-79833267D01*
X142745055Y-79702055D01*
X142876267Y-79542173D01*
X142876271Y-79542166D01*
X142973767Y-79359763D01*
X142982493Y-79331000D01*
X142374000Y-79331000D01*
X142144098Y-79331000D01*
X142237045Y-79283641D01*
X142326641Y-79194045D01*
X142384165Y-79081148D01*
X142403986Y-78956000D01*
X151153659Y-78956000D01*
X151172975Y-79152129D01*
X151230188Y-79340733D01*
X151323086Y-79514532D01*
X151323090Y-79514539D01*
X151448116Y-79666883D01*
X151600460Y-79791909D01*
X151600467Y-79791913D01*
X151774266Y-79884811D01*
X151774269Y-79884811D01*
X151774273Y-79884814D01*
X151962868Y-79942024D01*
X152159000Y-79961341D01*
X152355132Y-79942024D01*
X152543727Y-79884814D01*
X152717538Y-79791910D01*
X152869883Y-79666883D01*
X152994910Y-79514538D01*
X153087814Y-79340727D01*
X153127161Y-79211015D01*
X153165456Y-79152581D01*
X153229269Y-79124125D01*
X153298336Y-79134685D01*
X153350729Y-79180909D01*
X153369040Y-79233131D01*
X153386630Y-79389250D01*
X153386631Y-79389254D01*
X153446211Y-79559523D01*
X153542184Y-79712262D01*
X153669738Y-79839816D01*
X153822478Y-79935789D01*
X153992745Y-79995368D01*
X153992750Y-79995369D01*
X154083246Y-80005565D01*
X154127040Y-80010499D01*
X154127043Y-80010500D01*
X154127046Y-80010500D01*
X155016957Y-80010500D01*
X155016958Y-80010499D01*
X155084104Y-80002934D01*
X155151249Y-79995369D01*
X155151252Y-79995368D01*
X155151255Y-79995368D01*
X155321522Y-79935789D01*
X155474262Y-79839816D01*
X155601816Y-79712262D01*
X155697789Y-79559522D01*
X155757368Y-79389255D01*
X155761115Y-79356000D01*
X155777565Y-79210003D01*
X178766435Y-79210003D01*
X178786630Y-79389249D01*
X178786631Y-79389254D01*
X178846211Y-79559523D01*
X178942184Y-79712262D01*
X179069738Y-79839816D01*
X179222478Y-79935789D01*
X179392745Y-79995368D01*
X179392750Y-79995369D01*
X179483246Y-80005565D01*
X179527040Y-80010499D01*
X179527043Y-80010500D01*
X179527046Y-80010500D01*
X180416957Y-80010500D01*
X180416958Y-80010499D01*
X180484104Y-80002934D01*
X180551249Y-79995369D01*
X180551252Y-79995368D01*
X180551255Y-79995368D01*
X180721522Y-79935789D01*
X180874262Y-79839816D01*
X181001816Y-79712262D01*
X181097789Y-79559522D01*
X181157368Y-79389255D01*
X181161115Y-79356000D01*
X181177565Y-79210003D01*
X181177565Y-79209996D01*
X181157369Y-79030750D01*
X181157368Y-79030745D01*
X181139670Y-78980167D01*
X181097789Y-78860478D01*
X181001816Y-78707738D01*
X180874262Y-78580184D01*
X180859383Y-78570835D01*
X180721523Y-78484211D01*
X180551254Y-78424631D01*
X180551249Y-78424630D01*
X180416960Y-78409500D01*
X180416954Y-78409500D01*
X179527046Y-78409500D01*
X179527039Y-78409500D01*
X179392750Y-78424630D01*
X179392745Y-78424631D01*
X179222476Y-78484211D01*
X179069737Y-78580184D01*
X178942184Y-78707737D01*
X178846211Y-78860476D01*
X178786631Y-79030745D01*
X178786630Y-79030750D01*
X178766435Y-79209996D01*
X178766435Y-79210003D01*
X155777565Y-79210003D01*
X155777565Y-79209996D01*
X155757369Y-79030750D01*
X155757368Y-79030745D01*
X155739670Y-78980167D01*
X155697789Y-78860478D01*
X155601816Y-78707738D01*
X155474262Y-78580184D01*
X155459383Y-78570835D01*
X155321523Y-78484211D01*
X155151254Y-78424631D01*
X155151249Y-78424630D01*
X155016960Y-78409500D01*
X155016954Y-78409500D01*
X154127046Y-78409500D01*
X154127039Y-78409500D01*
X153992750Y-78424630D01*
X153992745Y-78424631D01*
X153822476Y-78484211D01*
X153669737Y-78580184D01*
X153542184Y-78707737D01*
X153446208Y-78860480D01*
X153404328Y-78980167D01*
X153363606Y-79036943D01*
X153298653Y-79062690D01*
X153230092Y-79049233D01*
X153179689Y-79000846D01*
X153163884Y-78951368D01*
X153145024Y-78759868D01*
X153087814Y-78571273D01*
X153087811Y-78571269D01*
X153087811Y-78571266D01*
X152994913Y-78397467D01*
X152994909Y-78397460D01*
X152869883Y-78245116D01*
X152717539Y-78120090D01*
X152717532Y-78120086D01*
X152543733Y-78027188D01*
X152543727Y-78027186D01*
X152392238Y-77981232D01*
X152355129Y-77969975D01*
X152159000Y-77950659D01*
X151962870Y-77969975D01*
X151774266Y-78027188D01*
X151600467Y-78120086D01*
X151600460Y-78120090D01*
X151448116Y-78245116D01*
X151323090Y-78397460D01*
X151323086Y-78397467D01*
X151230188Y-78571266D01*
X151172975Y-78759870D01*
X151153659Y-78956000D01*
X142403986Y-78956000D01*
X142384165Y-78830852D01*
X142326641Y-78717955D01*
X142237045Y-78628359D01*
X142124148Y-78570835D01*
X142030481Y-78556000D01*
X141967519Y-78556000D01*
X141873852Y-78570835D01*
X141760955Y-78628359D01*
X141671359Y-78717955D01*
X141613835Y-78830852D01*
X141594014Y-78956000D01*
X116980500Y-78956000D01*
X116980500Y-78581000D01*
X141015506Y-78581000D01*
X141624000Y-78581000D01*
X141624000Y-77972506D01*
X142374000Y-77972506D01*
X142374000Y-78581000D01*
X142982493Y-78581000D01*
X142973767Y-78552236D01*
X142876271Y-78369833D01*
X142876267Y-78369826D01*
X142745055Y-78209944D01*
X142585173Y-78078732D01*
X142585166Y-78078728D01*
X142402763Y-77981232D01*
X142374000Y-77972506D01*
X141624000Y-77972506D01*
X141595236Y-77981232D01*
X141412833Y-78078728D01*
X141412826Y-78078732D01*
X141252944Y-78209944D01*
X141121732Y-78369826D01*
X141121728Y-78369833D01*
X141024232Y-78552236D01*
X141015506Y-78581000D01*
X116980500Y-78581000D01*
X116980500Y-76289000D01*
X144041659Y-76289000D01*
X144060975Y-76485129D01*
X144060976Y-76485132D01*
X144117056Y-76670003D01*
X144118188Y-76673733D01*
X144211086Y-76847532D01*
X144211090Y-76847539D01*
X144336116Y-76999883D01*
X144488460Y-77124909D01*
X144488467Y-77124913D01*
X144662266Y-77217811D01*
X144662269Y-77217811D01*
X144662273Y-77217814D01*
X144850868Y-77275024D01*
X145047000Y-77294341D01*
X145243132Y-77275024D01*
X145431727Y-77217814D01*
X145605538Y-77124910D01*
X145757883Y-76999883D01*
X145882910Y-76847538D01*
X145975814Y-76673727D01*
X146033024Y-76485132D01*
X146052341Y-76289000D01*
X149756659Y-76289000D01*
X149775975Y-76485129D01*
X149775976Y-76485132D01*
X149832056Y-76670003D01*
X149833188Y-76673733D01*
X149926086Y-76847532D01*
X149926090Y-76847539D01*
X150051116Y-76999883D01*
X150203460Y-77124909D01*
X150203467Y-77124913D01*
X150377266Y-77217811D01*
X150377269Y-77217811D01*
X150377273Y-77217814D01*
X150565868Y-77275024D01*
X150762000Y-77294341D01*
X150958132Y-77275024D01*
X151146727Y-77217814D01*
X151320538Y-77124910D01*
X151472883Y-76999883D01*
X151597910Y-76847538D01*
X151690814Y-76673727D01*
X151691944Y-76670003D01*
X153366435Y-76670003D01*
X153386630Y-76849249D01*
X153386631Y-76849254D01*
X153446211Y-77019523D01*
X153542184Y-77172262D01*
X153669738Y-77299816D01*
X153822478Y-77395789D01*
X153992745Y-77455368D01*
X153992750Y-77455369D01*
X154083246Y-77465565D01*
X154127040Y-77470499D01*
X154127043Y-77470500D01*
X154127046Y-77470500D01*
X155016957Y-77470500D01*
X155016958Y-77470499D01*
X155084104Y-77462934D01*
X155151249Y-77455369D01*
X155151252Y-77455368D01*
X155151255Y-77455368D01*
X155321522Y-77395789D01*
X155474262Y-77299816D01*
X155601816Y-77172262D01*
X155697789Y-77019522D01*
X155757368Y-76849255D01*
X155757369Y-76849249D01*
X155777565Y-76670003D01*
X178766435Y-76670003D01*
X178786630Y-76849249D01*
X178786631Y-76849254D01*
X178846211Y-77019523D01*
X178942184Y-77172262D01*
X179069738Y-77299816D01*
X179222478Y-77395789D01*
X179392745Y-77455368D01*
X179392750Y-77455369D01*
X179483246Y-77465565D01*
X179527040Y-77470499D01*
X179527043Y-77470500D01*
X179527046Y-77470500D01*
X180416957Y-77470500D01*
X180416958Y-77470499D01*
X180484104Y-77462934D01*
X180551249Y-77455369D01*
X180551252Y-77455368D01*
X180551255Y-77455368D01*
X180721522Y-77395789D01*
X180874262Y-77299816D01*
X181001816Y-77172262D01*
X181097789Y-77019522D01*
X181157368Y-76849255D01*
X181157369Y-76849249D01*
X181177565Y-76670003D01*
X181177565Y-76669996D01*
X181157369Y-76490750D01*
X181157368Y-76490745D01*
X181097788Y-76320476D01*
X181001815Y-76167737D01*
X180874262Y-76040184D01*
X180721523Y-75944211D01*
X180551254Y-75884631D01*
X180551249Y-75884630D01*
X180416960Y-75869500D01*
X180416954Y-75869500D01*
X179527046Y-75869500D01*
X179527039Y-75869500D01*
X179392750Y-75884630D01*
X179392745Y-75884631D01*
X179222476Y-75944211D01*
X179069737Y-76040184D01*
X178942184Y-76167737D01*
X178846211Y-76320476D01*
X178786631Y-76490745D01*
X178786630Y-76490750D01*
X178766435Y-76669996D01*
X178766435Y-76670003D01*
X155777565Y-76670003D01*
X155777565Y-76669996D01*
X155757369Y-76490750D01*
X155757368Y-76490745D01*
X155697788Y-76320476D01*
X155601815Y-76167737D01*
X155474262Y-76040184D01*
X155321523Y-75944211D01*
X155151254Y-75884631D01*
X155151249Y-75884630D01*
X155016960Y-75869500D01*
X155016954Y-75869500D01*
X154127046Y-75869500D01*
X154127039Y-75869500D01*
X153992750Y-75884630D01*
X153992745Y-75884631D01*
X153822476Y-75944211D01*
X153669737Y-76040184D01*
X153542184Y-76167737D01*
X153446211Y-76320476D01*
X153386631Y-76490745D01*
X153386630Y-76490750D01*
X153366435Y-76669996D01*
X153366435Y-76670003D01*
X151691944Y-76670003D01*
X151748024Y-76485132D01*
X151767341Y-76289000D01*
X151748024Y-76092868D01*
X151690814Y-75904273D01*
X151690811Y-75904269D01*
X151690811Y-75904266D01*
X151597913Y-75730467D01*
X151597909Y-75730460D01*
X151472883Y-75578116D01*
X151320539Y-75453090D01*
X151320532Y-75453086D01*
X151146733Y-75360188D01*
X151146727Y-75360186D01*
X150958132Y-75302976D01*
X150958129Y-75302975D01*
X150762000Y-75283659D01*
X150565870Y-75302975D01*
X150377266Y-75360188D01*
X150203467Y-75453086D01*
X150203460Y-75453090D01*
X150051116Y-75578116D01*
X149926090Y-75730460D01*
X149926086Y-75730467D01*
X149833188Y-75904266D01*
X149775975Y-76092870D01*
X149756659Y-76289000D01*
X146052341Y-76289000D01*
X146033024Y-76092868D01*
X145975814Y-75904273D01*
X145975811Y-75904269D01*
X145975811Y-75904266D01*
X145882913Y-75730467D01*
X145882909Y-75730460D01*
X145757883Y-75578116D01*
X145605539Y-75453090D01*
X145605532Y-75453086D01*
X145431733Y-75360188D01*
X145431727Y-75360186D01*
X145243132Y-75302976D01*
X145243129Y-75302975D01*
X145047000Y-75283659D01*
X144850870Y-75302975D01*
X144662266Y-75360188D01*
X144488467Y-75453086D01*
X144488460Y-75453090D01*
X144336116Y-75578116D01*
X144211090Y-75730460D01*
X144211086Y-75730467D01*
X144118188Y-75904266D01*
X144060975Y-76092870D01*
X144041659Y-76289000D01*
X116980500Y-76289000D01*
X116980500Y-74130003D01*
X153366435Y-74130003D01*
X153386630Y-74309249D01*
X153386631Y-74309254D01*
X153446211Y-74479523D01*
X153542184Y-74632262D01*
X153669738Y-74759816D01*
X153822478Y-74855789D01*
X153992745Y-74915368D01*
X153992750Y-74915369D01*
X154083246Y-74925565D01*
X154127040Y-74930499D01*
X154127043Y-74930500D01*
X154127046Y-74930500D01*
X155016957Y-74930500D01*
X155016958Y-74930499D01*
X155084104Y-74922934D01*
X155151249Y-74915369D01*
X155151252Y-74915368D01*
X155151255Y-74915368D01*
X155321522Y-74855789D01*
X155474262Y-74759816D01*
X155601816Y-74632262D01*
X155697789Y-74479522D01*
X155757368Y-74309255D01*
X155777565Y-74130003D01*
X178766435Y-74130003D01*
X178786630Y-74309249D01*
X178786631Y-74309254D01*
X178846211Y-74479523D01*
X178942184Y-74632262D01*
X179069738Y-74759816D01*
X179222478Y-74855789D01*
X179392745Y-74915368D01*
X179392750Y-74915369D01*
X179483246Y-74925565D01*
X179527040Y-74930499D01*
X179527043Y-74930500D01*
X179527046Y-74930500D01*
X180416957Y-74930500D01*
X180416958Y-74930499D01*
X180484104Y-74922934D01*
X180551249Y-74915369D01*
X180551252Y-74915368D01*
X180551255Y-74915368D01*
X180721522Y-74855789D01*
X180874262Y-74759816D01*
X181001816Y-74632262D01*
X181097789Y-74479522D01*
X181157368Y-74309255D01*
X181177565Y-74130000D01*
X181157368Y-73950745D01*
X181097789Y-73780478D01*
X181001816Y-73627738D01*
X180874262Y-73500184D01*
X180721523Y-73404211D01*
X180551254Y-73344631D01*
X180551249Y-73344630D01*
X180416960Y-73329500D01*
X180416954Y-73329500D01*
X179527046Y-73329500D01*
X179527039Y-73329500D01*
X179392750Y-73344630D01*
X179392745Y-73344631D01*
X179222476Y-73404211D01*
X179069737Y-73500184D01*
X178942184Y-73627737D01*
X178846211Y-73780476D01*
X178786631Y-73950745D01*
X178786630Y-73950750D01*
X178766435Y-74129996D01*
X178766435Y-74130003D01*
X155777565Y-74130003D01*
X155777565Y-74130000D01*
X155757368Y-73950745D01*
X155697789Y-73780478D01*
X155601816Y-73627738D01*
X155474262Y-73500184D01*
X155321523Y-73404211D01*
X155151254Y-73344631D01*
X155151249Y-73344630D01*
X155016960Y-73329500D01*
X155016954Y-73329500D01*
X154127046Y-73329500D01*
X154127039Y-73329500D01*
X153992750Y-73344630D01*
X153992745Y-73344631D01*
X153822476Y-73404211D01*
X153669737Y-73500184D01*
X153542184Y-73627737D01*
X153446211Y-73780476D01*
X153386631Y-73950745D01*
X153386630Y-73950750D01*
X153366435Y-74129996D01*
X153366435Y-74130003D01*
X116980500Y-74130003D01*
X116980500Y-71590003D01*
X153366435Y-71590003D01*
X153386630Y-71769249D01*
X153386631Y-71769254D01*
X153446211Y-71939523D01*
X153542184Y-72092262D01*
X153669738Y-72219816D01*
X153822478Y-72315789D01*
X153992745Y-72375368D01*
X153992750Y-72375369D01*
X154083246Y-72385565D01*
X154127040Y-72390499D01*
X154127043Y-72390500D01*
X154127046Y-72390500D01*
X155016957Y-72390500D01*
X155016958Y-72390499D01*
X155084104Y-72382934D01*
X155151249Y-72375369D01*
X155151252Y-72375368D01*
X155151255Y-72375368D01*
X155321522Y-72315789D01*
X155474262Y-72219816D01*
X155601816Y-72092262D01*
X155697789Y-71939522D01*
X155757368Y-71769255D01*
X155777565Y-71590003D01*
X178766435Y-71590003D01*
X178786630Y-71769249D01*
X178786631Y-71769254D01*
X178846211Y-71939523D01*
X178942184Y-72092262D01*
X179069738Y-72219816D01*
X179222478Y-72315789D01*
X179392745Y-72375368D01*
X179392750Y-72375369D01*
X179483246Y-72385565D01*
X179527040Y-72390499D01*
X179527043Y-72390500D01*
X179527046Y-72390500D01*
X180416957Y-72390500D01*
X180416958Y-72390499D01*
X180484104Y-72382934D01*
X180551249Y-72375369D01*
X180551252Y-72375368D01*
X180551255Y-72375368D01*
X180721522Y-72315789D01*
X180874262Y-72219816D01*
X181001816Y-72092262D01*
X181097789Y-71939522D01*
X181157368Y-71769255D01*
X181177565Y-71590000D01*
X181157368Y-71410745D01*
X181097789Y-71240478D01*
X181001816Y-71087738D01*
X180874262Y-70960184D01*
X180721523Y-70864211D01*
X180551254Y-70804631D01*
X180551249Y-70804630D01*
X180416960Y-70789500D01*
X180416954Y-70789500D01*
X179527046Y-70789500D01*
X179527039Y-70789500D01*
X179392750Y-70804630D01*
X179392745Y-70804631D01*
X179222476Y-70864211D01*
X179069737Y-70960184D01*
X178942184Y-71087737D01*
X178846211Y-71240476D01*
X178786631Y-71410745D01*
X178786630Y-71410750D01*
X178766435Y-71589996D01*
X178766435Y-71590003D01*
X155777565Y-71590003D01*
X155777565Y-71590000D01*
X155757368Y-71410745D01*
X155697789Y-71240478D01*
X155601816Y-71087738D01*
X155474262Y-70960184D01*
X155321523Y-70864211D01*
X155151254Y-70804631D01*
X155151249Y-70804630D01*
X155016960Y-70789500D01*
X155016954Y-70789500D01*
X154127046Y-70789500D01*
X154127039Y-70789500D01*
X153992750Y-70804630D01*
X153992745Y-70804631D01*
X153822476Y-70864211D01*
X153669737Y-70960184D01*
X153542184Y-71087737D01*
X153446211Y-71240476D01*
X153386631Y-71410745D01*
X153386630Y-71410750D01*
X153366435Y-71589996D01*
X153366435Y-71590003D01*
X116980500Y-71590003D01*
X116980500Y-69050003D01*
X153366435Y-69050003D01*
X153386630Y-69229249D01*
X153386631Y-69229254D01*
X153446211Y-69399523D01*
X153468607Y-69435165D01*
X153542184Y-69552262D01*
X153669738Y-69679816D01*
X153822478Y-69775789D01*
X153842006Y-69782622D01*
X153992745Y-69835368D01*
X153992750Y-69835369D01*
X154083246Y-69845565D01*
X154127040Y-69850499D01*
X154127043Y-69850500D01*
X154127046Y-69850500D01*
X155016957Y-69850500D01*
X155016958Y-69850499D01*
X155084104Y-69842934D01*
X155151249Y-69835369D01*
X155151252Y-69835368D01*
X155151255Y-69835368D01*
X155321522Y-69775789D01*
X155474262Y-69679816D01*
X155601816Y-69552262D01*
X155681780Y-69425000D01*
X178808743Y-69425000D01*
X178864315Y-69529820D01*
X178864314Y-69529820D01*
X178984008Y-69670734D01*
X179131195Y-69782622D01*
X179298992Y-69860254D01*
X179298996Y-69860256D01*
X179479556Y-69899999D01*
X179479560Y-69900000D01*
X179597000Y-69900000D01*
X179597000Y-69425000D01*
X178808743Y-69425000D01*
X155681780Y-69425000D01*
X155697789Y-69399522D01*
X155757368Y-69229255D01*
X155757369Y-69229249D01*
X155777565Y-69050003D01*
X155777565Y-69050000D01*
X179567014Y-69050000D01*
X179586835Y-69175148D01*
X179644359Y-69288045D01*
X179733955Y-69377641D01*
X179846852Y-69435165D01*
X179940519Y-69450000D01*
X180003481Y-69450000D01*
X180097148Y-69435165D01*
X180117098Y-69425000D01*
X180347000Y-69425000D01*
X180347000Y-69900000D01*
X180418079Y-69900000D01*
X180418085Y-69899999D01*
X180555800Y-69885022D01*
X180555804Y-69885021D01*
X180731011Y-69825986D01*
X180889430Y-69730669D01*
X181023659Y-69603521D01*
X181127413Y-69450493D01*
X181127415Y-69450490D01*
X181137571Y-69425000D01*
X180347000Y-69425000D01*
X180117098Y-69425000D01*
X180210045Y-69377641D01*
X180299641Y-69288045D01*
X180357165Y-69175148D01*
X180376986Y-69050000D01*
X180357165Y-68924852D01*
X180299641Y-68811955D01*
X180210045Y-68722359D01*
X180097148Y-68664835D01*
X180003481Y-68650000D01*
X179940519Y-68650000D01*
X179846852Y-68664835D01*
X179733955Y-68722359D01*
X179644359Y-68811955D01*
X179586835Y-68924852D01*
X179567014Y-69050000D01*
X155777565Y-69050000D01*
X155777565Y-69049996D01*
X155757369Y-68870750D01*
X155757368Y-68870745D01*
X155697788Y-68700476D01*
X155681780Y-68674999D01*
X178806428Y-68674999D01*
X178806429Y-68675000D01*
X179597000Y-68675000D01*
X179597000Y-68200000D01*
X180347000Y-68200000D01*
X180347000Y-68675000D01*
X181135257Y-68675000D01*
X181135257Y-68674999D01*
X181079684Y-68570179D01*
X181079685Y-68570179D01*
X180959991Y-68429265D01*
X180812804Y-68317377D01*
X180645007Y-68239745D01*
X180645003Y-68239743D01*
X180464443Y-68200000D01*
X180347000Y-68200000D01*
X179597000Y-68200000D01*
X179525914Y-68200000D01*
X179388199Y-68214977D01*
X179388195Y-68214978D01*
X179212988Y-68274013D01*
X179054569Y-68369330D01*
X178920340Y-68496478D01*
X178816586Y-68649506D01*
X178816584Y-68649509D01*
X178806428Y-68674999D01*
X155681780Y-68674999D01*
X155658582Y-68638080D01*
X155601816Y-68547738D01*
X155474262Y-68420184D01*
X155321523Y-68324211D01*
X155151254Y-68264631D01*
X155151249Y-68264630D01*
X155016960Y-68249500D01*
X155016954Y-68249500D01*
X154127046Y-68249500D01*
X154127039Y-68249500D01*
X153992750Y-68264630D01*
X153992745Y-68264631D01*
X153822476Y-68324211D01*
X153669737Y-68420184D01*
X153542184Y-68547737D01*
X153446211Y-68700476D01*
X153386631Y-68870745D01*
X153386630Y-68870750D01*
X153366435Y-69049996D01*
X153366435Y-69050003D01*
X116980500Y-69050003D01*
X116980500Y-66129000D01*
X144041659Y-66129000D01*
X144060975Y-66325129D01*
X144060976Y-66325132D01*
X144117056Y-66510003D01*
X144118188Y-66513733D01*
X144211086Y-66687532D01*
X144211090Y-66687539D01*
X144336116Y-66839883D01*
X144488460Y-66964909D01*
X144488467Y-66964913D01*
X144662266Y-67057811D01*
X144662269Y-67057811D01*
X144662273Y-67057814D01*
X144850868Y-67115024D01*
X145047000Y-67134341D01*
X145243132Y-67115024D01*
X145431727Y-67057814D01*
X145605538Y-66964910D01*
X145757883Y-66839883D01*
X145882910Y-66687538D01*
X145975814Y-66513727D01*
X146033024Y-66325132D01*
X146052341Y-66129000D01*
X149756659Y-66129000D01*
X149775975Y-66325129D01*
X149775976Y-66325132D01*
X149832056Y-66510003D01*
X149833188Y-66513733D01*
X149926086Y-66687532D01*
X149926090Y-66687539D01*
X150051116Y-66839883D01*
X150203460Y-66964909D01*
X150203467Y-66964913D01*
X150377266Y-67057811D01*
X150377269Y-67057811D01*
X150377273Y-67057814D01*
X150565868Y-67115024D01*
X150762000Y-67134341D01*
X150958132Y-67115024D01*
X151146727Y-67057814D01*
X151320538Y-66964910D01*
X151472883Y-66839883D01*
X151597910Y-66687538D01*
X151690814Y-66513727D01*
X151691944Y-66510003D01*
X153366435Y-66510003D01*
X153386630Y-66689249D01*
X153386631Y-66689254D01*
X153446211Y-66859523D01*
X153542184Y-67012262D01*
X153669738Y-67139816D01*
X153822478Y-67235789D01*
X153992745Y-67295368D01*
X153992750Y-67295369D01*
X154083246Y-67305565D01*
X154127040Y-67310499D01*
X154127043Y-67310500D01*
X154127046Y-67310500D01*
X155016957Y-67310500D01*
X155016958Y-67310499D01*
X155084104Y-67302934D01*
X155151249Y-67295369D01*
X155151252Y-67295368D01*
X155151255Y-67295368D01*
X155321522Y-67235789D01*
X155474262Y-67139816D01*
X155601816Y-67012262D01*
X155697789Y-66859522D01*
X155757368Y-66689255D01*
X155757369Y-66689249D01*
X155777565Y-66510003D01*
X178766435Y-66510003D01*
X178786630Y-66689249D01*
X178786631Y-66689254D01*
X178846211Y-66859523D01*
X178942184Y-67012262D01*
X179069738Y-67139816D01*
X179222478Y-67235789D01*
X179392745Y-67295368D01*
X179392750Y-67295369D01*
X179483246Y-67305565D01*
X179527040Y-67310499D01*
X179527043Y-67310500D01*
X179527046Y-67310500D01*
X180416957Y-67310500D01*
X180416958Y-67310499D01*
X180484104Y-67302934D01*
X180551249Y-67295369D01*
X180551252Y-67295368D01*
X180551255Y-67295368D01*
X180721522Y-67235789D01*
X180874262Y-67139816D01*
X181001816Y-67012262D01*
X181097789Y-66859522D01*
X181157368Y-66689255D01*
X181157369Y-66689249D01*
X181177565Y-66510003D01*
X181177565Y-66509996D01*
X181157369Y-66330750D01*
X181157368Y-66330745D01*
X181097788Y-66160476D01*
X181001815Y-66007737D01*
X180874262Y-65880184D01*
X180721523Y-65784211D01*
X180551254Y-65724631D01*
X180551249Y-65724630D01*
X180416960Y-65709500D01*
X180416954Y-65709500D01*
X179527046Y-65709500D01*
X179527039Y-65709500D01*
X179392750Y-65724630D01*
X179392745Y-65724631D01*
X179222476Y-65784211D01*
X179069737Y-65880184D01*
X178942184Y-66007737D01*
X178846211Y-66160476D01*
X178786631Y-66330745D01*
X178786630Y-66330750D01*
X178766435Y-66509996D01*
X178766435Y-66510003D01*
X155777565Y-66510003D01*
X155777565Y-66509996D01*
X155757369Y-66330750D01*
X155757368Y-66330745D01*
X155697788Y-66160476D01*
X155601815Y-66007737D01*
X155474262Y-65880184D01*
X155321523Y-65784211D01*
X155151254Y-65724631D01*
X155151249Y-65724630D01*
X155016960Y-65709500D01*
X155016954Y-65709500D01*
X154127046Y-65709500D01*
X154127039Y-65709500D01*
X153992750Y-65724630D01*
X153992745Y-65724631D01*
X153822476Y-65784211D01*
X153669737Y-65880184D01*
X153542184Y-66007737D01*
X153446211Y-66160476D01*
X153386631Y-66330745D01*
X153386630Y-66330750D01*
X153366435Y-66509996D01*
X153366435Y-66510003D01*
X151691944Y-66510003D01*
X151748024Y-66325132D01*
X151767341Y-66129000D01*
X151748024Y-65932868D01*
X151690814Y-65744273D01*
X151690811Y-65744269D01*
X151690811Y-65744266D01*
X151597913Y-65570467D01*
X151597909Y-65570460D01*
X151472883Y-65418116D01*
X151320539Y-65293090D01*
X151320532Y-65293086D01*
X151146733Y-65200188D01*
X151146727Y-65200186D01*
X150958132Y-65142976D01*
X150958129Y-65142975D01*
X150762000Y-65123659D01*
X150565870Y-65142975D01*
X150377266Y-65200188D01*
X150203467Y-65293086D01*
X150203460Y-65293090D01*
X150051116Y-65418116D01*
X149926090Y-65570460D01*
X149926086Y-65570467D01*
X149833188Y-65744266D01*
X149775975Y-65932870D01*
X149756659Y-66129000D01*
X146052341Y-66129000D01*
X146033024Y-65932868D01*
X145975814Y-65744273D01*
X145975811Y-65744269D01*
X145975811Y-65744266D01*
X145882913Y-65570467D01*
X145882909Y-65570460D01*
X145757883Y-65418116D01*
X145605539Y-65293090D01*
X145605532Y-65293086D01*
X145431733Y-65200188D01*
X145431727Y-65200186D01*
X145243132Y-65142976D01*
X145243129Y-65142975D01*
X145047000Y-65123659D01*
X144850870Y-65142975D01*
X144662266Y-65200188D01*
X144488467Y-65293086D01*
X144488460Y-65293090D01*
X144336116Y-65418116D01*
X144211090Y-65570460D01*
X144211086Y-65570467D01*
X144118188Y-65744266D01*
X144060975Y-65932870D01*
X144041659Y-66129000D01*
X116980500Y-66129000D01*
X116980500Y-63970003D01*
X153366435Y-63970003D01*
X153386630Y-64149249D01*
X153386631Y-64149254D01*
X153446211Y-64319523D01*
X153542184Y-64472262D01*
X153669738Y-64599816D01*
X153822478Y-64695789D01*
X153992745Y-64755368D01*
X153992750Y-64755369D01*
X154083246Y-64765565D01*
X154127040Y-64770499D01*
X154127043Y-64770500D01*
X154127046Y-64770500D01*
X155016957Y-64770500D01*
X155016958Y-64770499D01*
X155084104Y-64762934D01*
X155151249Y-64755369D01*
X155151252Y-64755368D01*
X155151255Y-64755368D01*
X155321522Y-64695789D01*
X155474262Y-64599816D01*
X155601816Y-64472262D01*
X155697789Y-64319522D01*
X155757368Y-64149255D01*
X155777565Y-63970003D01*
X178766435Y-63970003D01*
X178786630Y-64149249D01*
X178786631Y-64149254D01*
X178846211Y-64319523D01*
X178942184Y-64472262D01*
X179069738Y-64599816D01*
X179222478Y-64695789D01*
X179392745Y-64755368D01*
X179392750Y-64755369D01*
X179483246Y-64765565D01*
X179527040Y-64770499D01*
X179527043Y-64770500D01*
X179527046Y-64770500D01*
X180416957Y-64770500D01*
X180416958Y-64770499D01*
X180484104Y-64762934D01*
X180551249Y-64755369D01*
X180551252Y-64755368D01*
X180551255Y-64755368D01*
X180721522Y-64695789D01*
X180874262Y-64599816D01*
X181001816Y-64472262D01*
X181097789Y-64319522D01*
X181157368Y-64149255D01*
X181177565Y-63970000D01*
X181164044Y-63850000D01*
X181157369Y-63790750D01*
X181157368Y-63790745D01*
X181147667Y-63763022D01*
X181097789Y-63620478D01*
X181001816Y-63467738D01*
X180874262Y-63340184D01*
X180721523Y-63244211D01*
X180551254Y-63184631D01*
X180551249Y-63184630D01*
X180416960Y-63169500D01*
X180416954Y-63169500D01*
X179527046Y-63169500D01*
X179527039Y-63169500D01*
X179392750Y-63184630D01*
X179392745Y-63184631D01*
X179222476Y-63244211D01*
X179069737Y-63340184D01*
X178942184Y-63467737D01*
X178846211Y-63620476D01*
X178786631Y-63790745D01*
X178786630Y-63790750D01*
X178766435Y-63969996D01*
X178766435Y-63970003D01*
X155777565Y-63970003D01*
X155777565Y-63970000D01*
X155764044Y-63850000D01*
X155757369Y-63790750D01*
X155757368Y-63790745D01*
X155747667Y-63763022D01*
X155697789Y-63620478D01*
X155601816Y-63467738D01*
X155474262Y-63340184D01*
X155321523Y-63244211D01*
X155151254Y-63184631D01*
X155151249Y-63184630D01*
X155016960Y-63169500D01*
X155016954Y-63169500D01*
X154127046Y-63169500D01*
X154127039Y-63169500D01*
X153992750Y-63184630D01*
X153992745Y-63184631D01*
X153822476Y-63244211D01*
X153669737Y-63340184D01*
X153542184Y-63467737D01*
X153446211Y-63620476D01*
X153386631Y-63790745D01*
X153386630Y-63790750D01*
X153366435Y-63969996D01*
X153366435Y-63970003D01*
X116980500Y-63970003D01*
X116980500Y-63075000D01*
X141738000Y-63075000D01*
X141738000Y-63624628D01*
X141752503Y-63697540D01*
X141752505Y-63697544D01*
X141807760Y-63780239D01*
X141890455Y-63835494D01*
X141890459Y-63835496D01*
X141963371Y-63849999D01*
X141963374Y-63850000D01*
X142513000Y-63850000D01*
X142513000Y-63075000D01*
X141738000Y-63075000D01*
X116980500Y-63075000D01*
X116980500Y-62665992D01*
X142434190Y-62665992D01*
X142444327Y-62801265D01*
X142493887Y-62927541D01*
X142578465Y-63033599D01*
X142690547Y-63110016D01*
X142820173Y-63150000D01*
X142921724Y-63150000D01*
X143022138Y-63134865D01*
X143144357Y-63076007D01*
X143145442Y-63075000D01*
X143263000Y-63075000D01*
X143263000Y-63850000D01*
X143812626Y-63850000D01*
X143812628Y-63849999D01*
X143885540Y-63835496D01*
X143885544Y-63835494D01*
X143968239Y-63780239D01*
X144023494Y-63697544D01*
X144023496Y-63697540D01*
X144037999Y-63624628D01*
X144038000Y-63624626D01*
X144038000Y-63075000D01*
X143263000Y-63075000D01*
X143145442Y-63075000D01*
X143243798Y-62983740D01*
X143311625Y-62866260D01*
X143341810Y-62734008D01*
X143339262Y-62700000D01*
X144322785Y-62700000D01*
X144341602Y-62903082D01*
X144397417Y-63099247D01*
X144397422Y-63099260D01*
X144488327Y-63281821D01*
X144611237Y-63444581D01*
X144761958Y-63581980D01*
X144761960Y-63581982D01*
X144824134Y-63620478D01*
X144935363Y-63689348D01*
X145125544Y-63763024D01*
X145326024Y-63800500D01*
X145326026Y-63800500D01*
X145529974Y-63800500D01*
X145529976Y-63800500D01*
X145730456Y-63763024D01*
X145920637Y-63689348D01*
X146094041Y-63581981D01*
X146244764Y-63444579D01*
X146367673Y-63281821D01*
X146458582Y-63099250D01*
X146465482Y-63075000D01*
X147580000Y-63075000D01*
X147580000Y-63624628D01*
X147594503Y-63697540D01*
X147594505Y-63697544D01*
X147649760Y-63780239D01*
X147732455Y-63835494D01*
X147732459Y-63835496D01*
X147805371Y-63849999D01*
X147805374Y-63850000D01*
X148355000Y-63850000D01*
X148355000Y-63075000D01*
X147580000Y-63075000D01*
X146465482Y-63075000D01*
X146514397Y-62903083D01*
X146533215Y-62700000D01*
X146530064Y-62665992D01*
X148276190Y-62665992D01*
X148286327Y-62801265D01*
X148335887Y-62927541D01*
X148420465Y-63033599D01*
X148532547Y-63110016D01*
X148662173Y-63150000D01*
X148763724Y-63150000D01*
X148864138Y-63134865D01*
X148986357Y-63076007D01*
X148987442Y-63075000D01*
X149105000Y-63075000D01*
X149105000Y-63850000D01*
X149654626Y-63850000D01*
X149654628Y-63849999D01*
X149727540Y-63835496D01*
X149727544Y-63835494D01*
X149810239Y-63780239D01*
X149865494Y-63697544D01*
X149865496Y-63697540D01*
X149879999Y-63624628D01*
X149880000Y-63624626D01*
X149880000Y-63075000D01*
X149105000Y-63075000D01*
X148987442Y-63075000D01*
X149085798Y-62983740D01*
X149153625Y-62866260D01*
X149183810Y-62734008D01*
X149181262Y-62700000D01*
X150164785Y-62700000D01*
X150183602Y-62903082D01*
X150239417Y-63099247D01*
X150239422Y-63099260D01*
X150330327Y-63281821D01*
X150453237Y-63444581D01*
X150603958Y-63581980D01*
X150603960Y-63581982D01*
X150666134Y-63620478D01*
X150777363Y-63689348D01*
X150967544Y-63763024D01*
X151168024Y-63800500D01*
X151168026Y-63800500D01*
X151371974Y-63800500D01*
X151371976Y-63800500D01*
X151572456Y-63763024D01*
X151762637Y-63689348D01*
X151936041Y-63581981D01*
X152086764Y-63444579D01*
X152209673Y-63281821D01*
X152300582Y-63099250D01*
X152356397Y-62903083D01*
X152375215Y-62700000D01*
X152356397Y-62496917D01*
X152300582Y-62300750D01*
X152295221Y-62289984D01*
X152228400Y-62155788D01*
X152209673Y-62118179D01*
X152086764Y-61955421D01*
X152086762Y-61955418D01*
X151936041Y-61818019D01*
X151936039Y-61818017D01*
X151762642Y-61710655D01*
X151762635Y-61710651D01*
X151667546Y-61673814D01*
X151572456Y-61636976D01*
X151371976Y-61599500D01*
X151168024Y-61599500D01*
X150967544Y-61636976D01*
X150967541Y-61636976D01*
X150967541Y-61636977D01*
X150777364Y-61710651D01*
X150777357Y-61710655D01*
X150603960Y-61818017D01*
X150603958Y-61818019D01*
X150453237Y-61955418D01*
X150330327Y-62118178D01*
X150239422Y-62300739D01*
X150239417Y-62300752D01*
X150183602Y-62496917D01*
X150164785Y-62699999D01*
X150164785Y-62700000D01*
X149181262Y-62700000D01*
X149173673Y-62598735D01*
X149124113Y-62472459D01*
X149039535Y-62366401D01*
X148927453Y-62289984D01*
X148797827Y-62250000D01*
X148696276Y-62250000D01*
X148595862Y-62265135D01*
X148473643Y-62323993D01*
X148374202Y-62416260D01*
X148306375Y-62533740D01*
X148276190Y-62665992D01*
X146530064Y-62665992D01*
X146514397Y-62496917D01*
X146465482Y-62325000D01*
X147580000Y-62325000D01*
X148355000Y-62325000D01*
X148355000Y-61550000D01*
X149105000Y-61550000D01*
X149105000Y-62325000D01*
X149880000Y-62325000D01*
X149880000Y-61775373D01*
X149879999Y-61775371D01*
X149865496Y-61702459D01*
X149865494Y-61702455D01*
X149810239Y-61619760D01*
X149727544Y-61564505D01*
X149727540Y-61564503D01*
X149654627Y-61550000D01*
X149105000Y-61550000D01*
X148355000Y-61550000D01*
X147805373Y-61550000D01*
X147732459Y-61564503D01*
X147732455Y-61564505D01*
X147649760Y-61619760D01*
X147594505Y-61702455D01*
X147594503Y-61702459D01*
X147580000Y-61775371D01*
X147580000Y-62325000D01*
X146465482Y-62325000D01*
X146458582Y-62300750D01*
X146453221Y-62289984D01*
X146386400Y-62155788D01*
X146367673Y-62118179D01*
X146244764Y-61955421D01*
X146244762Y-61955418D01*
X146094041Y-61818019D01*
X146094039Y-61818017D01*
X145920642Y-61710655D01*
X145920635Y-61710651D01*
X145825546Y-61673814D01*
X145730456Y-61636976D01*
X145529976Y-61599500D01*
X145326024Y-61599500D01*
X145125544Y-61636976D01*
X145125541Y-61636976D01*
X145125541Y-61636977D01*
X144935364Y-61710651D01*
X144935357Y-61710655D01*
X144761960Y-61818017D01*
X144761958Y-61818019D01*
X144611237Y-61955418D01*
X144488327Y-62118178D01*
X144397422Y-62300739D01*
X144397417Y-62300752D01*
X144341602Y-62496917D01*
X144322785Y-62699999D01*
X144322785Y-62700000D01*
X143339262Y-62700000D01*
X143331673Y-62598735D01*
X143282113Y-62472459D01*
X143197535Y-62366401D01*
X143085453Y-62289984D01*
X142955827Y-62250000D01*
X142854276Y-62250000D01*
X142753862Y-62265135D01*
X142631643Y-62323993D01*
X142532202Y-62416260D01*
X142464375Y-62533740D01*
X142434190Y-62665992D01*
X116980500Y-62665992D01*
X116980500Y-62325000D01*
X141738000Y-62325000D01*
X142513000Y-62325000D01*
X142513000Y-61550000D01*
X143263000Y-61550000D01*
X143263000Y-62325000D01*
X144038000Y-62325000D01*
X144038000Y-61775373D01*
X144037999Y-61775371D01*
X144023496Y-61702459D01*
X144023494Y-61702455D01*
X143968239Y-61619760D01*
X143885544Y-61564505D01*
X143885540Y-61564503D01*
X143812627Y-61550000D01*
X143263000Y-61550000D01*
X142513000Y-61550000D01*
X141963373Y-61550000D01*
X141890459Y-61564503D01*
X141890455Y-61564505D01*
X141807760Y-61619760D01*
X141752505Y-61702455D01*
X141752503Y-61702459D01*
X141738000Y-61775371D01*
X141738000Y-62325000D01*
X116980500Y-62325000D01*
X116980500Y-61430003D01*
X153366435Y-61430003D01*
X153386630Y-61609249D01*
X153386631Y-61609254D01*
X153446211Y-61779523D01*
X153470399Y-61818017D01*
X153542184Y-61932262D01*
X153669738Y-62059816D01*
X153822478Y-62155789D01*
X153992745Y-62215368D01*
X153992750Y-62215369D01*
X154083246Y-62225565D01*
X154127040Y-62230499D01*
X154127043Y-62230500D01*
X154127046Y-62230500D01*
X155016957Y-62230500D01*
X155016958Y-62230499D01*
X155084104Y-62222934D01*
X155151249Y-62215369D01*
X155151252Y-62215368D01*
X155151255Y-62215368D01*
X155321522Y-62155789D01*
X155474262Y-62059816D01*
X155601816Y-61932262D01*
X155697789Y-61779522D01*
X155757368Y-61609255D01*
X155762410Y-61564505D01*
X155777565Y-61430003D01*
X178766435Y-61430003D01*
X178786630Y-61609249D01*
X178786631Y-61609254D01*
X178846211Y-61779523D01*
X178870399Y-61818017D01*
X178942184Y-61932262D01*
X179069738Y-62059816D01*
X179222478Y-62155789D01*
X179392745Y-62215368D01*
X179392750Y-62215369D01*
X179483246Y-62225565D01*
X179527040Y-62230499D01*
X179527043Y-62230500D01*
X179527046Y-62230500D01*
X180416957Y-62230500D01*
X180416958Y-62230499D01*
X180484104Y-62222934D01*
X180551249Y-62215369D01*
X180551252Y-62215368D01*
X180551255Y-62215368D01*
X180721522Y-62155789D01*
X180874262Y-62059816D01*
X181001816Y-61932262D01*
X181097789Y-61779522D01*
X181157368Y-61609255D01*
X181162410Y-61564505D01*
X181177565Y-61430003D01*
X181177565Y-61429996D01*
X181157369Y-61250750D01*
X181157368Y-61250745D01*
X181097788Y-61080476D01*
X181001815Y-60927737D01*
X180874262Y-60800184D01*
X180721523Y-60704211D01*
X180551254Y-60644631D01*
X180551249Y-60644630D01*
X180416960Y-60629500D01*
X180416954Y-60629500D01*
X179527046Y-60629500D01*
X179527039Y-60629500D01*
X179392750Y-60644630D01*
X179392745Y-60644631D01*
X179222476Y-60704211D01*
X179069737Y-60800184D01*
X178942184Y-60927737D01*
X178846211Y-61080476D01*
X178786631Y-61250745D01*
X178786630Y-61250750D01*
X178766435Y-61429996D01*
X178766435Y-61430003D01*
X155777565Y-61430003D01*
X155777565Y-61429996D01*
X155757369Y-61250750D01*
X155757368Y-61250745D01*
X155697788Y-61080476D01*
X155601815Y-60927737D01*
X155474262Y-60800184D01*
X155321523Y-60704211D01*
X155151254Y-60644631D01*
X155151249Y-60644630D01*
X155016960Y-60629500D01*
X155016954Y-60629500D01*
X154127046Y-60629500D01*
X154127039Y-60629500D01*
X153992750Y-60644630D01*
X153992745Y-60644631D01*
X153822476Y-60704211D01*
X153669737Y-60800184D01*
X153542184Y-60927737D01*
X153446211Y-61080476D01*
X153386631Y-61250745D01*
X153386630Y-61250750D01*
X153366435Y-61429996D01*
X153366435Y-61430003D01*
X116980500Y-61430003D01*
X116980500Y-59850599D01*
X146521729Y-59850599D01*
X146548235Y-59864766D01*
X146746165Y-59924808D01*
X146952000Y-59945080D01*
X147157834Y-59924808D01*
X147355763Y-59864767D01*
X147382268Y-59850598D01*
X147382269Y-59850598D01*
X146952001Y-59420330D01*
X146952000Y-59420330D01*
X146521729Y-59850599D01*
X116980500Y-59850599D01*
X116980500Y-58890000D01*
X145896919Y-58890000D01*
X145917191Y-59095833D01*
X145977234Y-59293765D01*
X145991400Y-59320268D01*
X145991401Y-59320269D01*
X146421670Y-58890000D01*
X146547014Y-58890000D01*
X146566835Y-59015148D01*
X146624359Y-59128045D01*
X146713955Y-59217641D01*
X146826852Y-59275165D01*
X146920519Y-59290000D01*
X146983481Y-59290000D01*
X147077148Y-59275165D01*
X147190045Y-59217641D01*
X147279641Y-59128045D01*
X147337165Y-59015148D01*
X147356986Y-58890000D01*
X147482330Y-58890000D01*
X147912598Y-59320268D01*
X147926767Y-59293763D01*
X147986808Y-59095834D01*
X148007080Y-58890000D01*
X150946659Y-58890000D01*
X150965975Y-59086129D01*
X151023188Y-59274733D01*
X151116086Y-59448532D01*
X151116090Y-59448539D01*
X151241116Y-59600883D01*
X151393460Y-59725909D01*
X151393467Y-59725913D01*
X151567266Y-59818811D01*
X151567269Y-59818811D01*
X151567273Y-59818814D01*
X151755868Y-59876024D01*
X151952000Y-59895341D01*
X152148132Y-59876024D01*
X152336727Y-59818814D01*
X152510538Y-59725910D01*
X152662883Y-59600883D01*
X152787910Y-59448538D01*
X152870639Y-59293763D01*
X152880811Y-59274733D01*
X152880811Y-59274732D01*
X152880814Y-59274727D01*
X152938024Y-59086132D01*
X152957341Y-58890003D01*
X153366435Y-58890003D01*
X153386630Y-59069249D01*
X153386631Y-59069254D01*
X153446211Y-59239523D01*
X153542184Y-59392262D01*
X153669738Y-59519816D01*
X153822478Y-59615789D01*
X153992745Y-59675368D01*
X153992750Y-59675369D01*
X154083246Y-59685565D01*
X154127040Y-59690499D01*
X154127043Y-59690500D01*
X154127046Y-59690500D01*
X155016957Y-59690500D01*
X155016958Y-59690499D01*
X155084104Y-59682934D01*
X155151249Y-59675369D01*
X155151252Y-59675368D01*
X155151255Y-59675368D01*
X155321522Y-59615789D01*
X155474262Y-59519816D01*
X155601816Y-59392262D01*
X155697789Y-59239522D01*
X155757368Y-59069255D01*
X155757369Y-59069249D01*
X155777565Y-58890003D01*
X178766435Y-58890003D01*
X178786630Y-59069249D01*
X178786631Y-59069254D01*
X178846211Y-59239523D01*
X178942184Y-59392262D01*
X179069738Y-59519816D01*
X179222478Y-59615789D01*
X179392745Y-59675368D01*
X179392750Y-59675369D01*
X179483246Y-59685565D01*
X179527040Y-59690499D01*
X179527043Y-59690500D01*
X179527046Y-59690500D01*
X180416957Y-59690500D01*
X180416958Y-59690499D01*
X180484104Y-59682934D01*
X180551249Y-59675369D01*
X180551252Y-59675368D01*
X180551255Y-59675368D01*
X180721522Y-59615789D01*
X180874262Y-59519816D01*
X181001816Y-59392262D01*
X181097789Y-59239522D01*
X181157368Y-59069255D01*
X181157369Y-59069249D01*
X181177565Y-58890003D01*
X181177565Y-58889996D01*
X181157369Y-58710750D01*
X181157368Y-58710745D01*
X181097788Y-58540476D01*
X181001815Y-58387737D01*
X180874262Y-58260184D01*
X180721523Y-58164211D01*
X180551254Y-58104631D01*
X180551249Y-58104630D01*
X180416960Y-58089500D01*
X180416954Y-58089500D01*
X179527046Y-58089500D01*
X179527039Y-58089500D01*
X179392750Y-58104630D01*
X179392745Y-58104631D01*
X179222476Y-58164211D01*
X179069737Y-58260184D01*
X178942184Y-58387737D01*
X178846211Y-58540476D01*
X178786631Y-58710745D01*
X178786630Y-58710750D01*
X178766435Y-58889996D01*
X178766435Y-58890003D01*
X155777565Y-58890003D01*
X155777565Y-58889996D01*
X155757369Y-58710750D01*
X155757368Y-58710745D01*
X155697788Y-58540476D01*
X155601815Y-58387737D01*
X155474262Y-58260184D01*
X155321523Y-58164211D01*
X155151254Y-58104631D01*
X155151249Y-58104630D01*
X155016960Y-58089500D01*
X155016954Y-58089500D01*
X154127046Y-58089500D01*
X154127039Y-58089500D01*
X153992750Y-58104630D01*
X153992745Y-58104631D01*
X153822476Y-58164211D01*
X153669737Y-58260184D01*
X153542184Y-58387737D01*
X153446211Y-58540476D01*
X153386631Y-58710745D01*
X153386630Y-58710750D01*
X153366435Y-58889996D01*
X153366435Y-58890003D01*
X152957341Y-58890003D01*
X152957341Y-58890000D01*
X152938024Y-58693868D01*
X152880814Y-58505273D01*
X152880811Y-58505269D01*
X152880811Y-58505266D01*
X152787913Y-58331467D01*
X152787909Y-58331460D01*
X152662883Y-58179116D01*
X152510539Y-58054090D01*
X152510532Y-58054086D01*
X152336733Y-57961188D01*
X152336727Y-57961186D01*
X152210997Y-57923046D01*
X152148129Y-57903975D01*
X151952000Y-57884659D01*
X151755870Y-57903975D01*
X151567266Y-57961188D01*
X151393467Y-58054086D01*
X151393460Y-58054090D01*
X151241116Y-58179116D01*
X151116090Y-58331460D01*
X151116086Y-58331467D01*
X151023188Y-58505266D01*
X150965975Y-58693870D01*
X150946659Y-58890000D01*
X148007080Y-58890000D01*
X147986808Y-58684165D01*
X147926766Y-58486235D01*
X147912599Y-58459730D01*
X147482330Y-58889999D01*
X147482330Y-58890000D01*
X147356986Y-58890000D01*
X147337165Y-58764852D01*
X147279641Y-58651955D01*
X147190045Y-58562359D01*
X147077148Y-58504835D01*
X146983481Y-58490000D01*
X146920519Y-58490000D01*
X146826852Y-58504835D01*
X146713955Y-58562359D01*
X146624359Y-58651955D01*
X146566835Y-58764852D01*
X146547014Y-58890000D01*
X146421670Y-58890000D01*
X146421670Y-58889999D01*
X145991401Y-58459730D01*
X145991400Y-58459730D01*
X145977231Y-58486239D01*
X145917191Y-58684165D01*
X145896919Y-58890000D01*
X116980500Y-58890000D01*
X116980500Y-57929401D01*
X146521730Y-57929401D01*
X146952000Y-58359670D01*
X146952001Y-58359670D01*
X147382269Y-57929401D01*
X147382268Y-57929400D01*
X147355765Y-57915234D01*
X147157833Y-57855191D01*
X146952000Y-57834919D01*
X146746165Y-57855191D01*
X146548239Y-57915231D01*
X146521730Y-57929400D01*
X146521730Y-57929401D01*
X116980500Y-57929401D01*
X116980500Y-56675599D01*
X146521729Y-56675599D01*
X146548235Y-56689766D01*
X146746165Y-56749808D01*
X146952000Y-56770080D01*
X147157834Y-56749808D01*
X147355763Y-56689767D01*
X147382268Y-56675598D01*
X147382269Y-56675598D01*
X146952001Y-56245330D01*
X146952000Y-56245330D01*
X146521729Y-56675599D01*
X116980500Y-56675599D01*
X116980500Y-55715000D01*
X145896919Y-55715000D01*
X145917191Y-55920833D01*
X145977234Y-56118765D01*
X145991400Y-56145268D01*
X145991401Y-56145269D01*
X146421670Y-55715000D01*
X146547014Y-55715000D01*
X146566835Y-55840148D01*
X146624359Y-55953045D01*
X146713955Y-56042641D01*
X146826852Y-56100165D01*
X146920519Y-56115000D01*
X146983481Y-56115000D01*
X147077148Y-56100165D01*
X147190045Y-56042641D01*
X147279641Y-55953045D01*
X147337165Y-55840148D01*
X147356986Y-55715000D01*
X147482330Y-55715000D01*
X147912598Y-56145268D01*
X147926767Y-56118763D01*
X147986808Y-55920834D01*
X148007080Y-55715000D01*
X150946659Y-55715000D01*
X150965975Y-55911129D01*
X151023188Y-56099733D01*
X151116086Y-56273532D01*
X151116090Y-56273539D01*
X151241116Y-56425883D01*
X151393460Y-56550909D01*
X151393467Y-56550913D01*
X151567266Y-56643811D01*
X151567269Y-56643811D01*
X151567273Y-56643814D01*
X151755868Y-56701024D01*
X151952000Y-56720341D01*
X152148132Y-56701024D01*
X152336727Y-56643814D01*
X152510538Y-56550910D01*
X152662883Y-56425883D01*
X152725159Y-56350000D01*
X153366435Y-56350000D01*
X153386630Y-56529249D01*
X153386631Y-56529254D01*
X153446211Y-56699523D01*
X153542184Y-56852262D01*
X153669738Y-56979816D01*
X153822478Y-57075789D01*
X153992745Y-57135368D01*
X153992750Y-57135369D01*
X154083246Y-57145565D01*
X154127040Y-57150499D01*
X154127043Y-57150500D01*
X154127046Y-57150500D01*
X155016957Y-57150500D01*
X155016958Y-57150499D01*
X155084104Y-57142934D01*
X155151249Y-57135369D01*
X155151252Y-57135368D01*
X155151255Y-57135368D01*
X155321522Y-57075789D01*
X155474262Y-56979816D01*
X155601816Y-56852262D01*
X155697789Y-56699522D01*
X155757368Y-56529255D01*
X155777565Y-56350000D01*
X155768949Y-56273532D01*
X155757369Y-56170750D01*
X155757368Y-56170745D01*
X155697788Y-56000476D01*
X155601815Y-55847737D01*
X155474262Y-55720184D01*
X155321523Y-55624211D01*
X155151254Y-55564631D01*
X155151249Y-55564630D01*
X155016960Y-55549500D01*
X155016954Y-55549500D01*
X154127046Y-55549500D01*
X154127039Y-55549500D01*
X153992750Y-55564630D01*
X153992745Y-55564631D01*
X153822476Y-55624211D01*
X153669737Y-55720184D01*
X153542184Y-55847737D01*
X153446211Y-56000476D01*
X153386631Y-56170745D01*
X153386630Y-56170750D01*
X153366435Y-56349996D01*
X153366435Y-56350000D01*
X152725159Y-56350000D01*
X152787910Y-56273538D01*
X152870639Y-56118763D01*
X152880811Y-56099733D01*
X152880811Y-56099732D01*
X152880814Y-56099727D01*
X152938024Y-55911132D01*
X152957341Y-55715000D01*
X152938024Y-55518868D01*
X152880814Y-55330273D01*
X152880811Y-55330269D01*
X152880811Y-55330266D01*
X152787913Y-55156467D01*
X152787909Y-55156460D01*
X152662883Y-55004116D01*
X152510539Y-54879090D01*
X152510532Y-54879086D01*
X152336733Y-54786188D01*
X152336727Y-54786186D01*
X152210997Y-54748046D01*
X152148129Y-54728975D01*
X151952000Y-54709659D01*
X151755870Y-54728975D01*
X151567266Y-54786188D01*
X151393467Y-54879086D01*
X151393460Y-54879090D01*
X151241116Y-55004116D01*
X151116090Y-55156460D01*
X151116086Y-55156467D01*
X151023188Y-55330266D01*
X150965975Y-55518870D01*
X150946659Y-55715000D01*
X148007080Y-55715000D01*
X147986808Y-55509165D01*
X147926766Y-55311235D01*
X147912599Y-55284730D01*
X147482330Y-55714999D01*
X147482330Y-55715000D01*
X147356986Y-55715000D01*
X147337165Y-55589852D01*
X147279641Y-55476955D01*
X147190045Y-55387359D01*
X147077148Y-55329835D01*
X146983481Y-55315000D01*
X146920519Y-55315000D01*
X146826852Y-55329835D01*
X146713955Y-55387359D01*
X146624359Y-55476955D01*
X146566835Y-55589852D01*
X146547014Y-55715000D01*
X146421670Y-55715000D01*
X146421670Y-55714999D01*
X145991401Y-55284730D01*
X145991400Y-55284730D01*
X145977231Y-55311239D01*
X145917191Y-55509165D01*
X145896919Y-55715000D01*
X116980500Y-55715000D01*
X116980500Y-54754401D01*
X146521730Y-54754401D01*
X146952000Y-55184670D01*
X146952001Y-55184670D01*
X147382269Y-54754401D01*
X147382268Y-54754400D01*
X147355765Y-54740234D01*
X147157833Y-54680191D01*
X146952000Y-54659919D01*
X146746165Y-54680191D01*
X146548239Y-54740231D01*
X146521730Y-54754400D01*
X146521730Y-54754401D01*
X116980500Y-54754401D01*
X116980500Y-54429752D01*
X153371500Y-54429752D01*
X153383131Y-54488229D01*
X153383132Y-54488230D01*
X153427447Y-54554552D01*
X153493769Y-54598867D01*
X153493770Y-54598868D01*
X153552247Y-54610499D01*
X153552250Y-54610500D01*
X153552252Y-54610500D01*
X155591750Y-54610500D01*
X155591751Y-54610499D01*
X155606568Y-54607552D01*
X155650229Y-54598868D01*
X155650229Y-54598867D01*
X155650231Y-54598867D01*
X155716552Y-54554552D01*
X155760867Y-54488231D01*
X155760867Y-54488229D01*
X155760868Y-54488229D01*
X155772499Y-54429752D01*
X155772500Y-54429750D01*
X155772500Y-53190249D01*
X155772499Y-53190247D01*
X155760868Y-53131770D01*
X155760867Y-53131769D01*
X155716552Y-53065447D01*
X155650230Y-53021132D01*
X155650229Y-53021131D01*
X155591752Y-53009500D01*
X155591748Y-53009500D01*
X153552252Y-53009500D01*
X153552247Y-53009500D01*
X153493770Y-53021131D01*
X153493769Y-53021132D01*
X153427447Y-53065447D01*
X153383132Y-53131769D01*
X153383131Y-53131770D01*
X153371500Y-53190247D01*
X153371500Y-54429752D01*
X116980500Y-54429752D01*
X116980500Y-50544847D01*
X120013481Y-50544847D01*
X120097800Y-50596518D01*
X120318839Y-50688075D01*
X120551480Y-50743927D01*
X120790000Y-50762699D01*
X121028519Y-50743927D01*
X121261160Y-50688075D01*
X121482195Y-50596519D01*
X121566516Y-50544846D01*
X121549422Y-50527752D01*
X137099500Y-50527752D01*
X137111131Y-50586229D01*
X137111132Y-50586230D01*
X137155447Y-50652552D01*
X137221769Y-50696867D01*
X137221770Y-50696868D01*
X137280247Y-50708499D01*
X137280250Y-50708500D01*
X137280252Y-50708500D01*
X139859750Y-50708500D01*
X139859751Y-50708499D01*
X139874568Y-50705552D01*
X139918229Y-50696868D01*
X139918229Y-50696867D01*
X139918231Y-50696867D01*
X139984552Y-50652552D01*
X140028867Y-50586231D01*
X140028867Y-50586229D01*
X140028868Y-50586229D01*
X140040499Y-50527752D01*
X140040500Y-50527750D01*
X140040500Y-50124334D01*
X148499500Y-50124334D01*
X148540429Y-50369616D01*
X148621169Y-50604802D01*
X148621172Y-50604811D01*
X148677286Y-50708500D01*
X148739526Y-50823509D01*
X148892262Y-51019744D01*
X149051744Y-51166557D01*
X149075217Y-51188166D01*
X149283393Y-51324173D01*
X149511118Y-51424063D01*
X149752175Y-51485107D01*
X149752179Y-51485108D01*
X149752181Y-51485108D01*
X149752186Y-51485109D01*
X149885376Y-51496145D01*
X149937933Y-51500500D01*
X149937935Y-51500500D01*
X150062065Y-51500500D01*
X150062067Y-51500500D01*
X150123284Y-51495427D01*
X150247813Y-51485109D01*
X150247816Y-51485108D01*
X150247821Y-51485108D01*
X150488881Y-51424063D01*
X150716607Y-51324173D01*
X150924785Y-51188164D01*
X151107738Y-51019744D01*
X151260474Y-50823509D01*
X151378828Y-50604810D01*
X151459571Y-50369614D01*
X151500500Y-50124335D01*
X151500500Y-49875665D01*
X151459571Y-49630386D01*
X151378828Y-49395190D01*
X151260474Y-49176491D01*
X151107738Y-48980256D01*
X150924785Y-48811836D01*
X150924782Y-48811833D01*
X150716606Y-48675826D01*
X150488881Y-48575936D01*
X150247824Y-48514892D01*
X150247813Y-48514890D01*
X150082548Y-48501197D01*
X150062067Y-48499500D01*
X149937933Y-48499500D01*
X149918521Y-48501108D01*
X149752186Y-48514890D01*
X149752175Y-48514892D01*
X149511118Y-48575936D01*
X149283393Y-48675826D01*
X149075217Y-48811833D01*
X148892261Y-48980257D01*
X148739524Y-49176493D01*
X148621172Y-49395188D01*
X148621169Y-49395197D01*
X148540429Y-49630383D01*
X148499500Y-49875665D01*
X148499500Y-50124334D01*
X140040500Y-50124334D01*
X140040500Y-47948249D01*
X140040499Y-47948247D01*
X140028868Y-47889770D01*
X140028867Y-47889769D01*
X139984552Y-47823447D01*
X139918230Y-47779132D01*
X139918229Y-47779131D01*
X139859752Y-47767500D01*
X139859748Y-47767500D01*
X137280252Y-47767500D01*
X137280247Y-47767500D01*
X137221770Y-47779131D01*
X137221769Y-47779132D01*
X137155447Y-47823447D01*
X137111132Y-47889769D01*
X137111131Y-47889770D01*
X137099500Y-47948247D01*
X137099500Y-50527752D01*
X121549422Y-50527752D01*
X120790000Y-49768330D01*
X120013481Y-50544846D01*
X120013481Y-50544847D01*
X116980500Y-50544847D01*
X116980500Y-49238000D01*
X119265300Y-49238000D01*
X119284072Y-49476519D01*
X119339924Y-49709160D01*
X119431481Y-49930199D01*
X119483152Y-50014517D01*
X120187781Y-49309889D01*
X120290000Y-49309889D01*
X120330507Y-49447844D01*
X120408239Y-49568798D01*
X120516900Y-49662952D01*
X120647685Y-49722680D01*
X120754237Y-49738000D01*
X120825763Y-49738000D01*
X120932315Y-49722680D01*
X121063100Y-49662952D01*
X121171761Y-49568798D01*
X121249493Y-49447844D01*
X121290000Y-49309889D01*
X121290000Y-49238000D01*
X121320330Y-49238000D01*
X122096846Y-50014516D01*
X122148519Y-49930195D01*
X122240075Y-49709160D01*
X122295927Y-49476519D01*
X122314699Y-49238000D01*
X122295927Y-48999480D01*
X122240075Y-48766839D01*
X122148518Y-48545800D01*
X122096846Y-48461481D01*
X121320330Y-49237999D01*
X121320330Y-49238000D01*
X121290000Y-49238000D01*
X121290000Y-49166111D01*
X121249493Y-49028156D01*
X121171761Y-48907202D01*
X121063100Y-48813048D01*
X120932315Y-48753320D01*
X120825763Y-48738000D01*
X120754237Y-48738000D01*
X120647685Y-48753320D01*
X120516900Y-48813048D01*
X120408239Y-48907202D01*
X120330507Y-49028156D01*
X120290000Y-49166111D01*
X120290000Y-49309889D01*
X120187781Y-49309889D01*
X120259670Y-49238000D01*
X120259670Y-49237999D01*
X119483152Y-48461481D01*
X119431481Y-48545802D01*
X119431478Y-48545808D01*
X119339924Y-48766839D01*
X119284072Y-48999480D01*
X119265300Y-49238000D01*
X116980500Y-49238000D01*
X116980500Y-48731740D01*
X116980598Y-48728263D01*
X116983542Y-48675826D01*
X116986995Y-48614333D01*
X116997401Y-48442304D01*
X116998160Y-48435706D01*
X117020576Y-48303780D01*
X117021277Y-48299656D01*
X117033432Y-48233324D01*
X117048562Y-48150763D01*
X117049961Y-48144810D01*
X117089387Y-48007956D01*
X117113321Y-47931152D01*
X120013481Y-47931152D01*
X120790000Y-48707670D01*
X120790001Y-48707670D01*
X121566517Y-47931152D01*
X121482199Y-47879481D01*
X121261160Y-47787924D01*
X121028519Y-47732072D01*
X120790000Y-47713300D01*
X120551480Y-47732072D01*
X120318839Y-47787924D01*
X120097808Y-47879478D01*
X120097802Y-47879481D01*
X120013481Y-47931152D01*
X117113321Y-47931152D01*
X117133270Y-47867135D01*
X117135158Y-47861921D01*
X117190397Y-47728565D01*
X117250343Y-47595370D01*
X117252599Y-47590861D01*
X117322958Y-47463557D01*
X117398228Y-47339044D01*
X117400693Y-47335286D01*
X117484461Y-47217226D01*
X117486145Y-47214967D01*
X117574932Y-47101638D01*
X117577472Y-47098605D01*
X117674052Y-46990531D01*
X117676373Y-46988077D01*
X117778077Y-46886373D01*
X117780531Y-46884052D01*
X117888605Y-46787472D01*
X117891638Y-46784932D01*
X118004967Y-46696145D01*
X118007226Y-46694461D01*
X118125286Y-46610693D01*
X118129044Y-46608228D01*
X118253557Y-46532958D01*
X118380861Y-46462599D01*
X118385370Y-46460343D01*
X118518565Y-46400397D01*
X118651921Y-46345158D01*
X118657135Y-46343270D01*
X118797956Y-46299387D01*
X118934810Y-46259961D01*
X118940763Y-46258562D01*
X119023324Y-46243432D01*
X119089656Y-46231277D01*
X119137941Y-46223072D01*
X119225706Y-46208160D01*
X119232304Y-46207401D01*
X119404333Y-46196995D01*
X119490782Y-46192140D01*
X119518263Y-46190598D01*
X119521740Y-46190500D01*
X141089659Y-46190500D01*
X141096107Y-46191546D01*
X141107688Y-46190675D01*
X141109934Y-46190590D01*
X141110505Y-46190452D01*
X141112775Y-46189409D01*
X141123591Y-46185011D01*
X141129040Y-46181037D01*
X143623936Y-44933591D01*
X143679390Y-44920500D01*
X152489138Y-44920500D01*
X152556177Y-44940185D01*
G37*
G04 #@! TD.AperFunction*
M02*
