M48
INCH,TZ
T1C0.0157
T2C0.0315
T3C0.0354
T4C0.0374
T5C0.0394
%
G90
G05
T1
X18855Y-24975
X18855Y-25925
X18855Y-26925
X18855Y-27925
X18855Y-28925
X18855Y-29925
X18855Y-30925
X18855Y-31925
X18855Y-32925
X18855Y-33925
X18855Y-34925
X18855Y-35925
X18855Y-36925
X18855Y-37925
X19085Y-24185
X19685Y-36685
X19785Y-23485
X19885Y-27885
X20185Y-30685
X20435Y-39385
X20685Y-29685
X20685Y-32185
X20685Y-33685
X20685Y-35685
X20685Y-37685
X21435Y-39435
X21525Y-23435
X21685Y-24685
X21685Y-24685
X21685Y-26085
X21685Y-28685
X21685Y-30685
X21685Y-32685
X21685Y-34685
X21685Y-36685
X21685Y-38685
X21745Y-26875
X22435Y-39485
X22485Y-22685
X22685Y-23685
X22685Y-25685
X22685Y-27685
X22685Y-29685
X22685Y-37685
X23285Y-21935
X23435Y-39535
X23585Y-34685
X23685Y-22685
X23685Y-24685
X23685Y-26685
X23685Y-28685
X23685Y-32685
X23685Y-36685
X23935Y-20185
X23935Y-21185
X24435Y-19435
X24435Y-39585
X24685Y-21685
X24685Y-23685
X24685Y-25685
X24685Y-27685
X24685Y-29685
X24685Y-31685
X24685Y-33685
X24685Y-35685
X25185Y-18765
X25435Y-39585
X25685Y-20685
X25685Y-22685
X25685Y-24685
X25685Y-26685
X25685Y-28685
X25685Y-32685
X25685Y-34685
X25685Y-36885
X26185Y-18735
X26435Y-39635
X26685Y-21685
X26685Y-31685
X26685Y-33685
X26685Y-37685
X27185Y-18725
X27295Y-26875
X27300Y-26085
X27435Y-24515
X27435Y-27685
X27435Y-39685
X27675Y-34585
X27685Y-20685
X27685Y-22685
X27685Y-31045
X27685Y-32685
X27685Y-36685
X27685Y-38685
X28185Y-18685
X28400Y-27500
X28435Y-39685
X28685Y-21685
X28685Y-23685
X28685Y-25485
X28685Y-31685
X28685Y-35685
X28685Y-37685
X28785Y-33685
X29185Y-18645
X29225Y-29865
X29435Y-39735
X29675Y-31035
X29685Y-22585
X29685Y-32685
X29685Y-36685
X29785Y-34675
X30185Y-18625
X30435Y-39735
X30685Y-23685
X30685Y-31685
X30685Y-35785
X30815Y-33685
X31185Y-18605
X31405Y-39785
X31685Y-32685
X31685Y-34685
X32085Y-22185
X32185Y-18585
X32335Y-39835
X32685Y-35685
X33185Y-18565
X33245Y-39835
X33585Y-24845
X33685Y-34685
X34145Y-39585
X34185Y-18885
X34485Y-26685
X34685Y-20685
X34685Y-35685
X34935Y-29785
X35085Y-39435
X35165Y-19105
X35385Y-34085
X35685Y-22685
X35685Y-28785
X36005Y-35785
X36125Y-39435
X36165Y-19105
X36435Y-25935
X36485Y-35225
X36685Y-20885
X36685Y-24185
X36685Y-24685
X36965Y-34685
X37165Y-19105
X37185Y-39435
X37445Y-34145
X37585Y-37185
X37605Y-29785
X37685Y-22685
X37685Y-26185
X37685Y-27435
X37935Y-33585
X38165Y-19105
X38185Y-39435
X38585Y-36385
X38685Y-20685
X38685Y-24685
X39085Y-34685
X39165Y-19105
X39185Y-39435
X39285Y-32965
X39585Y-34135
X39685Y-22685
X39685Y-26685
X39735Y-33585
X40085Y-35235
X40165Y-19105
X40185Y-34185
X40185Y-35785
X40185Y-39435
X40685Y-20685
X40685Y-24685
X40705Y-37185
X40885Y-32385
X41165Y-19105
X41185Y-28385
X41185Y-39435
X41685Y-22685
X41685Y-26485
X41685Y-35685
X42185Y-18935
X42185Y-28385
X42185Y-39585
X42685Y-20685
X42685Y-24685
X42685Y-34685
X43185Y-18565
X43185Y-39845
X43685Y-22685
X43685Y-26485
X43685Y-33685
X43685Y-35685
X44185Y-18585
X44185Y-29685
X44185Y-39825
X44685Y-20685
X44685Y-24685
X44685Y-27685
X44685Y-34685
X44685Y-37685
X45185Y-18605
X45185Y-37285
X45185Y-39805
X45685Y-22685
X45685Y-26485
X46185Y-18625
X46185Y-29685
X46185Y-35785
X46205Y-39765
X46685Y-20685
X46685Y-24685
X46685Y-27685
X46785Y-31585
X47185Y-18645
X47185Y-39745
X47685Y-22685
X47685Y-26485
X47685Y-31985
X47685Y-33685
X47685Y-35435
X48185Y-18685
X48185Y-29685
X48185Y-32535
X48185Y-39725
X48685Y-20685
X48685Y-24685
X48685Y-27685
X48685Y-33085
X48685Y-34585
X48685Y-37685
X48785Y-31585
X49185Y-18685
X49185Y-39725
X49685Y-22685
X49685Y-26485
X49685Y-33685
X49685Y-35435
X50185Y-18725
X50185Y-39725
X50685Y-20685
X50685Y-24685
X50685Y-32685
X50685Y-34585
X50685Y-37685
X51165Y-39685
X51185Y-18765
X51685Y-22685
X51685Y-26185
X51685Y-27685
X51685Y-33685
X51685Y-35435
X52185Y-18785
X52185Y-39665
X52685Y-20885
X52685Y-31685
X52685Y-32685
X52685Y-34685
X52785Y-35885
X53185Y-18825
X53185Y-39645
X53435Y-26185
X53685Y-22685
X53685Y-31185
X53685Y-32185
X53685Y-33185
X53685Y-34185
X53685Y-35185
X53685Y-36185
X53685Y-37185
X54185Y-18865
X54185Y-19905
X54185Y-38185
X54185Y-39625
X55185Y-18905
X55185Y-39585
X55435Y-38435
X55585Y-39085
X56185Y-18945
X56685Y-28485
X56685Y-29385
X56805Y-27505
X57465Y-20185
X57465Y-21185
X57465Y-22185
X57465Y-23185
X57465Y-24185
X57465Y-25285
X57465Y-26685
T2
X19445Y-28545
X19445Y-30514
X19455Y-25277
X19455Y-27245
X19685Y-34185
X20717Y-31185
X22685Y-31185
X22685Y-34185
X23685Y-30685
X26685Y-30685
X27685Y-35185
X28201Y-33685
X29217Y-21185
X29685Y-23185
X29685Y-24685
X29685Y-26185
X29685Y-27685
X30169Y-33685
X30685Y-35185
X31185Y-21185
X32185Y-35185
X32201Y-21185
X32685Y-23185
X32685Y-24685
X32685Y-26185
X32685Y-27685
X32701Y-33685
X33665Y-36427
X33665Y-38395
X34041Y-23185
X34169Y-21185
X34669Y-33685
X35025Y-23185
X35165Y-36427
X35165Y-38395
X35169Y-25185
X35169Y-27154
X35185Y-35185
X36685Y-28885
X36686Y-38884
X37685Y-28885
X37686Y-38884
X38685Y-28885
X38685Y-38885
X39685Y-28885
X39685Y-38885
X40685Y-28885
X40685Y-38885
X41685Y-28885
X41685Y-38885
X42685Y-28885
X42685Y-38885
X43685Y-28885
X43685Y-38885
X44685Y-28885
X44685Y-38885
X45685Y-28885
X45685Y-38885
X46685Y-28885
X46685Y-38885
X47685Y-28885
X47685Y-38885
X48685Y-28885
X48685Y-38885
X49535Y-30345
X49685Y-28885
X49685Y-38885
X50685Y-28885
X50685Y-38885
X51685Y-28885
X51685Y-38885
X52535Y-30345
X52685Y-28885
X52685Y-38885
X53685Y-28885
X53685Y-38885
X54185Y-21531
X54185Y-23500
X54185Y-25017
X54185Y-26985
X54685Y-28885
X54685Y-38885
X55445Y-27885
X55445Y-29085
X57414Y-27885
X57414Y-29085
T3
X19685Y-32685
X19685Y-35685
X22685Y-32685
X22685Y-35685
X55945Y-26000
X56945Y-26000
T4
X23685Y-38392
X24669Y-38392
X25654Y-38392
X28685Y-38392
X29669Y-38392
X30654Y-38392
X31638Y-38392
T5
X25185Y-19685
X26185Y-19685
X27185Y-19685
X28185Y-19685
X29185Y-19685
X30185Y-19685
X31185Y-19685
X32185Y-19685
X36685Y-19985
X36685Y-26985
X52685Y-19985
X52685Y-26985
X56425Y-22485
X56425Y-23469
T0
M30
