G04 #@! TF.GenerationSoftware,KiCad,Pcbnew,7.0.9*
G04 #@! TF.CreationDate,2023-12-29T13:55:22-03:00*
G04 #@! TF.ProjectId,UECU,55454355-2e6b-4696-9361-645f70636258,v2.4*
G04 #@! TF.SameCoordinates,Original*
G04 #@! TF.FileFunction,Soldermask,Top*
G04 #@! TF.FilePolarity,Negative*
%FSLAX46Y46*%
G04 Gerber Fmt 4.6, Leading zero omitted, Abs format (unit mm)*
G04 Created by KiCad (PCBNEW 7.0.9) date 2023-12-29 13:55:22*
%MOMM*%
%LPD*%
G01*
G04 APERTURE LIST*
G04 Aperture macros list*
%AMRoundRect*
0 Rectangle with rounded corners*
0 $1 Rounding radius*
0 $2 $3 $4 $5 $6 $7 $8 $9 X,Y pos of 4 corners*
0 Add a 4 corners polygon primitive as box body*
4,1,4,$2,$3,$4,$5,$6,$7,$8,$9,$2,$3,0*
0 Add four circle primitives for the rounded corners*
1,1,$1+$1,$2,$3*
1,1,$1+$1,$4,$5*
1,1,$1+$1,$6,$7*
1,1,$1+$1,$8,$9*
0 Add four rect primitives between the rounded corners*
20,1,$1+$1,$2,$3,$4,$5,0*
20,1,$1+$1,$4,$5,$6,$7,0*
20,1,$1+$1,$6,$7,$8,$9,0*
20,1,$1+$1,$8,$9,$2,$3,0*%
G04 Aperture macros list end*
%ADD10C,1.500000*%
%ADD11C,1.600000*%
%ADD12O,1.600000X1.600000*%
%ADD13RoundRect,0.250000X0.600000X0.725000X-0.600000X0.725000X-0.600000X-0.725000X0.600000X-0.725000X0*%
%ADD14O,1.700000X1.950000*%
%ADD15RoundRect,0.102000X0.975000X0.525000X-0.975000X0.525000X-0.975000X-0.525000X0.975000X-0.525000X0*%
%ADD16RoundRect,0.102000X-0.975000X-0.525000X0.975000X-0.525000X0.975000X0.525000X-0.975000X0.525000X0*%
%ADD17C,2.500000*%
%ADD18R,1.800000X1.800000*%
%ADD19O,1.800000X1.800000*%
%ADD20R,1.600000X1.600000*%
%ADD21R,2.540000X2.540000*%
%ADD22C,2.540000*%
%ADD23O,2.000000X1.700000*%
%ADD24RoundRect,0.250000X-0.750000X0.600000X-0.750000X-0.600000X0.750000X-0.600000X0.750000X0.600000X0*%
%ADD25C,1.800000*%
%ADD26R,1.700000X1.700000*%
%ADD27O,1.700000X1.700000*%
%ADD28R,1.200000X2.000000*%
%ADD29O,1.200000X2.000000*%
G04 #@! TA.AperFunction,Profile*
%ADD30C,0.100000*%
G04 #@! TD*
G04 APERTURE END LIST*
D10*
X89573200Y-71437600D03*
D11*
X75400000Y-62700000D03*
D12*
X83020000Y-62700000D03*
D11*
X125819000Y-77076400D03*
D12*
X133439000Y-77076400D03*
D13*
X80360000Y-97515000D03*
D14*
X77860000Y-97515000D03*
X75360000Y-97515000D03*
X72860000Y-97515000D03*
D11*
X83020000Y-70320000D03*
D12*
X75400000Y-70320000D03*
D15*
X67340000Y-72240000D03*
X67340000Y-70240000D03*
X67340000Y-68240000D03*
X67340000Y-66240000D03*
X67340000Y-64240000D03*
X67340000Y-62240000D03*
X67340000Y-60240000D03*
X67340000Y-58240000D03*
D16*
X52540000Y-58240000D03*
X52540000Y-60240000D03*
X52540000Y-62240000D03*
X52540000Y-64240000D03*
X52540000Y-66240000D03*
X52540000Y-68240000D03*
X52540000Y-70240000D03*
X52540000Y-72240000D03*
D11*
X50000000Y-86830000D03*
D12*
X57620000Y-86830000D03*
D11*
X137630000Y-59690000D03*
X137630000Y-54690000D03*
D17*
X50000000Y-50000000D03*
D11*
X81750000Y-89370000D03*
D12*
X89370000Y-89370000D03*
D11*
X89319200Y-97523400D03*
X89319200Y-92523400D03*
D18*
X57620000Y-83020000D03*
D19*
X50000000Y-83020000D03*
D20*
X71590000Y-81750000D03*
D12*
X74130000Y-81750000D03*
X76670000Y-81750000D03*
X76670000Y-74130000D03*
X74130000Y-74130000D03*
X71590000Y-74130000D03*
D20*
X83035000Y-81740000D03*
D12*
X85575000Y-81740000D03*
X88115000Y-81740000D03*
X88115000Y-74120000D03*
X85575000Y-74120000D03*
X83035000Y-74120000D03*
D10*
X69100800Y-81699200D03*
D20*
X88963600Y-58890000D03*
D11*
X86463600Y-58890000D03*
D10*
X62700000Y-92875200D03*
X139916000Y-52641600D03*
X72758400Y-62395200D03*
D11*
X81790000Y-53810000D03*
X86790000Y-53810000D03*
D21*
X133820000Y-68542000D03*
D22*
X133820000Y-50762000D03*
X93180000Y-50762000D03*
X93180000Y-68542000D03*
D11*
X83020000Y-58890000D03*
D12*
X75400000Y-58890000D03*
D23*
X143319600Y-59612000D03*
D24*
X143319600Y-57112000D03*
D11*
X79210000Y-53810000D03*
X74210000Y-53810000D03*
D20*
X61445000Y-89360000D03*
D12*
X63985000Y-89360000D03*
X66525000Y-89360000D03*
X66525000Y-81740000D03*
X63985000Y-81740000D03*
X61445000Y-81740000D03*
D17*
X143980000Y-50000000D03*
D13*
X65160000Y-97515000D03*
D14*
X62660000Y-97515000D03*
X60160000Y-97515000D03*
D11*
X49415800Y-69202400D03*
X49415800Y-64202400D03*
X137630000Y-68542000D03*
X137630000Y-63542000D03*
D10*
X68034000Y-92875200D03*
X77686000Y-72098000D03*
D11*
X70320000Y-89370000D03*
D12*
X77940000Y-89370000D03*
D18*
X144640400Y-66040000D03*
D25*
X142100400Y-66040000D03*
D11*
X140830400Y-70828000D03*
X145830400Y-70828000D03*
X57620000Y-79210000D03*
X52620000Y-79210000D03*
X67780000Y-77940000D03*
D12*
X60160000Y-77940000D03*
D26*
X81750000Y-50000000D03*
D27*
X79210000Y-50000000D03*
X76670000Y-50000000D03*
X74130000Y-50000000D03*
X71590000Y-50000000D03*
X69050000Y-50000000D03*
X66510000Y-50000000D03*
X63970000Y-50000000D03*
D17*
X143980000Y-98260000D03*
D28*
X138900000Y-73368000D03*
D29*
X136360000Y-73368000D03*
X133820000Y-73368000D03*
X131280000Y-73368000D03*
X128740000Y-73368000D03*
X126200000Y-73368000D03*
X123660000Y-73368000D03*
X121120000Y-73368000D03*
X118580000Y-73368000D03*
X116040000Y-73368000D03*
X113500000Y-73368000D03*
X110960000Y-73368000D03*
X108420000Y-73368000D03*
X105880000Y-73368000D03*
X103340000Y-73368000D03*
X100800000Y-73368000D03*
X98260000Y-73368000D03*
X95720000Y-73368000D03*
X93180000Y-73368000D03*
X93182720Y-98764320D03*
X95722720Y-98764320D03*
X98260000Y-98768000D03*
X100800000Y-98768000D03*
X103340000Y-98768000D03*
X105880000Y-98768000D03*
X108420000Y-98768000D03*
X110960000Y-98768000D03*
X113500000Y-98768000D03*
X116040000Y-98768000D03*
X118580000Y-98768000D03*
X121120000Y-98768000D03*
X123660000Y-98768000D03*
X126200000Y-98768000D03*
X128740000Y-98768000D03*
X131280000Y-98768000D03*
X133820000Y-98768000D03*
X136360000Y-98768000D03*
X138900000Y-98768000D03*
D17*
X50000000Y-98260000D03*
D18*
X50000000Y-90640000D03*
D19*
X57620000Y-90640000D03*
D11*
X83060000Y-85560000D03*
X88060000Y-85560000D03*
X89330000Y-63970000D03*
X89330000Y-68970000D03*
D10*
X86322000Y-65494000D03*
D11*
X71630000Y-85560000D03*
X76630000Y-85560000D03*
X140830400Y-73876000D03*
X145830400Y-73876000D03*
X75400000Y-66510000D03*
D12*
X83020000Y-66510000D03*
D10*
X57772400Y-92875200D03*
D11*
X85509200Y-97523400D03*
X85509200Y-92523400D03*
X49390400Y-72504400D03*
X49390400Y-77504400D03*
D30*
X88100000Y-47460000D02*
X85560000Y-46190000D01*
X146864774Y-50000000D02*
G75*
G03*
X143980000Y-47115226I-2884774J0D01*
G01*
X105880000Y-47460000D02*
X108420000Y-46190000D01*
X105880000Y-100800000D02*
X108420000Y-102070000D01*
X47141831Y-98260000D02*
X47133390Y-50000000D01*
X88100000Y-47460000D02*
X105880000Y-47460000D01*
X146864774Y-50000000D02*
X146907951Y-98260000D01*
X85560000Y-102070000D02*
X50000000Y-101118169D01*
X88100000Y-100800000D02*
X105880000Y-100800000D01*
X50000000Y-47133390D02*
G75*
G03*
X47133390Y-50000000I0J-2866610D01*
G01*
X143980000Y-101187951D02*
X108420000Y-102070000D01*
X143980000Y-101187951D02*
G75*
G03*
X146907951Y-98260000I0J2927951D01*
G01*
X143980000Y-47115226D02*
X108420000Y-46190000D01*
X47141831Y-98260000D02*
G75*
G03*
X50000000Y-101118169I2858169J0D01*
G01*
X85560000Y-46190000D02*
X50000000Y-47133390D01*
X88100000Y-100800000D02*
X85560000Y-102070000D01*
M02*
